ply
format ascii 1.0
comment created by PolyEditor
comment modified by learnply
comment modified by learnply
element vertex 441
property float64 x
property float64 y
property float64 z
property float64 vx
property float64 vy
property float64 vz
property float64 s
element face 400
property list uint8 int32 vertex_indices
end_header
10 10 0 200 0 0 38726.9 
9 10 0 181 -19 0 32047.6 
8 10 0 164 -36 0 26593.3 
7 10 0 149 -51 0 22180.4 
6 10 0 136 -64 0 18641 
5 10 0 125 -75 0 15822.9 
4 10 0 116 -84 0 13589.5 
3 10 0 109 -91 0 11819.8 
2 10 0 104 -96 0 10408.6 
1 10 0 101 -99 0 9266.12 
0 10 0 100 -100 0 8318.44 
-1 10 0 101 -99 0 7507.17 
-2 10 0 104 -96 0 6789.62 
-3 10 0 109 -91 0 6138.71 
-4 10 0 116 -84 0 5543.03 
-5 10 0 125 -75 0 5006.82 
-6 10 0 136 -64 0 4549.96 
-7 10 0 149 -51 0 4207.98 
-8 10 0 164 -36 0 4032.06 
-9 10 0 181 -19 0 4089.02 
-10 10 0 200 0 0 4461.34 
10 9 0 181 19 0 31576.1 
9 9 0 162 0 0 25584.3 
8 9 0 145 -17 0 20748.2 
7 9 0 130 -32 0 16889.4 
6 9 0 117 -45 0 13844.8 
5 9 0 106 -56 0 11467.3 
4 9 0 97 -65 0 9625.31 
3 9 0 90 -72 0 8202.76 
2 9 0 85 -77 0 7099.4 
1 9 0 82 -80 0 6230.56 
0 9 0 81 -81 0 5527.24 
-1 9 0 82 -80 0 4936.06 
-2 9 0 85 -77 0 4419.31 
-3 9 0 90 -72 0 3954.92 
-4 9 0 97 -65 0 3536.47 
-5 9 0 106 -56 0 3173.18 
-6 9 0 117 -45 0 2889.94 
-7 9 0 130 -32 0 2727.25 
-8 9 0 145 -17 0 2741.3 
-9 9 0 162 0 0 3003.89 
-10 9 0 181 19 0 3602.51 
10 8 0 164 36 0 25766.9 
9 8 0 145 17 0 20394.5 
8 8 0 128 0 0 16111.1 
7 8 0 113 -15 0 12743.1 
6 8 0 100 -28 0 10132.6 
5 8 0 89 -39 0 8137.4 
4 8 0 80 -48 0 6630.77 
3 8 0 73 -55 0 5501.8 
2 8 0 68 -60 0 4655.18 
1 8 0 65 -63 0 4011.23 
0 8 0 64 -64 0 3505.94 
-1 8 0 65 -63 0 3090.92 
-2 8 0 68 -60 0 2733.46 
-3 8 0 73 -55 0 2416.48 
-4 8 0 80 -48 0 2138.55 
-5 8 0 89 -39 0 1913.89 
-6 8 0 100 -28 0 1772.37 
-7 8 0 113 -15 0 1759.5 
-8 8 0 128 0 0 1936.43 
-9 8 0 145 17 0 2380 
-10 8 0 164 36 0 3182.64 
10 7 0 149 51 0 21093.4 
9 7 0 130 32 0 16277.4 
8 7 0 113 15 0 12486 
7 7 0 98 0 0 9550.65 
6 7 0 85 -13 0 7318.35 
5 7 0 74 -24 0 5651.88 
4 7 0 65 -33 0 4429.61 
3 7 0 58 -40 0 3545.57 
2 7 0 53 -45 0 2909.44 
1 7 0 50 -48 0 2446.54 
0 7 0 49 -49 0 2097.84 
-1 7 0 50 -48 0 1819.96 
-2 7 0 53 -45 0 1585.18 
-3 7 0 58 -40 0 1381.39 
-4 7 0 65 -33 0 1212.18 
-5 7 0 74 -24 0 1096.75 
-6 7 0 85 -13 0 1069.95 
-7 7 0 98 0 0 1182.31 
-8 7 0 113 15 0 1499.96 
-9 7 0 130 32 0 2104.71 
-10 7 0 149 51 0 3094.03 
10 6 0 136 64 0 17368 
9 6 0 117 45 0 13050.2 
8 6 0 100 28 0 9695 
7 6 0 85 13 0 7138.82 
6 6 0 72 0 0 5233.74 
5 6 0 61 -11 0 3847.47 
4 6 0 52 -20 0 2863.39 
3 6 0 45 -27 0 2180.53 
2 6 0 40 -32 0 1713.54 
1 6 0 37 -35 0 1392.75 
0 6 0 36 -36 0 1164.11 
-1 6 0 37 -35 0 989.249 
-2 6 0 40 -32 0 845.414 
-3 6 0 45 -27 0 725.516 
-4 6 0 52 -20 0 638.112 
-5 6 0 61 -11 0 607.404 
-6 6 0 72 0 0 673.245 
-7 6 0 85 13 0 891.133 
-8 6 0 100 28 0 1332.22 
-9 6 0 117 45 0 2083.29 
-10 6 0 136 64 0 3246.8 
10 5 0 125 75 0 14420.6 
9 5 0 106 56 0 10547.7 
8 5 0 89 39 0 7577.84 
7 5 0 74 24 0 5352.4 
6 5 0 61 11 0 3728.45 
5 5 0 50 0 0 2578.72 
4 5 0 41 -9 0 1791.58 
3 5 0 34 -16 0 1271.03 
2 5 0 29 -21 0 936.739 
1 5 0 26 -24 0 724.01 
0 5 0 25 -25 0 583.802 
-1 5 0 26 -24 0 482.717 
-2 5 0 29 -21 0 403.009 
-3 5 0 34 -16 0 342.578 
-4 5 0 41 -9 0 314.971 
-5 5 0 50 0 0 349.385 
-6 5 0 61 11 0 490.663 
-7 5 0 74 24 0 799.298 
-8 5 0 89 39 0 1351.43 
-9 5 0 106 56 0 2238.84 
-10 5 0 125 75 0 3568.98 
10 4 0 116 84 0 12099.3 
9 4 0 97 65 0 8622.85 
8 4 0 80 48 0 5992.3 
7 4 0 65 33 0 4054 
6 4 0 52 20 0 2670.01 
5 4 0 41 9 0 1718.05 
4 4 0 32 0 0 1091.48 
3 4 0 25 -7 0 699.285 
2 4 0 20 -12 0 466.134 
1 4 0 17 -15 0 332.322 
0 4 0 16 -16 0 253.8 
-1 4 0 17 -15 0 202.163 
-2 4 0 20 -12 0 164.656 
-3 4 0 25 -7 0 144.171 
-4 4 0 32 0 0 159.249 
-5 4 0 41 9 0 244.078 
-6 4 0 52 20 0 448.494 
-7 4 0 65 33 0 837.981 
-8 4 0 80 48 0 1493.67 
-9 4 0 97 65 0 2512.35 
-10 4 0 116 84 0 4006.43 
10 3 0 109 91 0 10269.7 
9 3 0 90 72 0 7146.28 
8 3 0 73 55 0 4813.95 
7 3 0 58 40 0 3124.11 
6 3 0 45 27 0 1943.8 
5 3 0 34 16 0 1155.73 
4 3 0 25 7 0 658.253 
3 3 0 18 0 0 365.358 
2 3 0 13 -5 0 206.693 
1 3 0 10 -8 0 127.552 
0 3 0 9 -9 0 88.8739 
-1 3 0 10 -8 0 67.2491 
-2 3 0 13 -5 0 54.914 
-3 3 0 18 0 0 59.7534 
-4 3 0 25 7 0 105.3 
-5 3 0 34 16 0 230.734 
-6 3 0 45 27 0 490.885 
-7 3 0 58 40 0 956.229 
-8 3 0 73 55 0 1712.89 
-9 3 0 90 72 0 2862.64 
-10 3 0 109 91 0 4522.9 
10 2 0 104 96 0 8815.56 
9 2 0 85 77 0 6006.54 
8 2 0 68 60 0 3936.25 
7 2 0 53 45 0 2461.07 
6 2 0 40 32 0 1453.06 
5 2 0 29 21 0 799.904 
4 2 0 20 12 0 404.951 
3 2 0 13 5 0 187.188 
2 2 0 8 0 0 81.252 
1 2 0 5 -3 0 37.4287 
0 2 0 4 -4 0 21.6511 
-1 2 0 5 -3 0 15.5006 
-2 2 0 8 0 0 16.2062 
-3 2 0 13 5 0 36.6451 
-4 2 0 20 12 0 105.342 
-5 2 0 29 21 0 266.471 
-6 2 0 40 32 0 579.851 
-7 2 0 53 45 0 1120.95 
-8 2 0 68 60 0 1980.89 
-9 2 0 85 77 0 3266.44 
-10 2 0 104 96 0 5099.99 
10 1 0 101 99 0 7638.4 
9 1 0 82 80 0 5110.06 
8 1 0 65 63 0 3270.5 
7 1 0 50 48 0 1981.09 
6 1 0 37 35 0 1118.89 
5 1 0 26 24 0 576.572 
4 1 0 17 15 0 262.473 
3 1 0 10 8 0 100.575 
2 1 0 5 3 0 30.5078 
1 1 0 2 0 0 7.54927 
0 1 0 1 -1 0 2.62484 
-1 1 0 2 0 0 2.30808 
-2 1 0 5 3 0 8.82052 
-3 1 0 10 8 0 40.0316 
-4 1 0 17 15 0 129.459 
-5 1 0 26 24 0 326.267 
-6 1 0 37 35 0 695.27 
-7 1 0 50 48 0 1316.93 
-8 1 0 65 63 0 2287.35 
-9 1 0 82 80 0 3718.3 
-10 1 0 101 99 0 5737.17 
10 0 0 100 100 0 6657.58 
9 0 0 81 81 0 4381.12 
8 0 0 64 64 0 2745.88 
7 0 0 49 49 0 1618.26 
6 0 0 36 36 0 880.272 
5 0 0 25 25 0 429.607 
4 0 0 16 16 0 179.586 
3 0 0 9 9 0 59.1837 
2 0 0 4 4 0 13.0228 
1 0 0 1 1 0 1.37291 
0 0 0 0 0 0 0.152074 
-1 0 0 1 1 0 0.926176 
-2 0 0 4 4 0 10.9091 
-3 0 0 9 9 0 52.9625 
-4 0 0 16 16 0 165.596 
-5 0 0 25 25 0 402.968 
-6 0 0 36 36 0 834.883 
-7 0 0 49 49 0 1546.8 
-8 0 0 64 64 0 2639.81 
-9 0 0 81 81 0 4230.66 
-10 0 0 100 100 0 6451.77 
10 -1 0 101 99 0 5810.35 
9 -1 0 82 80 0 3761.85 
8 -1 0 65 63 0 2309.44 
7 -1 0 50 48 0 1324.5 
6 -1 0 37 35 0 694.04 
5 -1 0 26 24 0 320.742 
4 -1 0 17 15 0 122.921 
3 -1 0 10 8 0 34.5433 
2 -1 0 5 3 0 5.2233 
1 -1 0 2 0 0 0.223548 
0 -1 0 1 -1 0 0.454298 
-1 -1 0 2 0 0 2.4738 
-2 -1 0 5 3 0 18.4882 
-3 -1 0 10 8 0 76.3517 
-4 -1 0 17 15 0 219.566 
-5 -1 0 26 24 0 507.282 
-6 -1 0 37 35 0 1014.3 
-7 -1 0 50 48 0 1831.06 
-8 -1 0 65 63 0 3063.65 
-9 -1 0 82 80 0 4833.83 
-10 -1 0 101 99 0 7278.98 
10 -2 0 104 96 0 5051.82 
9 -2 0 85 77 0 3212.27 
8 -2 0 68 60 0 1926.08 
7 -2 0 53 45 0 1069.62 
6 -2 0 40 32 0 534.895 
5 -2 0 29 21 0 229.577 
4 -2 0 20 12 0 76.9747 
3 -2 0 13 5 0 16.0469 
2 -2 0 8 0 0 1.40022 
1 -2 0 5 -3 0 3.28947 
0 -2 0 4 -4 0 7.61727 
-1 -2 0 5 -3 0 15.9342 
-2 -2 0 8 0 0 45.4388 
-3 -2 0 13 5 0 128.978 
-4 -2 0 20 12 0 315.045 
-5 -2 0 29 21 0 667.783 
-6 -2 0 40 32 0 1266.98 
-7 -2 0 53 45 0 2208.08 
-8 -2 0 68 60 0 3602.16 
-9 -2 0 85 77 0 5575.97 
-10 -2 0 104 96 0 8271.87 
10 -3 0 109 91 0 4354.97 
9 -3 0 90 72 0 2710.26 
8 -3 0 73 55 0 1578.57 
7 -3 0 58 40 0 841.286 
6 -3 0 45 27 0 395.401 
5 -3 0 34 16 0 153.574 
4 -3 0 25 7 0 44.1068 
3 -3 0 18 0 0 10.9521 
2 -3 0 13 -5 0 13.7086 
1 -3 0 10 -8 0 27.6232 
0 -3 0 9 -9 0 43.5911 
-1 -3 0 10 -8 0 68.1549 
-2 -3 0 13 -5 0 123.506 
-3 -3 0 18 0 0 247.482 
-4 -3 0 25 7 0 493.571 
-5 -3 0 34 16 0 930.908 
-6 -3 0 45 27 0 1644.27 
-7 -3 0 58 40 0 2734.1 
-8 -3 0 73 55 0 4316.47 
-9 -3 0 90 72 0 6523.1 
-10 -3 0 109 91 0 9501.37 
10 -4 0 116 84 0 3710.64 
9 -4 0 97 65 0 2251.54 
8 -4 0 80 48 0 1267.55 
7 -4 0 65 33 0 645.035 
6 -4 0 52 20 0 285.988 
5 -4 0 41 9 0 108.059 
4 -4 0 32 0 0 44.5417 
3 -4 0 25 -7 0 44.381 
2 -4 0 20 -12 0 72.1679 
1 -4 0 17 -15 0 108.142 
0 -4 0 16 -16 0 148.19 
-1 -4 0 17 -15 0 203.848 
-2 -4 0 20 -12 0 302.299 
-3 -4 0 25 -7 0 486.373 
-4 -4 0 32 0 0 814.551 
-5 -4 0 41 9 0 1360.96 
-6 -4 0 52 20 0 2215.37 
-7 -4 0 65 33 0 3483.21 
-8 -4 0 80 48 0 5285.55 
-9 -4 0 97 65 0 7759.11 
-10 -4 0 116 84 0 11056.2 
10 -5 0 125 75 0 3127.53 
9 -5 0 106 56 0 1849.72 
8 -5 0 89 39 0 1011.51 
7 -5 0 74 24 0 504.26 
6 -5 0 61 11 0 234.95 
5 -5 0 50 0 0 126.224 
4 -5 0 41 -9 0 116.368 
3 -5 0 34 -16 0 159.32 
2 -5 0 29 -21 0 224.662 
1 -5 0 26 -24 0 297.626 
0 -5 0 25 -25 0 379.093 
-1 -5 0 26 -24 0 485.589 
-2 -5 0 29 -21 0 649.291 
-3 -5 0 34 -16 0 918.021 
-4 -5 0 41 -9 0 1355.25 
-5 -5 0 50 0 0 2040.1 
-6 -5 0 61 11 0 3067.34 
-7 -5 0 74 24 0 4547.38 
-8 -5 0 89 39 0 6606.28 
-9 -5 0 106 56 0 9385.76 
-10 -5 0 125 75 0 13043.2 
10 -6 0 136 64 0 2632.2 
9 -6 0 117 45 0 1536.26 
8 -6 0 100 28 0 846.822 
7 -6 0 85 13 0 460.222 
6 -6 0 72 0 0 288.445 
5 -6 0 61 -11 0 259.124 
4 -6 0 52 -20 0 315.539 
3 -6 0 45 -27 0 416.619 
2 -6 0 40 -32 0 536.938 
1 -6 0 37 -35 0 666.722 
0 -6 0 36 -36 0 811.843 
-1 -6 0 37 -35 0 993.82 
-2 -6 0 40 -32 0 1249.82 
-3 -6 0 45 -27 0 1632.66 
-4 -6 0 52 -20 0 2210.81 
-5 -6 0 61 -11 0 3068.37 
-6 -6 0 72 0 0 4305.1 
-7 -6 0 85 13 0 6036.42 
-8 -6 0 100 28 0 8393.38 
-9 -6 0 117 45 0 11522.7 
-10 -6 0 136 64 0 15586.7 
10 -7 0 149 51 0 2269.1 
9 -7 0 130 32 0 1360.5 
8 -7 0 113 15 0 827.706 
7 -7 0 98 0 0 572.046 
6 -7 0 85 -13 0 510.495 
5 -7 0 74 -24 0 575.68 
4 -7 0 65 -33 0 715.873 
3 -7 0 58 -40 0 894.993 
2 -7 0 53 -45 0 1092.61 
1 -7 0 50 -48 0 1303.94 
0 -7 0 49 -49 0 1539.85 
-1 -7 0 50 -48 0 1826.84 
-2 -7 0 53 -45 0 2207.09 
-3 -7 0 58 -40 0 2738.39 
-4 -7 0 65 -33 0 3494.21 
-5 -7 0 74 -24 0 4563.65 
-6 -7 0 85 -13 0 6051.46 
-7 -7 0 98 0 0 8078.03 
-8 -7 0 113 15 0 10779.4 
-9 -7 0 130 32 0 14307.3 
-10 -7 0 149 51 0 18829.1 
10 -8 0 164 36 0 2100.51 
9 -8 0 145 17 0 1389.63 
8 -8 0 128 0 0 1026.26 
7 -8 0 113 -15 0 916.72 
6 -8 0 100 -28 0 982.988 
5 -8 0 89 -39 0 1162.68 
4 -8 0 80 -48 0 1409.05 
3 -8 0 73 -55 0 1691.02 
2 -8 0 68 -60 0 1993.15 
1 -8 0 65 -63 0 2315.65 
0 -8 0 64 -64 0 2674.38 
-1 -8 0 65 -63 0 3100.83 
-2 -8 0 68 -60 0 3642.17 
-3 -8 0 73 -55 0 4361.18 
-4 -8 0 80 -48 0 5336.33 
-5 -8 0 89 -39 0 6661.71 
-6 -8 0 100 -28 0 8447.06 
-7 -8 0 113 -15 0 10817.8 
-8 -8 0 128 0 0 13914.9 
-9 -8 0 145 17 0 17895.1 
-10 -8 0 164 36 0 22930.7 
10 -9 0 181 19 0 2206.6 
9 -9 0 162 0 0 1708.7 
8 -9 0 145 -17 0 1532.43 
7 -9 0 130 -32 0 1589.1 
6 -9 0 117 -45 0 1805.67 
5 -9 0 106 -56 0 2124.76 
4 -9 0 97 -65 0 2504.62 
3 -9 0 90 -72 0 2919.15 
2 -9 0 85 -77 0 3357.91 
1 -9 0 82 -80 0 3826.1 
0 -9 0 81 -81 0 4344.57 
-1 -9 0 82 -80 0 4949.81 
-2 -9 0 85 -77 0 5693.98 
-3 -9 0 90 -72 0 6644.86 
-4 -9 0 97 -65 0 7885.89 
-5 -9 0 106 -56 0 9516.17 
-6 -9 0 117 -45 0 11650.4 
-7 -9 0 130 -32 0 14419 
-8 -9 0 145 -17 0 17968.1 
-9 -9 0 162 0 0 22459.2 
-10 -9 0 181 19 0 28069.7 
10 -10 0 200 0 0 2685.4 
9 -10 0 181 -19 0 2420.65 
8 -10 0 164 -36 0 2454.05 
7 -10 0 149 -51 0 2701.9 
6 -10 0 136 -64 0 3096.17 
5 -10 0 125 -75 0 3584.44 
4 -10 0 116 -84 0 4129.98 
3 -10 0 109 -91 0 4711.68 
2 -10 0 104 -96 0 5324.08 
1 -10 0 101 -99 0 5977.38 
0 -10 0 100 -100 0 6697.42 
-1 -10 0 101 -99 0 7525.69 
-2 -10 0 104 -96 0 8519.32 
-3 -10 0 109 -91 0 9751.11 
-4 -10 0 116 -84 0 11309.5 
-5 -10 0 125 -75 0 13298.5 
-6 -10 0 136 -64 0 15837.9 
-7 -10 0 149 -51 0 19063.1 
-8 -10 0 164 -36 0 23125.1 
-9 -10 0 181 -19 0 28190.6 
-10 -10 0 200 0 0 34441.9 
4 0 1 22 21 
4 1 2 23 22 
4 2 3 24 23 
4 3 4 25 24 
4 4 5 26 25 
4 5 6 27 26 
4 6 7 28 27 
4 7 8 29 28 
4 8 9 30 29 
4 9 10 31 30 
4 10 11 32 31 
4 11 12 33 32 
4 12 13 34 33 
4 13 14 35 34 
4 14 15 36 35 
4 15 16 37 36 
4 16 17 38 37 
4 17 18 39 38 
4 18 19 40 39 
4 19 20 41 40 
4 21 22 43 42 
4 22 23 44 43 
4 23 24 45 44 
4 24 25 46 45 
4 25 26 47 46 
4 26 27 48 47 
4 27 28 49 48 
4 28 29 50 49 
4 29 30 51 50 
4 30 31 52 51 
4 31 32 53 52 
4 32 33 54 53 
4 33 34 55 54 
4 34 35 56 55 
4 35 36 57 56 
4 36 37 58 57 
4 37 38 59 58 
4 38 39 60 59 
4 39 40 61 60 
4 40 41 62 61 
4 42 43 64 63 
4 43 44 65 64 
4 44 45 66 65 
4 45 46 67 66 
4 46 47 68 67 
4 47 48 69 68 
4 48 49 70 69 
4 49 50 71 70 
4 50 51 72 71 
4 51 52 73 72 
4 52 53 74 73 
4 53 54 75 74 
4 54 55 76 75 
4 55 56 77 76 
4 56 57 78 77 
4 57 58 79 78 
4 58 59 80 79 
4 59 60 81 80 
4 60 61 82 81 
4 61 62 83 82 
4 63 64 85 84 
4 64 65 86 85 
4 65 66 87 86 
4 66 67 88 87 
4 67 68 89 88 
4 68 69 90 89 
4 69 70 91 90 
4 70 71 92 91 
4 71 72 93 92 
4 72 73 94 93 
4 73 74 95 94 
4 74 75 96 95 
4 75 76 97 96 
4 76 77 98 97 
4 77 78 99 98 
4 78 79 100 99 
4 79 80 101 100 
4 80 81 102 101 
4 81 82 103 102 
4 82 83 104 103 
4 84 85 106 105 
4 85 86 107 106 
4 86 87 108 107 
4 87 88 109 108 
4 88 89 110 109 
4 89 90 111 110 
4 90 91 112 111 
4 91 92 113 112 
4 92 93 114 113 
4 93 94 115 114 
4 94 95 116 115 
4 95 96 117 116 
4 96 97 118 117 
4 97 98 119 118 
4 98 99 120 119 
4 99 100 121 120 
4 100 101 122 121 
4 101 102 123 122 
4 102 103 124 123 
4 103 104 125 124 
4 105 106 127 126 
4 106 107 128 127 
4 107 108 129 128 
4 108 109 130 129 
4 109 110 131 130 
4 110 111 132 131 
4 111 112 133 132 
4 112 113 134 133 
4 113 114 135 134 
4 114 115 136 135 
4 115 116 137 136 
4 116 117 138 137 
4 117 118 139 138 
4 118 119 140 139 
4 119 120 141 140 
4 120 121 142 141 
4 121 122 143 142 
4 122 123 144 143 
4 123 124 145 144 
4 124 125 146 145 
4 126 127 148 147 
4 127 128 149 148 
4 128 129 150 149 
4 129 130 151 150 
4 130 131 152 151 
4 131 132 153 152 
4 132 133 154 153 
4 133 134 155 154 
4 134 135 156 155 
4 135 136 157 156 
4 136 137 158 157 
4 137 138 159 158 
4 138 139 160 159 
4 139 140 161 160 
4 140 141 162 161 
4 141 142 163 162 
4 142 143 164 163 
4 143 144 165 164 
4 144 145 166 165 
4 145 146 167 166 
4 147 148 169 168 
4 148 149 170 169 
4 149 150 171 170 
4 150 151 172 171 
4 151 152 173 172 
4 152 153 174 173 
4 153 154 175 174 
4 154 155 176 175 
4 155 156 177 176 
4 156 157 178 177 
4 157 158 179 178 
4 158 159 180 179 
4 159 160 181 180 
4 160 161 182 181 
4 161 162 183 182 
4 162 163 184 183 
4 163 164 185 184 
4 164 165 186 185 
4 165 166 187 186 
4 166 167 188 187 
4 168 169 190 189 
4 169 170 191 190 
4 170 171 192 191 
4 171 172 193 192 
4 172 173 194 193 
4 173 174 195 194 
4 174 175 196 195 
4 175 176 197 196 
4 176 177 198 197 
4 177 178 199 198 
4 178 179 200 199 
4 179 180 201 200 
4 180 181 202 201 
4 181 182 203 202 
4 182 183 204 203 
4 183 184 205 204 
4 184 185 206 205 
4 185 186 207 206 
4 186 187 208 207 
4 187 188 209 208 
4 189 190 211 210 
4 190 191 212 211 
4 191 192 213 212 
4 192 193 214 213 
4 193 194 215 214 
4 194 195 216 215 
4 195 196 217 216 
4 196 197 218 217 
4 197 198 219 218 
4 198 199 220 219 
4 199 200 221 220 
4 200 201 222 221 
4 201 202 223 222 
4 202 203 224 223 
4 203 204 225 224 
4 204 205 226 225 
4 205 206 227 226 
4 206 207 228 227 
4 207 208 229 228 
4 208 209 230 229 
4 210 211 232 231 
4 211 212 233 232 
4 212 213 234 233 
4 213 214 235 234 
4 214 215 236 235 
4 215 216 237 236 
4 216 217 238 237 
4 217 218 239 238 
4 218 219 240 239 
4 219 220 241 240 
4 220 221 242 241 
4 221 222 243 242 
4 222 223 244 243 
4 223 224 245 244 
4 224 225 246 245 
4 225 226 247 246 
4 226 227 248 247 
4 227 228 249 248 
4 228 229 250 249 
4 229 230 251 250 
4 231 232 253 252 
4 232 233 254 253 
4 233 234 255 254 
4 234 235 256 255 
4 235 236 257 256 
4 236 237 258 257 
4 237 238 259 258 
4 238 239 260 259 
4 239 240 261 260 
4 240 241 262 261 
4 241 242 263 262 
4 242 243 264 263 
4 243 244 265 264 
4 244 245 266 265 
4 245 246 267 266 
4 246 247 268 267 
4 247 248 269 268 
4 248 249 270 269 
4 249 250 271 270 
4 250 251 272 271 
4 252 253 274 273 
4 253 254 275 274 
4 254 255 276 275 
4 255 256 277 276 
4 256 257 278 277 
4 257 258 279 278 
4 258 259 280 279 
4 259 260 281 280 
4 260 261 282 281 
4 261 262 283 282 
4 262 263 284 283 
4 263 264 285 284 
4 264 265 286 285 
4 265 266 287 286 
4 266 267 288 287 
4 267 268 289 288 
4 268 269 290 289 
4 269 270 291 290 
4 270 271 292 291 
4 271 272 293 292 
4 273 274 295 294 
4 274 275 296 295 
4 275 276 297 296 
4 276 277 298 297 
4 277 278 299 298 
4 278 279 300 299 
4 279 280 301 300 
4 280 281 302 301 
4 281 282 303 302 
4 282 283 304 303 
4 283 284 305 304 
4 284 285 306 305 
4 285 286 307 306 
4 286 287 308 307 
4 287 288 309 308 
4 288 289 310 309 
4 289 290 311 310 
4 290 291 312 311 
4 291 292 313 312 
4 292 293 314 313 
4 294 295 316 315 
4 295 296 317 316 
4 296 297 318 317 
4 297 298 319 318 
4 298 299 320 319 
4 299 300 321 320 
4 300 301 322 321 
4 301 302 323 322 
4 302 303 324 323 
4 303 304 325 324 
4 304 305 326 325 
4 305 306 327 326 
4 306 307 328 327 
4 307 308 329 328 
4 308 309 330 329 
4 309 310 331 330 
4 310 311 332 331 
4 311 312 333 332 
4 312 313 334 333 
4 313 314 335 334 
4 315 316 337 336 
4 316 317 338 337 
4 317 318 339 338 
4 318 319 340 339 
4 319 320 341 340 
4 320 321 342 341 
4 321 322 343 342 
4 322 323 344 343 
4 323 324 345 344 
4 324 325 346 345 
4 325 326 347 346 
4 326 327 348 347 
4 327 328 349 348 
4 328 329 350 349 
4 329 330 351 350 
4 330 331 352 351 
4 331 332 353 352 
4 332 333 354 353 
4 333 334 355 354 
4 334 335 356 355 
4 336 337 358 357 
4 337 338 359 358 
4 338 339 360 359 
4 339 340 361 360 
4 340 341 362 361 
4 341 342 363 362 
4 342 343 364 363 
4 343 344 365 364 
4 344 345 366 365 
4 345 346 367 366 
4 346 347 368 367 
4 347 348 369 368 
4 348 349 370 369 
4 349 350 371 370 
4 350 351 372 371 
4 351 352 373 372 
4 352 353 374 373 
4 353 354 375 374 
4 354 355 376 375 
4 355 356 377 376 
4 357 358 379 378 
4 358 359 380 379 
4 359 360 381 380 
4 360 361 382 381 
4 361 362 383 382 
4 362 363 384 383 
4 363 364 385 384 
4 364 365 386 385 
4 365 366 387 386 
4 366 367 388 387 
4 367 368 389 388 
4 368 369 390 389 
4 369 370 391 390 
4 370 371 392 391 
4 371 372 393 392 
4 372 373 394 393 
4 373 374 395 394 
4 374 375 396 395 
4 375 376 397 396 
4 376 377 398 397 
4 378 379 400 399 
4 379 380 401 400 
4 380 381 402 401 
4 381 382 403 402 
4 382 383 404 403 
4 383 384 405 404 
4 384 385 406 405 
4 385 386 407 406 
4 386 387 408 407 
4 387 388 409 408 
4 388 389 410 409 
4 389 390 411 410 
4 390 391 412 411 
4 391 392 413 412 
4 392 393 414 413 
4 393 394 415 414 
4 394 395 416 415 
4 395 396 417 416 
4 396 397 418 417 
4 397 398 419 418 
4 399 400 421 420 
4 400 401 422 421 
4 401 402 423 422 
4 402 403 424 423 
4 403 404 425 424 
4 404 405 426 425 
4 405 406 427 426 
4 406 407 428 427 
4 407 408 429 428 
4 408 409 430 429 
4 409 410 431 430 
4 410 411 432 431 
4 411 412 433 432 
4 412 413 434 433 
4 413 414 435 434 
4 414 415 436 435 
4 415 416 437 436 
4 416 417 438 437 
4 417 418 439 438 
4 418 419 440 439 
