ply
format ascii 1.0
comment created by PolyEditor
comment modified by learnply
element vertex 441
property float64 x
property float64 y
property float64 z
property float64 vx
property float64 vy
property float64 vz
property float64 s
element face 400
property list uint8 int32 vertex_indices
end_header
10 10 0 200 0 0 33979.2 
9 10 0 181 -19 0 28211.5 
8 10 0 164 -36 0 23427.3 
7 10 0 149 -51 0 19483.8 
6 10 0 136 -64 0 16251.2 
5 10 0 125 -75 0 13611.9 
4 10 0 116 -84 0 11460.9 
3 10 0 109 -91 0 9705.76 
2 10 0 104 -96 0 8266.6 
1 10 0 101 -99 0 7076.03 
0 10 0 100 -100 0 6079.18 
-1 10 0 101 -99 0 5233.74 
-2 10 0 104 -96 0 4509.89 
-3 10 0 109 -91 0 3890.39 
-4 10 0 116 -84 0 3370.49 
-5 10 0 125 -75 0 2957.98 
-6 10 0 136 -64 0 2673.19 
-7 10 0 149 -51 0 2548.98 
-8 10 0 164 -36 0 2630.73 
-9 10 0 181 -19 0 2976.34 
-10 10 0 200 0 0 3656.28 
10 9 0 181 19 0 27605.3 
9 9 0 162 0 0 22491.6 
8 9 0 145 -17 0 18304.7 
7 9 0 130 -32 0 14905 
6 9 0 117 -45 0 12165.8 
5 9 0 106 -56 0 9972.72 
4 9 0 97 -65 0 8223.91 
3 9 0 90 -72 0 6830.09 
2 9 0 85 -77 0 5714.53 
1 9 0 82 -80 0 4812.99 
0 9 0 81 -81 0 4073.78 
-1 9 0 82 -80 0 3457.75 
-2 9 0 85 -77 0 2938.25 
-3 9 0 90 -72 0 2501.18 
-4 9 0 97 -65 0 2144.97 
-5 9 0 106 -56 0 1880.58 
-6 9 0 117 -45 0 1731.49 
-7 9 0 130 -32 0 1733.72 
-8 9 0 145 -17 0 1935.82 
-9 9 0 162 0 0 2398.86 
-10 9 0 181 19 0 3196.45 
10 8 0 164 36 0 22395.5 
9 8 0 145 17 0 17860.6 
8 8 0 128 0 0 14198.6 
7 8 0 113 -15 0 11273.3 
6 8 0 100 -28 0 8961.01 
5 8 0 89 -39 0 7150.57 
4 8 0 80 -48 0 5743.31 
3 8 0 73 -55 0 4653.11 
2 8 0 68 -60 0 3806.38 
1 8 0 65 -63 0 3142.07 
0 8 0 64 -64 0 2611.63 
-1 8 0 65 -63 0 2179.08 
-2 8 0 68 -60 0 1820.93 
-3 8 0 73 -55 0 1526.26 
-4 8 0 80 -48 0 1296.64 
-5 8 0 89 -39 0 1146.2 
-6 8 0 100 -28 0 1101.58 
-7 8 0 113 -15 0 1201.97 
-8 8 0 128 0 0 1499.07 
-9 8 0 145 17 0 2057.13 
-10 8 0 164 36 0 2952.91 
10 7 0 149 51 0 18190.2 
9 7 0 130 32 0 14163.7 
8 7 0 113 15 0 10959.4 
7 7 0 98 0 0 8444.18 
6 7 0 85 -13 0 6497.46 
5 7 0 74 -24 0 5011.25 
4 7 0 65 -33 0 3890.06 
3 7 0 58 -40 0 3050.94 
2 7 0 53 -45 0 2423.44 
1 7 0 50 -48 0 1949.69 
0 7 0 49 -49 0 1584.3 
-1 7 0 50 -48 0 1294.45 
-2 7 0 53 -45 0 1059.81 
-3 7 0 58 -40 0 872.625 
-4 7 0 65 -33 0 737.633 
-5 7 0 74 -24 0 672.119 
-6 7 0 85 -13 0 705.894 
-7 7 0 98 0 0 881.301 
-8 7 0 113 15 0 1253.21 
-9 7 0 130 32 0 1889.02 
-10 7 0 149 51 0 2868.67 
10 6 0 136 64 0 14841.5 
9 6 0 117 45 0 11258.4 
8 6 0 100 28 0 8449.72 
7 6 0 85 13 0 6285.36 
6 6 0 72 0 0 4647.98 
5 6 0 61 -11 0 3432.72 
4 6 0 52 -20 0 2547.26 
3 6 0 45 -27 0 1911.81 
2 6 0 40 -32 0 1459.09 
1 6 0 37 -35 0 1134.37 
0 6 0 36 -36 0 895.458 
-1 6 0 37 -35 0 712.663 
-2 6 0 40 -32 0 568.845 
-3 6 0 45 -27 0 459.388 
-4 6 0 52 -20 0 392.206 
-5 6 0 61 -11 0 387.744 
-6 6 0 72 0 0 478.975 
-7 6 0 85 13 0 711.403 
-8 6 0 100 28 0 1143.06 
-9 6 0 117 45 0 1844.52 
-10 6 0 136 64 0 2898.86 
10 5 0 125 75 0 12213.6 
9 5 0 106 56 0 9014.16 
8 5 0 89 39 0 6544.07 
7 5 0 74 24 0 4676.57 
6 5 0 61 11 0 3297.45 
5 5 0 50 0 0 2305.01 
4 5 0 41 -9 0 1610.08 
3 5 0 34 -16 0 1136.05 
2 5 0 29 -21 0 818.791 
1 5 0 26 -24 0 606.745 
0 5 0 25 -25 0 460.865 
-1 5 0 26 -24 0 354.64 
-2 5 0 29 -21 0 274.085 
-3 5 0 34 -16 0 217.748 
-4 5 0 41 -9 0 196.705 
-5 5 0 50 0 0 234.563 
-6 5 0 61 11 0 367.458 
-7 5 0 74 24 0 644.058 
-8 5 0 89 39 0 1125.56 
-9 5 0 106 56 0 1885.69 
-10 5 0 125 75 0 3010.7 
10 4 0 116 84 0 10183.1 
9 4 0 97 65 0 7312.43 
8 4 0 80 48 0 5129.17 
7 4 0 65 33 0 3509.67 
6 4 0 52 20 0 2342.87 
5 4 0 41 9 0 1530.26 
4 4 0 32 0 0 985.82 
3 4 0 25 -7 0 636.09 
2 4 0 20 -12 0 420.127 
1 4 0 17 -15 0 289.521 
0 4 0 16 -16 0 208.392 
-1 4 0 17 -15 0 153.388 
-2 4 0 20 -12 0 113.689 
-3 4 0 25 -7 0 91.0052 
-4 4 0 32 0 0 99.5752 
-5 4 0 41 9 0 166.168 
-6 4 0 52 20 0 330.083 
-7 4 0 65 33 0 643.15 
-8 4 0 80 48 0 1169.73 
-9 4 0 97 65 0 1986.7 
-10 4 0 116 84 0 3183.5 
10 3 0 109 91 0 8638.34 
9 3 0 90 72 0 6046.93 
8 3 0 73 55 0 4103.82 
7 3 0 58 40 0 2688.59 
6 3 0 45 27 0 1693.34 
5 3 0 34 16 0 1022.71 
4 3 0 25 7 0 593.851 
3 3 0 18 0 0 336.466 
2 3 0 13 -5 0 192.773 
1 3 0 10 -8 0 117.524 
0 3 0 9 -9 0 78.0015 
-1 3 0 10 -8 0 54.0172 
-2 3 0 13 -5 0 37.9132 
-3 3 0 18 0 0 34.5613 
-4 3 0 25 7 0 61.3633 
-5 3 0 34 16 0 148.251 
-6 3 0 45 27 0 337.686 
-7 3 0 58 40 0 684.659 
-8 3 0 73 55 0 1256.69 
-9 3 0 90 72 0 2133.84 
-10 3 0 109 91 0 3408.68 
10 2 0 104 96 0 7480.07 
9 2 0 85 77 0 5123.4 
8 2 0 68 60 0 3378.92 
7 2 0 53 45 0 2129.38 
6 2 0 40 32 0 1270.04 
5 2 0 29 21 0 708.692 
4 2 0 20 12 0 365.661 
3 2 0 13 5 0 173.802 
2 2 0 8 0 0 78.5011 
1 2 0 5 -3 0 37.6718 
0 2 0 4 -4 0 21.7591 
-1 2 0 5 -3 0 13.7377 
-2 2 0 8 0 0 9.11185 
-3 2 0 13 5 0 15.916 
-4 2 0 20 12 0 54.7144 
-5 2 0 29 21 0 158.601 
-6 2 0 40 32 0 373.201 
-7 2 0 53 45 0 756.667 
-8 2 0 68 60 0 1379.68 
-9 2 0 85 77 0 2325.46 
-10 2 0 104 96 0 3689.75 
10 1 0 101 99 0 6620.94 
9 1 0 82 80 0 4459.7 
8 1 0 65 63 0 2877.49 
7 1 0 50 48 0 1760.2 
6 1 0 37 35 0 1006.27 
5 1 0 26 24 0 526.654 
4 1 0 17 15 0 244.833 
3 1 0 10 8 0 96.8272 
2 1 0 5 3 0 31.1848 
1 1 0 2 0 0 8.98282 
0 1 0 1 -1 0 3.82818 
-1 1 0 2 0 0 1.85797 
-2 1 0 5 3 0 1.73913 
-3 1 0 10 8 0 14.6685 
-4 1 0 17 15 0 64.373 
-5 1 0 26 24 0 187.109 
-6 1 0 37 35 0 431.664 
-7 1 0 50 48 0 859.353 
-8 1 0 65 63 0 1544.02 
-9 1 0 82 80 0 2572.05 
-10 1 0 101 99 0 4042.35 
10 0 0 100 100 0 5985.77 
9 0 0 81 81 0 3985.79 
8 0 0 64 64 0 2534.61 
7 0 0 49 49 0 1521.29 
6 0 0 36 36 0 847.426 
5 0 0 25 25 0 427.127 
4 0 0 16 16 0 187.047 
3 0 0 9 9 0 66.3674 
2 0 0 4 4 0 16.7966 
1 0 0 1 1 0 2.57469 
0 0 0 0 0 0 0.471328 
-1 0 0 1 1 0 -0.213965 
-2 0 0 4 4 0 2.34828 
-3 0 0 9 9 0 22.5174 
-4 0 0 16 16 0 87.1828 
-5 0 0 25 25 0 235.764 
-6 0 0 36 36 0 520.209 
-7 0 0 49 49 0 1005 
-8 0 0 64 64 0 1767.14 
-9 0 0 81 81 0 2896.17 
-10 0 0 100 100 0 4494.17 
10 -1 0 101 99 0 5511.47 
9 -1 0 82 80 0 3643.73 
8 -1 0 65 63 0 2297.5 
7 -1 0 50 48 0 1365 
6 -1 0 37 35 0 750.989 
5 -1 0 26 24 0 372.748 
4 -1 0 17 15 0 160.087 
3 -1 0 10 8 0 55.3494 
2 -1 0 5 3 0 13.4078 
1 -1 0 2 0 0 1.66417 
0 -1 0 1 -1 0 0.0505997 
-1 -1 0 2 0 0 1.02915 
-2 -1 0 5 3 0 9.59178 
-3 -1 0 10 8 0 43.2604 
-4 -1 0 17 15 0 132.087 
-5 -1 0 26 24 0 318.653 
-6 -1 0 37 35 0 658.07 
-7 -1 0 50 48 0 1217.98 
-8 -1 0 65 63 0 2078.55 
-9 -1 0 82 80 0 3332.49 
-10 -1 0 101 99 0 5085.03 
10 -2 0 104 96 0 5147.04 
9 -2 0 85 77 0 3387.66 
8 -2 0 68 60 0 2125.44 
7 -2 0 53 45 0 1255.76 
6 -2 0 40 32 0 686.554 
5 -2 0 29 21 0 338.251 
4 -2 0 20 12 0 143.831 
3 -2 0 13 5 0 48.7987 
2 -2 0 8 0 0 11.1893 
1 -2 0 5 -3 0 1.56728 
0 -2 0 4 -4 0 3.02725 
-1 -2 0 5 -3 0 11.1938 
-2 -2 0 8 0 0 34.2214 
-3 -2 0 13 5 0 92.7944 
-4 -2 0 20 12 0 220.127 
-5 -2 0 29 21 0 461.964 
-6 -2 0 40 32 0 876.579 
-7 -2 0 53 45 0 1534.78 
-8 -2 0 68 60 0 2519.89 
-9 -2 0 85 77 0 3927.78 
-10 -2 0 104 96 0 5866.85 
10 -3 0 109 91 0 4853.61 
9 -3 0 90 72 0 3183.84 
8 -3 0 73 55 0 1989.84 
7 -3 0 58 40 0 1170.13 
6 -3 0 45 27 0 635.808 
5 -3 0 34 16 0 310.471 
4 -3 0 25 7 0 130.259 
3 -3 0 18 0 0 43.8401 
2 -3 0 13 -5 0 12.4111 
1 -3 0 10 -8 0 9.69927 
0 -3 0 9 -9 0 21.9618 
-1 -3 0 10 -8 0 47.9857 
-2 -3 0 13 -5 0 99.088 
-3 -3 0 18 0 0 199.116 
-4 -3 0 25 7 0 384.446 
-5 -3 0 34 16 0 703.984 
-6 -3 0 45 27 0 1219.17 
-7 -3 0 58 40 0 2003.97 
-8 -3 0 73 55 0 3144.87 
-9 -3 0 90 72 0 4740.91 
-10 -3 0 109 91 0 6903.64 
10 -4 0 116 84 0 4604.36 
9 -4 0 97 65 0 3010.63 
8 -4 0 80 48 0 1874.19 
7 -4 0 65 33 0 1096.75 
6 -4 0 52 20 0 592.54 
5 -4 0 41 9 0 288.341 
4 -4 0 32 0 0 123.45 
3 -4 0 25 -7 0 49.6976 
2 -4 0 20 -12 0 31.4424 
1 -4 0 17 -15 0 45.5747 
0 -4 0 16 -16 0 81.514 
-1 -4 0 17 -15 0 141.21 
-2 -4 0 20 -12 0 239.142 
-3 -4 0 25 -7 0 402.32 
-4 -4 0 32 0 0 670.282 
-5 -4 0 41 9 0 1095.1 
-6 -4 0 52 20 0 1741.37 
-7 -4 0 65 33 0 2686.22 
-8 -4 0 80 48 0 4019.32 
-9 -4 0 97 65 0 5842.84 
-10 -4 0 116 84 0 8271.52 
10 -5 0 125 75 0 4384.62 
9 -5 0 106 56 0 2858.48 
8 -5 0 89 39 0 1774.1 
7 -5 0 74 24 0 1036.35 
6 -5 0 61 11 0 562.638 
5 -5 0 50 0 0 282.895 
4 -5 0 41 -9 0 139.583 
3 -5 0 34 -16 0 87.6945 
2 -5 0 29 -21 0 94.7518 
1 -5 0 26 -24 0 140.807 
0 -5 0 25 -25 0 218.443 
-1 -5 0 26 -24 0 332.771 
-2 -5 0 29 -21 0 501.433 
-3 -5 0 34 -16 0 754.601 
-4 -5 0 41 -9 0 1134.98 
-5 -5 0 50 0 0 1697.79 
-6 -5 0 61 11 0 2510.81 
-7 -5 0 74 24 0 3654.32 
-8 -5 0 89 39 0 5221.15 
-9 -5 0 106 56 0 7316.64 
-10 -5 0 125 75 0 10058.7 
10 -6 0 136 64 0 4191.78 
9 -6 0 117 45 0 2729.93 
8 -6 0 100 28 0 1697.25 
7 -6 0 85 13 0 1001.78 
6 -6 0 72 0 0 564.088 
5 -6 0 61 -11 0 317.264 
4 -6 0 52 -20 0 206.934 
3 -6 0 45 -27 0 191.253 
2 -6 0 40 -32 0 240.907 
1 -6 0 37 -35 0 339.11 
0 -6 0 36 -36 0 481.606 
-1 -6 0 37 -35 0 676.671 
-2 -6 0 40 -32 0 945.109 
-3 -6 0 45 -27 0 1320.25 
-4 -6 0 52 -20 0 1847.97 
-5 -6 0 61 -11 0 2586.65 
-6 -6 0 72 0 0 3607.23 
-7 -6 0 85 13 0 4993.14 
-8 -6 0 100 28 0 6840.39 
-9 -6 0 117 45 0 9257.48 
-10 -6 0 136 64 0 12365.5 
10 -7 0 149 51 0 4035.35 
9 -7 0 130 32 0 2639.64 
8 -7 0 113 15 0 1663.45 
7 -7 0 98 0 0 1017.99 
6 -7 0 85 -13 0 626.977 
5 -7 0 74 -24 0 426.679 
4 -7 0 65 -33 0 365.88 
3 -7 0 58 -40 0 405.896 
2 -7 0 53 -45 0 520.575 
1 -7 0 50 -48 0 696.295 
0 -7 0 49 -49 0 931.962 
-1 -7 0 50 -48 0 1239.01 
-2 -7 0 53 -45 0 1641.42 
-3 -7 0 58 -40 0 2175.67 
-4 -7 0 65 -33 0 2890.8 
-5 -7 0 74 -24 0 3848.36 
-6 -7 0 85 -13 0 5122.44 
-7 -7 0 98 0 0 6799.66 
-8 -7 0 113 15 0 8979.15 
-9 -7 0 130 32 0 11772.6 
-10 -7 0 149 51 0 15304.2 
10 -8 0 164 36 0 3936.94 
9 -8 0 145 17 0 2614.35 
8 -8 0 128 0 0 1704.59 
7 -8 0 113 -15 0 1122 
6 -8 0 100 -28 0 793.49 
5 -8 0 89 -39 0 658.472 
4 -8 0 80 -48 0 668.896 
3 -8 0 73 -55 0 789.243 
2 -8 0 68 -60 0 996.523 
1 -8 0 65 -63 0 1280.27 
0 -8 0 64 -64 0 1642.57 
-1 -8 0 65 -63 0 2098 
-2 -8 0 68 -60 0 2673.71 
-3 -8 0 73 -55 0 3409.35 
-4 -8 0 80 -48 0 4357.1 
-5 -8 0 89 -39 0 5581.7 
-6 -8 0 100 -28 0 7160.38 
-7 -8 0 113 -15 0 9182.94 
-8 -8 0 128 0 0 11751.7 
-9 -8 0 145 17 0 14981.4 
-10 -8 0 164 36 0 18999.5 
10 -9 0 181 19 0 3930.25 
9 -9 0 162 0 0 2692.92 
8 -9 0 145 -17 0 1864.65 
7 -9 0 130 -32 0 1362.97 
6 -9 0 117 -45 0 1117.91 
5 -9 0 106 -56 0 1072.07 
4 -9 0 97 -65 0 1180.56 
3 -9 0 90 -72 0 1411.02 
2 -9 0 85 -77 0 1743.61 
1 -9 0 82 -80 0 2171.06 
0 -9 0 81 -81 0 2698.58 
-1 -9 0 82 -80 0 3343.94 
-2 -9 0 85 -77 0 4137.43 
-3 -9 0 90 -72 0 5121.87 
-4 -9 0 97 -65 0 6352.62 
-5 -9 0 106 -56 0 7897.55 
-6 -9 0 117 -45 0 9837.08 
-7 -9 0 130 -32 0 12264.2 
-8 -9 0 145 -17 0 15284.2 
-9 -9 0 162 0 0 19015.3 
-10 -9 0 181 19 0 23588 
10 -10 0 200 0 0 4061.07 
9 -10 0 181 -19 0 2926.3 
8 -10 0 164 -36 0 2199.75 
7 -10 0 149 -51 0 1802.12 
6 -10 0 136 -64 0 1666.63 
5 -10 0 125 -75 0 1739.01 
4 -10 0 116 -84 0 1977.54 
3 -10 0 109 -91 0 2353.03 
2 -10 0 104 -96 0 2848.82 
1 -10 0 101 -99 0 3460.76 
0 -10 0 100 -100 0 4197.25 
-1 -10 0 101 -99 0 5079.22 
-2 -10 0 104 -96 0 6140.12 
-3 -10 0 109 -91 0 7425.93 
-4 -10 0 116 -84 0 8995.18 
-5 -10 0 125 -75 0 10918.9 
-6 -10 0 136 -64 0 13280.7 
-7 -10 0 149 -51 0 16176.6 
-8 -10 0 164 -36 0 19715.3 
-9 -10 0 181 -19 0 24017.9 
-10 -10 0 200 0 0 29218.3 
4 0 1 22 21 
4 1 2 23 22 
4 2 3 24 23 
4 3 4 25 24 
4 4 5 26 25 
4 5 6 27 26 
4 6 7 28 27 
4 7 8 29 28 
4 8 9 30 29 
4 9 10 31 30 
4 10 11 32 31 
4 11 12 33 32 
4 12 13 34 33 
4 13 14 35 34 
4 14 15 36 35 
4 15 16 37 36 
4 16 17 38 37 
4 17 18 39 38 
4 18 19 40 39 
4 19 20 41 40 
4 21 22 43 42 
4 22 23 44 43 
4 23 24 45 44 
4 24 25 46 45 
4 25 26 47 46 
4 26 27 48 47 
4 27 28 49 48 
4 28 29 50 49 
4 29 30 51 50 
4 30 31 52 51 
4 31 32 53 52 
4 32 33 54 53 
4 33 34 55 54 
4 34 35 56 55 
4 35 36 57 56 
4 36 37 58 57 
4 37 38 59 58 
4 38 39 60 59 
4 39 40 61 60 
4 40 41 62 61 
4 42 43 64 63 
4 43 44 65 64 
4 44 45 66 65 
4 45 46 67 66 
4 46 47 68 67 
4 47 48 69 68 
4 48 49 70 69 
4 49 50 71 70 
4 50 51 72 71 
4 51 52 73 72 
4 52 53 74 73 
4 53 54 75 74 
4 54 55 76 75 
4 55 56 77 76 
4 56 57 78 77 
4 57 58 79 78 
4 58 59 80 79 
4 59 60 81 80 
4 60 61 82 81 
4 61 62 83 82 
4 63 64 85 84 
4 64 65 86 85 
4 65 66 87 86 
4 66 67 88 87 
4 67 68 89 88 
4 68 69 90 89 
4 69 70 91 90 
4 70 71 92 91 
4 71 72 93 92 
4 72 73 94 93 
4 73 74 95 94 
4 74 75 96 95 
4 75 76 97 96 
4 76 77 98 97 
4 77 78 99 98 
4 78 79 100 99 
4 79 80 101 100 
4 80 81 102 101 
4 81 82 103 102 
4 82 83 104 103 
4 84 85 106 105 
4 85 86 107 106 
4 86 87 108 107 
4 87 88 109 108 
4 88 89 110 109 
4 89 90 111 110 
4 90 91 112 111 
4 91 92 113 112 
4 92 93 114 113 
4 93 94 115 114 
4 94 95 116 115 
4 95 96 117 116 
4 96 97 118 117 
4 97 98 119 118 
4 98 99 120 119 
4 99 100 121 120 
4 100 101 122 121 
4 101 102 123 122 
4 102 103 124 123 
4 103 104 125 124 
4 105 106 127 126 
4 106 107 128 127 
4 107 108 129 128 
4 108 109 130 129 
4 109 110 131 130 
4 110 111 132 131 
4 111 112 133 132 
4 112 113 134 133 
4 113 114 135 134 
4 114 115 136 135 
4 115 116 137 136 
4 116 117 138 137 
4 117 118 139 138 
4 118 119 140 139 
4 119 120 141 140 
4 120 121 142 141 
4 121 122 143 142 
4 122 123 144 143 
4 123 124 145 144 
4 124 125 146 145 
4 126 127 148 147 
4 127 128 149 148 
4 128 129 150 149 
4 129 130 151 150 
4 130 131 152 151 
4 131 132 153 152 
4 132 133 154 153 
4 133 134 155 154 
4 134 135 156 155 
4 135 136 157 156 
4 136 137 158 157 
4 137 138 159 158 
4 138 139 160 159 
4 139 140 161 160 
4 140 141 162 161 
4 141 142 163 162 
4 142 143 164 163 
4 143 144 165 164 
4 144 145 166 165 
4 145 146 167 166 
4 147 148 169 168 
4 148 149 170 169 
4 149 150 171 170 
4 150 151 172 171 
4 151 152 173 172 
4 152 153 174 173 
4 153 154 175 174 
4 154 155 176 175 
4 155 156 177 176 
4 156 157 178 177 
4 157 158 179 178 
4 158 159 180 179 
4 159 160 181 180 
4 160 161 182 181 
4 161 162 183 182 
4 162 163 184 183 
4 163 164 185 184 
4 164 165 186 185 
4 165 166 187 186 
4 166 167 188 187 
4 168 169 190 189 
4 169 170 191 190 
4 170 171 192 191 
4 171 172 193 192 
4 172 173 194 193 
4 173 174 195 194 
4 174 175 196 195 
4 175 176 197 196 
4 176 177 198 197 
4 177 178 199 198 
4 178 179 200 199 
4 179 180 201 200 
4 180 181 202 201 
4 181 182 203 202 
4 182 183 204 203 
4 183 184 205 204 
4 184 185 206 205 
4 185 186 207 206 
4 186 187 208 207 
4 187 188 209 208 
4 189 190 211 210 
4 190 191 212 211 
4 191 192 213 212 
4 192 193 214 213 
4 193 194 215 214 
4 194 195 216 215 
4 195 196 217 216 
4 196 197 218 217 
4 197 198 219 218 
4 198 199 220 219 
4 199 200 221 220 
4 200 201 222 221 
4 201 202 223 222 
4 202 203 224 223 
4 203 204 225 224 
4 204 205 226 225 
4 205 206 227 226 
4 206 207 228 227 
4 207 208 229 228 
4 208 209 230 229 
4 210 211 232 231 
4 211 212 233 232 
4 212 213 234 233 
4 213 214 235 234 
4 214 215 236 235 
4 215 216 237 236 
4 216 217 238 237 
4 217 218 239 238 
4 218 219 240 239 
4 219 220 241 240 
4 220 221 242 241 
4 221 222 243 242 
4 222 223 244 243 
4 223 224 245 244 
4 224 225 246 245 
4 225 226 247 246 
4 226 227 248 247 
4 227 228 249 248 
4 228 229 250 249 
4 229 230 251 250 
4 231 232 253 252 
4 232 233 254 253 
4 233 234 255 254 
4 234 235 256 255 
4 235 236 257 256 
4 236 237 258 257 
4 237 238 259 258 
4 238 239 260 259 
4 239 240 261 260 
4 240 241 262 261 
4 241 242 263 262 
4 242 243 264 263 
4 243 244 265 264 
4 244 245 266 265 
4 245 246 267 266 
4 246 247 268 267 
4 247 248 269 268 
4 248 249 270 269 
4 249 250 271 270 
4 250 251 272 271 
4 252 253 274 273 
4 253 254 275 274 
4 254 255 276 275 
4 255 256 277 276 
4 256 257 278 277 
4 257 258 279 278 
4 258 259 280 279 
4 259 260 281 280 
4 260 261 282 281 
4 261 262 283 282 
4 262 263 284 283 
4 263 264 285 284 
4 264 265 286 285 
4 265 266 287 286 
4 266 267 288 287 
4 267 268 289 288 
4 268 269 290 289 
4 269 270 291 290 
4 270 271 292 291 
4 271 272 293 292 
4 273 274 295 294 
4 274 275 296 295 
4 275 276 297 296 
4 276 277 298 297 
4 277 278 299 298 
4 278 279 300 299 
4 279 280 301 300 
4 280 281 302 301 
4 281 282 303 302 
4 282 283 304 303 
4 283 284 305 304 
4 284 285 306 305 
4 285 286 307 306 
4 286 287 308 307 
4 287 288 309 308 
4 288 289 310 309 
4 289 290 311 310 
4 290 291 312 311 
4 291 292 313 312 
4 292 293 314 313 
4 294 295 316 315 
4 295 296 317 316 
4 296 297 318 317 
4 297 298 319 318 
4 298 299 320 319 
4 299 300 321 320 
4 300 301 322 321 
4 301 302 323 322 
4 302 303 324 323 
4 303 304 325 324 
4 304 305 326 325 
4 305 306 327 326 
4 306 307 328 327 
4 307 308 329 328 
4 308 309 330 329 
4 309 310 331 330 
4 310 311 332 331 
4 311 312 333 332 
4 312 313 334 333 
4 313 314 335 334 
4 315 316 337 336 
4 316 317 338 337 
4 317 318 339 338 
4 318 319 340 339 
4 319 320 341 340 
4 320 321 342 341 
4 321 322 343 342 
4 322 323 344 343 
4 323 324 345 344 
4 324 325 346 345 
4 325 326 347 346 
4 326 327 348 347 
4 327 328 349 348 
4 328 329 350 349 
4 329 330 351 350 
4 330 331 352 351 
4 331 332 353 352 
4 332 333 354 353 
4 333 334 355 354 
4 334 335 356 355 
4 336 337 358 357 
4 337 338 359 358 
4 338 339 360 359 
4 339 340 361 360 
4 340 341 362 361 
4 341 342 363 362 
4 342 343 364 363 
4 343 344 365 364 
4 344 345 366 365 
4 345 346 367 366 
4 346 347 368 367 
4 347 348 369 368 
4 348 349 370 369 
4 349 350 371 370 
4 350 351 372 371 
4 351 352 373 372 
4 352 353 374 373 
4 353 354 375 374 
4 354 355 376 375 
4 355 356 377 376 
4 357 358 379 378 
4 358 359 380 379 
4 359 360 381 380 
4 360 361 382 381 
4 361 362 383 382 
4 362 363 384 383 
4 363 364 385 384 
4 364 365 386 385 
4 365 366 387 386 
4 366 367 388 387 
4 367 368 389 388 
4 368 369 390 389 
4 369 370 391 390 
4 370 371 392 391 
4 371 372 393 392 
4 372 373 394 393 
4 373 374 395 394 
4 374 375 396 395 
4 375 376 397 396 
4 376 377 398 397 
4 378 379 400 399 
4 379 380 401 400 
4 380 381 402 401 
4 381 382 403 402 
4 382 383 404 403 
4 383 384 405 404 
4 384 385 406 405 
4 385 386 407 406 
4 386 387 408 407 
4 387 388 409 408 
4 388 389 410 409 
4 389 390 411 410 
4 390 391 412 411 
4 391 392 413 412 
4 392 393 414 413 
4 393 394 415 414 
4 394 395 416 415 
4 395 396 417 416 
4 396 397 418 417 
4 397 398 419 418 
4 399 400 421 420 
4 400 401 422 421 
4 401 402 423 422 
4 402 403 424 423 
4 403 404 425 424 
4 404 405 426 425 
4 405 406 427 426 
4 406 407 428 427 
4 407 408 429 428 
4 408 409 430 429 
4 409 410 431 430 
4 410 411 432 431 
4 411 412 433 432 
4 412 413 434 433 
4 413 414 435 434 
4 414 415 436 435 
4 415 416 437 436 
4 416 417 438 437 
4 417 418 439 438 
4 418 419 440 439 
