ply
format ascii 1.0
comment created by PolyEditor
comment modified by learnply
element vertex 441
property float64 x
property float64 y
property float64 z
property float64 vx
property float64 vy
property float64 vz
property float64 s
element face 400
property list uint8 int32 vertex_indices
end_header
10 10 0 200 0 0 30862.8 
9 10 0 181 -19 0 25998.8 
8 10 0 164 -36 0 22045.1 
7 10 0 149 -51 0 18860.3 
6 10 0 136 -64 0 16314.3 
5 10 0 125 -75 0 14288.4 
4 10 0 116 -84 0 12675.4 
3 10 0 109 -91 0 11379.4 
2 10 0 104 -96 0 10316 
1 10 0 101 -99 0 9412.03 
0 10 0 100 -100 0 8605.88 
-1 10 0 101 -99 0 7847.27 
-2 10 0 104 -96 0 7097.31 
-3 10 0 109 -91 0 6328.53 
-4 10 0 116 -84 0 5524.85 
-5 10 0 125 -75 0 4681.58 
-6 10 0 136 -64 0 3805.44 
-7 10 0 149 -51 0 2914.53 
-8 10 0 164 -36 0 2038.38 
-9 10 0 181 -19 0 1217.88 
-10 10 0 200 0 0 505.345 
10 9 0 181 19 0 24813.8 
9 9 0 162 0 0 20423.9 
8 9 0 145 -17 0 16897.3 
7 9 0 130 -32 0 14096.9 
6 9 0 117 -45 0 11897.1 
5 9 0 106 -56 0 10183.6 
4 9 0 97 -65 0 8853.57 
3 9 0 90 -72 0 7815.58 
2 9 0 85 -77 0 6989.58 
1 9 0 82 -80 0 6306.91 
0 9 0 81 -81 0 5710.31 
-1 9 0 82 -80 0 5153.93 
-2 9 0 85 -77 0 4603.32 
-3 9 0 90 -72 0 4035.4 
-4 9 0 97 -65 0 3438.51 
-5 9 0 106 -56 0 2812.39 
-6 9 0 117 -45 0 2168.17 
-7 9 0 130 -32 0 1528.37 
-8 9 0 145 -17 0 926.924 
-9 9 0 162 0 0 409.151 
-10 9 0 181 19 0 31.7733 
10 8 0 164 36 0 19996.6 
9 8 0 145 17 0 16035.1 
8 8 0 128 0 0 12890.4 
7 8 0 113 -15 0 10429.9 
6 8 0 100 -28 0 8532.29 
5 8 0 89 -39 0 7087.85 
4 8 0 80 -48 0 5998.1 
3 8 0 73 -55 0 5176.03 
2 8 0 68 -60 0 4545.98 
1 8 0 65 -63 0 4043.74 
0 8 0 64 -64 0 3616.45 
-1 8 0 65 -63 0 3222.68 
-2 8 0 68 -60 0 2832.39 
-3 8 0 73 -55 0 2426.93 
-4 8 0 80 -48 0 1999.06 
-5 8 0 89 -39 0 1552.91 
-6 8 0 100 -28 0 1104.04 
-7 8 0 113 -15 0 679.404 
-8 8 0 128 0 0 317.33 
-9 8 0 145 17 0 67.5623 
-10 8 0 164 36 0 -8.76093 
10 7 0 149 51 0 16203.8 
9 7 0 130 32 0 12629.2 
8 7 0 113 15 0 9825.61 
7 7 0 98 0 0 7664.76 
6 7 0 85 -13 0 6029.86 
5 7 0 74 -24 0 4815.5 
4 7 0 65 -33 0 3927.66 
3 7 0 58 -40 0 3283.75 
2 7 0 53 -45 0 2812.52 
1 7 0 50 -48 0 2454.18 
0 7 0 49 -49 0 2160.29 
-1 7 0 50 -48 0 1893.84 
-2 7 0 53 -45 0 1629.19 
-3 7 0 58 -40 0 1352.11 
-4 7 0 65 -33 0 1059.79 
-5 7 0 74 -24 0 760.775 
-6 7 0 85 -13 0 475.037 
-7 7 0 98 0 0 233.938 
-8 7 0 113 15 0 80.2348 
-9 7 0 130 32 0 68.0851 
-10 7 0 149 51 0 263.043 
10 6 0 136 64 0 13246.9 
9 6 0 117 45 0 10022.2 
8 6 0 100 28 0 7523.18 
7 6 0 85 13 0 5626.13 
6 6 0 72 0 0 4218.63 
5 6 0 61 -11 0 3199.7 
4 6 0 52 -20 0 2479.74 
3 6 0 45 -27 0 1980.56 
2 6 0 40 -32 0 1635.35 
1 6 0 37 -35 0 1388.71 
0 6 0 36 -36 0 1196.64 
-1 6 0 37 -35 0 1026.53 
-2 6 0 40 -32 0 857.175 
-3 6 0 45 -27 0 678.752 
-4 6 0 52 -20 0 492.853 
-5 6 0 61 -11 0 312.46 
-6 6 0 72 0 0 161.953 
-7 6 0 85 13 0 77.1113 
-8 6 0 100 28 0 105.11 
-9 6 0 117 45 0 304.521 
-10 6 0 136 64 0 745.318 
10 5 0 125 75 0 10956.4 
9 5 0 106 56 0 8048.66 
8 5 0 89 39 0 5822.1 
7 5 0 74 24 0 4157.29 
6 5 0 61 11 0 2946.27 
5 5 0 50 0 0 2092.45 
4 5 0 41 -9 0 1510.66 
3 5 0 34 -16 0 1127.13 
2 5 0 29 -21 0 879.457 
1 5 0 26 -24 0 716.665 
0 5 0 25 -25 0 599.164 
-1 5 0 26 -24 0 498.765 
-2 5 0 29 -21 0 398.673 
-3 5 0 34 -16 0 293.493 
-4 5 0 41 -9 0 189.227 
-5 5 0 50 0 0 103.274 
-6 5 0 61 11 0 64.4324 
-7 5 0 74 24 0 112.896 
-8 5 0 89 39 0 300.258 
-9 5 0 106 56 0 689.507 
-10 5 0 125 75 0 1355.03 
10 4 0 116 84 0 9181.22 
9 4 0 97 65 0 6562.13 
8 4 0 80 48 0 4580.18 
7 4 0 65 33 0 3120.41 
6 4 0 52 20 0 2079.26 
5 4 0 41 9 0 1364.57 
4 4 0 32 0 0 895.584 
3 4 0 25 -7 0 602.935 
2 4 0 20 -12 0 428.657 
1 4 0 17 -15 0 326.18 
0 4 0 16 -16 0 260.332 
-1 4 0 17 -15 0 207.34 
-2 4 0 20 -12 0 154.827 
-3 4 0 25 -7 0 101.814 
-4 4 0 32 0 0 58.719 
-5 4 0 41 9 0 47.3593 
-6 4 0 52 20 0 100.948 
-7 4 0 65 33 0 264.098 
-8 4 0 80 48 0 592.816 
-9 4 0 97 65 0 1154.51 
-10 4 0 116 84 0 2027.98 
10 3 0 109 91 0 7789.51 
9 3 0 90 72 0 5434.93 
8 3 0 73 55 0 3674.09 
7 3 0 58 40 0 2396.47 
6 3 0 45 27 0 1502.93 
5 3 0 34 16 0 905.717 
4 3 0 25 7 0 528.492 
3 3 0 18 0 0 306.305 
2 3 0 13 -5 0 185.607 
1 3 0 10 -8 0 124.245 
0 3 0 9 -9 0 91.4653 
-1 3 0 10 -8 0 67.9091 
-2 3 0 13 -5 0 45.617 
-3 3 0 18 0 0 28.0268 
-4 3 0 25 7 0 29.9738 
-5 3 0 34 16 0 77.6907 
-6 3 0 45 27 0 208.808 
-7 3 0 58 40 0 472.354 
-8 3 0 73 55 0 928.754 
-9 3 0 90 72 0 1649.83 
-10 3 0 109 91 0 2718.81 
10 2 0 104 96 0 6668.08 
9 2 0 85 77 0 4558.22 
8 2 0 68 60 0 2999.34 
7 2 0 53 45 0 1885.32 
6 2 0 40 32 0 1121.45 
5 2 0 29 21 0 624.386 
4 2 0 20 12 0 322.211 
3 2 0 13 5 0 154.391 
2 2 0 8 0 0 71.7927 
1 2 0 5 -3 0 36.6795 
0 2 0 4 -4 0 22.7134 
-1 2 0 5 -3 0 14.9535 
-2 2 0 8 0 0 9.85678 
-3 2 0 13 5 0 15.2775 
-4 2 0 20 12 0 50.4676 
-5 2 0 29 21 0 146.077 
-6 2 0 40 32 0 344.152 
-7 2 0 53 45 0 698.137 
-8 2 0 68 60 0 1272.88 
-9 2 0 85 77 0 2144.61 
-10 2 0 104 96 0 3400.97 
10 1 0 101 99 0 5722.59 
9 1 0 82 80 0 3842 
8 1 0 65 63 0 2470.24 
7 1 0 50 48 0 1505.61 
6 1 0 37 35 0 857.799 
5 1 0 26 24 0 447.9 
4 1 0 17 15 0 208.399 
3 1 0 10 8 0 83.1833 
2 1 0 5 3 0 27.5345 
1 1 0 2 0 0 8.13404 
0 1 0 1 -1 0 3.06009 
-1 1 0 2 0 0 1.78857 
-2 1 0 5 3 0 5.19291 
-3 1 0 10 8 0 25.5441 
-4 1 0 17 15 0 86.5108 
-5 1 0 26 24 0 223.159 
-6 1 0 37 35 0 481.952 
-7 1 0 50 48 0 920.752 
-8 1 0 65 63 0 1608.82 
-9 1 0 82 80 0 2626.8 
-10 1 0 101 99 0 4066.77 
10 0 0 100 100 0 4877.53 
9 0 0 81 81 0 3215.1 
8 0 0 64 64 0 2019.96 
7 0 0 49 49 0 1194.83 
6 0 0 36 36 0 653.815 
5 0 0 25 25 0 322.418 
4 0 0 16 16 0 137.546 
3 0 0 9 9 0 47.5023 
2 0 0 4 4 0 11.9857 
1 0 0 1 1 0 2.09406 
0 0 0 0 0 0 0.322184 
-1 0 0 1 1 0 0.562639 
-2 0 0 4 4 0 8.1055 
-3 0 0 9 9 0 39.6384 
-4 0 0 16 16 0 123.247 
-5 0 0 25 25 0 298.413 
-6 0 0 36 36 0 616.017 
-7 0 0 49 49 0 1138.34 
-8 0 0 64 64 0 1939.05 
-9 0 0 81 81 0 3103.23 
-10 0 0 100 100 0 4727.34 
10 -1 0 101 99 0 4076.24 
9 -1 0 82 80 0 2625.19 
8 -1 0 65 63 0 1600.51 
7 -1 0 50 48 0 909.321 
6 -1 0 37 35 0 470.154 
5 -1 0 26 24 0 212.932 
4 -1 0 17 15 0 78.9752 
3 -1 0 10 8 0 21.0036 
2 -1 0 5 3 0 3.13315 
1 -1 0 2 0 0 0.878017 
0 -1 0 1 -1 0 1.14975 
-1 -1 0 2 0 0 2.25752 
-2 -1 0 5 3 0 13.908 
-3 -1 0 10 8 0 57.2055 
-4 -1 0 17 15 0 164.652 
-5 -1 0 26 24 0 380.147 
-6 -1 0 37 35 0 758.987 
-7 -1 0 50 48 0 1367.87 
-8 -1 0 65 63 0 2284.88 
-9 -1 0 82 80 0 3599.51 
-10 -1 0 101 99 0 5412.65 
10 -2 0 104 96 0 3280.89 
9 -2 0 85 77 0 2038.77 
8 -2 0 68 60 0 1182.7 
7 -2 0 53 45 0 624.235 
6 -2 0 40 32 0 286.31 
5 -2 0 29 21 0 103.266 
4 -2 0 20 12 0 20.8429 
3 -2 0 13 5 0 -3.82452 
2 -2 0 8 0 0 -2.20316 
1 -2 0 5 -3 0 5.63768 
0 -2 0 4 -4 0 11.0262 
-1 -2 0 5 -3 0 16.6883 
-2 -2 0 8 0 0 36.7472 
-3 -2 0 13 5 0 96.724 
-4 -2 0 20 12 0 233.537 
-5 -2 0 29 21 0 495.502 
-6 -2 0 40 32 0 942.333 
-7 -2 0 53 45 0 1645.14 
-8 -2 0 68 60 0 2686.44 
-9 -2 0 85 77 0 4160.12 
-10 -2 0 104 96 0 6171.5 
10 -3 0 109 91 0 2472.48 
9 -3 0 90 72 0 1441.16 
8 -3 0 73 55 0 756.209 
7 -3 0 58 40 0 333.57 
6 -3 0 45 27 0 100.608 
5 -3 0 34 16 0 -3.9203 
4 -3 0 25 7 0 -29.8605 
3 -3 0 18 0 0 -15.6602 
2 -3 0 13 -5 0 11.6302 
1 -3 0 10 -8 0 36.3582 
0 -3 0 9 -9 0 54.2684 
-1 -3 0 10 -8 0 72.5035 
-2 -3 0 13 -5 0 109.603 
-3 -3 0 18 0 0 195.505 
-4 -3 0 25 7 0 371.545 
-5 -3 0 34 16 0 690.455 
-6 -3 0 45 27 0 1216.36 
-7 -3 0 58 40 0 2024.8 
-8 -3 0 73 55 0 3202.7 
-9 -3 0 90 72 0 4848.36 
-10 -3 0 109 91 0 7071.53 
10 -4 0 116 84 0 1650.83 
9 -4 0 97 65 0 836.544 
8 -4 0 80 48 0 329.525 
7 -4 0 65 33 0 50.1548 
6 -4 0 52 20 0 -69.79 
5 -4 0 41 9 0 -87.1359 
4 -4 0 32 0 0 -47.3116 
3 -4 0 25 -7 0 15.6516 
2 -4 0 20 -12 0 79.1201 
1 -4 0 17 -15 0 131.858 
0 -4 0 16 -16 0 174.026 
-1 -4 0 17 -15 0 217.185 
-2 -4 0 20 -12 0 284.29 
-3 -4 0 25 -7 0 409.695 
-4 -4 0 32 0 0 639.153 
-5 -4 0 41 9 0 1029.81 
-6 -4 0 52 20 0 1650.22 
-7 -4 0 65 33 0 2580.32 
-8 -4 0 80 48 0 3911.46 
-9 -4 0 97 65 0 5746.37 
-10 -4 0 116 84 0 8199.19 
10 -5 0 125 75 0 834.628 
9 -5 0 106 56 0 247.904 
8 -5 0 89 39 0 -70.02 
7 -5 0 74 24 0 -194.349 
6 -5 0 61 11 0 -188.891 
5 -5 0 50 0 0 -106.055 
4 -5 0 41 -9 0 13.1463 
3 -5 0 34 -16 0 139.099 
2 -5 0 29 -21 0 253.587 
1 -5 0 26 -24 0 349.789 
0 -5 0 25 -25 0 432.284 
-1 -5 0 26 -24 0 517.048 
-2 -5 0 29 -21 0 631.453 
-3 -5 0 34 -16 0 814.272 
-4 -5 0 41 -9 0 1115.67 
-5 -5 0 50 0 0 1597.22 
-6 -5 0 61 11 0 2331.88 
-7 -5 0 74 24 0 3404.01 
-8 -5 0 89 39 0 4909.36 
-9 -5 0 106 56 0 6955.11 
-10 -5 0 125 75 0 9659.8 
10 -6 0 136 64 0 61.3606 
9 -6 0 117 45 0 -282.922 
8 -6 0 100 28 0 -396.262 
7 -6 0 85 13 0 -349.448 
6 -6 0 72 0 0 -201.869 
5 -6 0 61 -11 0 -1.52064 
4 -6 0 52 -20 0 215.003 
3 -6 0 45 -27 0 422.505 
2 -6 0 40 -32 0 607.183 
1 -6 0 37 -35 0 766.636 
0 -6 0 36 -36 0 909.857 
-1 -6 0 37 -35 0 1057.24 
-2 -6 0 40 -32 0 1240.57 
-3 -6 0 45 -27 0 1503.05 
-4 -6 0 52 -20 0 1899.24 
-5 -6 0 61 -11 0 2495.15 
-6 -6 0 72 0 0 3368.14 
-7 -6 0 85 13 0 4606.99 
-8 -6 0 100 28 0 6311.88 
-9 -6 0 117 45 0 8594.39 
-10 -6 0 136 64 0 11577.5 
10 -7 0 149 51 0 -612.636 
9 -7 0 130 32 0 -695.27 
8 -7 0 113 15 0 -584.204 
7 -7 0 98 0 0 -345.811 
6 -7 0 85 -13 0 -35.064 
5 -7 0 74 -24 0 304.46 
4 -7 0 65 -33 0 640.583 
3 -7 0 58 -40 0 952.523 
2 -7 0 53 -45 0 1230.9 
1 -7 0 50 -48 0 1477.72 
0 -7 0 49 -49 0 1706.4 
-1 -7 0 50 -48 0 1941.74 
-2 -7 0 53 -45 0 2219.97 
-3 -7 0 58 -40 0 2588.67 
-4 -7 0 65 -33 0 3106.85 
-5 -7 0 74 -24 0 3844.91 
-6 -7 0 85 -13 0 4884.64 
-7 -7 0 98 0 0 6319.25 
-8 -7 0 113 15 0 8253.32 
-9 -7 0 130 32 0 10802.8 
-10 -7 0 149 51 0 14095.2 
10 -8 0 164 36 0 -1112.2 
9 -8 0 145 17 0 -909.641 
8 -8 0 128 0 0 -550.017 
7 -8 0 113 -15 0 -95.278 
6 -8 0 100 -28 0 404.018 
5 -8 0 89 -39 0 908.713 
4 -8 0 80 -48 0 1391.04 
3 -8 0 73 -55 0 1834.64 
2 -8 0 68 -60 0 2234.55 
1 -8 0 65 -63 0 2597.19 
0 -8 0 64 -64 0 2940.39 
-1 -8 0 65 -63 0 3293.37 
-2 -8 0 68 -60 0 3696.77 
-3 -8 0 73 -55 0 4202.61 
-4 -8 0 80 -48 0 4874.29 
-5 -8 0 89 -39 0 5786.64 
-6 -8 0 100 -28 0 7025.86 
-7 -8 0 113 -15 0 8689.58 
-8 -8 0 128 0 0 10886.8 
-9 -8 0 145 17 0 13737.9 
-10 -8 0 164 36 0 17374.8 
10 -9 0 181 19 0 -1343.32 
9 -9 0 162 0 0 -827.704 
8 -9 0 145 -17 0 -191.037 
7 -9 0 130 -32 0 509.146 
6 -9 0 117 -45 0 1226.7 
5 -9 0 106 -56 0 1926.89 
4 -9 0 97 -65 0 2586.37 
3 -9 0 90 -72 0 3193.19 
2 -9 0 85 -77 0 3746.79 
1 -9 0 82 -80 0 4258.02 
0 -9 0 81 -81 0 4749.14 
-1 -9 0 82 -80 0 5253.78 
-2 -9 0 85 -77 0 5816.98 
-3 -9 0 90 -72 0 6495.18 
-4 -9 0 97 -65 0 7356.22 
-5 -9 0 106 -56 0 8479.32 
-6 -9 0 117 -45 0 9955.11 
-7 -9 0 130 -32 0 11885.6 
-8 -9 0 145 -17 0 14384.3 
-9 -9 0 162 0 0 17576 
-10 -9 0 181 19 0 21596.8 
10 -10 0 200 0 0 -1193.17 
9 -10 0 181 -19 0 -332.294 
8 -10 0 164 -36 0 614.233 
7 -10 0 149 -51 0 1593.29 
6 -10 0 136 -64 0 2563.15 
5 -10 0 125 -75 0 3493.5 
4 -10 0 116 -84 0 4365.39 
3 -10 0 109 -91 0 5171.31 
2 -10 0 104 -96 0 5915.11 
1 -10 0 101 -99 0 6612.05 
0 -10 0 100 -100 0 7288.81 
-1 -10 0 101 -99 0 7983.44 
-2 -10 0 104 -96 0 8745.4 
-3 -10 0 109 -91 0 9635.54 
-4 -10 0 116 -84 0 10726.1 
-5 -10 0 125 -75 0 12100.8 
-6 -10 0 136 -64 0 13854.5 
-7 -10 0 149 -51 0 16093.9 
-8 -10 0 164 -36 0 18936.6 
-9 -10 0 181 -19 0 22512.1 
-10 -10 0 200 0 0 26960.8 
4 0 1 22 21 
4 1 2 23 22 
4 2 3 24 23 
4 3 4 25 24 
4 4 5 26 25 
4 5 6 27 26 
4 6 7 28 27 
4 7 8 29 28 
4 8 9 30 29 
4 9 10 31 30 
4 10 11 32 31 
4 11 12 33 32 
4 12 13 34 33 
4 13 14 35 34 
4 14 15 36 35 
4 15 16 37 36 
4 16 17 38 37 
4 17 18 39 38 
4 18 19 40 39 
4 19 20 41 40 
4 21 22 43 42 
4 22 23 44 43 
4 23 24 45 44 
4 24 25 46 45 
4 25 26 47 46 
4 26 27 48 47 
4 27 28 49 48 
4 28 29 50 49 
4 29 30 51 50 
4 30 31 52 51 
4 31 32 53 52 
4 32 33 54 53 
4 33 34 55 54 
4 34 35 56 55 
4 35 36 57 56 
4 36 37 58 57 
4 37 38 59 58 
4 38 39 60 59 
4 39 40 61 60 
4 40 41 62 61 
4 42 43 64 63 
4 43 44 65 64 
4 44 45 66 65 
4 45 46 67 66 
4 46 47 68 67 
4 47 48 69 68 
4 48 49 70 69 
4 49 50 71 70 
4 50 51 72 71 
4 51 52 73 72 
4 52 53 74 73 
4 53 54 75 74 
4 54 55 76 75 
4 55 56 77 76 
4 56 57 78 77 
4 57 58 79 78 
4 58 59 80 79 
4 59 60 81 80 
4 60 61 82 81 
4 61 62 83 82 
4 63 64 85 84 
4 64 65 86 85 
4 65 66 87 86 
4 66 67 88 87 
4 67 68 89 88 
4 68 69 90 89 
4 69 70 91 90 
4 70 71 92 91 
4 71 72 93 92 
4 72 73 94 93 
4 73 74 95 94 
4 74 75 96 95 
4 75 76 97 96 
4 76 77 98 97 
4 77 78 99 98 
4 78 79 100 99 
4 79 80 101 100 
4 80 81 102 101 
4 81 82 103 102 
4 82 83 104 103 
4 84 85 106 105 
4 85 86 107 106 
4 86 87 108 107 
4 87 88 109 108 
4 88 89 110 109 
4 89 90 111 110 
4 90 91 112 111 
4 91 92 113 112 
4 92 93 114 113 
4 93 94 115 114 
4 94 95 116 115 
4 95 96 117 116 
4 96 97 118 117 
4 97 98 119 118 
4 98 99 120 119 
4 99 100 121 120 
4 100 101 122 121 
4 101 102 123 122 
4 102 103 124 123 
4 103 104 125 124 
4 105 106 127 126 
4 106 107 128 127 
4 107 108 129 128 
4 108 109 130 129 
4 109 110 131 130 
4 110 111 132 131 
4 111 112 133 132 
4 112 113 134 133 
4 113 114 135 134 
4 114 115 136 135 
4 115 116 137 136 
4 116 117 138 137 
4 117 118 139 138 
4 118 119 140 139 
4 119 120 141 140 
4 120 121 142 141 
4 121 122 143 142 
4 122 123 144 143 
4 123 124 145 144 
4 124 125 146 145 
4 126 127 148 147 
4 127 128 149 148 
4 128 129 150 149 
4 129 130 151 150 
4 130 131 152 151 
4 131 132 153 152 
4 132 133 154 153 
4 133 134 155 154 
4 134 135 156 155 
4 135 136 157 156 
4 136 137 158 157 
4 137 138 159 158 
4 138 139 160 159 
4 139 140 161 160 
4 140 141 162 161 
4 141 142 163 162 
4 142 143 164 163 
4 143 144 165 164 
4 144 145 166 165 
4 145 146 167 166 
4 147 148 169 168 
4 148 149 170 169 
4 149 150 171 170 
4 150 151 172 171 
4 151 152 173 172 
4 152 153 174 173 
4 153 154 175 174 
4 154 155 176 175 
4 155 156 177 176 
4 156 157 178 177 
4 157 158 179 178 
4 158 159 180 179 
4 159 160 181 180 
4 160 161 182 181 
4 161 162 183 182 
4 162 163 184 183 
4 163 164 185 184 
4 164 165 186 185 
4 165 166 187 186 
4 166 167 188 187 
4 168 169 190 189 
4 169 170 191 190 
4 170 171 192 191 
4 171 172 193 192 
4 172 173 194 193 
4 173 174 195 194 
4 174 175 196 195 
4 175 176 197 196 
4 176 177 198 197 
4 177 178 199 198 
4 178 179 200 199 
4 179 180 201 200 
4 180 181 202 201 
4 181 182 203 202 
4 182 183 204 203 
4 183 184 205 204 
4 184 185 206 205 
4 185 186 207 206 
4 186 187 208 207 
4 187 188 209 208 
4 189 190 211 210 
4 190 191 212 211 
4 191 192 213 212 
4 192 193 214 213 
4 193 194 215 214 
4 194 195 216 215 
4 195 196 217 216 
4 196 197 218 217 
4 197 198 219 218 
4 198 199 220 219 
4 199 200 221 220 
4 200 201 222 221 
4 201 202 223 222 
4 202 203 224 223 
4 203 204 225 224 
4 204 205 226 225 
4 205 206 227 226 
4 206 207 228 227 
4 207 208 229 228 
4 208 209 230 229 
4 210 211 232 231 
4 211 212 233 232 
4 212 213 234 233 
4 213 214 235 234 
4 214 215 236 235 
4 215 216 237 236 
4 216 217 238 237 
4 217 218 239 238 
4 218 219 240 239 
4 219 220 241 240 
4 220 221 242 241 
4 221 222 243 242 
4 222 223 244 243 
4 223 224 245 244 
4 224 225 246 245 
4 225 226 247 246 
4 226 227 248 247 
4 227 228 249 248 
4 228 229 250 249 
4 229 230 251 250 
4 231 232 253 252 
4 232 233 254 253 
4 233 234 255 254 
4 234 235 256 255 
4 235 236 257 256 
4 236 237 258 257 
4 237 238 259 258 
4 238 239 260 259 
4 239 240 261 260 
4 240 241 262 261 
4 241 242 263 262 
4 242 243 264 263 
4 243 244 265 264 
4 244 245 266 265 
4 245 246 267 266 
4 246 247 268 267 
4 247 248 269 268 
4 248 249 270 269 
4 249 250 271 270 
4 250 251 272 271 
4 252 253 274 273 
4 253 254 275 274 
4 254 255 276 275 
4 255 256 277 276 
4 256 257 278 277 
4 257 258 279 278 
4 258 259 280 279 
4 259 260 281 280 
4 260 261 282 281 
4 261 262 283 282 
4 262 263 284 283 
4 263 264 285 284 
4 264 265 286 285 
4 265 266 287 286 
4 266 267 288 287 
4 267 268 289 288 
4 268 269 290 289 
4 269 270 291 290 
4 270 271 292 291 
4 271 272 293 292 
4 273 274 295 294 
4 274 275 296 295 
4 275 276 297 296 
4 276 277 298 297 
4 277 278 299 298 
4 278 279 300 299 
4 279 280 301 300 
4 280 281 302 301 
4 281 282 303 302 
4 282 283 304 303 
4 283 284 305 304 
4 284 285 306 305 
4 285 286 307 306 
4 286 287 308 307 
4 287 288 309 308 
4 288 289 310 309 
4 289 290 311 310 
4 290 291 312 311 
4 291 292 313 312 
4 292 293 314 313 
4 294 295 316 315 
4 295 296 317 316 
4 296 297 318 317 
4 297 298 319 318 
4 298 299 320 319 
4 299 300 321 320 
4 300 301 322 321 
4 301 302 323 322 
4 302 303 324 323 
4 303 304 325 324 
4 304 305 326 325 
4 305 306 327 326 
4 306 307 328 327 
4 307 308 329 328 
4 308 309 330 329 
4 309 310 331 330 
4 310 311 332 331 
4 311 312 333 332 
4 312 313 334 333 
4 313 314 335 334 
4 315 316 337 336 
4 316 317 338 337 
4 317 318 339 338 
4 318 319 340 339 
4 319 320 341 340 
4 320 321 342 341 
4 321 322 343 342 
4 322 323 344 343 
4 323 324 345 344 
4 324 325 346 345 
4 325 326 347 346 
4 326 327 348 347 
4 327 328 349 348 
4 328 329 350 349 
4 329 330 351 350 
4 330 331 352 351 
4 331 332 353 352 
4 332 333 354 353 
4 333 334 355 354 
4 334 335 356 355 
4 336 337 358 357 
4 337 338 359 358 
4 338 339 360 359 
4 339 340 361 360 
4 340 341 362 361 
4 341 342 363 362 
4 342 343 364 363 
4 343 344 365 364 
4 344 345 366 365 
4 345 346 367 366 
4 346 347 368 367 
4 347 348 369 368 
4 348 349 370 369 
4 349 350 371 370 
4 350 351 372 371 
4 351 352 373 372 
4 352 353 374 373 
4 353 354 375 374 
4 354 355 376 375 
4 355 356 377 376 
4 357 358 379 378 
4 358 359 380 379 
4 359 360 381 380 
4 360 361 382 381 
4 361 362 383 382 
4 362 363 384 383 
4 363 364 385 384 
4 364 365 386 385 
4 365 366 387 386 
4 366 367 388 387 
4 367 368 389 388 
4 368 369 390 389 
4 369 370 391 390 
4 370 371 392 391 
4 371 372 393 392 
4 372 373 394 393 
4 373 374 395 394 
4 374 375 396 395 
4 375 376 397 396 
4 376 377 398 397 
4 378 379 400 399 
4 379 380 401 400 
4 380 381 402 401 
4 381 382 403 402 
4 382 383 404 403 
4 383 384 405 404 
4 384 385 406 405 
4 385 386 407 406 
4 386 387 408 407 
4 387 388 409 408 
4 388 389 410 409 
4 389 390 411 410 
4 390 391 412 411 
4 391 392 413 412 
4 392 393 414 413 
4 393 394 415 414 
4 394 395 416 415 
4 395 396 417 416 
4 396 397 418 417 
4 397 398 419 418 
4 399 400 421 420 
4 400 401 422 421 
4 401 402 423 422 
4 402 403 424 423 
4 403 404 425 424 
4 404 405 426 425 
4 405 406 427 426 
4 406 407 428 427 
4 407 408 429 428 
4 408 409 430 429 
4 409 410 431 430 
4 410 411 432 431 
4 411 412 433 432 
4 412 413 434 433 
4 413 414 435 434 
4 414 415 436 435 
4 415 416 437 436 
4 416 417 438 437 
4 417 418 439 438 
4 418 419 440 439 
