ply
format ascii 1.0
comment created by PolyEditor
comment modified by learnply
comment modified by learnply
element vertex 441
property float64 x
property float64 y
property float64 z
property float64 vx
property float64 vy
property float64 vz
property float64 s
element face 400
property list uint8 int32 vertex_indices
end_header
10 10 0 200 0 0 24358.1 
9 10 0 181 -19 0 19605.7 
8 10 0 164 -36 0 15554 
7 10 0 149 -51 0 12136.5 
6 10 0 136 -64 0 9287.51 
5 10 0 125 -75 0 6942.13 
4 10 0 116 -84 0 5036.28 
3 10 0 109 -91 0 3506.65 
2 10 0 104 -96 0 2290.74 
1 10 0 101 -99 0 1326.85 
0 10 0 100 -100 0 554.043 
-1 10 0 101 -99 0 -87.7907 
-2 10 0 104 -96 0 -657.981 
-3 10 0 109 -91 0 -1215.06 
-4 10 0 116 -84 0 -1816.76 
-5 10 0 125 -75 0 -2520.04 
-6 10 0 136 -64 0 -3381.03 
-7 10 0 149 -51 0 -4455.09 
-8 10 0 164 -36 0 -5796.78 
-9 10 0 181 -19 0 -7459.87 
-10 10 0 200 0 0 -9497.32 
10 9 0 181 19 0 20223.2 
9 9 0 162 0 0 16137 
8 9 0 145 -17 0 12675.8 
7 9 0 130 -32 0 9779.15 
6 9 0 117 -45 0 7387.03 
5 9 0 106 -56 0 5440.38 
4 9 0 97 -65 0 3880.89 
3 9 0 90 -72 0 2651.07 
2 9 0 85 -77 0 1694.22 
1 9 0 82 -80 0 954.413 
0 9 0 81 -81 0 376.536 
-1 9 0 82 -80 0 -93.7343 
-2 9 0 85 -77 0 -509.928 
-3 9 0 90 -72 0 -924.778 
-4 9 0 97 -65 0 -1390.22 
-5 9 0 106 -56 0 -1957.41 
-6 9 0 117 -45 0 -2676.69 
-7 9 0 130 -32 0 -3597.61 
-8 9 0 145 -17 0 -4768.95 
-9 9 0 162 0 0 -6238.65 
-10 9 0 181 19 0 -8053.9 
10 8 0 164 36 0 16600.1 
9 8 0 145 17 0 13123.1 
8 8 0 128 0 0 10198 
7 8 0 113 -15 0 7769.85 
6 8 0 100 -28 0 5784.64 
5 8 0 89 -39 0 4189.06 
4 8 0 80 -48 0 2930.61 
3 8 0 73 -55 0 1957.57 
2 8 0 68 -60 0 1219.04 
1 8 0 65 -63 0 664.906 
0 8 0 64 -64 0 245.848 
-1 8 0 65 -63 0 -86.6604 
-2 8 0 68 -60 0 -380.349 
-3 8 0 73 -55 0 -682.155 
-4 8 0 80 -48 0 -1038.22 
-5 8 0 89 -39 0 -1493.89 
-6 8 0 100 -28 0 -2093.71 
-7 8 0 113 -15 0 -2881.45 
-8 8 0 128 0 0 -3900.06 
-9 8 0 145 17 0 -5191.72 
-10 8 0 164 36 0 -6797.8 
10 7 0 149 51 0 13442.4 
9 7 0 130 32 0 10521.5 
8 7 0 113 15 0 8081.49 
7 7 0 98 0 0 6073.4 
6 7 0 85 -13 0 4448.88 
5 7 0 74 -24 0 3160.45 
4 7 0 65 -33 0 2161.4 
3 7 0 58 -40 0 1405.83 
2 7 0 53 -45 0 848.631 
1 7 0 50 -48 0 445.48 
0 7 0 49 -49 0 152.857 
-1 7 0 50 -48 0 -71.9645 
-2 7 0 53 -45 0 -270.917 
-3 7 0 58 -40 0 -485.137 
-4 7 0 65 -33 0 -754.97 
-5 7 0 74 -24 0 -1119.96 
-6 7 0 85 -13 0 -1618.87 
-7 7 0 98 0 0 -2289.65 
-8 7 0 113 15 0 -3169.46 
-9 7 0 130 32 0 -4294.68 
-10 7 0 149 51 0 -5700.89 
10 6 0 136 64 0 10704.7 
9 6 0 117 45 0 8290.44 
8 6 0 100 28 0 6288.5 
7 6 0 85 13 0 4655.61 
6 6 0 72 0 0 3349.27 
5 6 0 61 -11 0 2327.79 
4 6 0 52 -20 0 1550.26 
3 6 0 45 -27 0 976.576 
2 6 0 40 -32 0 567.425 
1 6 0 37 -35 0 284.287 
0 6 0 36 -36 0 89.4396 
-1 6 0 37 -35 0 -54.0461 
-2 6 0 40 -32 0 -182.305 
-3 6 0 45 -27 0 -330.675 
-4 6 0 52 -20 0 -533.703 
-5 6 0 61 -11 0 -825.138 
-6 6 0 72 0 0 -1237.94 
-7 6 0 85 13 0 -1804.26 
-8 6 0 100 28 0 -2555.47 
-9 6 0 117 45 0 -3522.14 
-10 6 0 136 64 0 -4734.05 
10 5 0 125 75 0 8342.69 
9 5 0 106 56 0 6389.37 
8 5 0 89 39 0 4782.06 
7 5 0 74 24 0 3483.29 
6 5 0 61 11 0 2456.34 
5 5 0 50 0 0 1665.33 
4 5 0 41 -9 0 1075.15 
3 5 0 34 -16 0 651.495 
2 5 0 29 -21 0 360.842 
1 5 0 26 -24 0 170.475 
0 5 0 25 -25 0 48.4686 
-1 5 0 26 -24 0 -36.3086 
-2 5 0 29 -21 0 -114.192 
-3 5 0 34 -16 0 -214.723 
-4 5 0 41 -9 0 -366.649 
-5 5 0 50 0 0 -597.921 
-6 5 0 61 11 0 -935.696 
-7 5 0 74 24 0 -1406.34 
-8 5 0 89 39 0 -2035.41 
-9 5 0 106 56 0 -2847.69 
-10 5 0 125 75 0 -3867.16 
10 4 0 116 84 0 6312.96 
9 4 0 97 65 0 4778.6 
8 4 0 80 48 0 3526.25 
7 4 0 65 33 0 2524.22 
6 4 0 52 20 0 1741.61 
5 4 0 41 9 0 1148.32 
4 4 0 32 0 0 715.052 
3 4 0 25 -7 0 413.284 
2 4 0 20 -12 0 215.304 
1 4 0 17 -15 0 94.1886 
0 4 0 16 -16 0 23.8119 
-1 4 0 17 -15 0 -21.159 
-2 4 0 20 -12 0 -65.2618 
-3 4 0 25 -7 0 -132.24 
-4 4 0 32 0 0 -245.041 
-5 4 0 41 9 0 -425.819 
-6 4 0 52 20 0 -695.934 
-7 4 0 65 33 0 -1075.95 
-8 4 0 80 48 0 -1585.63 
-9 4 0 97 65 0 -2243.96 
-10 4 0 116 84 0 -3069.12 
10 3 0 109 91 0 4573.14 
9 3 0 90 72 0 3419.48 
8 3 0 73 55 0 2486.14 
7 3 0 58 40 0 1747.21 
6 3 0 45 27 0 1177.6 
5 3 0 34 16 0 753.008 
4 3 0 25 7 0 449.924 
3 3 0 18 0 0 245.635 
2 3 0 13 -5 0 118.224 
1 3 0 10 -8 0 46.5669 
0 3 0 9 -9 0 10.3341 
-1 3 0 10 -8 0 -10.0084 
-2 3 0 13 -5 0 -33.2001 
-3 3 0 18 0 0 -77.186 
-4 3 0 25 7 0 -159.116 
-5 3 0 34 16 0 -295.346 
-6 3 0 45 27 0 -501.437 
-7 3 0 58 40 0 -792.154 
-8 3 0 73 55 0 -1181.47 
-9 3 0 90 72 0 -1682.56 
-10 3 0 109 91 0 -2307.81 
10 2 0 104 96 0 3081.84 
9 2 0 85 77 0 2274.35 
8 2 0 68 60 0 1627.78 
7 2 0 53 45 0 1122.04 
6 2 0 40 32 0 737.82 
5 2 0 29 21 0 456.62 
4 2 0 20 12 0 260.73 
3 2 0 13 5 0 133.235 
2 2 0 8 0 0 58.0157 
1 2 0 5 -3 0 19.7462 
0 2 0 4 -4 0 3.89575 
-1 2 0 5 -3 0 -3.27177 
-2 2 0 8 0 0 -14.6977 
-3 2 0 13 5 0 -42.5288 
-4 2 0 20 12 0 -98.1169 
-5 2 0 29 21 0 -192.019 
-6 2 0 40 32 0 -333.999 
-7 2 0 53 45 0 -533.023 
-8 2 0 68 60 0 -797.265 
-9 2 0 85 77 0 -1134.1 
-10 2 0 104 96 0 -1550.12 
10 1 0 101 99 0 1798.67 
9 1 0 82 80 0 1306.55 
8 1 0 65 63 0 918.253 
7 1 0 50 48 0 619.498 
6 1 0 37 35 0 396.781 
5 1 0 26 24 0 237.395 
4 1 0 17 15 0 129.429 
3 1 0 10 8 0 61.7667 
2 1 0 5 3 0 24.0857 
1 1 0 2 0 0 6.85882 
0 1 0 1 -1 0 1.35359 
-1 1 0 2 0 0 -0.367901 
-2 1 0 5 3 0 -5.44881 
-3 1 0 10 8 0 -20.2376 
-4 1 0 17 15 0 -50.288 
-5 1 0 26 24 0 -100.359 
-6 1 0 37 35 0 -174.415 
-7 1 0 50 48 0 -275.626 
-8 1 0 65 63 0 -406.367 
-9 1 0 82 80 0 -568.217 
-10 1 0 101 99 0 -761.963 
10 0 0 100 100 0 684.254 
9 0 0 81 81 0 480.398 
8 0 0 64 64 0 325.601 
7 0 0 49 49 0 211.366 
6 0 0 36 36 0 129.99 
5 0 0 25 25 0 74.5645 
4 0 0 16 16 0 38.9774 
3 0 0 9 9 0 17.9098 
2 0 0 4 4 0 6.8381 
1 0 0 1 1 0 2.03308 
0 0 0 0 0 0 0.560442 
-1 0 0 1 1 0 0.280526 
-2 0 0 4 4 0 -0.151616 
-3 0 0 9 9 0 -1.28623 
-4 0 0 16 16 0 -2.87887 
-5 0 0 25 25 0 -3.89038 
-6 0 0 36 36 0 -2.48689 
-7 0 0 49 49 0 3.96014 
-8 0 0 64 64 0 18.874 
-9 0 0 81 81 0 46.4726 
-10 0 0 100 100 0 91.7687 
10 -1 0 101 99 0 -299.819 
9 -1 0 82 80 0 -238.765 
8 -1 0 65 63 0 -181.119 
7 -1 0 50 48 0 -129.58 
6 -1 0 37 35 0 -86.0523 
5 -1 0 26 24 0 -51.6456 
4 -1 0 17 15 0 -26.6747 
3 -1 0 10 8 0 -10.66 
2 -1 0 5 3 0 -2.32701 
1 -1 0 2 0 0 0.393475 
0 -1 0 1 -1 0 0.365276 
-1 -1 0 2 0 0 1.24696 
-2 -1 0 5 3 0 7.49178 
-3 -1 0 10 8 0 24.3477 
-4 -1 0 17 15 0 57.8574 
-5 -1 0 26 24 0 114.858 
-6 -1 0 37 35 0 202.982 
-7 -1 0 50 48 0 330.656 
-8 -1 0 65 63 0 507.102 
-9 -1 0 82 80 0 742.335 
-10 -1 0 101 99 0 1047.17 
10 -2 0 104 96 0 -1190.94 
9 -2 0 85 77 0 -884.617 
8 -2 0 68 60 0 -631.858 
7 -2 0 53 45 0 -429.565 
6 -2 0 40 32 0 -273.847 
5 -2 0 29 21 0 -160.012 
4 -2 0 20 12 0 -82.58 
3 -2 0 13 5 0 -35.2713 
2 -2 0 8 0 0 -11.0135 
1 -2 0 5 -3 0 -1.93939 
0 -2 0 4 -4 0 0.613178 
-1 -2 0 5 -3 0 6.10096 
-2 -2 0 8 0 0 24.7754 
-3 -2 0 13 5 0 67.6827 
-4 -2 0 20 12 0 146.664 
-5 -2 0 29 21 0 274.354 
-6 -2 0 40 32 0 464.184 
-7 -2 0 53 45 0 730.379 
-8 -2 0 68 60 0 1087.96 
-9 -2 0 85 77 0 1552.73 
-10 -2 0 104 96 0 2141.32 
10 -3 0 109 91 0 -2025.52 
9 -3 0 90 72 0 -1489.84 
8 -3 0 73 55 0 -1055.57 
7 -3 0 58 40 0 -713.82 
6 -3 0 45 27 0 -454.899 
5 -3 0 34 16 0 -268.317 
4 -3 0 25 7 0 -142.795 
3 -3 0 18 0 0 -66.2561 
2 -3 0 13 -5 0 -25.8292 
1 -3 0 10 -8 0 -7.84878 
0 -3 0 9 -9 0 2.14536 
-1 -3 0 10 -8 0 19.4082 
-2 -3 0 13 -5 0 59.9895 
-3 -3 0 18 0 0 140.734 
-4 -3 0 25 7 0 279.279 
-5 -3 0 34 16 0 494.061 
-6 -3 0 45 27 0 804.307 
-7 -3 0 58 40 0 1230.04 
-8 -3 0 73 55 0 1792.08 
-9 -3 0 90 72 0 2512.03 
-10 -3 0 109 91 0 3412.32 
10 -4 0 116 84 0 -2838.97 
9 -4 0 97 65 0 -2086.11 
8 -4 0 80 48 0 -1480.21 
7 -4 0 65 33 0 -1006.58 
6 -4 0 52 20 0 -649.718 
5 -4 0 41 9 0 -393.345 
4 -4 0 32 0 0 -220.381 
3 -4 0 25 -7 0 -112.951 
2 -4 0 20 -12 0 -52.3856 
1 -4 0 17 -15 0 -19.2218 
0 -4 0 16 -16 0 6.79916 
-1 -4 0 17 -15 0 46.7306 
-2 -4 0 20 -12 0 122.42 
-3 -4 0 25 -7 0 256.511 
-4 -4 0 32 0 0 472.44 
-5 -4 0 41 9 0 794.439 
-6 -4 0 52 20 0 1247.53 
-7 -4 0 65 33 0 1857.55 
-8 -4 0 80 48 0 2651.1 
-9 -4 0 97 65 0 3655.59 
-10 -4 0 116 84 0 4899.24 
10 -5 0 125 75 0 -3665.69 
9 -5 0 106 56 0 -2704.12 
8 -5 0 89 39 0 -1932.75 
7 -5 0 74 24 0 -1331.08 
6 -5 0 61 11 0 -877.818 
5 -5 0 50 0 0 -550.885 
4 -5 0 41 -9 0 -327.401 
3 -5 0 34 -16 0 -183.695 
2 -5 0 29 -21 0 -95.2984 
1 -5 0 26 -24 0 -36.9496 
0 -5 0 25 -25 0 17.408 
-1 -5 0 26 -24 0 94.6259 
-2 -5 0 29 -21 0 222.35 
-3 -5 0 34 -16 0 429.022 
-4 -5 0 41 -9 0 743.876 
-5 -5 0 50 0 0 1196.94 
-6 -5 0 61 11 0 1819.05 
-7 -5 0 74 24 0 2641.81 
-8 -5 0 89 39 0 3697.64 
-9 -5 0 106 56 0 5019.76 
-10 -5 0 125 75 0 6642.16 
10 -6 0 136 64 0 -4539.1 
9 -6 0 117 45 0 -3373.56 
8 -6 0 100 28 0 -2439.15 
7 -6 0 85 13 0 -1709.56 
6 -6 0 72 0 0 -1157.72 
5 -6 0 61 -11 0 -755.73 
4 -6 0 52 -20 0 -474.925 
3 -6 0 45 -27 0 -285.833 
2 -6 0 40 -32 0 -158.187 
1 -6 0 37 -35 0 -60.9269 
0 -6 0 36 -36 0 37.8016 
-1 -6 0 37 -35 0 170.648 
-2 -6 0 40 -32 0 371.058 
-3 -6 0 45 -27 0 673.269 
-4 -6 0 52 -20 0 1112.32 
-5 -6 0 61 -11 0 1724.03 
-6 -6 0 72 0 0 2545.02 
-7 -6 0 85 13 0 3612.72 
-8 -6 0 100 28 0 4965.34 
-9 -6 0 117 45 0 6641.89 
-10 -6 0 136 64 0 8682.16 
10 -7 0 149 51 0 -5491.61 
9 -7 0 130 32 0 -4123.13 
8 -7 0 113 15 0 -3024.38 
7 -7 0 98 0 0 -2163.28 
6 -7 0 85 -13 0 -1506.93 
5 -7 0 74 -24 0 -1021.68 
4 -7 0 65 -33 0 -673.025 
3 -7 0 58 -40 0 -425.712 
2 -7 0 53 -45 0 -243.674 
1 -7 0 50 -48 0 -90.0526 
0 -7 0 49 -49 0 72.8055 
-1 -7 0 50 -48 0 283.348 
-2 -7 0 53 -45 0 580.818 
-3 -7 0 58 -40 0 1005.25 
-4 -7 0 65 -33 0 1597.48 
-5 -7 0 74 -24 0 2399.13 
-6 -7 0 85 -13 0 3452.63 
-7 -7 0 98 0 0 4801.19 
-8 -7 0 113 15 0 6488.82 
-9 -7 0 130 32 0 8560.32 
-10 -7 0 149 51 0 11061.3 
10 -8 0 164 36 0 -6554.66 
9 -8 0 145 17 0 -4980.51 
8 -8 0 128 0 0 -3712.41 
7 -8 0 113 -15 0 -2712.47 
6 -8 0 100 -28 0 -1942 
5 -8 0 89 -39 0 -1361.52 
4 -8 0 80 -48 0 -930.775 
3 -8 0 73 -55 0 -608.684 
2 -8 0 68 -60 0 -353.387 
1 -8 0 65 -63 0 -122.229 
0 -8 0 64 -64 0 128.242 
-1 -8 0 65 -63 0 442.271 
-2 -8 0 68 -60 0 864.901 
-3 -8 0 73 -55 0 1441.97 
-4 -8 0 80 -48 0 2220.09 
-5 -8 0 89 -39 0 3246.71 
-6 -8 0 100 -28 0 4570.04 
-7 -8 0 113 -15 0 6239.1 
-8 -8 0 128 0 0 8303.68 
-9 -8 0 145 17 0 10814.4 
-10 -8 0 164 36 0 13822.7 
10 -9 0 181 19 0 -7758.67 
9 -9 0 162 0 0 -5972.42 
8 -9 0 145 -17 0 -4526.23 
7 -9 0 130 -32 0 -3376.39 
6 -9 0 117 -45 0 -2478.43 
5 -9 0 106 -56 0 -1787.08 
4 -9 0 97 -65 0 -1256.26 
3 -9 0 90 -72 0 -839.104 
2 -9 0 85 -77 0 -487.958 
1 -9 0 82 -80 0 -154.363 
0 -9 0 81 -81 0 210.928 
-1 -9 0 82 -80 0 657.961 
-2 -9 0 85 -77 0 1237.57 
-3 -9 0 90 -72 0 2001.4 
-4 -9 0 97 -65 0 3001.87 
-5 -9 0 106 -56 0 4292.21 
-6 -9 0 117 -45 0 5926.42 
-7 -9 0 130 -32 0 7959.34 
-8 -9 0 145 -17 0 10446.6 
-9 -9 0 162 0 0 13444.5 
-10 -9 0 181 19 0 17010.3 
10 -10 0 200 0 0 -9133.07 
9 -10 0 181 -19 0 -7124.57 
8 -10 0 164 -36 0 -5487.81 
7 -10 0 149 -51 0 -4173.3 
6 -10 0 136 -64 0 -3130.77 
5 -10 0 125 -75 0 -2309.15 
4 -10 0 116 -84 0 -1656.56 
3 -10 0 109 -91 0 -1120.33 
2 -10 0 104 -96 0 -647.02 
1 -10 0 101 -99 0 -182.366 
0 -10 0 100 -100 0 328.678 
-1 -10 0 101 -99 0 941.954 
-2 -10 0 104 -96 0 1714.1 
-3 -10 0 109 -91 0 2702.55 
-4 -10 0 116 -84 0 3965.52 
-5 -10 0 125 -75 0 5562.04 
-6 -10 0 136 -64 0 7551.93 
-7 -10 0 149 -51 0 9995.8 
-8 -10 0 164 -36 0 12955 
-9 -10 0 181 -19 0 16491.9 
-10 -10 0 200 0 0 20669.3 
4 0 1 22 21 
4 1 2 23 22 
4 2 3 24 23 
4 3 4 25 24 
4 4 5 26 25 
4 5 6 27 26 
4 6 7 28 27 
4 7 8 29 28 
4 8 9 30 29 
4 9 10 31 30 
4 10 11 32 31 
4 11 12 33 32 
4 12 13 34 33 
4 13 14 35 34 
4 14 15 36 35 
4 15 16 37 36 
4 16 17 38 37 
4 17 18 39 38 
4 18 19 40 39 
4 19 20 41 40 
4 21 22 43 42 
4 22 23 44 43 
4 23 24 45 44 
4 24 25 46 45 
4 25 26 47 46 
4 26 27 48 47 
4 27 28 49 48 
4 28 29 50 49 
4 29 30 51 50 
4 30 31 52 51 
4 31 32 53 52 
4 32 33 54 53 
4 33 34 55 54 
4 34 35 56 55 
4 35 36 57 56 
4 36 37 58 57 
4 37 38 59 58 
4 38 39 60 59 
4 39 40 61 60 
4 40 41 62 61 
4 42 43 64 63 
4 43 44 65 64 
4 44 45 66 65 
4 45 46 67 66 
4 46 47 68 67 
4 47 48 69 68 
4 48 49 70 69 
4 49 50 71 70 
4 50 51 72 71 
4 51 52 73 72 
4 52 53 74 73 
4 53 54 75 74 
4 54 55 76 75 
4 55 56 77 76 
4 56 57 78 77 
4 57 58 79 78 
4 58 59 80 79 
4 59 60 81 80 
4 60 61 82 81 
4 61 62 83 82 
4 63 64 85 84 
4 64 65 86 85 
4 65 66 87 86 
4 66 67 88 87 
4 67 68 89 88 
4 68 69 90 89 
4 69 70 91 90 
4 70 71 92 91 
4 71 72 93 92 
4 72 73 94 93 
4 73 74 95 94 
4 74 75 96 95 
4 75 76 97 96 
4 76 77 98 97 
4 77 78 99 98 
4 78 79 100 99 
4 79 80 101 100 
4 80 81 102 101 
4 81 82 103 102 
4 82 83 104 103 
4 84 85 106 105 
4 85 86 107 106 
4 86 87 108 107 
4 87 88 109 108 
4 88 89 110 109 
4 89 90 111 110 
4 90 91 112 111 
4 91 92 113 112 
4 92 93 114 113 
4 93 94 115 114 
4 94 95 116 115 
4 95 96 117 116 
4 96 97 118 117 
4 97 98 119 118 
4 98 99 120 119 
4 99 100 121 120 
4 100 101 122 121 
4 101 102 123 122 
4 102 103 124 123 
4 103 104 125 124 
4 105 106 127 126 
4 106 107 128 127 
4 107 108 129 128 
4 108 109 130 129 
4 109 110 131 130 
4 110 111 132 131 
4 111 112 133 132 
4 112 113 134 133 
4 113 114 135 134 
4 114 115 136 135 
4 115 116 137 136 
4 116 117 138 137 
4 117 118 139 138 
4 118 119 140 139 
4 119 120 141 140 
4 120 121 142 141 
4 121 122 143 142 
4 122 123 144 143 
4 123 124 145 144 
4 124 125 146 145 
4 126 127 148 147 
4 127 128 149 148 
4 128 129 150 149 
4 129 130 151 150 
4 130 131 152 151 
4 131 132 153 152 
4 132 133 154 153 
4 133 134 155 154 
4 134 135 156 155 
4 135 136 157 156 
4 136 137 158 157 
4 137 138 159 158 
4 138 139 160 159 
4 139 140 161 160 
4 140 141 162 161 
4 141 142 163 162 
4 142 143 164 163 
4 143 144 165 164 
4 144 145 166 165 
4 145 146 167 166 
4 147 148 169 168 
4 148 149 170 169 
4 149 150 171 170 
4 150 151 172 171 
4 151 152 173 172 
4 152 153 174 173 
4 153 154 175 174 
4 154 155 176 175 
4 155 156 177 176 
4 156 157 178 177 
4 157 158 179 178 
4 158 159 180 179 
4 159 160 181 180 
4 160 161 182 181 
4 161 162 183 182 
4 162 163 184 183 
4 163 164 185 184 
4 164 165 186 185 
4 165 166 187 186 
4 166 167 188 187 
4 168 169 190 189 
4 169 170 191 190 
4 170 171 192 191 
4 171 172 193 192 
4 172 173 194 193 
4 173 174 195 194 
4 174 175 196 195 
4 175 176 197 196 
4 176 177 198 197 
4 177 178 199 198 
4 178 179 200 199 
4 179 180 201 200 
4 180 181 202 201 
4 181 182 203 202 
4 182 183 204 203 
4 183 184 205 204 
4 184 185 206 205 
4 185 186 207 206 
4 186 187 208 207 
4 187 188 209 208 
4 189 190 211 210 
4 190 191 212 211 
4 191 192 213 212 
4 192 193 214 213 
4 193 194 215 214 
4 194 195 216 215 
4 195 196 217 216 
4 196 197 218 217 
4 197 198 219 218 
4 198 199 220 219 
4 199 200 221 220 
4 200 201 222 221 
4 201 202 223 222 
4 202 203 224 223 
4 203 204 225 224 
4 204 205 226 225 
4 205 206 227 226 
4 206 207 228 227 
4 207 208 229 228 
4 208 209 230 229 
4 210 211 232 231 
4 211 212 233 232 
4 212 213 234 233 
4 213 214 235 234 
4 214 215 236 235 
4 215 216 237 236 
4 216 217 238 237 
4 217 218 239 238 
4 218 219 240 239 
4 219 220 241 240 
4 220 221 242 241 
4 221 222 243 242 
4 222 223 244 243 
4 223 224 245 244 
4 224 225 246 245 
4 225 226 247 246 
4 226 227 248 247 
4 227 228 249 248 
4 228 229 250 249 
4 229 230 251 250 
4 231 232 253 252 
4 232 233 254 253 
4 233 234 255 254 
4 234 235 256 255 
4 235 236 257 256 
4 236 237 258 257 
4 237 238 259 258 
4 238 239 260 259 
4 239 240 261 260 
4 240 241 262 261 
4 241 242 263 262 
4 242 243 264 263 
4 243 244 265 264 
4 244 245 266 265 
4 245 246 267 266 
4 246 247 268 267 
4 247 248 269 268 
4 248 249 270 269 
4 249 250 271 270 
4 250 251 272 271 
4 252 253 274 273 
4 253 254 275 274 
4 254 255 276 275 
4 255 256 277 276 
4 256 257 278 277 
4 257 258 279 278 
4 258 259 280 279 
4 259 260 281 280 
4 260 261 282 281 
4 261 262 283 282 
4 262 263 284 283 
4 263 264 285 284 
4 264 265 286 285 
4 265 266 287 286 
4 266 267 288 287 
4 267 268 289 288 
4 268 269 290 289 
4 269 270 291 290 
4 270 271 292 291 
4 271 272 293 292 
4 273 274 295 294 
4 274 275 296 295 
4 275 276 297 296 
4 276 277 298 297 
4 277 278 299 298 
4 278 279 300 299 
4 279 280 301 300 
4 280 281 302 301 
4 281 282 303 302 
4 282 283 304 303 
4 283 284 305 304 
4 284 285 306 305 
4 285 286 307 306 
4 286 287 308 307 
4 287 288 309 308 
4 288 289 310 309 
4 289 290 311 310 
4 290 291 312 311 
4 291 292 313 312 
4 292 293 314 313 
4 294 295 316 315 
4 295 296 317 316 
4 296 297 318 317 
4 297 298 319 318 
4 298 299 320 319 
4 299 300 321 320 
4 300 301 322 321 
4 301 302 323 322 
4 302 303 324 323 
4 303 304 325 324 
4 304 305 326 325 
4 305 306 327 326 
4 306 307 328 327 
4 307 308 329 328 
4 308 309 330 329 
4 309 310 331 330 
4 310 311 332 331 
4 311 312 333 332 
4 312 313 334 333 
4 313 314 335 334 
4 315 316 337 336 
4 316 317 338 337 
4 317 318 339 338 
4 318 319 340 339 
4 319 320 341 340 
4 320 321 342 341 
4 321 322 343 342 
4 322 323 344 343 
4 323 324 345 344 
4 324 325 346 345 
4 325 326 347 346 
4 326 327 348 347 
4 327 328 349 348 
4 328 329 350 349 
4 329 330 351 350 
4 330 331 352 351 
4 331 332 353 352 
4 332 333 354 353 
4 333 334 355 354 
4 334 335 356 355 
4 336 337 358 357 
4 337 338 359 358 
4 338 339 360 359 
4 339 340 361 360 
4 340 341 362 361 
4 341 342 363 362 
4 342 343 364 363 
4 343 344 365 364 
4 344 345 366 365 
4 345 346 367 366 
4 346 347 368 367 
4 347 348 369 368 
4 348 349 370 369 
4 349 350 371 370 
4 350 351 372 371 
4 351 352 373 372 
4 352 353 374 373 
4 353 354 375 374 
4 354 355 376 375 
4 355 356 377 376 
4 357 358 379 378 
4 358 359 380 379 
4 359 360 381 380 
4 360 361 382 381 
4 361 362 383 382 
4 362 363 384 383 
4 363 364 385 384 
4 364 365 386 385 
4 365 366 387 386 
4 366 367 388 387 
4 367 368 389 388 
4 368 369 390 389 
4 369 370 391 390 
4 370 371 392 391 
4 371 372 393 392 
4 372 373 394 393 
4 373 374 395 394 
4 374 375 396 395 
4 375 376 397 396 
4 376 377 398 397 
4 378 379 400 399 
4 379 380 401 400 
4 380 381 402 401 
4 381 382 403 402 
4 382 383 404 403 
4 383 384 405 404 
4 384 385 406 405 
4 385 386 407 406 
4 386 387 408 407 
4 387 388 409 408 
4 388 389 410 409 
4 389 390 411 410 
4 390 391 412 411 
4 391 392 413 412 
4 392 393 414 413 
4 393 394 415 414 
4 394 395 416 415 
4 395 396 417 416 
4 396 397 418 417 
4 397 398 419 418 
4 399 400 421 420 
4 400 401 422 421 
4 401 402 423 422 
4 402 403 424 423 
4 403 404 425 424 
4 404 405 426 425 
4 405 406 427 426 
4 406 407 428 427 
4 407 408 429 428 
4 408 409 430 429 
4 409 410 431 430 
4 410 411 432 431 
4 411 412 433 432 
4 412 413 434 433 
4 413 414 435 434 
4 414 415 436 435 
4 415 416 437 436 
4 416 417 438 437 
4 417 418 439 438 
4 418 419 440 439 
