ply
format ascii 1.0
comment created by PolyEditor
comment modified by learnply
comment modified by learnply
element vertex 441
property float64 x
property float64 y
property float64 z
property float64 vx
property float64 vy
property float64 vz
property float64 s
element face 400
property list uint8 int32 vertex_indices
end_header
10 10 0 200 0 0 29685.5 
9 10 0 181 -19 0 23797 
8 10 0 164 -36 0 19041.6 
7 10 0 149 -51 0 15217.2 
6 10 0 136 -64 0 12144.7 
5 10 0 125 -75 0 9667.65 
4 10 0 116 -84 0 7652.73 
3 10 0 109 -91 0 5989.47 
2 10 0 104 -96 0 4590.29 
1 10 0 101 -99 0 3390.55 
0 10 0 100 -100 0 2348.51 
-1 10 0 101 -99 0 1445.36 
-2 10 0 104 -96 0 685.179 
-3 10 0 109 -91 0 94.9805 
-4 10 0 116 -84 0 -275.322 
-5 10 0 125 -75 0 -352.897 
-6 10 0 136 -64 0 -42.0017 
-7 10 0 149 -51 0 776.021 
-8 10 0 164 -36 0 2242.74 
-9 10 0 181 -19 0 4522.64 
-10 10 0 200 0 0 7803.12 
10 9 0 181 19 0 25039.1 
9 9 0 162 0 0 19666.5 
8 9 0 145 -17 0 15397.3 
7 9 0 130 -32 0 12029.7 
6 9 0 117 -45 0 9385.28 
5 9 0 106 -56 0 7308.25 
4 9 0 97 -65 0 5665.83 
3 9 0 90 -72 0 4348.12 
2 9 0 85 -77 0 3268.16 
1 9 0 82 -80 0 2361.87 
0 9 0 81 -81 0 1588.13 
-1 9 0 82 -80 0 928.675 
-2 9 0 85 -77 0 388.202 
-3 9 0 90 -72 0 -5.70275 
-4 9 0 97 -65 0 -202.534 
-5 9 0 106 -56 0 -128.875 
-6 9 0 117 -45 0 311.604 
-7 9 0 130 -32 0 1238.15 
-8 9 0 145 -17 0 2792.91 
-9 9 0 162 0 0 5140.97 
-10 9 0 181 19 0 8470.3 
10 8 0 164 36 0 21211.5 
9 8 0 145 17 0 16282.2 
8 8 0 128 0 0 12428.7 
7 8 0 113 -15 0 9450.14 
6 8 0 100 -28 0 7168.43 
5 8 0 89 -39 0 5428.47 
4 8 0 80 -48 0 4098.03 
3 8 0 73 -55 0 3067.81 
2 8 0 68 -60 0 2251.44 
1 8 0 65 -63 0 1585.43 
0 8 0 64 -64 0 1029.22 
-1 8 0 65 -63 0 565.167 
-2 8 0 68 -60 0 198.536 
-3 8 0 73 -55 0 -42.4958 
-4 8 0 80 -48 0 -106.837 
-5 8 0 89 -39 0 79.5167 
-6 8 0 100 -28 0 613.483 
-7 8 0 113 -15 0 1614.89 
-8 8 0 128 0 0 3226.49 
-9 8 0 145 17 0 5613.92 
-10 8 0 164 36 0 8965.77 
10 7 0 149 51 0 18110.2 
9 7 0 130 32 0 13556.7 
8 7 0 113 15 0 10054.1 
7 7 0 98 0 0 7402.02 
6 7 0 85 -13 0 5422.98 
5 7 0 74 -24 0 3962.46 
4 7 0 65 -33 0 2888.83 
3 7 0 58 -40 0 2093.38 
2 7 0 53 -45 0 1490.3 
1 7 0 50 -48 0 1016.71 
0 7 0 49 -49 0 632.636 
-1 7 0 50 -48 0 321.016 
-2 7 0 53 -45 0 87.7012 
-3 7 0 58 -40 0 -38.5424 
-4 7 0 65 -33 0 -6.03669 
-5 7 0 74 -24 0 259.809 
-6 7 0 85 -13 0 856.5 
-7 7 0 98 0 0 1904.45 
-8 7 0 113 15 0 3547 
-9 7 0 130 32 0 5950.38 
-10 7 0 149 51 0 9303.75 
10 6 0 136 64 0 15646.8 
9 6 0 117 45 0 11407.1 
8 6 0 100 28 0 8195.82 
7 6 0 85 13 0 5813.05 
6 6 0 72 0 0 4081.97 
5 6 0 61 -11 0 2848.62 
4 6 0 52 -20 0 1981.96 
3 6 0 45 -27 0 1373.87 
2 6 0 40 -32 0 939.139 
1 6 0 37 -35 0 615.46 
0 6 0 36 -36 0 363.448 
-1 6 0 37 -35 0 166.63 
-2 6 0 40 -32 0 31.4426 
-3 6 0 45 -27 0 -12.7604 
-4 6 0 52 -20 0 86.2855 
-5 6 0 61 -11 0 403.758 
-6 6 0 72 0 0 1037.75 
-7 6 0 85 13 0 2109.26 
-8 6 0 100 28 0 3762.22 
-9 6 0 117 45 0 6163.44 
-10 6 0 136 64 0 9502.67 
10 5 0 125 75 0 13737.3 
9 5 0 106 56 0 9754.76 
8 5 0 89 39 0 6780.45 
7 5 0 74 24 0 4615.18 
6 5 0 61 11 0 3082.66 
5 5 0 50 0 0 2029.54 
4 5 0 41 -9 0 1325.36 
3 5 0 34 -16 0 862.585 
2 5 0 29 -21 0 556.58 
1 5 0 26 -24 0 345.636 
0 5 0 25 -25 0 190.952 
-1 5 0 26 -24 0 76.6418 
-2 5 0 29 -21 0 9.73056 
-3 5 0 34 -16 0 20.1572 
-4 5 0 41 -9 0 160.774 
-5 5 0 50 0 0 507.345 
-6 5 0 61 11 0 1158.55 
-7 5 0 74 24 0 2235.98 
-8 5 0 89 39 0 3884.13 
-9 5 0 106 56 0 6270.43 
-10 5 0 125 75 0 9585.21 
10 4 0 116 84 0 12301.8 
9 4 0 97 65 0 8525.04 
8 4 0 80 48 0 5738.82 
7 4 0 65 33 0 3744.56 
6 4 0 52 20 0 2366.58 
5 4 0 41 9 0 1452.08 
4 4 0 32 0 0 871.216 
3 4 0 25 -7 0 517.025 
2 4 0 20 -12 0 305.469 
1 4 0 17 -15 0 175.422 
0 4 0 16 -16 0 88.6692 
-1 4 0 17 -15 0 29.9114 
-2 4 0 20 -12 0 6.76092 
-3 4 0 25 -7 0 49.7435 
-4 4 0 32 0 0 212.298 
-5 4 0 41 9 0 570.776 
-6 4 0 52 20 0 1224.44 
-7 4 0 65 33 0 2295.48 
-8 4 0 80 48 0 3928.97 
-9 4 0 97 65 0 6292.92 
-10 4 0 116 84 0 9578.25 
10 3 0 109 91 0 11264.8 
9 3 0 90 72 0 7647.7 
8 3 0 73 55 0 5005.98 
7 3 0 58 40 0 3141.59 
6 3 0 45 27 0 1879.42 
5 3 0 34 16 0 1067.29 
4 3 0 25 7 0 575.917 
3 3 0 18 0 0 298.93 
2 3 0 13 -5 0 152.881 
1 3 0 10 -8 0 77.2285 
0 3 0 9 -9 0 34.347 
-1 3 0 10 -8 0 9.52263 
-2 3 0 13 -5 0 10.955 
-3 3 0 18 0 0 69.7567 
-4 3 0 25 7 0 239.953 
-5 3 0 34 16 0 598.484 
-6 3 0 45 27 0 1245.2 
-7 3 0 58 40 0 2302.87 
-8 3 0 73 55 0 3917.16 
-9 3 0 90 72 0 6256.67 
-10 3 0 109 91 0 9512.91 
10 2 0 104 96 0 10554.7 
9 2 0 85 77 0 7056.69 
8 2 0 68 60 0 4521.21 
7 2 0 53 45 0 2750.88 
6 2 0 40 32 0 1571.16 
5 2 0 29 21 0 830.464 
4 2 0 20 12 0 400.09 
3 2 0 13 5 0 174.262 
2 2 0 8 0 0 70.1134 
1 2 0 5 -3 0 27.6922 
0 2 0 4 -4 0 9.9584 
-1 2 0 5 -3 0 2.78542 
-2 2 0 8 0 0 14.9597 
-3 2 0 13 5 0 78.1805 
-4 2 0 20 12 0 247.061 
-5 2 0 29 21 0 599.125 
-6 2 0 40 32 0 1234.81 
-7 2 0 53 45 0 2277.48 
-8 2 0 68 60 0 3873.38 
-9 2 0 85 77 0 6191.7 
-10 2 0 104 96 0 9424.53 
10 1 0 101 99 0 10104.5 
9 1 0 82 80 0 6690.17 
8 1 0 65 63 0 4228.02 
7 1 0 50 48 0 2521.27 
6 1 0 37 35 0 1395.97 
5 1 0 26 24 0 701.11 
4 1 0 17 15 0 308.587 
3 1 0 10 8 0 113.208 
2 1 0 5 3 0 32.6918 
1 1 0 2 0 0 7.67418 
0 1 0 1 -1 0 1.70186 
-1 1 0 2 0 0 1.23508 
-2 1 0 5 3 0 15.6471 
-3 1 0 10 8 0 77.2243 
-4 1 0 17 15 0 241.166 
-5 1 0 26 24 0 585.585 
-6 1 0 37 35 0 1211.51 
-7 1 0 50 48 0 2242.87 
-8 1 0 65 63 0 3826.52 
-9 1 0 82 80 0 6132.23 
-10 1 0 101 99 0 9352.68 
10 0 0 100 100 0 9851.25 
9 0 0 81 81 0 6490.52 
8 0 0 64 64 0 4074.13 
7 0 0 49 49 0 2405.82 
6 0 0 36 36 0 1312.24 
5 0 0 25 25 0 642.97 
4 0 0 16 16 0 270.485 
3 0 0 9 9 0 90.1805 
2 0 0 4 4 0 20.3658 
1 0 0 1 1 0 2.26136 
0 0 0 0 0 0 0.00119022 
-1 0 0 1 1 0 0.632405 
-2 0 0 4 4 0 14.1151 
-3 0 0 9 9 0 73.3226 
-4 0 0 16 16 0 234.041 
-5 0 0 25 25 0 574.97 
-6 0 0 36 36 0 1197.72 
-7 0 0 49 49 0 2226.82 
-8 0 0 64 64 0 3809.71 
-9 0 0 81 81 0 6116.73 
-10 0 0 100 100 0 9341.16 
10 -1 0 101 99 0 9736.14 
9 -1 0 82 80 0 6404.38 
8 -1 0 65 63 0 4011.49 
7 -1 0 50 48 0 2361.83 
6 -1 0 37 35 0 1282.61 
5 -1 0 26 24 0 624.008 
4 -1 0 17 15 0 259.083 
3 -1 0 10 8 0 83.8191 
2 -1 0 5 3 0 17.1108 
1 -1 0 2 0 0 0.766076 
0 -1 0 1 -1 0 -0.494308 
-1 -1 0 2 0 0 0.963652 
-2 -1 0 5 3 0 15.687 
-3 -1 0 10 8 0 77.1357 
-4 -1 0 17 15 0 241.683 
-5 -1 0 26 24 0 588.615 
-6 -1 0 37 35 0 1220.13 
-7 -1 0 50 48 0 2261.34 
-8 -1 0 65 63 0 3860.28 
-9 -1 0 82 80 0 6187.87 
-10 -1 0 101 99 0 9437.98 
10 -2 0 104 96 0 9704.71 
9 -2 0 85 77 0 6382.57 
8 -2 0 68 60 0 3996.29 
7 -2 0 53 45 0 2350.8 
6 -2 0 40 32 0 1273.93 
5 -2 0 29 21 0 616.414 
4 -2 0 20 12 0 251.91 
3 -2 0 13 5 0 76.9872 
2 -2 0 8 0 0 11.1278 
1 -2 0 5 -3 0 -3.27384 
0 -2 0 4 -4 0 -0.909848 
-1 -2 0 5 -3 0 6.44057 
-2 -2 0 8 0 0 29.9113 
-3 -2 0 13 5 0 103.549 
-4 -2 0 20 12 0 284.314 
-5 -2 0 29 21 0 652.08 
-6 -2 0 40 32 0 1309.63 
-7 -2 0 53 45 0 2382.67 
-8 -2 0 68 60 0 4019.8 
-9 -2 0 85 77 0 6392.56 
-10 -2 0 104 96 0 9695.38 
10 -3 0 109 91 0 9706.69 
9 -3 0 90 72 0 6380.16 
8 -3 0 73 55 0 3988.93 
7 -3 0 58 40 0 2338.5 
6 -3 0 45 27 0 1257.28 
5 -3 0 34 16 0 596.603 
4 -3 0 25 7 0 230.717 
3 -3 0 18 0 0 56.7741 
2 -3 0 13 -5 0 -5.15711 
1 -3 0 10 -8 0 -12.0951 
0 -3 0 9 -9 0 1.85482 
-1 -3 0 10 -8 0 25.5004 
-2 -3 0 13 -5 0 70.5622 
-3 -3 0 18 0 0 171.674 
-4 -3 0 25 7 0 386.383 
-5 -3 0 34 16 0 795.149 
-6 -3 0 45 27 0 1501.35 
-7 -3 0 58 40 0 2631.26 
-8 -3 0 73 55 0 4334.08 
-9 -3 0 90 72 0 6781.94 
-10 -3 0 109 91 0 10169.8 
10 -4 0 116 84 0 9696.05 
9 -4 0 97 65 0 6356.46 
8 -4 0 80 48 0 3954.04 
7 -4 0 65 33 0 2294.87 
6 -4 0 52 20 0 1207.95 
5 -4 0 41 9 0 545.217 
4 -4 0 32 0 0 181.483 
3 -4 0 25 -7 0 14.4949 
2 -4 0 20 -12 0 -35.0919 
1 -4 0 17 -15 0 -23.7089 
0 -4 0 16 -16 0 15.1254 
-1 -4 0 17 -15 0 70.8057 
-2 -4 0 20 -12 0 155.639 
-3 -4 0 25 -7 0 304.847 
-4 -4 0 32 0 0 576.563 
-5 -4 0 41 9 0 1051.83 
-6 -4 0 52 20 0 1834.62 
-7 -4 0 65 33 0 3051.79 
-8 -4 0 80 48 0 4853.14 
-9 -4 0 97 65 0 7411.36 
-10 -4 0 116 84 0 10922.1 
10 -5 0 125 75 0 9630.96 
9 -5 0 106 56 0 6274.98 
8 -5 0 89 39 0 3860.47 
7 -5 0 74 24 0 2194.11 
6 -5 0 61 11 0 1105.49 
5 -5 0 50 0 0 447.122 
4 -5 0 41 -9 0 94.4111 
3 -5 0 34 -16 0 -54.3102 
2 -5 0 29 -21 0 -77.7994 
1 -5 0 26 -24 0 -31.9011 
0 -5 0 25 -25 0 50.4532 
-1 -5 0 26 -24 0 159.245 
-2 -5 0 29 -21 0 307.368 
-3 -5 0 34 -16 0 530.631 
-4 -5 0 41 -9 0 887.754 
-5 -5 0 50 0 0 1460.37 
-6 -5 0 61 11 0 2353.03 
-7 -5 0 74 24 0 3693.18 
-8 -5 0 89 39 0 5631.21 
-9 -5 0 106 56 0 8340.4 
-10 -5 0 125 75 0 12016.9 
10 -6 0 136 64 0 9473.83 
9 -6 0 117 45 0 6103.45 
8 -6 0 100 28 0 3681.3 
7 -6 0 85 13 0 2014.64 
6 -6 0 72 0 0 933.649 
5 -6 0 61 -11 0 291.41 
4 -6 0 52 -20 0 -36.0701 
3 -6 0 45 -27 0 -149.875 
2 -6 0 40 -32 0 -128.177 
1 -6 0 37 -35 0 -26.2318 
0 -6 0 36 -36 0 123.615 
-1 -6 0 37 -35 0 311.931 
-2 -6 0 40 -32 0 552.199 
-3 -6 0 45 -27 0 880.812 
-4 -6 0 52 -20 0 1357.08 
-5 -6 0 61 -11 0 2063.22 
-6 -6 0 72 0 0 3104.37 
-7 -6 0 85 13 0 4608.57 
-8 -6 0 100 28 0 6726.78 
-9 -6 0 117 45 0 9632.88 
-10 -6 0 136 64 0 13523.7 
10 -7 0 149 51 0 9191.29 
9 -7 0 130 32 0 5813.86 
8 -7 0 113 15 0 3393.85 
7 -7 0 98 0 0 1739.11 
6 -7 0 85 -13 0 680.401 
5 -7 0 74 -24 0 71.3985 
4 -7 0 65 -33 0 -211.306 
3 -7 0 58 -40 0 -268.21 
2 -7 0 53 -45 0 -176.896 
1 -7 0 50 -48 0 7.96402 
0 -7 0 49 -49 0 254.612 
-1 -7 0 50 -48 0 554.204 
-2 -7 0 53 -45 0 920.807 
-3 -7 0 58 -40 0 1391.4 
-4 -7 0 65 -33 0 2025.89 
-5 -7 0 74 -24 0 2907.07 
-6 -7 0 85 -13 0 4140.66 
-7 -7 0 98 0 0 5855.3 
-8 -7 0 113 15 0 8202.54 
-9 -7 0 130 32 0 11356.8 
-10 -7 0 149 51 0 15515.6 
10 -8 0 164 36 0 8754.2 
9 -8 0 145 17 0 5382.4 
8 -8 0 128 0 0 2979.65 
7 -8 0 113 -15 0 1354.38 
6 -8 0 100 -28 0 337.955 
5 -8 0 89 -39 0 -215.37 
4 -8 0 80 -48 0 -428.417 
3 -8 0 73 -55 0 -401.096 
2 -8 0 68 -60 0 -210.403 
1 -8 0 65 -63 0 89.5771 
0 -8 0 64 -64 0 467.673 
-1 -8 0 65 -63 0 915.628 
-2 -8 0 68 -60 0 1448.1 
-3 -8 0 73 -55 0 2102.64 
-4 -8 0 80 -48 0 2939.76 
-5 -8 0 89 -39 0 4042.83 
-6 -8 0 100 -28 0 5518.16 
-7 -8 0 113 -15 0 7494.98 
-8 -8 0 128 0 0 10125.4 
-9 -8 0 145 17 0 13584.5 
-10 -8 0 164 36 0 18070.2 
10 -9 0 181 19 0 8137.65 
9 -9 0 162 0 0 4789.48 
8 -9 0 145 -17 0 2424.44 
7 -9 0 130 -32 0 851.55 
6 -9 0 117 -45 0 -97.2571 
5 -9 0 106 -56 0 -567.128 
4 -9 0 97 -65 0 -680.298 
3 -9 0 90 -72 0 -536.092 
2 -9 0 85 -77 0 -210.919 
1 -9 0 82 -80 0 241.723 
0 -9 0 81 -81 0 791.251 
-1 -9 0 82 -80 0 1429.99 
-2 -9 0 85 -77 0 2173.19 
-3 -9 0 90 -72 0 3059 
-4 -9 0 97 -65 0 4148.49 
-5 -9 0 106 -56 0 5525.64 
-6 -9 0 117 -45 0 7297.34 
-7 -9 0 130 -32 0 9593.4 
-8 -9 0 145 -17 0 12566.6 
-9 -9 0 162 0 0 16392.4 
-10 -9 0 181 19 0 21269.5 
10 -10 0 200 0 0 7320.94 
9 -10 0 181 -19 0 4019.76 
8 -10 0 164 -36 0 1718.22 
7 -10 0 149 -51 0 225.934 
6 -10 0 136 -64 0 -624.579 
5 -10 0 125 -75 0 -977.88 
4 -10 0 116 -84 0 -955.618 
3 -10 0 109 -91 0 -656.53 
2 -10 0 104 -96 0 -156.439 
1 -10 0 101 -99 0 491.745 
0 -10 0 100 -100 0 1258.02 
-1 -10 0 101 -99 0 2135.31 
-2 -10 0 104 -96 0 3139.44 
-3 -10 0 109 -91 0 4309.16 
-4 -10 0 116 -84 0 5706.1 
-5 -10 0 125 -75 0 7414.86 
-6 -10 0 136 -64 0 9542.9 
-7 -10 0 149 -51 0 12220.6 
-8 -10 0 164 -36 0 15601.3 
-9 -10 0 181 -19 0 19861.2 
-10 -10 0 200 0 0 25199.5 
4 0 1 22 21 
4 1 2 23 22 
4 2 3 24 23 
4 3 4 25 24 
4 4 5 26 25 
4 5 6 27 26 
4 6 7 28 27 
4 7 8 29 28 
4 8 9 30 29 
4 9 10 31 30 
4 10 11 32 31 
4 11 12 33 32 
4 12 13 34 33 
4 13 14 35 34 
4 14 15 36 35 
4 15 16 37 36 
4 16 17 38 37 
4 17 18 39 38 
4 18 19 40 39 
4 19 20 41 40 
4 21 22 43 42 
4 22 23 44 43 
4 23 24 45 44 
4 24 25 46 45 
4 25 26 47 46 
4 26 27 48 47 
4 27 28 49 48 
4 28 29 50 49 
4 29 30 51 50 
4 30 31 52 51 
4 31 32 53 52 
4 32 33 54 53 
4 33 34 55 54 
4 34 35 56 55 
4 35 36 57 56 
4 36 37 58 57 
4 37 38 59 58 
4 38 39 60 59 
4 39 40 61 60 
4 40 41 62 61 
4 42 43 64 63 
4 43 44 65 64 
4 44 45 66 65 
4 45 46 67 66 
4 46 47 68 67 
4 47 48 69 68 
4 48 49 70 69 
4 49 50 71 70 
4 50 51 72 71 
4 51 52 73 72 
4 52 53 74 73 
4 53 54 75 74 
4 54 55 76 75 
4 55 56 77 76 
4 56 57 78 77 
4 57 58 79 78 
4 58 59 80 79 
4 59 60 81 80 
4 60 61 82 81 
4 61 62 83 82 
4 63 64 85 84 
4 64 65 86 85 
4 65 66 87 86 
4 66 67 88 87 
4 67 68 89 88 
4 68 69 90 89 
4 69 70 91 90 
4 70 71 92 91 
4 71 72 93 92 
4 72 73 94 93 
4 73 74 95 94 
4 74 75 96 95 
4 75 76 97 96 
4 76 77 98 97 
4 77 78 99 98 
4 78 79 100 99 
4 79 80 101 100 
4 80 81 102 101 
4 81 82 103 102 
4 82 83 104 103 
4 84 85 106 105 
4 85 86 107 106 
4 86 87 108 107 
4 87 88 109 108 
4 88 89 110 109 
4 89 90 111 110 
4 90 91 112 111 
4 91 92 113 112 
4 92 93 114 113 
4 93 94 115 114 
4 94 95 116 115 
4 95 96 117 116 
4 96 97 118 117 
4 97 98 119 118 
4 98 99 120 119 
4 99 100 121 120 
4 100 101 122 121 
4 101 102 123 122 
4 102 103 124 123 
4 103 104 125 124 
4 105 106 127 126 
4 106 107 128 127 
4 107 108 129 128 
4 108 109 130 129 
4 109 110 131 130 
4 110 111 132 131 
4 111 112 133 132 
4 112 113 134 133 
4 113 114 135 134 
4 114 115 136 135 
4 115 116 137 136 
4 116 117 138 137 
4 117 118 139 138 
4 118 119 140 139 
4 119 120 141 140 
4 120 121 142 141 
4 121 122 143 142 
4 122 123 144 143 
4 123 124 145 144 
4 124 125 146 145 
4 126 127 148 147 
4 127 128 149 148 
4 128 129 150 149 
4 129 130 151 150 
4 130 131 152 151 
4 131 132 153 152 
4 132 133 154 153 
4 133 134 155 154 
4 134 135 156 155 
4 135 136 157 156 
4 136 137 158 157 
4 137 138 159 158 
4 138 139 160 159 
4 139 140 161 160 
4 140 141 162 161 
4 141 142 163 162 
4 142 143 164 163 
4 143 144 165 164 
4 144 145 166 165 
4 145 146 167 166 
4 147 148 169 168 
4 148 149 170 169 
4 149 150 171 170 
4 150 151 172 171 
4 151 152 173 172 
4 152 153 174 173 
4 153 154 175 174 
4 154 155 176 175 
4 155 156 177 176 
4 156 157 178 177 
4 157 158 179 178 
4 158 159 180 179 
4 159 160 181 180 
4 160 161 182 181 
4 161 162 183 182 
4 162 163 184 183 
4 163 164 185 184 
4 164 165 186 185 
4 165 166 187 186 
4 166 167 188 187 
4 168 169 190 189 
4 169 170 191 190 
4 170 171 192 191 
4 171 172 193 192 
4 172 173 194 193 
4 173 174 195 194 
4 174 175 196 195 
4 175 176 197 196 
4 176 177 198 197 
4 177 178 199 198 
4 178 179 200 199 
4 179 180 201 200 
4 180 181 202 201 
4 181 182 203 202 
4 182 183 204 203 
4 183 184 205 204 
4 184 185 206 205 
4 185 186 207 206 
4 186 187 208 207 
4 187 188 209 208 
4 189 190 211 210 
4 190 191 212 211 
4 191 192 213 212 
4 192 193 214 213 
4 193 194 215 214 
4 194 195 216 215 
4 195 196 217 216 
4 196 197 218 217 
4 197 198 219 218 
4 198 199 220 219 
4 199 200 221 220 
4 200 201 222 221 
4 201 202 223 222 
4 202 203 224 223 
4 203 204 225 224 
4 204 205 226 225 
4 205 206 227 226 
4 206 207 228 227 
4 207 208 229 228 
4 208 209 230 229 
4 210 211 232 231 
4 211 212 233 232 
4 212 213 234 233 
4 213 214 235 234 
4 214 215 236 235 
4 215 216 237 236 
4 216 217 238 237 
4 217 218 239 238 
4 218 219 240 239 
4 219 220 241 240 
4 220 221 242 241 
4 221 222 243 242 
4 222 223 244 243 
4 223 224 245 244 
4 224 225 246 245 
4 225 226 247 246 
4 226 227 248 247 
4 227 228 249 248 
4 228 229 250 249 
4 229 230 251 250 
4 231 232 253 252 
4 232 233 254 253 
4 233 234 255 254 
4 234 235 256 255 
4 235 236 257 256 
4 236 237 258 257 
4 237 238 259 258 
4 238 239 260 259 
4 239 240 261 260 
4 240 241 262 261 
4 241 242 263 262 
4 242 243 264 263 
4 243 244 265 264 
4 244 245 266 265 
4 245 246 267 266 
4 246 247 268 267 
4 247 248 269 268 
4 248 249 270 269 
4 249 250 271 270 
4 250 251 272 271 
4 252 253 274 273 
4 253 254 275 274 
4 254 255 276 275 
4 255 256 277 276 
4 256 257 278 277 
4 257 258 279 278 
4 258 259 280 279 
4 259 260 281 280 
4 260 261 282 281 
4 261 262 283 282 
4 262 263 284 283 
4 263 264 285 284 
4 264 265 286 285 
4 265 266 287 286 
4 266 267 288 287 
4 267 268 289 288 
4 268 269 290 289 
4 269 270 291 290 
4 270 271 292 291 
4 271 272 293 292 
4 273 274 295 294 
4 274 275 296 295 
4 275 276 297 296 
4 276 277 298 297 
4 277 278 299 298 
4 278 279 300 299 
4 279 280 301 300 
4 280 281 302 301 
4 281 282 303 302 
4 282 283 304 303 
4 283 284 305 304 
4 284 285 306 305 
4 285 286 307 306 
4 286 287 308 307 
4 287 288 309 308 
4 288 289 310 309 
4 289 290 311 310 
4 290 291 312 311 
4 291 292 313 312 
4 292 293 314 313 
4 294 295 316 315 
4 295 296 317 316 
4 296 297 318 317 
4 297 298 319 318 
4 298 299 320 319 
4 299 300 321 320 
4 300 301 322 321 
4 301 302 323 322 
4 302 303 324 323 
4 303 304 325 324 
4 304 305 326 325 
4 305 306 327 326 
4 306 307 328 327 
4 307 308 329 328 
4 308 309 330 329 
4 309 310 331 330 
4 310 311 332 331 
4 311 312 333 332 
4 312 313 334 333 
4 313 314 335 334 
4 315 316 337 336 
4 316 317 338 337 
4 317 318 339 338 
4 318 319 340 339 
4 319 320 341 340 
4 320 321 342 341 
4 321 322 343 342 
4 322 323 344 343 
4 323 324 345 344 
4 324 325 346 345 
4 325 326 347 346 
4 326 327 348 347 
4 327 328 349 348 
4 328 329 350 349 
4 329 330 351 350 
4 330 331 352 351 
4 331 332 353 352 
4 332 333 354 353 
4 333 334 355 354 
4 334 335 356 355 
4 336 337 358 357 
4 337 338 359 358 
4 338 339 360 359 
4 339 340 361 360 
4 340 341 362 361 
4 341 342 363 362 
4 342 343 364 363 
4 343 344 365 364 
4 344 345 366 365 
4 345 346 367 366 
4 346 347 368 367 
4 347 348 369 368 
4 348 349 370 369 
4 349 350 371 370 
4 350 351 372 371 
4 351 352 373 372 
4 352 353 374 373 
4 353 354 375 374 
4 354 355 376 375 
4 355 356 377 376 
4 357 358 379 378 
4 358 359 380 379 
4 359 360 381 380 
4 360 361 382 381 
4 361 362 383 382 
4 362 363 384 383 
4 363 364 385 384 
4 364 365 386 385 
4 365 366 387 386 
4 366 367 388 387 
4 367 368 389 388 
4 368 369 390 389 
4 369 370 391 390 
4 370 371 392 391 
4 371 372 393 392 
4 372 373 394 393 
4 373 374 395 394 
4 374 375 396 395 
4 375 376 397 396 
4 376 377 398 397 
4 378 379 400 399 
4 379 380 401 400 
4 380 381 402 401 
4 381 382 403 402 
4 382 383 404 403 
4 383 384 405 404 
4 384 385 406 405 
4 385 386 407 406 
4 386 387 408 407 
4 387 388 409 408 
4 388 389 410 409 
4 389 390 411 410 
4 390 391 412 411 
4 391 392 413 412 
4 392 393 414 413 
4 393 394 415 414 
4 394 395 416 415 
4 395 396 417 416 
4 396 397 418 417 
4 397 398 419 418 
4 399 400 421 420 
4 400 401 422 421 
4 401 402 423 422 
4 402 403 424 423 
4 403 404 425 424 
4 404 405 426 425 
4 405 406 427 426 
4 406 407 428 427 
4 407 408 429 428 
4 408 409 430 429 
4 409 410 431 430 
4 410 411 432 431 
4 411 412 433 432 
4 412 413 434 433 
4 413 414 435 434 
4 414 415 436 435 
4 415 416 437 436 
4 416 417 438 437 
4 417 418 439 438 
4 418 419 440 439 
