ply
format ascii 1.0
comment created by PolyEditor
comment modified by learnply
element vertex 441
property float64 x
property float64 y
property float64 z
property float64 vx
property float64 vy
property float64 vz
property float64 s
element face 400
property list uint8 int32 vertex_indices
end_header
10 10 0 200 0 0 1020.1 
9 10 0 181 -19 0 805.044 
8 10 0 164 -36 0 628.89 
7 10 0 149 -51 0 487.547 
6 10 0 136 -64 0 376.929 
5 10 0 125 -75 0 292.951 
4 10 0 116 -84 0 231.527 
3 10 0 109 -91 0 188.572 
2 10 0 104 -96 0 159.999 
1 10 0 101 -99 0 141.722 
0 10 0 100 -100 0 129.656 
-1 10 0 101 -99 0 119.716 
-2 10 0 104 -96 0 107.815 
-3 10 0 109 -91 0 89.8679 
-4 10 0 116 -84 0 61.7886 
-5 10 0 125 -75 0 19.4914 
-6 10 0 136 -64 0 -41.1094 
-7 10 0 149 -51 0 -124.1 
-8 10 0 164 -36 0 -233.565 
-9 10 0 181 -19 0 -373.591 
-10 10 0 200 0 0 -548.264 
10 9 0 181 19 0 965.311 
9 9 0 162 0 0 752.966 
8 9 0 145 -17 0 579.369 
7 9 0 130 -32 0 440.434 
6 9 0 117 -45 0 332.077 
5 9 0 106 -56 0 250.21 
4 9 0 97 -65 0 190.749 
3 9 0 90 -72 0 149.608 
2 9 0 85 -77 0 122.7 
1 9 0 82 -80 0 105.941 
0 9 0 81 -81 0 95.2434 
-1 9 0 82 -80 0 86.5227 
-2 9 0 85 -77 0 75.6929 
-3 9 0 90 -72 0 58.6681 
-4 9 0 97 -65 0 31.3626 
-5 9 0 106 -56 0 -10.3094 
-6 9 0 117 -45 0 -70.4336 
-7 9 0 130 -32 0 -153.096 
-8 9 0 145 -17 0 -262.382 
-9 9 0 162 0 0 -402.377 
-10 9 0 181 19 0 -577.168 
10 8 0 164 36 0 917.94 
9 8 0 145 17 0 708.238 
8 8 0 128 0 0 537.136 
7 8 0 113 -15 0 400.547 
6 8 0 100 -28 0 294.387 
5 8 0 89 -39 0 214.569 
4 8 0 80 -48 0 157.008 
3 8 0 73 -55 0 117.618 
2 8 0 68 -60 0 92.3136 
1 8 0 65 -63 0 77.0083 
0 8 0 64 -64 0 67.6166 
-1 8 0 65 -63 0 60.0529 
-2 8 0 68 -60 0 50.2314 
-3 8 0 73 -55 0 34.0663 
-4 8 0 80 -48 0 7.47184 
-5 8 0 89 -39 0 -33.6377 
-6 8 0 100 -28 0 -93.3481 
-7 8 0 113 -15 0 -175.745 
-8 8 0 128 0 0 -284.914 
-9 8 0 145 17 0 -424.942 
-10 8 0 164 36 0 -599.913 
10 7 0 149 51 0 877.232 
9 7 0 130 32 0 670.111 
8 7 0 113 15 0 501.44 
7 7 0 98 0 0 367.135 
6 7 0 85 -13 0 263.109 
5 7 0 74 -24 0 185.277 
4 7 0 65 -33 0 129.554 
3 7 0 58 -40 0 91.8526 
2 7 0 53 -45 0 68.0879 
1 7 0 50 -48 0 54.174 
0 7 0 49 -49 0 46.0252 
-1 7 0 50 -48 0 39.5557 
-2 7 0 53 -45 0 30.6797 
-3 7 0 58 -40 0 15.3116 
-4 7 0 65 -33 0 -10.6345 
-5 7 0 74 -24 0 -51.2443 
-6 7 0 85 -13 0 -110.604 
-7 7 0 98 0 0 -192.798 
-8 7 0 113 15 0 -301.914 
-9 7 0 130 32 0 -442.036 
-10 7 0 149 51 0 -617.251 
10 6 0 136 64 0 842.436 
9 6 0 117 45 0 637.832 
8 6 0 100 28 0 471.531 
7 6 0 85 13 0 339.446 
6 6 0 72 0 0 237.492 
5 6 0 61 -11 0 161.584 
4 6 0 52 -20 0 107.635 
3 6 0 45 -27 0 71.5594 
2 6 0 40 -32 0 49.272 
1 6 0 37 -35 0 36.6868 
0 6 0 36 -36 0 29.7181 
-1 6 0 37 -35 0 24.2801 
-2 6 0 40 -32 0 16.287 
-3 6 0 45 -27 0 1.65306 
-4 6 0 52 -20 0 -23.7075 
-5 6 0 61 -11 0 -63.8803 
-6 6 0 72 0 0 -122.951 
-7 6 0 85 13 0 -205.006 
-8 6 0 100 28 0 -314.131 
-9 6 0 117 45 0 -454.41 
-10 6 0 136 64 0 -629.931 
10 5 0 125 75 0 812.801 
9 5 0 106 56 0 610.652 
8 5 0 89 39 0 446.657 
7 5 0 74 24 0 316.73 
6 5 0 61 11 0 216.785 
5 5 0 50 0 0 142.737 
4 5 0 41 -9 0 90.5 
3 5 0 34 -16 0 55.9879 
2 5 0 29 -21 0 35.1151 
1 5 0 26 -24 0 23.7959 
0 5 0 25 -25 0 17.9445 
-1 5 0 26 -24 0 13.4752 
-2 5 0 29 -21 0 6.30222 
-3 5 0 34 -16 0 -7.66024 
-4 5 0 41 -9 0 -32.4979 
-5 5 0 50 0 0 -72.2966 
-6 5 0 61 11 0 -131.142 
-7 5 0 74 24 0 -213.12 
-8 5 0 89 39 0 -322.316 
-9 5 0 106 56 0 -462.816 
-10 5 0 125 75 0 -638.706 
10 4 0 116 84 0 787.576 
9 4 0 97 65 0 587.819 
8 4 0 80 48 0 426.068 
7 4 0 65 33 0 298.235 
6 4 0 52 20 0 200.237 
5 4 0 41 9 0 127.987 
4 4 0 32 0 0 77.3988 
3 4 0 25 -7 0 44.3872 
2 4 0 20 -12 0 24.8662 
1 4 0 17 -15 0 14.7503 
0 4 0 16 -16 0 9.95349 
-1 4 0 17 -15 0 6.39015 
-2 4 0 20 -12 0 -0.0255139 
-3 4 0 25 -7 0 -13.3793 
-4 4 0 32 0 0 -37.7568 
-5 4 0 41 9 0 -77.244 
-6 4 0 52 20 0 -135.927 
-7 4 0 65 33 0 -217.89 
-8 4 0 80 48 0 -327.221 
-9 4 0 97 65 0 -468.004 
-10 4 0 116 84 0 -644.325 
10 3 0 109 91 0 766.01 
9 3 0 90 72 0 568.582 
8 3 0 73 55 0 409.012 
7 3 0 58 40 0 283.212 
6 3 0 45 27 0 187.097 
5 3 0 34 16 0 116.582 
4 3 0 25 7 0 67.5802 
3 3 0 18 0 0 36.0063 
2 3 0 13 -5 0 17.7744 
1 3 0 10 -8 0 8.79894 
0 3 0 9 -9 0 4.99402 
-1 3 0 10 -8 0 2.2739 
-2 3 0 13 -5 0 -3.44716 
-3 3 0 18 0 0 -16.2549 
-4 3 0 25 7 0 -40.2351 
-5 3 0 34 16 0 -79.4736 
-6 3 0 45 27 0 -138.056 
-7 3 0 58 40 0 -220.068 
-8 3 0 73 55 0 -329.596 
-9 3 0 90 72 0 -470.725 
-10 3 0 109 91 0 -647.541 
10 2 0 104 96 0 747.352 
9 2 0 85 77 0 552.191 
8 2 0 68 60 0 394.739 
7 2 0 53 45 0 270.908 
6 2 0 40 32 0 176.614 
5 2 0 29 21 0 107.771 
4 2 0 20 12 0 60.2932 
3 2 0 13 5 0 30.0942 
2 2 0 8 0 0 13.0888 
1 2 0 5 -3 0 5.19102 
0 2 0 4 -4 0 2.3152 
-1 2 0 5 -3 0 0.375561 
-2 2 0 8 0 0 -4.71365 
-3 2 0 13 5 0 -17.0382 
-4 2 0 20 12 0 -40.6838 
-5 2 0 29 21 0 -79.7363 
-6 2 0 40 32 0 -138.281 
-7 2 0 53 45 0 -220.405 
-8 2 0 68 60 0 -330.192 
-9 2 0 85 77 0 -471.73 
-10 2 0 104 96 0 -649.103 
10 1 0 101 99 0 730.851 
9 1 0 82 80 0 537.894 
8 1 0 65 63 0 382.497 
7 1 0 50 48 0 260.573 
6 1 0 37 35 0 168.038 
5 1 0 26 24 0 100.804 
4 1 0 17 15 0 54.7869 
3 1 0 10 8 0 25.9002 
2 1 0 5 3 0 10.0583 
1 1 0 2 0 0 3.17554 
0 1 0 1 -1 0 1.16608 
-1 1 0 2 0 0 -0.0558184 
-2 1 0 5 3 0 -4.57591 
-3 1 0 10 8 0 -16.48 
-4 1 0 17 15 0 -39.8537 
-5 1 0 26 24 0 -78.783 
-6 1 0 37 35 0 -137.353 
-7 1 0 50 48 0 -219.651 
-8 1 0 65 63 0 -329.761 
-9 1 0 82 80 0 -471.77 
-10 1 0 101 99 0 -649.763 
10 0 0 100 100 0 715.756 
9 0 0 81 81 0 524.941 
8 0 0 64 64 0 371.536 
7 0 0 49 49 0 251.457 
6 0 0 36 36 0 160.616 
5 0 0 25 25 0 94.9295 
4 0 0 16 16 0 50.3103 
3 0 0 9 9 0 22.6731 
2 0 0 4 4 0 7.93213 
1 0 0 1 1 0 2.00159 
0 0 0 0 0 0 0.79574 
-1 0 0 1 1 0 0.228828 
-2 0 0 4 4 0 -3.78491 
-3 0 0 9 9 0 -15.3312 
-4 0 0 16 16 0 -38.4959 
-5 0 0 25 25 0 -77.3646 
-6 0 0 36 36 0 -136.023 
-7 0 0 49 49 0 -218.557 
-8 0 0 64 64 0 -329.053 
-9 0 0 81 81 0 -471.596 
-10 0 0 100 100 0 -650.271 
10 -1 0 101 99 0 701.317 
9 -1 0 82 80 0 512.58 
8 -1 0 65 63 0 361.105 
7 -1 0 50 48 0 242.807 
6 -1 0 37 35 0 153.599 
5 -1 0 26 24 0 89.3964 
4 -1 0 17 15 0 46.1126 
3 -1 0 10 8 0 19.6621 
2 -1 0 5 3 0 5.95926 
1 -1 0 2 0 0 0.91821 
0 -1 0 1 -1 0 0.45323 
-1 -1 0 2 0 0 0.478561 
-2 -1 0 5 3 0 -3.09156 
-3 -1 0 10 8 0 -14.3429 
-4 -1 0 17 15 0 -37.3612 
-5 -1 0 26 24 0 -76.2322 
-6 -1 0 37 35 0 -135.042 
-7 -1 0 50 48 0 -217.875 
-8 -1 0 65 63 0 -328.819 
-9 -1 0 82 80 0 -471.958 
-10 -1 0 101 99 0 -651.379 
10 -2 0 104 96 0 686.782 
9 -2 0 85 77 0 500.061 
8 -2 0 68 60 0 350.453 
7 -2 0 53 45 0 233.873 
6 -2 0 40 32 0 146.236 
5 -2 0 29 21 0 83.4539 
4 -2 0 20 12 0 41.4427 
3 -2 0 13 5 0 16.1163 
2 -2 0 8 0 0 3.38878 
1 -2 0 5 -3 0 -0.825526 
0 -2 0 4 -4 0 -0.612384 
-1 -2 0 5 -3 0 -0.057558 
-2 -2 0 8 0 0 -3.2468 
-3 -2 0 13 5 0 -14.2659 
-4 -2 0 20 12 0 -37.2005 
-5 -2 0 29 21 0 -76.1365 
-6 -2 0 40 32 0 -135.16 
-7 -2 0 53 45 0 -218.356 
-8 -2 0 68 60 0 -329.81 
-9 -2 0 85 77 0 -473.609 
-10 -2 0 104 96 0 -653.838 
10 -3 0 109 91 0 671.4 
9 -3 0 90 72 0 486.632 
8 -3 0 73 55 0 338.829 
7 -3 0 58 40 0 223.905 
6 -3 0 45 27 0 137.774 
5 -3 0 34 16 0 76.3511 
4 -3 0 25 7 0 35.5498 
3 -3 0 18 0 0 11.2846 
2 -3 0 13 -5 0 -0.530259 
1 -3 0 10 -8 0 -3.98056 
0 -3 0 9 -9 0 -3.15204 
-1 -3 0 10 -8 0 -2.13047 
-2 -3 0 13 -5 0 -5.00159 
-3 -3 0 18 0 0 -15.8512 
-4 -3 0 25 7 0 -38.7649 
-5 -3 0 34 16 0 -77.8287 
-6 -3 0 45 27 0 -137.128 
-7 -3 0 58 40 0 -220.749 
-8 -3 0 73 55 0 -332.777 
-9 -3 0 90 72 0 -477.299 
-10 -3 0 109 91 0 -658.399 
10 -4 0 116 84 0 654.421 
9 -4 0 97 65 0 471.544 
8 -4 0 80 48 0 325.482 
7 -4 0 65 33 0 212.151 
6 -4 0 52 20 0 127.464 
5 -4 0 41 9 0 67.3371 
4 -4 0 32 0 0 27.6829 
3 -4 0 25 -7 0 4.41621 
2 -4 0 20 -12 0 -6.54878 
1 -4 0 17 -15 0 -9.29783 
0 -4 0 16 -16 0 -7.91668 
-1 -4 0 17 -15 0 -6.4911 
-2 -4 0 20 -12 0 -9.10685 
-3 -4 0 25 -7 0 -19.8497 
-4 -4 0 32 0 0 -42.8053 
-5 -4 0 41 9 0 -82.0596 
-6 -4 0 52 20 0 -141.698 
-7 -4 0 65 33 0 -225.807 
-8 -4 0 80 48 0 -338.471 
-9 -4 0 97 65 0 -483.778 
-10 -4 0 116 84 0 -665.811 
10 -5 0 125 75 0 635.094 
9 -5 0 106 56 0 454.044 
8 -5 0 89 39 0 309.661 
7 -5 0 74 24 0 197.86 
6 -5 0 61 11 0 114.555 
5 -5 0 50 0 0 55.6609 
4 -5 0 41 -9 0 17.0911 
3 -5 0 34 -16 0 -5.23987 
2 -5 0 29 -21 0 -15.4177 
1 -5 0 26 -24 0 -17.5283 
0 -5 0 25 -25 0 -15.6572 
-1 -5 0 26 -24 0 -13.8904 
-2 -5 0 29 -21 0 -16.3135 
-3 -5 0 34 -16 0 -27.0123 
-4 -5 0 41 -9 0 -50.0726 
-5 -5 0 50 0 0 -89.5801 
-6 -5 0 61 11 0 -149.621 
-7 -5 0 74 24 0 -234.28 
-8 -5 0 89 39 0 -347.643 
-9 -5 0 106 56 0 -493.797 
-10 -5 0 125 75 0 -676.827 
10 -6 0 136 64 0 612.667 
9 -6 0 117 45 0 433.381 
8 -6 0 100 28 0 290.615 
7 -6 0 85 13 0 180.281 
6 -6 0 72 0 0 98.2956 
5 -6 0 61 -11 0 40.5715 
4 -6 0 52 -20 0 3.02335 
3 -6 0 45 -27 0 -18.4346 
2 -6 0 40 -32 0 -27.8881 
1 -6 0 37 -35 0 -29.4228 
0 -6 0 36 -36 0 -27.1247 
-1 -6 0 37 -35 0 -25.0793 
-2 -6 0 40 -32 0 -27.3725 
-3 -6 0 45 -27 0 -38.0901 
-4 -6 0 52 -20 0 -61.3177 
-5 -6 0 61 -11 0 -101.141 
-6 -6 0 72 0 0 -161.646 
-7 -6 0 85 13 0 -246.919 
-8 -6 0 100 28 0 -361.044 
-9 -6 0 117 45 0 -508.109 
-10 -6 0 136 64 0 -692.198 
10 -7 0 149 51 0 586.39 
9 -7 0 130 32 0 408.806 
8 -7 0 113 15 0 267.593 
7 -7 0 98 0 0 158.664 
6 -7 0 85 -13 0 77.9347 
5 -7 0 74 -24 0 21.3181 
4 -7 0 65 -33 0 -15.2712 
3 -7 0 58 -40 0 -35.9188 
2 -7 0 53 -45 0 -44.7107 
1 -7 0 50 -48 0 -45.7324 
0 -7 0 49 -49 0 -43.0699 
-1 -7 0 50 -48 0 -40.8088 
-2 -7 0 53 -45 0 -43.0349 
-3 -7 0 58 -40 0 -53.8339 
-4 -7 0 65 -33 0 -77.2916 
-5 -7 0 74 -24 0 -117.494 
-6 -7 0 85 -13 0 -178.526 
-7 -7 0 98 0 0 -264.475 
-8 -7 0 113 15 0 -379.425 
-9 -7 0 130 32 0 -527.463 
-10 -7 0 149 51 0 -712.673 
10 -8 0 164 36 0 555.511 
9 -8 0 145 17 0 379.567 
8 -8 0 128 0 0 239.844 
7 -8 0 113 -15 0 132.258 
6 -8 0 100 -28 0 52.7215 
5 -8 0 89 -39 0 -2.85036 
4 -8 0 80 -48 0 -38.5435 
3 -8 0 73 -55 0 -58.4436 
2 -8 0 68 -60 0 -66.6366 
1 -8 0 65 -63 0 -67.208 
0 -8 0 64 -64 0 -64.2438 
-1 -8 0 65 -63 0 -61.8297 
-2 -8 0 68 -60 0 -64.0514 
-3 -8 0 73 -55 0 -74.9947 
-4 -8 0 80 -48 0 -98.7453 
-5 -8 0 89 -39 0 -139.389 
-6 -8 0 100 -28 0 -201.012 
-7 -8 0 113 -15 0 -287.699 
-8 -8 0 128 0 0 -403.536 
-9 -8 0 145 17 0 -552.61 
-10 -8 0 164 36 0 -739.005 
10 -9 0 181 19 0 519.28 
9 -9 0 162 0 0 344.913 
8 -9 0 145 -17 0 206.618 
7 -9 0 130 -32 0 100.311 
6 -9 0 117 -45 0 21.9051 
5 -9 0 106 -56 0 -32.6847 
4 -9 0 97 -65 0 -67.5444 
3 -9 0 90 -72 0 -86.7598 
2 -9 0 85 -77 0 -94.4166 
1 -9 0 82 -80 0 -94.6006 
0 -9 0 81 -81 0 -91.3975 
-1 -9 0 82 -80 0 -88.8931 
-2 -9 0 85 -77 0 -91.1731 
-3 -9 0 90 -72 0 -102.323 
-4 -9 0 97 -65 0 -126.43 
-5 -9 0 106 -56 0 -167.577 
-6 -9 0 117 -45 0 -229.853 
-7 -9 0 130 -32 0 -317.342 
-8 -9 0 145 -17 0 -434.129 
-9 -9 0 162 0 0 -584.302 
-10 -9 0 181 19 0 -771.944 
10 -10 0 200 0 0 476.946 
9 -10 0 181 -19 0 304.092 
8 -10 0 164 -36 0 167.163 
7 -10 0 149 -51 0 62.0723 
6 -10 0 136 -64 0 -15.2655 
5 -10 0 125 -75 0 -68.936 
4 -10 0 116 -84 0 -103.025 
3 -10 0 109 -91 0 -121.618 
2 -10 0 104 -96 0 -128.802 
1 -10 0 101 -99 0 -128.661 
0 -10 0 100 -100 0 -125.282 
-1 -10 0 101 -99 0 -122.75 
-2 -10 0 104 -96 0 -125.151 
-3 -10 0 109 -91 0 -136.571 
-4 -10 0 116 -84 0 -161.095 
-5 -10 0 125 -75 0 -202.81 
-6 -10 0 136 -64 0 -265.801 
-7 -10 0 149 -51 0 -354.154 
-8 -10 0 164 -36 0 -471.955 
-9 -10 0 181 -19 0 -623.289 
-10 -10 0 200 0 0 -812.241 
4 0 1 22 21 
4 1 2 23 22 
4 2 3 24 23 
4 3 4 25 24 
4 4 5 26 25 
4 5 6 27 26 
4 6 7 28 27 
4 7 8 29 28 
4 8 9 30 29 
4 9 10 31 30 
4 10 11 32 31 
4 11 12 33 32 
4 12 13 34 33 
4 13 14 35 34 
4 14 15 36 35 
4 15 16 37 36 
4 16 17 38 37 
4 17 18 39 38 
4 18 19 40 39 
4 19 20 41 40 
4 21 22 43 42 
4 22 23 44 43 
4 23 24 45 44 
4 24 25 46 45 
4 25 26 47 46 
4 26 27 48 47 
4 27 28 49 48 
4 28 29 50 49 
4 29 30 51 50 
4 30 31 52 51 
4 31 32 53 52 
4 32 33 54 53 
4 33 34 55 54 
4 34 35 56 55 
4 35 36 57 56 
4 36 37 58 57 
4 37 38 59 58 
4 38 39 60 59 
4 39 40 61 60 
4 40 41 62 61 
4 42 43 64 63 
4 43 44 65 64 
4 44 45 66 65 
4 45 46 67 66 
4 46 47 68 67 
4 47 48 69 68 
4 48 49 70 69 
4 49 50 71 70 
4 50 51 72 71 
4 51 52 73 72 
4 52 53 74 73 
4 53 54 75 74 
4 54 55 76 75 
4 55 56 77 76 
4 56 57 78 77 
4 57 58 79 78 
4 58 59 80 79 
4 59 60 81 80 
4 60 61 82 81 
4 61 62 83 82 
4 63 64 85 84 
4 64 65 86 85 
4 65 66 87 86 
4 66 67 88 87 
4 67 68 89 88 
4 68 69 90 89 
4 69 70 91 90 
4 70 71 92 91 
4 71 72 93 92 
4 72 73 94 93 
4 73 74 95 94 
4 74 75 96 95 
4 75 76 97 96 
4 76 77 98 97 
4 77 78 99 98 
4 78 79 100 99 
4 79 80 101 100 
4 80 81 102 101 
4 81 82 103 102 
4 82 83 104 103 
4 84 85 106 105 
4 85 86 107 106 
4 86 87 108 107 
4 87 88 109 108 
4 88 89 110 109 
4 89 90 111 110 
4 90 91 112 111 
4 91 92 113 112 
4 92 93 114 113 
4 93 94 115 114 
4 94 95 116 115 
4 95 96 117 116 
4 96 97 118 117 
4 97 98 119 118 
4 98 99 120 119 
4 99 100 121 120 
4 100 101 122 121 
4 101 102 123 122 
4 102 103 124 123 
4 103 104 125 124 
4 105 106 127 126 
4 106 107 128 127 
4 107 108 129 128 
4 108 109 130 129 
4 109 110 131 130 
4 110 111 132 131 
4 111 112 133 132 
4 112 113 134 133 
4 113 114 135 134 
4 114 115 136 135 
4 115 116 137 136 
4 116 117 138 137 
4 117 118 139 138 
4 118 119 140 139 
4 119 120 141 140 
4 120 121 142 141 
4 121 122 143 142 
4 122 123 144 143 
4 123 124 145 144 
4 124 125 146 145 
4 126 127 148 147 
4 127 128 149 148 
4 128 129 150 149 
4 129 130 151 150 
4 130 131 152 151 
4 131 132 153 152 
4 132 133 154 153 
4 133 134 155 154 
4 134 135 156 155 
4 135 136 157 156 
4 136 137 158 157 
4 137 138 159 158 
4 138 139 160 159 
4 139 140 161 160 
4 140 141 162 161 
4 141 142 163 162 
4 142 143 164 163 
4 143 144 165 164 
4 144 145 166 165 
4 145 146 167 166 
4 147 148 169 168 
4 148 149 170 169 
4 149 150 171 170 
4 150 151 172 171 
4 151 152 173 172 
4 152 153 174 173 
4 153 154 175 174 
4 154 155 176 175 
4 155 156 177 176 
4 156 157 178 177 
4 157 158 179 178 
4 158 159 180 179 
4 159 160 181 180 
4 160 161 182 181 
4 161 162 183 182 
4 162 163 184 183 
4 163 164 185 184 
4 164 165 186 185 
4 165 166 187 186 
4 166 167 188 187 
4 168 169 190 189 
4 169 170 191 190 
4 170 171 192 191 
4 171 172 193 192 
4 172 173 194 193 
4 173 174 195 194 
4 174 175 196 195 
4 175 176 197 196 
4 176 177 198 197 
4 177 178 199 198 
4 178 179 200 199 
4 179 180 201 200 
4 180 181 202 201 
4 181 182 203 202 
4 182 183 204 203 
4 183 184 205 204 
4 184 185 206 205 
4 185 186 207 206 
4 186 187 208 207 
4 187 188 209 208 
4 189 190 211 210 
4 190 191 212 211 
4 191 192 213 212 
4 192 193 214 213 
4 193 194 215 214 
4 194 195 216 215 
4 195 196 217 216 
4 196 197 218 217 
4 197 198 219 218 
4 198 199 220 219 
4 199 200 221 220 
4 200 201 222 221 
4 201 202 223 222 
4 202 203 224 223 
4 203 204 225 224 
4 204 205 226 225 
4 205 206 227 226 
4 206 207 228 227 
4 207 208 229 228 
4 208 209 230 229 
4 210 211 232 231 
4 211 212 233 232 
4 212 213 234 233 
4 213 214 235 234 
4 214 215 236 235 
4 215 216 237 236 
4 216 217 238 237 
4 217 218 239 238 
4 218 219 240 239 
4 219 220 241 240 
4 220 221 242 241 
4 221 222 243 242 
4 222 223 244 243 
4 223 224 245 244 
4 224 225 246 245 
4 225 226 247 246 
4 226 227 248 247 
4 227 228 249 248 
4 228 229 250 249 
4 229 230 251 250 
4 231 232 253 252 
4 232 233 254 253 
4 233 234 255 254 
4 234 235 256 255 
4 235 236 257 256 
4 236 237 258 257 
4 237 238 259 258 
4 238 239 260 259 
4 239 240 261 260 
4 240 241 262 261 
4 241 242 263 262 
4 242 243 264 263 
4 243 244 265 264 
4 244 245 266 265 
4 245 246 267 266 
4 246 247 268 267 
4 247 248 269 268 
4 248 249 270 269 
4 249 250 271 270 
4 250 251 272 271 
4 252 253 274 273 
4 253 254 275 274 
4 254 255 276 275 
4 255 256 277 276 
4 256 257 278 277 
4 257 258 279 278 
4 258 259 280 279 
4 259 260 281 280 
4 260 261 282 281 
4 261 262 283 282 
4 262 263 284 283 
4 263 264 285 284 
4 264 265 286 285 
4 265 266 287 286 
4 266 267 288 287 
4 267 268 289 288 
4 268 269 290 289 
4 269 270 291 290 
4 270 271 292 291 
4 271 272 293 292 
4 273 274 295 294 
4 274 275 296 295 
4 275 276 297 296 
4 276 277 298 297 
4 277 278 299 298 
4 278 279 300 299 
4 279 280 301 300 
4 280 281 302 301 
4 281 282 303 302 
4 282 283 304 303 
4 283 284 305 304 
4 284 285 306 305 
4 285 286 307 306 
4 286 287 308 307 
4 287 288 309 308 
4 288 289 310 309 
4 289 290 311 310 
4 290 291 312 311 
4 291 292 313 312 
4 292 293 314 313 
4 294 295 316 315 
4 295 296 317 316 
4 296 297 318 317 
4 297 298 319 318 
4 298 299 320 319 
4 299 300 321 320 
4 300 301 322 321 
4 301 302 323 322 
4 302 303 324 323 
4 303 304 325 324 
4 304 305 326 325 
4 305 306 327 326 
4 306 307 328 327 
4 307 308 329 328 
4 308 309 330 329 
4 309 310 331 330 
4 310 311 332 331 
4 311 312 333 332 
4 312 313 334 333 
4 313 314 335 334 
4 315 316 337 336 
4 316 317 338 337 
4 317 318 339 338 
4 318 319 340 339 
4 319 320 341 340 
4 320 321 342 341 
4 321 322 343 342 
4 322 323 344 343 
4 323 324 345 344 
4 324 325 346 345 
4 325 326 347 346 
4 326 327 348 347 
4 327 328 349 348 
4 328 329 350 349 
4 329 330 351 350 
4 330 331 352 351 
4 331 332 353 352 
4 332 333 354 353 
4 333 334 355 354 
4 334 335 356 355 
4 336 337 358 357 
4 337 338 359 358 
4 338 339 360 359 
4 339 340 361 360 
4 340 341 362 361 
4 341 342 363 362 
4 342 343 364 363 
4 343 344 365 364 
4 344 345 366 365 
4 345 346 367 366 
4 346 347 368 367 
4 347 348 369 368 
4 348 349 370 369 
4 349 350 371 370 
4 350 351 372 371 
4 351 352 373 372 
4 352 353 374 373 
4 353 354 375 374 
4 354 355 376 375 
4 355 356 377 376 
4 357 358 379 378 
4 358 359 380 379 
4 359 360 381 380 
4 360 361 382 381 
4 361 362 383 382 
4 362 363 384 383 
4 363 364 385 384 
4 364 365 386 385 
4 365 366 387 386 
4 366 367 388 387 
4 367 368 389 388 
4 368 369 390 389 
4 369 370 391 390 
4 370 371 392 391 
4 371 372 393 392 
4 372 373 394 393 
4 373 374 395 394 
4 374 375 396 395 
4 375 376 397 396 
4 376 377 398 397 
4 378 379 400 399 
4 379 380 401 400 
4 380 381 402 401 
4 381 382 403 402 
4 382 383 404 403 
4 383 384 405 404 
4 384 385 406 405 
4 385 386 407 406 
4 386 387 408 407 
4 387 388 409 408 
4 388 389 410 409 
4 389 390 411 410 
4 390 391 412 411 
4 391 392 413 412 
4 392 393 414 413 
4 393 394 415 414 
4 394 395 416 415 
4 395 396 417 416 
4 396 397 418 417 
4 397 398 419 418 
4 399 400 421 420 
4 400 401 422 421 
4 401 402 423 422 
4 402 403 424 423 
4 403 404 425 424 
4 404 405 426 425 
4 405 406 427 426 
4 406 407 428 427 
4 407 408 429 428 
4 408 409 430 429 
4 409 410 431 430 
4 410 411 432 431 
4 411 412 433 432 
4 412 413 434 433 
4 413 414 435 434 
4 414 415 436 435 
4 415 416 437 436 
4 416 417 438 437 
4 417 418 439 438 
4 418 419 440 439 
