ply
format ascii 1.0
comment created by PolyEditor
comment modified by learnply
element vertex 441
property float64 x
property float64 y
property float64 z
property float64 vx
property float64 vy
property float64 vz
property float64 s
element face 400
property list uint8 int32 vertex_indices
end_header
10 10 0 200 0 0 1223.32 
9 10 0 181 -19 0 1027.32 
8 10 0 164 -36 0 851.543 
7 10 0 149 -51 0 695.392 
6 10 0 136 -64 0 558.265 
5 10 0 125 -75 0 439.561 
4 10 0 116 -84 0 338.679 
3 10 0 109 -91 0 255.018 
2 10 0 104 -96 0 187.979 
1 10 0 101 -99 0 136.959 
0 10 0 100 -100 0 101.359 
-1 10 0 101 -99 0 80.5766 
-2 10 0 104 -96 0 74.0121 
-3 10 0 109 -91 0 81.0644 
-4 10 0 116 -84 0 101.133 
-5 10 0 125 -75 0 133.616 
-6 10 0 136 -64 0 177.914 
-7 10 0 149 -51 0 233.426 
-8 10 0 164 -36 0 299.551 
-9 10 0 181 -19 0 375.687 
-10 10 0 200 0 0 461.235 
10 9 0 181 19 0 1084.26 
9 9 0 162 0 0 906.407 
8 9 0 145 -17 0 747.352 
7 9 0 130 -32 0 606.496 
6 9 0 117 -45 0 483.238 
5 9 0 106 -56 0 376.976 
4 9 0 97 -65 0 287.11 
3 9 0 90 -72 0 213.039 
2 9 0 85 -77 0 154.163 
1 9 0 82 -80 0 109.88 
0 9 0 81 -81 0 79.5896 
-1 9 0 82 -80 0 62.6912 
-2 9 0 85 -77 0 58.5841 
-3 9 0 90 -72 0 66.6673 
-4 9 0 97 -65 0 86.3401 
-5 9 0 106 -56 0 117.002 
-6 9 0 117 -45 0 158.051 
-7 9 0 130 -32 0 208.888 
-8 9 0 145 -17 0 268.911 
-9 9 0 162 0 0 337.52 
-10 9 0 181 19 0 414.114 
10 8 0 164 36 0 952.445 
9 8 0 145 17 0 792.34 
8 8 0 128 0 0 649.608 
7 8 0 113 -15 0 523.648 
6 8 0 100 -28 0 413.858 
5 8 0 89 -39 0 319.639 
4 8 0 80 -48 0 240.39 
3 8 0 73 -55 0 175.508 
2 8 0 68 -60 0 124.395 
1 8 0 65 -63 0 86.4492 
0 8 0 64 -64 0 61.0695 
-1 8 0 65 -63 0 47.6552 
-2 8 0 68 -60 0 45.6057 
-3 8 0 73 -55 0 54.3201 
-4 8 0 80 -48 0 73.1976 
-5 8 0 89 -39 0 101.638 
-6 8 0 100 -28 0 139.039 
-7 8 0 113 -15 0 184.801 
-8 8 0 128 0 0 238.324 
-9 8 0 145 17 0 299.005 
-10 8 0 164 36 0 366.245 
10 7 0 149 51 0 827.63 
9 7 0 130 32 0 684.874 
8 7 0 113 15 0 558.064 
7 7 0 98 0 0 446.599 
6 7 0 85 -13 0 349.879 
5 7 0 74 -24 0 267.303 
4 7 0 65 -33 0 198.27 
3 7 0 58 -40 0 142.179 
2 7 0 53 -45 0 98.4295 
1 7 0 50 -48 0 66.4206 
0 7 0 49 -49 0 45.5516 
-1 7 0 50 -48 0 35.2217 
-2 7 0 53 -45 0 34.83 
-3 7 0 58 -40 0 43.7759 
-4 7 0 65 -33 0 61.4584 
-5 7 0 74 -24 0 87.277 
-6 7 0 85 -13 0 120.631 
-7 7 0 98 0 0 160.919 
-8 7 0 113 15 0 207.54 
-9 7 0 130 32 0 259.895 
-10 7 0 149 51 0 317.381 
10 6 0 136 64 0 709.568 
9 6 0 117 45 0 583.761 
8 6 0 100 28 0 472.473 
7 6 0 85 13 0 375.105 
6 6 0 72 0 0 291.054 
5 6 0 61 -11 0 219.721 
4 6 0 52 -20 0 160.505 
3 6 0 45 -27 0 112.804 
2 6 0 40 -32 0 76.0185 
1 6 0 37 -35 0 49.5471 
0 6 0 36 -36 0 32.7891 
-1 6 0 37 -35 0 25.1438 
-2 6 0 40 -32 0 26.0103 
-3 6 0 45 -27 0 34.7879 
-4 6 0 52 -20 0 50.8757 
-5 6 0 61 -11 0 73.6731 
-6 6 0 72 0 0 102.579 
-7 6 0 85 13 0 136.993 
-8 6 0 100 28 0 176.314 
-9 6 0 117 45 0 219.942 
-10 6 0 136 64 0 267.275 
10 5 0 125 75 0 598.011 
9 5 0 106 56 0 488.753 
8 5 0 89 39 0 392.589 
7 5 0 74 24 0 308.917 
6 5 0 61 11 0 237.136 
5 5 0 50 0 0 176.647 
4 5 0 41 -9 0 126.847 
3 5 0 34 -16 0 87.1371 
2 5 0 29 -21 0 56.9156 
1 5 0 26 -24 0 35.5819 
0 5 0 25 -25 0 22.5352 
-1 5 0 26 -24 0 17.1747 
-2 5 0 29 -21 0 18.8997 
-3 5 0 34 -16 0 27.1092 
-4 5 0 41 -9 0 41.2026 
-5 5 0 50 0 0 60.5791 
-6 5 0 61 11 0 84.6379 
-7 5 0 74 24 0 112.778 
-8 5 0 89 39 0 144.399 
-9 5 0 106 56 0 178.9 
-10 5 0 125 75 0 215.68 
10 4 0 116 84 0 492.714 
9 4 0 97 65 0 399.606 
8 4 0 80 48 0 318.164 
7 4 0 65 33 0 247.788 
6 4 0 52 20 0 187.878 
5 4 0 41 9 0 137.832 
4 4 0 32 0 0 97.05 
3 4 0 25 -7 0 64.9309 
2 4 0 20 -12 0 40.8738 
1 4 0 17 -15 0 24.2781 
0 4 0 16 -16 0 14.543 
-1 4 0 17 -15 0 11.0677 
-2 4 0 20 -12 0 13.2513 
-3 4 0 25 -7 0 20.4931 
-4 4 0 32 0 0 32.1924 
-5 4 0 41 9 0 47.7482 
-6 4 0 52 20 0 66.5599 
-7 4 0 65 33 0 88.0267 
-8 4 0 80 48 0 111.548 
-9 4 0 97 65 0 136.522 
-10 4 0 116 84 0 162.349 
10 3 0 109 91 0 393.429 
9 3 0 90 72 0 316.07 
8 3 0 73 55 0 248.952 
7 3 0 58 40 0 191.473 
6 3 0 45 27 0 143.033 
5 3 0 34 16 0 103.031 
4 3 0 25 7 0 70.8668 
3 3 0 18 0 0 45.9388 
2 3 0 13 -5 0 27.6464 
1 3 0 10 -8 0 15.389 
0 3 0 9 -9 0 8.56572 
-1 3 0 10 -8 0 6.57576 
-2 3 0 13 -5 0 8.81835 
-3 3 0 18 0 0 14.6927 
-4 3 0 25 7 0 23.598 
-5 3 0 34 16 0 34.9336 
-6 3 0 45 27 0 48.0985 
-7 3 0 58 40 0 62.492 
-8 3 0 73 55 0 77.5134 
-9 3 0 90 72 0 92.5618 
-10 3 0 109 91 0 107.036 
10 2 0 104 96 0 299.909 
9 2 0 85 77 0 237.9 
8 2 0 68 60 0 184.705 
7 2 0 53 45 0 139.724 
6 2 0 40 32 0 102.355 
5 2 0 29 21 0 71.9973 
4 2 0 20 12 0 48.0506 
3 2 0 13 5 0 29.9139 
2 2 0 8 0 0 16.9866 
1 2 0 5 -3 0 8.66768 
0 2 0 4 -4 0 4.35649 
-1 2 0 5 -3 0 3.45219 
-2 2 0 8 0 0 5.35401 
-3 2 0 13 5 0 9.46117 
-4 2 0 20 12 0 15.1729 
-5 2 0 29 21 0 21.8883 
-6 2 0 40 32 0 29.0067 
-7 2 0 53 45 0 35.9273 
-8 2 0 68 60 0 42.0493 
-9 2 0 85 77 0 46.7719 
-10 2 0 104 96 0 49.4943 
10 1 0 101 99 0 211.908 
9 1 0 82 80 0 164.849 
8 1 0 65 63 0 125.178 
7 1 0 50 48 0 92.2942 
6 1 0 37 35 0 65.596 
5 1 0 26 24 0 44.483 
4 1 0 17 15 0 28.3545 
3 1 0 10 8 0 16.6095 
2 1 0 5 3 0 8.64739 
1 1 0 2 0 0 3.86731 
0 1 0 1 -1 0 1.66848 
-1 1 0 2 0 0 1.45012 
-2 1 0 5 3 0 2.61144 
-3 1 0 10 8 0 4.55165 
-4 1 0 17 15 0 6.66997 
-5 1 0 26 24 0 8.36561 
-6 1 0 37 35 0 9.03778 
-7 1 0 50 48 0 8.0857 
-8 1 0 65 63 0 4.90857 
-9 1 0 82 80 0 -1.09439 
-10 1 0 101 99 0 -10.524 
10 0 0 100 100 0 129.178 
9 0 0 81 81 0 96.6702 
8 0 0 64 64 0 70.1234 
7 0 0 49 49 0 48.937 
6 0 0 36 36 0 32.5101 
5 0 0 25 25 0 20.2419 
4 0 0 16 16 0 11.5317 
3 0 0 9 9 0 5.77868 
2 0 0 4 4 0 2.38206 
1 0 0 1 1 0 0.74105 
0 0 0 0 0 0 0.25486 
-1 0 0 1 1 0 0.322703 
-2 0 0 4 4 0 0.343791 
-3 0 0 9 9 0 -0.282662 
-4 0 0 16 16 0 -2.15744 
-5 0 0 25 25 0 -5.88134 
-6 0 0 36 36 0 -12.0551 
-7 0 0 49 49 0 -21.2796 
-8 0 0 64 64 0 -34.1556 
-9 0 0 81 81 0 -51.2839 
-10 0 0 100 100 0 -73.2651 
10 -1 0 101 99 0 51.4735 
9 -1 0 82 80 0 33.1164 
8 -1 0 65 63 0 19.294 
7 -1 0 50 48 0 9.40544 
6 -1 0 37 35 0 2.85003 
5 -1 0 26 24 0 -0.973052 
4 -1 0 17 15 0 -2.6646 
3 -1 0 10 8 0 -2.8254 
2 -1 0 5 3 0 -2.05625 
1 -1 0 2 0 0 -0.957915 
0 -1 0 1 -1 0 -0.131199 
-1 -1 0 2 0 0 -0.176885 
-2 -1 0 5 3 0 -1.69576 
-3 -1 0 10 8 0 -5.28861 
-4 -1 0 17 15 0 -11.5562 
-5 -1 0 26 24 0 -21.0994 
-6 -1 0 37 35 0 -34.5189 
-7 -1 0 50 48 0 -52.4155 
-8 -1 0 65 63 0 -75.3901 
-9 -1 0 82 80 0 -104.043 
-10 -1 0 101 99 0 -138.976 
10 -2 0 104 96 0 -21.4532 
9 -2 0 85 77 0 -26.0592 
8 -2 0 68 60 0 -27.557 
7 -2 0 53 45 0 -26.5473 
6 -2 0 40 32 0 -23.6309 
5 -2 0 29 21 0 -19.4086 
4 -2 0 20 12 0 -14.4812 
3 -2 0 13 5 0 -9.44957 
2 -2 0 8 0 0 -4.91436 
1 -2 0 5 -3 0 -1.47642 
0 -2 0 4 -4 0 0.263466 
-1 -2 0 5 -3 0 -0.29548 
-2 -2 0 8 0 0 -3.75405 
-3 -2 0 13 5 0 -10.713 
-4 -2 0 20 12 0 -21.7732 
-5 -2 0 29 21 0 -37.5354 
-6 -2 0 40 32 0 -58.6003 
-7 -2 0 53 45 0 -85.5688 
-8 -2 0 68 60 0 -119.042 
-9 -2 0 85 77 0 -159.62 
-10 -2 0 104 96 0 -207.904 
10 -3 0 109 91 0 -89.8487 
9 -3 0 90 72 0 -81.1033 
8 -3 0 73 55 0 -70.6761 
7 -3 0 58 40 0 -59.1679 
6 -3 0 45 27 0 -47.1795 
5 -3 0 34 16 0 -35.3116 
4 -3 0 25 7 0 -24.1651 
3 -3 0 18 0 0 -14.3406 
2 -3 0 13 -5 0 -6.43913 
1 -3 0 10 -8 0 -1.06131 
0 -3 0 9 -9 0 1.19202 
-1 -3 0 10 -8 0 -0.279916 
-2 -3 0 13 -5 0 -6.07791 
-3 -3 0 18 0 0 -16.8028 
-4 -3 0 25 7 0 -33.0552 
-5 -3 0 34 16 0 -55.4361 
-6 -3 0 45 27 0 -84.5462 
-7 -3 0 58 40 0 -120.986 
-8 -3 0 73 55 0 -165.357 
-9 -3 0 90 72 0 -218.26 
-10 -3 0 109 91 0 -280.295 
10 -4 0 116 84 0 -153.96 
9 -4 0 97 65 0 -132.263 
8 -4 0 80 48 0 -110.31 
7 -4 0 65 33 0 -88.7034 
6 -4 0 52 20 0 -68.0427 
5 -4 0 41 9 0 -48.9289 
4 -4 0 32 0 0 -31.9629 
3 -4 0 25 -7 0 -17.7455 
2 -4 0 20 -12 0 -6.87738 
1 -4 0 17 -15 0 0.0405895 
0 -4 0 16 -16 0 2.40764 
-1 -4 0 17 -15 0 -0.377026 
-2 -4 0 20 -12 0 -8.91418 
-3 -4 0 25 -7 0 -23.8046 
-4 -4 0 32 0 0 -45.6491 
-5 -4 0 41 9 0 -75.0485 
-6 -4 0 52 20 0 -112.604 
-7 -4 0 65 33 0 -158.915 
-8 -4 0 80 48 0 -214.584 
-9 -4 0 97 65 0 -280.21 
-10 -4 0 116 84 0 -356.396 
10 -5 0 125 75 0 -214.033 
9 -5 0 106 56 0 -179.784 
8 -5 0 89 39 0 -146.707 
7 -5 0 74 24 0 -115.401 
6 -5 0 61 11 0 -86.4673 
5 -5 0 50 0 0 -60.5073 
4 -5 0 41 -9 0 -38.1216 
3 -5 0 34 -16 0 -19.9109 
2 -5 0 29 -21 0 -6.47594 
1 -5 0 26 -24 0 1.58245 
0 -5 0 25 -25 0 3.66347 
-1 -5 0 26 -24 0 -0.833644 
-2 -5 0 29 -21 0 -12.5097 
-3 -5 0 34 -16 0 -31.9655 
-4 -5 0 41 -9 0 -59.8017 
-5 -5 0 50 0 0 -96.6193 
-6 -5 0 61 11 0 -143.019 
-7 -5 0 74 24 0 -199.601 
-8 -5 0 89 39 0 -266.968 
-9 -5 0 106 56 0 -345.718 
-10 -5 0 125 75 0 -436.454 
10 -6 0 136 64 0 -270.316 
9 -6 0 117 45 0 -223.915 
8 -6 0 100 28 0 -180.112 
7 -6 0 85 13 0 -139.506 
6 -6 0 72 0 0 -102.7 
5 -6 0 61 -11 0 -70.2937 
4 -6 0 52 -20 0 -42.888 
3 -6 0 45 -27 0 -21.0837 
2 -6 0 40 -32 0 -5.48164 
1 -6 0 37 -35 0 3.31742 
0 -6 0 36 -36 0 4.7127 
-1 -6 0 37 -35 0 -1.8966 
-2 -6 0 40 -32 0 -17.1113 
-3 -6 0 45 -27 0 -41.5321 
-4 -6 0 52 -20 0 -75.7598 
-5 -6 0 61 -11 0 -120.395 
-6 -6 0 72 0 0 -176.039 
-7 -6 0 85 13 0 -243.293 
-8 -6 0 100 28 0 -322.756 
-9 -6 0 117 45 0 -415.03 
-10 -6 0 136 64 0 -520.716 
10 -7 0 149 51 0 -323.055 
9 -7 0 130 32 0 -264.902 
8 -7 0 113 15 0 -210.772 
7 -7 0 98 0 0 -161.267 
6 -7 0 85 -13 0 -116.988 
5 -7 0 74 -24 0 -78.5349 
4 -7 0 65 -33 0 -46.5089 
3 -7 0 58 -40 0 -21.5108 
2 -7 0 53 -45 0 -4.14133 
1 -7 0 50 -48 0 4.99869 
0 -7 0 49 -49 0 5.30848 
-1 -7 0 50 -48 0 -3.81274 
-2 -7 0 53 -45 0 -22.9658 
-3 -7 0 58 -40 0 -52.7514 
-4 -7 0 65 -33 0 -93.7703 
-5 -7 0 74 -24 0 -146.623 
-6 -7 0 85 -13 0 -211.912 
-7 -7 0 98 0 0 -290.235 
-8 -7 0 113 15 0 -382.196 
-9 -7 0 130 32 0 -488.393 
-10 -7 0 149 51 0 -609.429 
10 -8 0 164 36 0 -372.497 
9 -8 0 145 17 0 -302.991 
8 -8 0 128 0 0 -238.935 
7 -8 0 113 -15 0 -180.93 
6 -8 0 100 -28 0 -129.578 
5 -8 0 89 -39 0 -85.4776 
4 -8 0 80 -48 0 -49.2311 
3 -8 0 73 -55 0 -21.4389 
2 -8 0 68 -60 0 -2.70183 
1 -8 0 65 -63 0 6.37941 
0 -8 0 64 -64 0 5.20399 
-1 -8 0 65 -63 0 -6.82888 
-2 -8 0 68 -60 0 -30.32 
-3 -8 0 73 -55 0 -65.8701 
-4 -8 0 80 -48 0 -114.08 
-5 -8 0 89 -39 0 -175.551 
-6 -8 0 100 -28 0 -250.882 
-7 -8 0 113 -15 0 -340.677 
-8 -8 0 128 0 0 -445.534 
-9 -8 0 145 17 0 -566.054 
-10 -8 0 164 36 0 -702.84 
10 -9 0 181 19 0 -418.889 
9 -9 0 162 0 0 -338.43 
8 -9 0 145 -17 0 -264.847 
7 -9 0 130 -32 0 -198.743 
6 -9 0 117 -45 0 -140.716 
5 -9 0 106 -56 0 -91.3689 
4 -9 0 97 -65 0 -51.3016 
3 -9 0 90 -72 0 -21.115 
2 -9 0 85 -77 0 -1.40999 
1 -9 0 82 -80 0 7.21274 
0 -9 0 81 -81 0 4.15238 
-1 -9 0 82 -80 0 -11.1919 
-2 -9 0 85 -77 0 -39.4208 
-3 -9 0 90 -72 0 -81.1352 
-4 -9 0 97 -65 0 -136.936 
-5 -9 0 106 -56 0 -207.423 
-6 -9 0 117 -45 0 -293.199 
-7 -9 0 130 -32 0 -394.863 
-8 -9 0 145 -17 0 -513.016 
-9 -9 0 162 0 0 -648.26 
-10 -9 0 181 19 0 -801.195 
10 -10 0 200 0 0 -462.477 
9 -10 0 181 -19 0 -371.465 
8 -10 0 164 -36 0 -288.756 
7 -10 0 149 -51 0 -214.95 
6 -10 0 136 -64 0 -150.65 
5 -10 0 125 -75 0 -96.4554 
4 -10 0 116 -84 0 -52.967 
3 -10 0 109 -91 0 -20.7859 
2 -10 0 104 -96 0 -0.51262 
1 -10 0 101 -99 0 7.25187 
0 -10 0 100 -100 0 1.90683 
-1 -10 0 101 -99 0 -17.1485 
-2 -10 0 104 -96 0 -50.515 
-3 -10 0 109 -91 0 -98.7934 
-4 -10 0 116 -84 0 -162.584 
-5 -10 0 125 -75 0 -242.489 
-6 -10 0 136 -64 0 -339.108 
-7 -10 0 149 -51 0 -453.041 
-8 -10 0 164 -36 0 -584.891 
-9 -10 0 181 -19 0 -735.257 
-10 -10 0 200 0 0 -904.741 
4 0 1 22 21 
4 1 2 23 22 
4 2 3 24 23 
4 3 4 25 24 
4 4 5 26 25 
4 5 6 27 26 
4 6 7 28 27 
4 7 8 29 28 
4 8 9 30 29 
4 9 10 31 30 
4 10 11 32 31 
4 11 12 33 32 
4 12 13 34 33 
4 13 14 35 34 
4 14 15 36 35 
4 15 16 37 36 
4 16 17 38 37 
4 17 18 39 38 
4 18 19 40 39 
4 19 20 41 40 
4 21 22 43 42 
4 22 23 44 43 
4 23 24 45 44 
4 24 25 46 45 
4 25 26 47 46 
4 26 27 48 47 
4 27 28 49 48 
4 28 29 50 49 
4 29 30 51 50 
4 30 31 52 51 
4 31 32 53 52 
4 32 33 54 53 
4 33 34 55 54 
4 34 35 56 55 
4 35 36 57 56 
4 36 37 58 57 
4 37 38 59 58 
4 38 39 60 59 
4 39 40 61 60 
4 40 41 62 61 
4 42 43 64 63 
4 43 44 65 64 
4 44 45 66 65 
4 45 46 67 66 
4 46 47 68 67 
4 47 48 69 68 
4 48 49 70 69 
4 49 50 71 70 
4 50 51 72 71 
4 51 52 73 72 
4 52 53 74 73 
4 53 54 75 74 
4 54 55 76 75 
4 55 56 77 76 
4 56 57 78 77 
4 57 58 79 78 
4 58 59 80 79 
4 59 60 81 80 
4 60 61 82 81 
4 61 62 83 82 
4 63 64 85 84 
4 64 65 86 85 
4 65 66 87 86 
4 66 67 88 87 
4 67 68 89 88 
4 68 69 90 89 
4 69 70 91 90 
4 70 71 92 91 
4 71 72 93 92 
4 72 73 94 93 
4 73 74 95 94 
4 74 75 96 95 
4 75 76 97 96 
4 76 77 98 97 
4 77 78 99 98 
4 78 79 100 99 
4 79 80 101 100 
4 80 81 102 101 
4 81 82 103 102 
4 82 83 104 103 
4 84 85 106 105 
4 85 86 107 106 
4 86 87 108 107 
4 87 88 109 108 
4 88 89 110 109 
4 89 90 111 110 
4 90 91 112 111 
4 91 92 113 112 
4 92 93 114 113 
4 93 94 115 114 
4 94 95 116 115 
4 95 96 117 116 
4 96 97 118 117 
4 97 98 119 118 
4 98 99 120 119 
4 99 100 121 120 
4 100 101 122 121 
4 101 102 123 122 
4 102 103 124 123 
4 103 104 125 124 
4 105 106 127 126 
4 106 107 128 127 
4 107 108 129 128 
4 108 109 130 129 
4 109 110 131 130 
4 110 111 132 131 
4 111 112 133 132 
4 112 113 134 133 
4 113 114 135 134 
4 114 115 136 135 
4 115 116 137 136 
4 116 117 138 137 
4 117 118 139 138 
4 118 119 140 139 
4 119 120 141 140 
4 120 121 142 141 
4 121 122 143 142 
4 122 123 144 143 
4 123 124 145 144 
4 124 125 146 145 
4 126 127 148 147 
4 127 128 149 148 
4 128 129 150 149 
4 129 130 151 150 
4 130 131 152 151 
4 131 132 153 152 
4 132 133 154 153 
4 133 134 155 154 
4 134 135 156 155 
4 135 136 157 156 
4 136 137 158 157 
4 137 138 159 158 
4 138 139 160 159 
4 139 140 161 160 
4 140 141 162 161 
4 141 142 163 162 
4 142 143 164 163 
4 143 144 165 164 
4 144 145 166 165 
4 145 146 167 166 
4 147 148 169 168 
4 148 149 170 169 
4 149 150 171 170 
4 150 151 172 171 
4 151 152 173 172 
4 152 153 174 173 
4 153 154 175 174 
4 154 155 176 175 
4 155 156 177 176 
4 156 157 178 177 
4 157 158 179 178 
4 158 159 180 179 
4 159 160 181 180 
4 160 161 182 181 
4 161 162 183 182 
4 162 163 184 183 
4 163 164 185 184 
4 164 165 186 185 
4 165 166 187 186 
4 166 167 188 187 
4 168 169 190 189 
4 169 170 191 190 
4 170 171 192 191 
4 171 172 193 192 
4 172 173 194 193 
4 173 174 195 194 
4 174 175 196 195 
4 175 176 197 196 
4 176 177 198 197 
4 177 178 199 198 
4 178 179 200 199 
4 179 180 201 200 
4 180 181 202 201 
4 181 182 203 202 
4 182 183 204 203 
4 183 184 205 204 
4 184 185 206 205 
4 185 186 207 206 
4 186 187 208 207 
4 187 188 209 208 
4 189 190 211 210 
4 190 191 212 211 
4 191 192 213 212 
4 192 193 214 213 
4 193 194 215 214 
4 194 195 216 215 
4 195 196 217 216 
4 196 197 218 217 
4 197 198 219 218 
4 198 199 220 219 
4 199 200 221 220 
4 200 201 222 221 
4 201 202 223 222 
4 202 203 224 223 
4 203 204 225 224 
4 204 205 226 225 
4 205 206 227 226 
4 206 207 228 227 
4 207 208 229 228 
4 208 209 230 229 
4 210 211 232 231 
4 211 212 233 232 
4 212 213 234 233 
4 213 214 235 234 
4 214 215 236 235 
4 215 216 237 236 
4 216 217 238 237 
4 217 218 239 238 
4 218 219 240 239 
4 219 220 241 240 
4 220 221 242 241 
4 221 222 243 242 
4 222 223 244 243 
4 223 224 245 244 
4 224 225 246 245 
4 225 226 247 246 
4 226 227 248 247 
4 227 228 249 248 
4 228 229 250 249 
4 229 230 251 250 
4 231 232 253 252 
4 232 233 254 253 
4 233 234 255 254 
4 234 235 256 255 
4 235 236 257 256 
4 236 237 258 257 
4 237 238 259 258 
4 238 239 260 259 
4 239 240 261 260 
4 240 241 262 261 
4 241 242 263 262 
4 242 243 264 263 
4 243 244 265 264 
4 244 245 266 265 
4 245 246 267 266 
4 246 247 268 267 
4 247 248 269 268 
4 248 249 270 269 
4 249 250 271 270 
4 250 251 272 271 
4 252 253 274 273 
4 253 254 275 274 
4 254 255 276 275 
4 255 256 277 276 
4 256 257 278 277 
4 257 258 279 278 
4 258 259 280 279 
4 259 260 281 280 
4 260 261 282 281 
4 261 262 283 282 
4 262 263 284 283 
4 263 264 285 284 
4 264 265 286 285 
4 265 266 287 286 
4 266 267 288 287 
4 267 268 289 288 
4 268 269 290 289 
4 269 270 291 290 
4 270 271 292 291 
4 271 272 293 292 
4 273 274 295 294 
4 274 275 296 295 
4 275 276 297 296 
4 276 277 298 297 
4 277 278 299 298 
4 278 279 300 299 
4 279 280 301 300 
4 280 281 302 301 
4 281 282 303 302 
4 282 283 304 303 
4 283 284 305 304 
4 284 285 306 305 
4 285 286 307 306 
4 286 287 308 307 
4 287 288 309 308 
4 288 289 310 309 
4 289 290 311 310 
4 290 291 312 311 
4 291 292 313 312 
4 292 293 314 313 
4 294 295 316 315 
4 295 296 317 316 
4 296 297 318 317 
4 297 298 319 318 
4 298 299 320 319 
4 299 300 321 320 
4 300 301 322 321 
4 301 302 323 322 
4 302 303 324 323 
4 303 304 325 324 
4 304 305 326 325 
4 305 306 327 326 
4 306 307 328 327 
4 307 308 329 328 
4 308 309 330 329 
4 309 310 331 330 
4 310 311 332 331 
4 311 312 333 332 
4 312 313 334 333 
4 313 314 335 334 
4 315 316 337 336 
4 316 317 338 337 
4 317 318 339 338 
4 318 319 340 339 
4 319 320 341 340 
4 320 321 342 341 
4 321 322 343 342 
4 322 323 344 343 
4 323 324 345 344 
4 324 325 346 345 
4 325 326 347 346 
4 326 327 348 347 
4 327 328 349 348 
4 328 329 350 349 
4 329 330 351 350 
4 330 331 352 351 
4 331 332 353 352 
4 332 333 354 353 
4 333 334 355 354 
4 334 335 356 355 
4 336 337 358 357 
4 337 338 359 358 
4 338 339 360 359 
4 339 340 361 360 
4 340 341 362 361 
4 341 342 363 362 
4 342 343 364 363 
4 343 344 365 364 
4 344 345 366 365 
4 345 346 367 366 
4 346 347 368 367 
4 347 348 369 368 
4 348 349 370 369 
4 349 350 371 370 
4 350 351 372 371 
4 351 352 373 372 
4 352 353 374 373 
4 353 354 375 374 
4 354 355 376 375 
4 355 356 377 376 
4 357 358 379 378 
4 358 359 380 379 
4 359 360 381 380 
4 360 361 382 381 
4 361 362 383 382 
4 362 363 384 383 
4 363 364 385 384 
4 364 365 386 385 
4 365 366 387 386 
4 366 367 388 387 
4 367 368 389 388 
4 368 369 390 389 
4 369 370 391 390 
4 370 371 392 391 
4 371 372 393 392 
4 372 373 394 393 
4 373 374 395 394 
4 374 375 396 395 
4 375 376 397 396 
4 376 377 398 397 
4 378 379 400 399 
4 379 380 401 400 
4 380 381 402 401 
4 381 382 403 402 
4 382 383 404 403 
4 383 384 405 404 
4 384 385 406 405 
4 385 386 407 406 
4 386 387 408 407 
4 387 388 409 408 
4 388 389 410 409 
4 389 390 411 410 
4 390 391 412 411 
4 391 392 413 412 
4 392 393 414 413 
4 393 394 415 414 
4 394 395 416 415 
4 395 396 417 416 
4 396 397 418 417 
4 397 398 419 418 
4 399 400 421 420 
4 400 401 422 421 
4 401 402 423 422 
4 402 403 424 423 
4 403 404 425 424 
4 404 405 426 425 
4 405 406 427 426 
4 406 407 428 427 
4 407 408 429 428 
4 408 409 430 429 
4 409 410 431 430 
4 410 411 432 431 
4 411 412 433 432 
4 412 413 434 433 
4 413 414 435 434 
4 414 415 436 435 
4 415 416 437 436 
4 416 417 438 437 
4 417 418 439 438 
4 418 419 440 439 
