ply
format ascii 1.0
comment created by PolyEditor
comment modified by learnply
element vertex 441
property float64 x
property float64 y
property float64 z
property float64 vx
property float64 vy
property float64 vz
property float64 s
element face 400
property list uint8 int32 vertex_indices
end_header
10 10 0 200 0 0 34685.5 
9 10 0 181 -19 0 29161.6 
8 10 0 164 -36 0 24529.9 
7 10 0 149 -51 0 20673.6 
6 10 0 136 -64 0 17484.2 
5 10 0 125 -75 0 14861 
4 10 0 116 -84 0 12711.4 
3 10 0 109 -91 0 10950.9 
2 10 0 104 -96 0 9503.06 
1 10 0 101 -99 0 8299.29 
0 10 0 100 -100 0 7279.19 
-1 10 0 101 -99 0 6390.34 
-2 10 0 104 -96 0 5588.37 
-3 10 0 109 -91 0 4836.91 
-4 10 0 116 -84 0 4107.66 
-5 10 0 125 -75 0 3380.33 
-6 10 0 136 -64 0 2642.66 
-7 10 0 149 -51 0 1890.44 
-8 10 0 164 -36 0 1127.47 
-9 10 0 181 -19 0 365.589 
-10 10 0 200 0 0 -375.322 
10 9 0 181 19 0 27790.8 
9 9 0 162 0 0 22949.3 
8 9 0 145 -17 0 18934.1 
7 9 0 130 -32 0 15633.3 
6 9 0 117 -45 0 12943.1 
5 9 0 106 -56 0 10767.5 
4 9 0 97 -65 0 9018.88 
3 9 0 90 -72 0 7617.33 
2 9 0 85 -77 0 6491.13 
1 9 0 82 -80 0 5576.55 
0 9 0 81 -81 0 4817.91 
-1 9 0 82 -80 0 4167.57 
-2 9 0 85 -77 0 3585.88 
-3 9 0 90 -72 0 3041.26 
-4 9 0 97 -65 0 2510.16 
-5 9 0 106 -56 0 1977.04 
-6 9 0 117 -45 0 1434.41 
-7 9 0 130 -32 0 882.81 
-8 9 0 145 -17 0 330.802 
-9 9 0 162 0 0 -205.01 
-10 9 0 181 19 0 -699.994 
10 8 0 164 36 0 22173.2 
9 8 0 145 17 0 17944.8 
8 8 0 128 0 0 14479.1 
7 8 0 113 -15 0 11669.1 
6 8 0 100 -28 0 9415.54 
5 8 0 89 -39 0 7627.38 
4 8 0 80 -48 0 6221.56 
3 8 0 73 -55 0 5123.06 
2 8 0 68 -60 0 4264.88 
1 8 0 65 -63 0 3588.05 
0 8 0 64 -64 0 3041.66 
-1 8 0 65 -63 0 2582.81 
-2 8 0 68 -60 0 2176.63 
-3 8 0 73 -55 0 1796.29 
-4 8 0 80 -48 0 1422.98 
-5 8 0 89 -39 0 1045.94 
-6 8 0 100 -28 0 662.443 
-7 8 0 113 -15 0 277.769 
-8 8 0 128 0 0 -94.7491 
-9 8 0 145 17 0 -433.752 
-10 8 0 164 36 0 -709.848 
10 7 0 149 51 0 17640.1 
9 7 0 130 32 0 13960.8 
8 7 0 113 15 0 10982.9 
7 7 0 98 0 0 8604.03 
6 7 0 85 -13 0 6729.79 
5 7 0 74 -24 0 5273.85 
4 7 0 65 -33 0 4157.93 
3 7 0 58 -40 0 3311.76 
2 7 0 53 -45 0 2673.1 
1 7 0 50 -48 0 2187.75 
0 7 0 49 -49 0 1809.55 
-1 7 0 50 -48 0 1500.34 
-2 7 0 53 -45 0 1230.04 
-3 7 0 58 -40 0 976.562 
-4 7 0 65 -33 0 725.865 
-5 7 0 74 -24 0 471.941 
-6 7 0 85 -13 0 216.812 
-7 7 0 98 0 0 -29.4682 
-8 7 0 113 15 0 -248.814 
-9 7 0 130 32 0 -415.106 
-10 7 0 149 51 0 -494.196 
10 6 0 136 64 0 14015.4 
9 6 0 117 45 0 10826.3 
8 6 0 100 28 0 8279.55 
7 6 0 85 13 0 6277.38 
6 6 0 72 0 0 4730.23 
5 6 0 61 -11 0 3556.53 
4 6 0 52 -20 0 2682.73 
3 6 0 45 -27 0 2043.33 
2 6 0 40 -32 0 1580.85 
1 6 0 37 -35 0 1245.86 
0 6 0 36 -36 0 996.929 
-1 6 0 37 -35 0 800.693 
-2 6 0 40 -32 0 631.8 
-3 6 0 45 -27 0 472.935 
-4 6 0 52 -20 0 314.815 
-5 6 0 61 -11 0 156.189 
-6 6 0 72 0 0 3.83694 
-7 6 0 85 13 0 -127.428 
-8 6 0 100 28 0 -214.76 
-9 6 0 117 45 0 -227.284 
-10 6 0 136 64 0 -126.09 
10 5 0 125 75 0 11139.1 
9 5 0 106 56 0 8386.56 
8 5 0 89 39 0 6219.39 
7 5 0 74 24 0 4544.67 
6 5 0 61 11 0 3277.56 
5 5 0 50 0 0 2341.24 
4 5 0 41 -9 0 1666.95 
3 5 0 34 -16 0 1193.92 
2 5 0 29 -21 0 869.443 
1 5 0 26 -24 0 648.834 
0 5 0 25 -25 0 495.441 
-1 5 0 26 -24 0 380.642 
-2 5 0 29 -21 0 283.849 
-3 5 0 34 -16 0 192.506 
-4 5 0 41 -9 0 102.089 
-5 5 0 50 0 0 16.1044 
-6 5 0 61 11 0 -53.9078 
-7 5 0 74 24 0 -88.3764 
-8 5 0 89 39 0 -59.6977 
-9 5 0 106 56 0 67.7636 
-10 5 0 125 75 0 337.675 
10 4 0 116 84 0 8867.47 
9 4 0 97 65 0 6502.95 
8 4 0 80 48 0 4669.06 
7 4 0 65 33 0 3277.67 
6 4 0 52 20 0 2248.7 
5 4 0 41 9 0 1510.1 
4 4 0 32 0 0 997.844 
3 4 0 25 -7 0 655.945 
2 4 0 20 -12 0 436.445 
1 4 0 17 -15 0 299.417 
0 4 0 16 -16 0 212.968 
-1 4 0 17 -15 0 153.236 
-2 4 0 20 -12 0 104.392 
-3 4 0 25 -7 0 58.6371 
-4 4 0 32 0 0 16.2062 
-5 4 0 41 9 0 -14.6346 
-6 4 0 52 20 0 -17.5873 
-7 4 0 65 33 0 31.6783 
-8 4 0 80 48 0 165.524 
-9 4 0 97 65 0 424.345 
-10 4 0 116 84 0 856.567 
10 3 0 109 91 0 7073.16 
9 3 0 90 72 0 5053.23 
8 3 0 73 55 0 3511.44 
7 3 0 58 40 0 2364.43 
6 3 0 45 27 0 1536.86 
5 3 0 34 16 0 961.452 
4 3 0 25 7 0 578.935 
3 3 0 18 0 0 338.081 
2 3 0 13 -5 0 195.69 
1 3 0 10 -8 0 116.594 
0 3 0 9 -9 0 73.6589 
-1 3 0 10 -8 0 47.7817 
-2 3 0 13 -5 0 27.8911 
-3 3 0 18 0 0 10.948 
-4 3 0 25 7 0 1.94541 
-5 3 0 34 16 0 13.9081 
-6 3 0 45 27 0 67.8929 
-7 3 0 58 40 0 192.989 
-8 3 0 73 55 0 426.316 
-9 3 0 90 72 0 813.029 
-10 3 0 109 91 0 1406.31 
10 2 0 104 96 0 5644.97 
9 2 0 85 77 0 3931.39 
8 2 0 68 60 0 2645.68 
7 2 0 53 45 0 1709.24 
6 2 0 40 32 0 1051.5 
5 2 0 29 21 0 609.918 
4 2 0 20 12 0 329.996 
3 2 0 13 5 0 165.259 
2 2 0 8 0 0 77.2679 
1 2 0 5 -3 0 35.6135 
0 2 0 4 -4 0 17.9199 
-1 2 0 5 -3 0 9.84262 
-2 2 0 8 0 0 5.06925 
-3 2 0 13 5 0 5.31941 
-4 2 0 20 12 0 20.3447 
-5 2 0 29 21 0 67.9286 
-6 2 0 40 32 0 173.887 
-7 2 0 53 45 0 372.067 
-8 2 0 68 60 0 704.348 
-9 2 0 85 77 0 1220.64 
-10 2 0 104 96 0 1978.89 
10 1 0 101 99 0 4487.97 
9 1 0 82 80 0 3047.67 
8 1 0 65 63 0 1987.19 
7 1 0 50 48 0 1232.68 
6 1 0 37 35 0 718.334 
5 1 0 26 24 0 386.377 
4 1 0 17 15 0 187.061 
3 1 0 10 8 0 78.6725 
2 1 0 5 3 0 27.5303 
1 1 0 2 0 0 7.98444 
0 1 0 1 -1 0 2.41728 
-1 1 0 2 0 0 1.24314 
-2 1 0 5 3 0 2.90832 
-3 1 0 10 8 0 13.8911 
-4 1 0 17 15 0 48.7018 
-5 1 0 26 24 0 129.883 
-6 1 0 37 35 0 288.008 
-7 1 0 50 48 0 561.683 
-8 1 0 65 63 0 997.548 
-9 1 0 82 80 0 1650.27 
-10 1 0 101 99 0 2582.56 
10 0 0 100 100 0 3523.51 
9 0 0 81 81 0 2328.57 
8 0 0 64 64 0 1467.61 
7 0 0 49 49 0 871.554 
6 0 0 36 36 0 479.344 
5 0 0 25 25 0 237.963 
4 0 0 16 16 0 102.424 
3 0 0 9 9 0 35.773 
2 0 0 4 4 0 9.08683 
1 0 0 1 1 0 1.47438 
0 0 0 0 0 0 0.0767235 
-1 0 0 1 1 0 0.0668661 
-2 0 0 4 4 0 4.6498 
-3 0 0 9 9 0 25.0625 
-4 0 0 16 16 0 80.5739 
-5 0 0 25 25 0 198.485 
-6 0 0 36 36 0 414.129 
-7 0 0 49 49 0 770.87 
-8 0 0 64 64 0 1320.11 
-9 0 0 81 81 0 2121.26 
-10 0 0 100 100 0 3241.81 
10 -1 0 101 99 0 2689.21 
9 -1 0 82 80 0 1716.87 
8 -1 0 65 63 0 1034.89 
7 -1 0 50 48 0 578.952 
6 -1 0 37 35 0 292.767 
5 -1 0 26 24 0 128.072 
4 -1 0 17 15 0 44.6395 
3 -1 0 10 8 0 10.2725 
2 -1 0 5 3 0 0.807001 
1 -1 0 2 0 0 0.110782 
0 -1 0 1 -1 0 0.0835292 
-1 -1 0 2 0 0 0.656941 
-2 -1 0 5 3 0 9.7947 
-3 -1 0 10 8 0 43.4925 
-4 -1 0 17 15 0 125.778 
-5 -1 0 26 24 0 288.711 
-6 -1 0 37 35 0 572.382 
-7 -1 0 50 48 0 1024.92 
-8 -1 0 65 63 0 1702.47 
-9 -1 0 82 80 0 2669.23 
-10 -1 0 101 99 0 3997.41 
10 -2 0 104 96 0 1938.93 
9 -2 0 85 77 0 1171.57 
8 -2 0 68 60 0 653.19 
7 -2 0 53 45 0 324.21 
6 -2 0 40 32 0 133.101 
5 -2 0 29 21 0 36.361 
4 -2 0 20 12 0 -1.47947 
3 -2 0 13 5 0 -7.858 
2 -2 0 8 0 0 -2.18012 
1 -2 0 5 -3 0 4.18058 
0 -2 0 4 -4 0 7.8825 
-1 -2 0 5 -3 0 13.616 
-2 -2 0 8 0 0 34.1036 
-3 -2 0 13 5 0 90.0995 
-4 -2 0 20 12 0 210.39 
-5 -2 0 29 21 0 431.794 
-6 -2 0 40 32 0 799.161 
-7 -2 0 53 45 0 1365.37 
-8 -2 0 68 60 0 2191.35 
-9 -2 0 85 77 0 3346.02 
-10 -2 0 104 96 0 4906.39 
10 -3 0 109 91 0 1242.79 
9 -3 0 90 72 0 667.979 
8 -3 0 73 55 0 302.962 
7 -3 0 58 40 0 92.9279 
6 -3 0 45 27 0 -8.89707 
5 -3 0 34 16 0 -41.2561 
4 -3 0 25 7 0 -34.86 
3 -3 0 18 0 0 -12.3876 
2 -3 0 13 -5 0 11.5141 
1 -3 0 10 -8 0 30.2302 
0 -3 0 9 -9 0 45.178 
-1 -3 0 10 -8 0 65.8064 
-2 -3 0 13 -5 0 109.597 
-3 -3 0 18 0 0 202.061 
-4 -3 0 25 7 0 376.746 
-5 -3 0 34 16 0 675.228 
-6 -3 0 45 27 0 1147.11 
-7 -3 0 58 40 0 1850.05 
-8 -3 0 73 55 0 2849.7 
-9 -3 0 90 72 0 4219.78 
-10 -3 0 109 91 0 6042.02 
10 -4 0 116 84 0 587.175 
9 -4 0 97 65 0 197.625 
8 -4 0 80 48 0 -19.0959 
7 -4 0 65 33 0 -113.036 
6 -4 0 52 20 0 -126.211 
5 -4 0 41 9 0 -92.6045 
4 -4 0 32 0 0 -38.1697 
3 -4 0 25 -7 0 19.1738 
2 -4 0 20 -12 0 69.5376 
1 -4 0 17 -15 0 111.066 
0 -4 0 16 -16 0 149.934 
-1 -4 0 17 -15 0 200.35 
-2 -4 0 20 -12 0 284.553 
-3 -4 0 25 -7 0 432.816 
-4 -4 0 32 0 0 683.441 
-5 -4 0 41 9 0 1082.77 
-6 -4 0 52 20 0 1685.16 
-7 -4 0 65 33 0 2553.01 
-8 -4 0 80 48 0 3756.77 
-9 -4 0 97 65 0 5374.88 
-10 -4 0 116 84 0 7493.86 
10 -5 0 125 75 0 -25.2619 
9 -5 0 106 56 0 -231.685 
8 -5 0 89 39 0 -300.022 
7 -5 0 74 24 0 -275.563 
6 -5 0 61 11 0 -195.563 
5 -5 0 50 0 0 -89.2503 
4 -5 0 41 -9 0 22.1833 
3 -5 0 34 -16 0 125.576 
2 -5 0 29 -21 0 215.798 
1 -5 0 26 -24 0 295.753 
0 -5 0 25 -25 0 376.373 
-1 -5 0 26 -24 0 476.627 
-2 -5 0 29 -21 0 623.513 
-3 -5 0 34 -16 0 852.06 
-4 -5 0 41 -9 0 1205.33 
-5 -5 0 50 0 0 1734.42 
-6 -5 0 61 11 0 2498.46 
-7 -5 0 74 24 0 3564.59 
-8 -5 0 89 39 0 5008.03 
-9 -5 0 106 56 0 6911.98 
-10 -5 0 125 75 0 9367.69 
10 -6 0 136 64 0 -575.621 
9 -6 0 117 45 0 -595.89 
8 -6 0 100 28 0 -510.598 
7 -6 0 85 13 0 -360.275 
6 -6 0 72 0 0 -177.42 
5 -6 0 61 -11 0 13.5001 
4 -6 0 52 -20 0 196.051 
3 -6 0 45 -27 0 361.828 
2 -6 0 40 -32 0 510.463 
1 -6 0 37 -35 0 649.616 
0 -6 0 36 -36 0 794.98 
-1 -6 0 37 -35 0 970.28 
-2 -6 0 40 -32 0 1207.27 
-3 -6 0 45 -27 0 1545.75 
-4 -6 0 52 -20 0 2033.53 
-5 -6 0 61 -11 0 2726.47 
-6 -6 0 72 0 0 3688.44 
-7 -6 0 85 13 0 4991.38 
-8 -6 0 100 28 0 6715.23 
-9 -6 0 117 45 0 8947.96 
-10 -6 0 136 64 0 11785.6 
10 -7 0 149 51 0 -1028.74 
9 -7 0 130 32 0 -854.668 
8 -7 0 113 15 0 -605.343 
7 -7 0 98 0 0 -316.535 
6 -7 0 85 -13 0 -15.9848 
5 -7 0 74 -24 0 276.6 
4 -7 0 65 -33 0 549.543 
3 -7 0 58 -40 0 799.2 
2 -7 0 53 -45 0 1029.96 
1 -7 0 50 -48 0 1254.24 
0 -7 0 49 -49 0 1492.5 
-1 -7 0 50 -48 0 1773.21 
-2 -7 0 53 -45 0 2132.89 
-3 -7 0 58 -40 0 2616.1 
-4 -7 0 65 -33 0 3275.41 
-5 -7 0 74 -24 0 4171.43 
-6 -7 0 85 -13 0 5372.81 
-7 -7 0 98 0 0 6956.22 
-8 -7 0 113 15 0 9006.37 
-9 -7 0 130 32 0 11616 
-10 -7 0 149 51 0 14885.9 
10 -8 0 164 36 0 -1333.19 
9 -8 0 145 17 0 -951.438 
8 -8 0 128 0 0 -522.518 
7 -8 0 113 -15 0 -77.4464 
6 -8 0 100 -28 0 360.797 
5 -8 0 89 -39 0 777.262 
4 -8 0 80 -48 0 1165.03 
3 -8 0 73 -55 0 1525.22 
2 -8 0 68 -60 0 1866.97 
1 -8 0 65 -63 0 2207.47 
0 -8 0 64 -64 0 2571.92 
-1 -8 0 65 -63 0 2993.57 
-2 -8 0 68 -60 0 3513.69 
-3 -8 0 73 -55 0 4181.59 
-4 -8 0 80 -48 0 5054.61 
-5 -8 0 89 -39 0 6198.11 
-6 -8 0 100 -28 0 7685.5 
-7 -8 0 113 -15 0 9598.22 
-8 -8 0 128 0 0 12025.7 
-9 -8 0 145 17 0 15065.5 
-10 -8 0 164 36 0 18823.1 
10 -9 0 181 19 0 -1421.3 
9 -9 0 162 0 0 -813.359 
8 -9 0 145 -17 0 -184.126 
7 -9 0 130 -32 0 440.148 
6 -9 0 117 -45 0 1041.24 
5 -9 0 106 -56 0 1608.96 
4 -9 0 97 -65 0 2141.14 
3 -9 0 90 -72 0 2643.67 
2 -9 0 85 -77 0 3130.45 
1 -9 0 82 -80 0 3623.41 
0 -9 0 81 -81 0 4152.52 
-1 -9 0 82 -80 0 4755.79 
-2 -9 0 85 -77 0 5479.24 
-3 -9 0 90 -72 0 6376.95 
-4 -9 0 97 -65 0 7511.01 
-5 -9 0 106 -56 0 8951.55 
-6 -9 0 117 -45 0 10776.7 
-7 -9 0 130 -32 0 13072.7 
-8 -9 0 145 -17 0 15933.8 
-9 -9 0 162 0 0 19462.2 
-10 -9 0 181 19 0 23768.2 
10 -10 0 200 0 0 -1209.11 
9 -10 0 181 -19 0 -351.331 
8 -10 0 164 -36 0 504.093 
7 -10 0 149 -51 0 1335.66 
6 -10 0 136 -64 0 2129.92 
5 -10 0 125 -75 0 2881.42 
4 -10 0 116 -84 0 3592.77 
3 -10 0 109 -91 0 4274.61 
2 -10 0 104 -96 0 4945.59 
1 -10 0 101 -99 0 5632.42 
0 -10 0 100 -100 0 6369.81 
-1 -10 0 101 -99 0 7200.54 
-2 -10 0 104 -96 0 8175.39 
-3 -10 0 109 -91 0 9353.18 
-4 -10 0 116 -84 0 10800.8 
-5 -10 0 125 -75 0 12593.1 
-6 -10 0 136 -64 0 14813 
-7 -10 0 149 -51 0 17551.4 
-8 -10 0 164 -36 0 20907.4 
-9 -10 0 181 -19 0 24988 
-10 -10 0 200 0 0 29908.2 
4 0 1 22 21 
4 1 2 23 22 
4 2 3 24 23 
4 3 4 25 24 
4 4 5 26 25 
4 5 6 27 26 
4 6 7 28 27 
4 7 8 29 28 
4 8 9 30 29 
4 9 10 31 30 
4 10 11 32 31 
4 11 12 33 32 
4 12 13 34 33 
4 13 14 35 34 
4 14 15 36 35 
4 15 16 37 36 
4 16 17 38 37 
4 17 18 39 38 
4 18 19 40 39 
4 19 20 41 40 
4 21 22 43 42 
4 22 23 44 43 
4 23 24 45 44 
4 24 25 46 45 
4 25 26 47 46 
4 26 27 48 47 
4 27 28 49 48 
4 28 29 50 49 
4 29 30 51 50 
4 30 31 52 51 
4 31 32 53 52 
4 32 33 54 53 
4 33 34 55 54 
4 34 35 56 55 
4 35 36 57 56 
4 36 37 58 57 
4 37 38 59 58 
4 38 39 60 59 
4 39 40 61 60 
4 40 41 62 61 
4 42 43 64 63 
4 43 44 65 64 
4 44 45 66 65 
4 45 46 67 66 
4 46 47 68 67 
4 47 48 69 68 
4 48 49 70 69 
4 49 50 71 70 
4 50 51 72 71 
4 51 52 73 72 
4 52 53 74 73 
4 53 54 75 74 
4 54 55 76 75 
4 55 56 77 76 
4 56 57 78 77 
4 57 58 79 78 
4 58 59 80 79 
4 59 60 81 80 
4 60 61 82 81 
4 61 62 83 82 
4 63 64 85 84 
4 64 65 86 85 
4 65 66 87 86 
4 66 67 88 87 
4 67 68 89 88 
4 68 69 90 89 
4 69 70 91 90 
4 70 71 92 91 
4 71 72 93 92 
4 72 73 94 93 
4 73 74 95 94 
4 74 75 96 95 
4 75 76 97 96 
4 76 77 98 97 
4 77 78 99 98 
4 78 79 100 99 
4 79 80 101 100 
4 80 81 102 101 
4 81 82 103 102 
4 82 83 104 103 
4 84 85 106 105 
4 85 86 107 106 
4 86 87 108 107 
4 87 88 109 108 
4 88 89 110 109 
4 89 90 111 110 
4 90 91 112 111 
4 91 92 113 112 
4 92 93 114 113 
4 93 94 115 114 
4 94 95 116 115 
4 95 96 117 116 
4 96 97 118 117 
4 97 98 119 118 
4 98 99 120 119 
4 99 100 121 120 
4 100 101 122 121 
4 101 102 123 122 
4 102 103 124 123 
4 103 104 125 124 
4 105 106 127 126 
4 106 107 128 127 
4 107 108 129 128 
4 108 109 130 129 
4 109 110 131 130 
4 110 111 132 131 
4 111 112 133 132 
4 112 113 134 133 
4 113 114 135 134 
4 114 115 136 135 
4 115 116 137 136 
4 116 117 138 137 
4 117 118 139 138 
4 118 119 140 139 
4 119 120 141 140 
4 120 121 142 141 
4 121 122 143 142 
4 122 123 144 143 
4 123 124 145 144 
4 124 125 146 145 
4 126 127 148 147 
4 127 128 149 148 
4 128 129 150 149 
4 129 130 151 150 
4 130 131 152 151 
4 131 132 153 152 
4 132 133 154 153 
4 133 134 155 154 
4 134 135 156 155 
4 135 136 157 156 
4 136 137 158 157 
4 137 138 159 158 
4 138 139 160 159 
4 139 140 161 160 
4 140 141 162 161 
4 141 142 163 162 
4 142 143 164 163 
4 143 144 165 164 
4 144 145 166 165 
4 145 146 167 166 
4 147 148 169 168 
4 148 149 170 169 
4 149 150 171 170 
4 150 151 172 171 
4 151 152 173 172 
4 152 153 174 173 
4 153 154 175 174 
4 154 155 176 175 
4 155 156 177 176 
4 156 157 178 177 
4 157 158 179 178 
4 158 159 180 179 
4 159 160 181 180 
4 160 161 182 181 
4 161 162 183 182 
4 162 163 184 183 
4 163 164 185 184 
4 164 165 186 185 
4 165 166 187 186 
4 166 167 188 187 
4 168 169 190 189 
4 169 170 191 190 
4 170 171 192 191 
4 171 172 193 192 
4 172 173 194 193 
4 173 174 195 194 
4 174 175 196 195 
4 175 176 197 196 
4 176 177 198 197 
4 177 178 199 198 
4 178 179 200 199 
4 179 180 201 200 
4 180 181 202 201 
4 181 182 203 202 
4 182 183 204 203 
4 183 184 205 204 
4 184 185 206 205 
4 185 186 207 206 
4 186 187 208 207 
4 187 188 209 208 
4 189 190 211 210 
4 190 191 212 211 
4 191 192 213 212 
4 192 193 214 213 
4 193 194 215 214 
4 194 195 216 215 
4 195 196 217 216 
4 196 197 218 217 
4 197 198 219 218 
4 198 199 220 219 
4 199 200 221 220 
4 200 201 222 221 
4 201 202 223 222 
4 202 203 224 223 
4 203 204 225 224 
4 204 205 226 225 
4 205 206 227 226 
4 206 207 228 227 
4 207 208 229 228 
4 208 209 230 229 
4 210 211 232 231 
4 211 212 233 232 
4 212 213 234 233 
4 213 214 235 234 
4 214 215 236 235 
4 215 216 237 236 
4 216 217 238 237 
4 217 218 239 238 
4 218 219 240 239 
4 219 220 241 240 
4 220 221 242 241 
4 221 222 243 242 
4 222 223 244 243 
4 223 224 245 244 
4 224 225 246 245 
4 225 226 247 246 
4 226 227 248 247 
4 227 228 249 248 
4 228 229 250 249 
4 229 230 251 250 
4 231 232 253 252 
4 232 233 254 253 
4 233 234 255 254 
4 234 235 256 255 
4 235 236 257 256 
4 236 237 258 257 
4 237 238 259 258 
4 238 239 260 259 
4 239 240 261 260 
4 240 241 262 261 
4 241 242 263 262 
4 242 243 264 263 
4 243 244 265 264 
4 244 245 266 265 
4 245 246 267 266 
4 246 247 268 267 
4 247 248 269 268 
4 248 249 270 269 
4 249 250 271 270 
4 250 251 272 271 
4 252 253 274 273 
4 253 254 275 274 
4 254 255 276 275 
4 255 256 277 276 
4 256 257 278 277 
4 257 258 279 278 
4 258 259 280 279 
4 259 260 281 280 
4 260 261 282 281 
4 261 262 283 282 
4 262 263 284 283 
4 263 264 285 284 
4 264 265 286 285 
4 265 266 287 286 
4 266 267 288 287 
4 267 268 289 288 
4 268 269 290 289 
4 269 270 291 290 
4 270 271 292 291 
4 271 272 293 292 
4 273 274 295 294 
4 274 275 296 295 
4 275 276 297 296 
4 276 277 298 297 
4 277 278 299 298 
4 278 279 300 299 
4 279 280 301 300 
4 280 281 302 301 
4 281 282 303 302 
4 282 283 304 303 
4 283 284 305 304 
4 284 285 306 305 
4 285 286 307 306 
4 286 287 308 307 
4 287 288 309 308 
4 288 289 310 309 
4 289 290 311 310 
4 290 291 312 311 
4 291 292 313 312 
4 292 293 314 313 
4 294 295 316 315 
4 295 296 317 316 
4 296 297 318 317 
4 297 298 319 318 
4 298 299 320 319 
4 299 300 321 320 
4 300 301 322 321 
4 301 302 323 322 
4 302 303 324 323 
4 303 304 325 324 
4 304 305 326 325 
4 305 306 327 326 
4 306 307 328 327 
4 307 308 329 328 
4 308 309 330 329 
4 309 310 331 330 
4 310 311 332 331 
4 311 312 333 332 
4 312 313 334 333 
4 313 314 335 334 
4 315 316 337 336 
4 316 317 338 337 
4 317 318 339 338 
4 318 319 340 339 
4 319 320 341 340 
4 320 321 342 341 
4 321 322 343 342 
4 322 323 344 343 
4 323 324 345 344 
4 324 325 346 345 
4 325 326 347 346 
4 326 327 348 347 
4 327 328 349 348 
4 328 329 350 349 
4 329 330 351 350 
4 330 331 352 351 
4 331 332 353 352 
4 332 333 354 353 
4 333 334 355 354 
4 334 335 356 355 
4 336 337 358 357 
4 337 338 359 358 
4 338 339 360 359 
4 339 340 361 360 
4 340 341 362 361 
4 341 342 363 362 
4 342 343 364 363 
4 343 344 365 364 
4 344 345 366 365 
4 345 346 367 366 
4 346 347 368 367 
4 347 348 369 368 
4 348 349 370 369 
4 349 350 371 370 
4 350 351 372 371 
4 351 352 373 372 
4 352 353 374 373 
4 353 354 375 374 
4 354 355 376 375 
4 355 356 377 376 
4 357 358 379 378 
4 358 359 380 379 
4 359 360 381 380 
4 360 361 382 381 
4 361 362 383 382 
4 362 363 384 383 
4 363 364 385 384 
4 364 365 386 385 
4 365 366 387 386 
4 366 367 388 387 
4 367 368 389 388 
4 368 369 390 389 
4 369 370 391 390 
4 370 371 392 391 
4 371 372 393 392 
4 372 373 394 393 
4 373 374 395 394 
4 374 375 396 395 
4 375 376 397 396 
4 376 377 398 397 
4 378 379 400 399 
4 379 380 401 400 
4 380 381 402 401 
4 381 382 403 402 
4 382 383 404 403 
4 383 384 405 404 
4 384 385 406 405 
4 385 386 407 406 
4 386 387 408 407 
4 387 388 409 408 
4 388 389 410 409 
4 389 390 411 410 
4 390 391 412 411 
4 391 392 413 412 
4 392 393 414 413 
4 393 394 415 414 
4 394 395 416 415 
4 395 396 417 416 
4 396 397 418 417 
4 397 398 419 418 
4 399 400 421 420 
4 400 401 422 421 
4 401 402 423 422 
4 402 403 424 423 
4 403 404 425 424 
4 404 405 426 425 
4 405 406 427 426 
4 406 407 428 427 
4 407 408 429 428 
4 408 409 430 429 
4 409 410 431 430 
4 410 411 432 431 
4 411 412 433 432 
4 412 413 434 433 
4 413 414 435 434 
4 414 415 436 435 
4 415 416 437 436 
4 416 417 438 437 
4 417 418 439 438 
4 418 419 440 439 
