ply
format ascii 1.0
comment created by PolyEditor
comment modified by learnply
comment modified by learnply
comment modified by learnply
comment modified by learnply
element vertex 441
property float64 x
property float64 y
property float64 z
property float64 vx
property float64 vy
property float64 vz
property float64 s
element face 400
property list uint8 int32 vertex_indices
end_header
10 10 0 0.51799066 16.259194 0 16.267443 
9 10 0 0.28022095 15.321024 0 15.323587 
8 10 0 0.042451247 14.382855 0 14.382917 
7 10 0 -0.19531846 13.444685 0 13.446104 
6 10 0 -0.43308817 12.506516 0 12.514012 
5 10 0 -0.67085788 11.568346 0 11.587782 
4 10 0 -0.90862758 10.630177 0 10.668939 
3 10 0 -1.1463973 9.6920072 0 9.7595712 
2 10 0 -1.384167 8.7538377 0 8.8625952 
1 10 0 -1.6219367 7.8156682 0 7.9821894 
0 10 0 -1.8597064 6.8774987 0 7.1244997 
-1 10 0 -2.0974761 5.9393292 0 6.2988124 
-2 10 0 -2.3352458 5.0011597 0 5.5195083 
-3 10 0 -2.5730155 4.0629902 0 4.8091889 
-4 10 0 -2.8107852 3.1248207 0 4.2029773 
-5 10 0 -3.0485549 2.1866512 0 3.7516837 
-6 10 0 -3.2863247 1.2484817 0 3.5154852 
-7 10 0 -3.5240944 0.3103122 0 3.5377302 
-8 10 0 -3.7618641 -0.6278573 0 3.8138991 
-9 10 0 -3.9996338 -1.5660268 0 4.2952893 
-10 10 0 -4.2374035 -2.5041963 0 4.9220511 
10 9 0 0.75576037 15.667837 0 15.686054 
9 9 0 0.51799066 14.729667 0 14.738772 
8 9 0 0.28022095 13.791498 0 13.794344 
7 9 0 0.042451247 12.853328 0 12.853398 
6 9 0 -0.19531846 11.915159 0 11.916759 
5 9 0 -0.43308817 10.976989 0 10.985529 
4 9 0 -0.67085788 10.03882 0 10.06121 
3 9 0 -0.90862758 9.10065 0 9.1458972 
2 9 0 -1.1463973 8.1624805 0 8.2425915 
1 9 0 -1.384167 7.224311 0 7.3557181 
0 9 0 -1.6219367 6.2861415 0 6.4920146 
-1 9 0 -1.8597064 5.347972 0 5.6620944 
-2 9 0 -2.0974761 4.4098025 0 4.8832125 
-3 9 0 -2.3352458 3.471633 0 4.1839705 
-4 9 0 -2.5730155 2.5334635 0 3.6109343 
-5 9 0 -2.8107852 1.595294 0 3.2319463 
-6 9 0 -3.0485549 0.65712455 0 3.1185734 
-7 9 0 -3.2863247 -0.28104495 0 3.2983202 
-8 9 0 -3.5240944 -1.2192145 0 3.7290381 
-9 9 0 -3.7618641 -2.157384 0 4.3365801 
-10 9 0 -3.9996338 -3.0955535 0 5.0576201 
10 8 0 0.99353008 15.076479 0 15.10918 
9 8 0 0.75576037 14.13831 0 14.158495 
8 8 0 0.51799066 13.20014 0 13.2103 
7 8 0 0.28022095 12.261971 0 12.265172 
6 8 0 0.042451247 11.323801 0 11.323881 
5 8 0 -0.19531846 10.385632 0 10.387468 
4 8 0 -0.43308817 9.4474624 0 9.4573839 
3 8 0 -0.67085788 8.5092929 0 8.5356966 
2 8 0 -0.90862758 7.5711234 0 7.6254517 
1 8 0 -1.1463973 6.6329539 0 6.7312929 
0 8 0 -1.384167 5.6947844 0 5.8605876 
-1 8 0 -1.6219367 4.7566149 0 5.0255412 
-2 8 0 -1.8597064 3.8184454 0 4.2472383 
-3 8 0 -2.0974761 2.8802759 0 3.5630598 
-4 8 0 -2.3352458 1.9421064 0 3.0372933 
-5 8 0 -2.5730155 1.0039369 0 2.7619374 
-6 8 0 -2.8107852 0.065767388 0 2.8115546 
-7 8 0 -3.0485549 -0.87240211 0 3.1709262 
-8 8 0 -3.2863247 -1.8105716 0 3.7520793 
-9 8 0 -3.5240944 -2.7487411 0 4.4693197 
-10 8 0 -3.7618641 -3.6869106 0 5.2673457 
10 7 0 1.2312998 14.485122 0 14.537361 
9 7 0 0.99353008 13.546953 0 13.583336 
8 7 0 0.75576037 12.608783 0 12.631413 
7 7 0 0.51799066 11.670614 0 11.682103 
6 7 0 0.28022095 10.732444 0 10.736102 
5 7 0 0.042451247 9.7942747 0 9.7943667 
4 7 0 -0.19531846 8.8561052 0 8.8582588 
3 7 0 -0.43308817 7.9179357 0 7.9297712 
2 7 0 -0.67085788 6.9797662 0 7.0119318 
1 7 0 -0.90862758 6.0415967 0 6.1095413 
0 7 0 -1.1463973 5.1034272 0 5.2306019 
-1 7 0 -1.384167 4.1652577 0 4.3892243 
-2 7 0 -1.6219367 3.2270882 0 3.6117554 
-3 7 0 -1.8597064 2.2889187 0 2.949179 
-4 7 0 -2.0974761 1.3507492 0 2.4947805 
-5 7 0 -2.3352458 0.41257973 0 2.371412 
-6 7 0 -2.5730155 -0.52558977 0 2.626148 
-7 7 0 -2.8107852 -1.4637593 0 3.1690858 
-8 7 0 -3.0485549 -2.4019288 0 3.8811015 
-9 7 0 -3.2863247 -3.3400983 0 4.6857429 
-10 7 0 -3.5240944 -4.2782678 0 5.5428166 
10 6 0 1.4690695 13.893765 0 13.971216 
9 6 0 1.2312998 12.955596 0 13.013975 
8 6 0 0.99353008 12.017426 0 12.058426 
7 6 0 0.75576037 11.079257 0 11.105003 
6 6 0 0.51799066 10.141087 0 10.154308 
5 6 0 0.28022095 9.2029176 0 9.2071828 
4 6 0 0.042451247 8.2647481 0 8.2648571 
3 6 0 -0.19531846 7.3265786 0 7.3291816 
2 6 0 -0.43308817 6.3884091 0 6.4030724 
1 6 0 -0.67085788 5.4502396 0 5.4913716 
0 6 0 -0.90862758 4.5120701 0 4.6026493 
-1 6 0 -1.1463973 3.5739006 0 3.7532642 
-2 6 0 -1.384167 2.6357311 0 2.9770785 
-3 6 0 -1.6219367 1.6975616 0 2.3478488 
-4 6 0 -1.8597064 0.75939207 0 2.0087768 
-5 6 0 -2.0974761 -0.17877743 0 2.1050813 
-6 6 0 -2.3352458 -1.1169469 0 2.5886181 
-7 6 0 -2.5730155 -2.0551164 0 3.2930096 
-8 6 0 -2.8107852 -2.9932859 0 4.1061264 
-9 6 0 -3.0485549 -3.9314554 0 4.9749401 
-10 6 0 -3.2863247 -4.8696249 0 5.8747916 
10 5 0 1.7068392 13.302408 0 13.411464 
9 5 0 1.4690695 12.364238 0 12.451207 
8 5 0 1.2312998 11.426069 0 11.492221 
7 5 0 0.99353008 10.487899 0 10.534853 
6 5 0 0.75576037 9.5497299 0 9.5795885 
5 5 0 0.51799066 8.6115604 0 8.6271251 
4 5 0 0.28022095 7.6733909 0 7.6785058 
3 5 0 0.042451247 6.7352214 0 6.7353552 
2 5 0 -0.19531846 5.7970519 0 5.8003414 
1 5 0 -0.43308817 4.8588824 0 4.8781455 
0 5 0 -0.67085788 3.9207129 0 3.9776928 
-1 5 0 -0.90862758 2.9825434 0 3.117879 
-2 5 0 -1.1463973 2.0443739 0 2.3438625 
-3 5 0 -1.384167 1.1062044 0 1.7718935 
-4 5 0 -1.6219367 0.16803491 0 1.6306178 
-5 5 0 -1.8597064 -0.77013459 0 2.0128624 
-6 5 0 -2.0974761 -1.7083041 0 2.7051264 
-7 5 0 -2.3352458 -2.6464736 0 3.5294752 
-8 5 0 -2.5730155 -3.5846431 0 4.4124908 
-9 5 0 -2.8107852 -4.5228126 0 5.3250678 
-10 5 0 -3.0485549 -5.4609821 0 6.2542795 
10 4 0 1.9446089 12.711051 0 12.858939 
9 4 0 1.7068392 11.772881 0 11.895967 
8 4 0 1.4690695 10.834712 0 10.933853 
7 4 0 1.2312998 9.8965423 0 9.9728455 
6 4 0 0.99353008 8.9583728 0 9.0132982 
5 4 0 0.75576037 8.0202033 0 8.055733 
4 4 0 0.51799066 7.0820338 0 7.1009518 
3 4 0 0.28022095 6.1438643 0 6.1502514 
2 4 0 0.042451247 5.2056948 0 5.2058678 
1 4 0 -0.19531846 4.2675253 0 4.2719926 
0 4 0 -0.43308817 3.3293558 0 3.357406 
-1 4 0 -0.67085788 2.3911863 0 2.48351 
-2 4 0 -0.90862758 1.4530168 0 1.7137275 
-3 4 0 -1.1463973 0.51484725 0 1.2566998 
-4 4 0 -1.384167 -0.42332224 0 1.4474529 
-5 4 0 -1.6219367 -1.3614917 0 2.1176257 
-6 4 0 -1.8597064 -2.2996612 0 2.9575243 
-7 4 0 -2.0974761 -3.2378307 0 3.8578432 
-8 4 0 -2.3352458 -4.1760002 0 4.7845952 
-9 4 0 -2.5730155 -5.1141697 0 5.7249577 
-10 4 0 -2.8107852 -6.0523392 0 6.6731795 
10 3 0 2.1823786 12.119694 0 12.314615 
9 3 0 1.9446089 11.181524 0 11.349361 
8 3 0 1.7068392 10.243355 0 10.384585 
7 3 0 1.4690695 9.3051851 0 9.4204371 
6 3 0 1.2312998 8.3670156 0 8.4571301 
5 3 0 0.99353008 7.4288461 0 7.4949887 
4 3 0 0.75576037 6.4906766 0 6.534528 
3 3 0 0.51799066 5.5525071 0 5.5766163 
2 3 0 0.28022095 4.6143376 0 4.6228384 
1 3 0 0.042451247 3.6761681 0 3.6764132 
0 3 0 -0.19531846 2.7379986 0 2.7449564 
-1 3 0 -0.43308817 1.7998291 0 1.8512023 
-2 3 0 -0.67085788 0.8616596 0 1.0920199 
-3 3 0 -0.90862758 -0.076509903 0 0.91184311 
-4 3 0 -1.1463973 -1.0146794 0 1.5309478 
-5 3 0 -1.384167 -1.9528489 0 2.3936452 
-6 3 0 -1.6219367 -2.8910184 0 3.3149157 
-7 3 0 -1.8597064 -3.8291879 0 4.2568989 
-8 3 0 -2.0974761 -4.7673574 0 5.2083685 
-9 3 0 -2.3352458 -5.7055269 0 6.1649339 
-10 3 0 -2.5730155 -6.6436964 0 7.1245428 
10 2 0 2.4201483 11.528336 0 11.779629 
9 2 0 2.1823786 10.590167 0 10.812697 
8 2 0 1.9446089 9.6519974 0 9.8459412 
7 2 0 1.7068392 8.7138279 0 8.8794199 
6 2 0 1.4690695 7.7756584 0 7.9132186 
5 2 0 1.2312998 6.8374889 0 6.9474711 
4 2 0 0.99353008 5.8993194 0 5.9823968 
3 2 0 0.75576037 4.9611499 0 5.0183844 
2 2 0 0.51799066 4.0229804 0 4.0561911 
1 2 0 0.28022095 3.0848109 0 3.0975123 
0 2 0 0.042451247 2.1466414 0 2.1470611 
-1 2 0 -0.19531846 1.2084719 0 1.2241543 
-2 2 0 -0.43308817 0.27030244 0 0.51051814 
-3 2 0 -0.67085788 -0.66786706 0 0.94662384 
-4 2 0 -0.90862758 -1.6060366 0 1.8452527 
-5 2 0 -1.1463973 -2.5442061 0 2.7905575 
-6 2 0 -1.384167 -3.4823756 0 3.7473801 
-7 2 0 -1.6219367 -4.4205451 0 4.7087044 
-8 2 0 -1.8597064 -5.3587146 0 5.672242 
-9 2 0 -2.0974761 -6.2968841 0 6.6370291 
-10 2 0 -2.3352458 -7.2350536 0 7.6025899 
10 1 0 2.657918 10.936979 0 11.255312 
9 1 0 2.4201483 9.9988098 0 10.287532 
8 1 0 2.1823786 9.0606403 0 9.3197628 
7 1 0 1.9446089 8.1224708 0 8.3520079 
6 1 0 1.7068392 7.1843013 0 7.3842728 
5 1 0 1.4690695 6.2461318 0 6.4165666 
4 1 0 1.2312998 5.3079623 0 5.4489047 
3 1 0 0.99353008 4.3697928 0 4.4813158 
2 1 0 0.75576037 3.4316233 0 3.51386 
1 1 0 0.51799066 2.4934538 0 2.5466892 
0 1 0 0.28022095 1.5552843 0 1.5803269 
-1 1 0 0.042451247 0.61711478 0 0.61857316 
-2 1 0 -0.19531846 -0.32105472 0 0.37579973 
-3 1 0 -0.43308817 -1.2592242 0 1.3316197 
-4 1 0 -0.67085788 -2.1973937 0 2.2975181 
-5 1 0 -0.90862758 -3.1355632 0 3.2645613 
-6 1 0 -1.1463973 -4.0737327 0 4.2319647 
-7 1 0 -1.384167 -5.0119022 0 5.1995271 
-8 1 0 -1.6219367 -5.9500717 0 6.1671738 
-9 1 0 -1.8597064 -6.8882412 0 7.1348704 
-10 1 0 -2.0974761 -7.8264107 0 8.102599 
10 0 0 2.8956877 10.345622 0 10.743226 
9 0 0 2.657918 9.4074526 0 9.7757196 
8 0 0 2.4201483 8.4692831 0 8.8082844 
7 0 0 2.1823786 7.5311136 0 7.8409469 
6 0 0 1.9446089 6.5929441 0 6.8737483 
5 0 0 1.7068392 5.6547746 0 5.9067568 
4 0 0 1.4690695 4.7166051 0 4.940094 
3 0 0 1.2312998 3.7784356 0 3.9739999 
2 0 0 0.99353008 2.8402661 0 3.009022 
1 0 0 0.75576037 1.9020966 0 2.0467402 
0 0 0 0.51799066 0.96392712 0 1.0942896 
-1 0 0 0.28022095 0.025757622 0 0.28140227 
-2 0 0 0.042451247 -0.91241188 0 0.9133989 
-3 0 0 -0.19531846 -1.8505814 0 1.8608602 
-4 0 0 -0.43308817 -2.7887509 0 2.8221794 
-5 0 0 -0.67085788 -3.7269204 0 3.7868174 
-6 0 0 -0.90862758 -4.6650899 0 4.7527537 
-7 0 0 -1.1463973 -5.6032594 0 5.7193306 
-8 0 0 -1.384167 -6.5414289 0 6.6862703 
-9 0 0 -1.6219367 -7.4795984 0 7.6534352 
-10 0 0 -1.8597064 -8.4177679 0 8.6207496 
10 -1 0 3.1334574 9.754265 0 10.245206 
9 -1 0 2.8956877 8.8160955 0 9.2794691 
8 -1 0 2.657918 7.877926 0 8.3142195 
7 -1 0 2.4201483 6.9397565 0 7.3496488 
6 -1 0 2.1823786 6.001587 0 6.3860647 
5 -1 0 1.9446089 5.0634175 0 5.423993 
4 -1 0 1.7068392 4.125248 0 4.4644116 
3 -1 0 1.4690695 3.1870785 0 3.5093638 
2 -1 0 1.2312998 2.248909 0 2.563921 
1 -1 0 0.99353008 1.3107395 0 1.644731 
0 -1 0 0.75576037 0.37256996 0 0.84260436 
-1 -1 0 0.51799066 -0.56559954 0 0.76695317 
-2 -1 0 0.28022095 -1.503769 0 1.5296552 
-3 -1 0 0.042451247 -2.4419385 0 2.4423075 
-4 -1 0 -0.19531846 -3.380108 0 3.3857465 
-5 -1 0 -0.43308817 -4.3182775 0 4.3399408 
-6 -1 0 -0.67085788 -5.256447 0 5.2990835 
-7 -1 0 -0.90862758 -6.1946165 0 6.2609007 
-8 -1 0 -1.1463973 -7.132786 0 7.2243244 
-9 -1 0 -1.384167 -8.0709555 0 8.1887875 
-10 -1 0 -1.6219367 -9.009125 0 9.1539616 
10 -2 0 3.3712271 9.1629078 0 9.7634037 
9 -2 0 3.1334574 8.2247383 0 8.8014133 
8 -2 0 2.8956877 7.2865688 0 7.8408604 
7 -2 0 2.657918 6.3483993 0 6.8823471 
6 -2 0 2.4201483 5.4102298 0 5.9268629 
5 -2 0 2.1823786 4.4720603 0 4.9761531 
4 -2 0 1.9446089 3.5338908 0 4.0335949 
3 -2 0 1.7068392 2.5957213 0 3.106617 
2 -2 0 1.4690695 1.6575518 0 2.2148687 
1 -2 0 1.2312998 0.71938231 0 1.426047 
0 -2 0 0.99353008 -0.21878719 0 1.0173347 
-1 -2 0 0.75576037 -1.1569567 0 1.3819271 
-2 -2 0 0.51799066 -2.0951262 0 2.1582095 
-3 -2 0 0.28022095 -3.0332957 0 3.0462118 
-4 -2 0 0.042451247 -3.9714652 0 3.9716921 
-5 -2 0 -0.19531846 -4.9096347 0 4.9135183 
-6 -2 0 -0.43308817 -5.8478042 0 5.8638195 
-7 -2 0 -0.67085788 -6.7859737 0 6.8190534 
-8 -2 0 -0.90862758 -7.7241432 0 7.7774027 
-9 -2 0 -1.1463973 -8.6623127 0 8.7378423 
-10 -2 0 -1.384167 -9.6004822 0 9.6997514 
10 -3 0 3.6089969 8.5715506 0 9.3003408 
9 -3 0 3.3712271 7.6333811 0 8.3446798 
8 -3 0 3.1334574 6.6952116 0 7.392186 
7 -3 0 2.8956877 5.7570421 0 6.4442643 
6 -3 0 2.657918 4.8188726 0 5.5032774 
5 -3 0 2.4201483 3.8807031 0 4.5735079 
4 -3 0 2.1823786 2.9425336 0 3.6635066 
3 -3 0 1.9446089 2.0043641 0 2.7926653 
2 -3 0 1.7068392 1.0661946 0 2.0124788 
1 -3 0 1.4690695 0.12802515 0 1.4746374 
0 -3 0 1.2312998 -0.81014435 0 1.4739176 
-1 -3 0 0.99353008 -1.7483139 0 2.0108962 
-2 -3 0 0.75576037 -2.6864834 0 2.7907645 
-3 -3 0 0.51799066 -3.6246529 0 3.6614782 
-4 -3 0 0.28022095 -4.5628224 0 4.571419 
-5 -3 0 0.042451247 -5.5009919 0 5.5011556 
-6 -3 0 -0.19531846 -6.4391614 0 6.442123 
-7 -3 0 -0.43308817 -7.3773309 0 7.3900322 
-8 -3 0 -0.67085788 -8.3155004 0 8.3425174 
-9 -3 0 -0.90862758 -9.2536699 0 9.2981724 
-10 -3 0 -1.1463973 -10.191839 0 10.256111 
10 -4 0 3.8467666 7.9801935 0 8.858956 
9 -4 0 3.6089969 7.042024 0 7.9129615 
8 -4 0 3.3712271 6.1038545 0 6.9729629 
7 -4 0 3.1334574 5.165685 0 6.0417594 
6 -4 0 2.8956877 4.2275155 0 5.1241482 
5 -4 0 2.657918 3.289346 0 4.2289863 
4 -4 0 2.4201483 2.3511765 0 3.3741886 
3 -4 0 2.1823786 1.413007 0 2.5998779 
2 -4 0 1.9446089 0.47483749 0 2.0017428 
1 -4 0 1.7068392 -0.46333201 0 1.7686087 
0 -4 0 1.4690695 -1.4015015 0 2.0303624 
-1 -4 0 1.2312998 -2.339671 0 2.643891 
-2 -4 0 0.99353008 -3.2778405 0 3.4251044 
-3 -4 0 0.75576037 -4.21601 0 4.2832131 
-4 -4 0 0.51799066 -5.1541795 0 5.1801429 
-5 -4 0 0.28022095 -6.092349 0 6.0987901 
-6 -4 0 0.042451247 -7.0305185 0 7.0306467 
-7 -4 0 -0.19531846 -7.968688 0 7.9710814 
-8 -4 0 -0.43308817 -8.9068575 0 8.9173806 
-9 -4 0 -0.67085788 -9.845027 0 9.8678573 
-10 -4 0 -0.90862758 -10.783197 0 10.821411 
10 -5 0 4.0845363 7.3888363 0 8.44265 
9 -5 0 3.8467666 6.4506668 0 7.5105736 
8 -5 0 3.6089969 5.5124973 0 6.5888152 
7 -5 0 3.3712271 4.5743278 0 5.682398 
6 -5 0 3.1334574 3.6361583 0 4.8000211 
5 -5 0 2.8956877 2.6979888 0 3.9577963 
4 -5 0 2.657918 1.7598193 0 3.1877096 
3 -5 0 2.4201483 0.82164983 0 2.555822 
2 -5 0 2.1823786 -0.11651967 0 2.185487 
1 -5 0 1.9446089 -1.0546892 0 2.21221 
0 -5 0 1.7068392 -1.9928587 0 2.6238875 
-1 -5 0 1.4690695 -2.9310282 0 3.2785807 
-2 -5 0 1.2312998 -3.8691977 0 4.0603928 
-3 -5 0 0.99353008 -4.8073672 0 4.9089593 
-4 -5 0 0.75576037 -5.7455367 0 5.7950294 
-5 -5 0 0.51799066 -6.6837062 0 6.7037484 
-6 -5 0 0.28022095 -7.6218757 0 7.6270251 
-7 -5 0 0.042451247 -8.5600452 0 8.5601504 
-8 -5 0 -0.19531846 -9.4982147 0 9.5002227 
-9 -5 0 -0.43308817 -10.436384 0 10.445366 
-10 -5 0 -0.67085788 -11.374554 0 11.39432 
10 -6 0 4.322306 6.7974792 0 8.055312 
9 -6 0 4.0845363 5.8593097 0 7.1424748 
8 -6 0 3.8467666 4.9211402 0 6.2462175 
7 -6 0 3.6089969 3.9829707 0 5.3748408 
6 -6 0 3.3712271 3.0448012 0 4.542685 
5 -6 0 3.1334574 2.1066317 0 3.7757718 
4 -6 0 2.8956877 1.1684622 0 3.1225488 
3 -6 0 2.657918 0.23029267 0 2.6678761 
2 -6 0 2.4201483 -0.70787683 0 2.5215486 
1 -6 0 2.1823786 -1.6460463 0 2.7335407 
0 -6 0 1.9446089 -2.5842158 0 3.2341421 
-1 -6 0 1.7068392 -3.5223853 0 3.9141408 
-2 -6 0 1.4690695 -4.4605548 0 4.6962447 
-3 -6 0 1.2312998 -5.3987243 0 5.5373571 
-4 -6 0 0.99353008 -6.3368938 0 6.4143063 
-5 -6 0 0.75576037 -7.2750633 0 7.3142136 
-6 -6 0 0.51799066 -8.2132328 0 8.2295509 
-7 -6 0 0.28022095 -9.1514023 0 9.1556916 
-8 -6 0 0.042451247 -10.089572 0 10.089661 
-9 -6 0 -0.19531846 -11.027741 0 11.029471 
-10 -6 0 -0.43308817 -11.965911 0 11.973746 
10 -7 0 4.5600757 6.206122 0 7.7013142 
9 -7 0 4.322306 5.2679525 0 6.8142243 
8 -7 0 4.0845363 4.329783 0 5.9523489 
7 -7 0 3.8467666 3.3916135 0 5.1284164 
6 -7 0 3.6089969 2.453444 0 4.3639713 
5 -7 0 3.3712271 1.5152745 0 3.69611 
4 -7 0 3.1334574 0.57710501 0 3.1861585 
3 -7 0 2.8956877 -0.36106449 0 2.9181116 
2 -7 0 2.657918 -1.299234 0 2.9584687 
1 -7 0 2.4201483 -2.2374035 0 3.2959205 
0 -7 0 2.1823786 -3.175573 0 3.8531857 
-1 -7 0 1.9446089 -4.1137425 0 4.5502067 
-2 -7 0 1.7068392 -5.051912 0 5.3324586 
-3 -7 0 1.4690695 -5.9900815 0 6.1675961 
-4 -7 0 1.2312998 -6.928251 0 7.0368147 
-5 -7 0 0.99353008 -7.8664205 0 7.9289137 
-6 -7 0 0.75576037 -8.80459 0 8.8369666 
-7 -7 0 0.51799066 -9.7427595 0 9.7565197 
-8 -7 0 0.28022095 -10.680929 0 10.684604 
-9 -7 0 0.042451247 -11.619098 0 11.619176 
-10 -7 0 -0.19531846 -12.557268 0 12.558787 
10 -8 0 4.7978454 5.6147649 0 7.3854522 
9 -8 0 4.5600757 4.6765954 0 6.5318324 
8 -8 0 4.322306 3.7384259 0 5.7147316 
7 -8 0 4.0845363 2.8002564 0 4.9522593 
6 -8 0 3.8467666 1.8620869 0 4.2737548 
5 -8 0 3.6089969 0.92391736 0 3.7253834 
4 -8 0 3.3712271 -0.014252144 0 3.3712573 
3 -8 0 3.1334574 -0.95242164 0 3.2750057 
2 -8 0 2.8956877 -1.8905911 0 3.4582282 
1 -8 0 2.657918 -2.8287606 0 3.881548 
0 -8 0 2.4201483 -3.7669301 0 4.4773743 
-1 -8 0 2.1823786 -4.7050996 0 5.1865922 
-2 -8 0 1.9446089 -5.6432691 0 5.9689187 
-3 -8 0 1.7068392 -6.5814386 0 6.7991643 
-4 -8 0 1.4690695 -7.5196081 0 7.6617669 
-5 -8 0 1.2312998 -8.4577776 0 8.5469352 
-6 -8 0 0.99353008 -9.3959471 0 9.4483292 
-7 -8 0 0.75576037 -10.334117 0 10.361715 
-8 -8 0 0.51799066 -11.272286 0 11.284181 
-9 -8 0 0.28022095 -12.210456 0 12.213671 
-10 -8 0 0.042451247 -13.148625 0 13.148694 
10 -9 0 5.0356151 5.0234077 0 7.1128085 
9 -9 0 4.7978454 4.0852382 0 6.3014674 
8 -9 0 4.5600757 3.1470687 0 5.5406075 
7 -9 0 4.322306 2.2088992 0 4.8540256 
6 -9 0 4.0845363 1.2707297 0 4.2776384 
5 -9 0 3.8467666 0.3325602 0 3.861115 
4 -9 0 3.6089969 -0.6056093 0 3.6594564 
3 -9 0 3.3712271 -1.5437788 0 3.7078869 
2 -9 0 3.1334574 -2.4819483 0 3.997327 
1 -9 0 2.8956877 -3.4201178 0 4.4813182 
0 -9 0 2.657918 -4.3582873 0 5.1048209 
-1 -9 0 2.4201483 -5.2964568 0 5.8231926 
-2 -9 0 2.1823786 -6.2346263 0 6.6055538 
-3 -9 0 1.9446089 -7.1727958 0 7.4317228 
-4 -9 0 1.7068392 -8.1109653 0 8.2886101 
-5 -9 0 1.4690695 -9.0491348 0 9.1676063 
-6 -9 0 1.2312998 -9.9873043 0 10.062919 
-7 -9 0 0.99353008 -10.925474 0 10.970555 
-8 -9 0 0.75576037 -11.863643 0 11.887691 
-9 -9 0 0.51799066 -12.801813 0 12.812288 
-10 -9 0 0.28022095 -13.739982 0 13.742839 
10 -10 0 5.2733848 4.4320505 0 6.8885165 
9 -10 0 5.0356151 3.493881 0 6.1289986 
8 -10 0 4.7978454 2.5557115 0 5.4360815 
7 -10 0 4.5600757 1.617542 0 4.8384639 
6 -10 0 4.322306 0.67937254 0 4.3753715 
5 -10 0 4.0845363 -0.25879696 0 4.0927268 
4 -10 0 3.8467666 -1.1969665 0 4.0286898 
3 -10 0 3.6089969 -2.135136 0 4.193288 
2 -10 0 3.3712271 -3.0733055 0 4.5618394 
1 -10 0 3.1334574 -4.011475 0 5.0902345 
0 -10 0 2.8956877 -4.9496445 0 5.7344562 
-1 -10 0 2.657918 -5.887814 0 6.4599444 
-2 -10 0 2.4201483 -6.8259835 0 7.2423179 
-3 -10 0 2.1823786 -7.764153 0 8.0650386 
-4 -10 0 1.9446089 -8.7023225 0 8.9169457 
-5 -10 0 1.7068392 -9.640492 0 9.7904231 
-6 -10 0 1.4690695 -10.578661 0 10.68018 
-7 -10 0 1.2312998 -11.516831 0 11.582465 
-8 -10 0 0.99353008 -12.455 0 12.494564 
-9 -10 0 0.75576037 -13.39317 0 13.414476 
-10 -10 0 0.51799066 -14.331339 0 14.340698 
4 0 1 22 21 
4 1 2 23 22 
4 2 3 24 23 
4 3 4 25 24 
4 4 5 26 25 
4 5 6 27 26 
4 6 7 28 27 
4 7 8 29 28 
4 8 9 30 29 
4 9 10 31 30 
4 10 11 32 31 
4 11 12 33 32 
4 12 13 34 33 
4 13 14 35 34 
4 14 15 36 35 
4 15 16 37 36 
4 16 17 38 37 
4 17 18 39 38 
4 18 19 40 39 
4 19 20 41 40 
4 21 22 43 42 
4 22 23 44 43 
4 23 24 45 44 
4 24 25 46 45 
4 25 26 47 46 
4 26 27 48 47 
4 27 28 49 48 
4 28 29 50 49 
4 29 30 51 50 
4 30 31 52 51 
4 31 32 53 52 
4 32 33 54 53 
4 33 34 55 54 
4 34 35 56 55 
4 35 36 57 56 
4 36 37 58 57 
4 37 38 59 58 
4 38 39 60 59 
4 39 40 61 60 
4 40 41 62 61 
4 42 43 64 63 
4 43 44 65 64 
4 44 45 66 65 
4 45 46 67 66 
4 46 47 68 67 
4 47 48 69 68 
4 48 49 70 69 
4 49 50 71 70 
4 50 51 72 71 
4 51 52 73 72 
4 52 53 74 73 
4 53 54 75 74 
4 54 55 76 75 
4 55 56 77 76 
4 56 57 78 77 
4 57 58 79 78 
4 58 59 80 79 
4 59 60 81 80 
4 60 61 82 81 
4 61 62 83 82 
4 63 64 85 84 
4 64 65 86 85 
4 65 66 87 86 
4 66 67 88 87 
4 67 68 89 88 
4 68 69 90 89 
4 69 70 91 90 
4 70 71 92 91 
4 71 72 93 92 
4 72 73 94 93 
4 73 74 95 94 
4 74 75 96 95 
4 75 76 97 96 
4 76 77 98 97 
4 77 78 99 98 
4 78 79 100 99 
4 79 80 101 100 
4 80 81 102 101 
4 81 82 103 102 
4 82 83 104 103 
4 84 85 106 105 
4 85 86 107 106 
4 86 87 108 107 
4 87 88 109 108 
4 88 89 110 109 
4 89 90 111 110 
4 90 91 112 111 
4 91 92 113 112 
4 92 93 114 113 
4 93 94 115 114 
4 94 95 116 115 
4 95 96 117 116 
4 96 97 118 117 
4 97 98 119 118 
4 98 99 120 119 
4 99 100 121 120 
4 100 101 122 121 
4 101 102 123 122 
4 102 103 124 123 
4 103 104 125 124 
4 105 106 127 126 
4 106 107 128 127 
4 107 108 129 128 
4 108 109 130 129 
4 109 110 131 130 
4 110 111 132 131 
4 111 112 133 132 
4 112 113 134 133 
4 113 114 135 134 
4 114 115 136 135 
4 115 116 137 136 
4 116 117 138 137 
4 117 118 139 138 
4 118 119 140 139 
4 119 120 141 140 
4 120 121 142 141 
4 121 122 143 142 
4 122 123 144 143 
4 123 124 145 144 
4 124 125 146 145 
4 126 127 148 147 
4 127 128 149 148 
4 128 129 150 149 
4 129 130 151 150 
4 130 131 152 151 
4 131 132 153 152 
4 132 133 154 153 
4 133 134 155 154 
4 134 135 156 155 
4 135 136 157 156 
4 136 137 158 157 
4 137 138 159 158 
4 138 139 160 159 
4 139 140 161 160 
4 140 141 162 161 
4 141 142 163 162 
4 142 143 164 163 
4 143 144 165 164 
4 144 145 166 165 
4 145 146 167 166 
4 147 148 169 168 
4 148 149 170 169 
4 149 150 171 170 
4 150 151 172 171 
4 151 152 173 172 
4 152 153 174 173 
4 153 154 175 174 
4 154 155 176 175 
4 155 156 177 176 
4 156 157 178 177 
4 157 158 179 178 
4 158 159 180 179 
4 159 160 181 180 
4 160 161 182 181 
4 161 162 183 182 
4 162 163 184 183 
4 163 164 185 184 
4 164 165 186 185 
4 165 166 187 186 
4 166 167 188 187 
4 168 169 190 189 
4 169 170 191 190 
4 170 171 192 191 
4 171 172 193 192 
4 172 173 194 193 
4 173 174 195 194 
4 174 175 196 195 
4 175 176 197 196 
4 176 177 198 197 
4 177 178 199 198 
4 178 179 200 199 
4 179 180 201 200 
4 180 181 202 201 
4 181 182 203 202 
4 182 183 204 203 
4 183 184 205 204 
4 184 185 206 205 
4 185 186 207 206 
4 186 187 208 207 
4 187 188 209 208 
4 189 190 211 210 
4 190 191 212 211 
4 191 192 213 212 
4 192 193 214 213 
4 193 194 215 214 
4 194 195 216 215 
4 195 196 217 216 
4 196 197 218 217 
4 197 198 219 218 
4 198 199 220 219 
4 199 200 221 220 
4 200 201 222 221 
4 201 202 223 222 
4 202 203 224 223 
4 203 204 225 224 
4 204 205 226 225 
4 205 206 227 226 
4 206 207 228 227 
4 207 208 229 228 
4 208 209 230 229 
4 210 211 232 231 
4 211 212 233 232 
4 212 213 234 233 
4 213 214 235 234 
4 214 215 236 235 
4 215 216 237 236 
4 216 217 238 237 
4 217 218 239 238 
4 218 219 240 239 
4 219 220 241 240 
4 220 221 242 241 
4 221 222 243 242 
4 222 223 244 243 
4 223 224 245 244 
4 224 225 246 245 
4 225 226 247 246 
4 226 227 248 247 
4 227 228 249 248 
4 228 229 250 249 
4 229 230 251 250 
4 231 232 253 252 
4 232 233 254 253 
4 233 234 255 254 
4 234 235 256 255 
4 235 236 257 256 
4 236 237 258 257 
4 237 238 259 258 
4 238 239 260 259 
4 239 240 261 260 
4 240 241 262 261 
4 241 242 263 262 
4 242 243 264 263 
4 243 244 265 264 
4 244 245 266 265 
4 245 246 267 266 
4 246 247 268 267 
4 247 248 269 268 
4 248 249 270 269 
4 249 250 271 270 
4 250 251 272 271 
4 252 253 274 273 
4 253 254 275 274 
4 254 255 276 275 
4 255 256 277 276 
4 256 257 278 277 
4 257 258 279 278 
4 258 259 280 279 
4 259 260 281 280 
4 260 261 282 281 
4 261 262 283 282 
4 262 263 284 283 
4 263 264 285 284 
4 264 265 286 285 
4 265 266 287 286 
4 266 267 288 287 
4 267 268 289 288 
4 268 269 290 289 
4 269 270 291 290 
4 270 271 292 291 
4 271 272 293 292 
4 273 274 295 294 
4 274 275 296 295 
4 275 276 297 296 
4 276 277 298 297 
4 277 278 299 298 
4 278 279 300 299 
4 279 280 301 300 
4 280 281 302 301 
4 281 282 303 302 
4 282 283 304 303 
4 283 284 305 304 
4 284 285 306 305 
4 285 286 307 306 
4 286 287 308 307 
4 287 288 309 308 
4 288 289 310 309 
4 289 290 311 310 
4 290 291 312 311 
4 291 292 313 312 
4 292 293 314 313 
4 294 295 316 315 
4 295 296 317 316 
4 296 297 318 317 
4 297 298 319 318 
4 298 299 320 319 
4 299 300 321 320 
4 300 301 322 321 
4 301 302 323 322 
4 302 303 324 323 
4 303 304 325 324 
4 304 305 326 325 
4 305 306 327 326 
4 306 307 328 327 
4 307 308 329 328 
4 308 309 330 329 
4 309 310 331 330 
4 310 311 332 331 
4 311 312 333 332 
4 312 313 334 333 
4 313 314 335 334 
4 315 316 337 336 
4 316 317 338 337 
4 317 318 339 338 
4 318 319 340 339 
4 319 320 341 340 
4 320 321 342 341 
4 321 322 343 342 
4 322 323 344 343 
4 323 324 345 344 
4 324 325 346 345 
4 325 326 347 346 
4 326 327 348 347 
4 327 328 349 348 
4 328 329 350 349 
4 329 330 351 350 
4 330 331 352 351 
4 331 332 353 352 
4 332 333 354 353 
4 333 334 355 354 
4 334 335 356 355 
4 336 337 358 357 
4 337 338 359 358 
4 338 339 360 359 
4 339 340 361 360 
4 340 341 362 361 
4 341 342 363 362 
4 342 343 364 363 
4 343 344 365 364 
4 344 345 366 365 
4 345 346 367 366 
4 346 347 368 367 
4 347 348 369 368 
4 348 349 370 369 
4 349 350 371 370 
4 350 351 372 371 
4 351 352 373 372 
4 352 353 374 373 
4 353 354 375 374 
4 354 355 376 375 
4 355 356 377 376 
4 357 358 379 378 
4 358 359 380 379 
4 359 360 381 380 
4 360 361 382 381 
4 361 362 383 382 
4 362 363 384 383 
4 363 364 385 384 
4 364 365 386 385 
4 365 366 387 386 
4 366 367 388 387 
4 367 368 389 388 
4 368 369 390 389 
4 369 370 391 390 
4 370 371 392 391 
4 371 372 393 392 
4 372 373 394 393 
4 373 374 395 394 
4 374 375 396 395 
4 375 376 397 396 
4 376 377 398 397 
4 378 379 400 399 
4 379 380 401 400 
4 380 381 402 401 
4 381 382 403 402 
4 382 383 404 403 
4 383 384 405 404 
4 384 385 406 405 
4 385 386 407 406 
4 386 387 408 407 
4 387 388 409 408 
4 388 389 410 409 
4 389 390 411 410 
4 390 391 412 411 
4 391 392 413 412 
4 392 393 414 413 
4 393 394 415 414 
4 394 395 416 415 
4 395 396 417 416 
4 396 397 418 417 
4 397 398 419 418 
4 399 400 421 420 
4 400 401 422 421 
4 401 402 423 422 
4 402 403 424 423 
4 403 404 425 424 
4 404 405 426 425 
4 405 406 427 426 
4 406 407 428 427 
4 407 408 429 428 
4 408 409 430 429 
4 409 410 431 430 
4 410 411 432 431 
4 411 412 433 432 
4 412 413 434 433 
4 413 414 435 434 
4 414 415 436 435 
4 415 416 437 436 
4 416 417 438 437 
4 417 418 439 438 
4 418 419 440 439 
