ply
format ascii 1.0
comment created by PolyEditor
comment modified by learnply
comment modified by learnply
comment modified by learnply
comment modified by learnply
comment modified by learnply
comment modified by learnply
comment modified by learnply
element vertex 441
property float64 x
property float64 y
property float64 z
property float64 vx
property float64 vy
property float64 vz
property float64 s
element face 400
property list uint8 int32 vertex_indices
end_header
10 10 0 878.68694 -1216.5956 0 1500.7317 
9 10 0 962.9512 -980.55391 0 1374.322 
8 10 0 1018.0298 -763.60952 0 1272.5895 
7 10 0 1046.7343 -564.94259 0 1189.459 
6 10 0 1051.8764 -383.73336 0 1119.6854 
5 10 0 1036.2679 -219.16202 0 1059.1898 
4 10 0 1002.7203 -70.408795 0 1005.1893 
3 10 0 954.04541 63.34611 0 956.14611 
2 10 0 893.05481 182.92248 0 911.59614 
1 10 0 822.5602 289.14011 0 871.89867 
0 10 0 745.37324 382.81878 0 837.93287 
-1 10 0 664.30561 464.77828 0 810.75323 
-2 10 0 582.16898 535.8384 0 791.22912 
-3 10 0 501.77502 596.81893 0 779.72496 
-4 10 0 425.93539 648.53966 0 775.90247 
-5 10 0 357.46178 691.82037 0 778.71326 
-6 10 0 299.16584 727.48085 0 786.59302 
-7 10 0 253.85925 756.34089 0 797.80703 
-8 10 0 224.35368 779.22028 0 810.87534 
-9 10 0 213.4608 796.93881 0 825.0315 
-10 10 0 223.99228 810.31626 0 840.70505 
10 9 0 540.7076 -1085.3501 0 1212.5797 
9 9 0 636.20679 -878.0661 0 1084.3243 
8 9 0 702.9913 -688.61074 0 984.06378 
7 9 0 743.8728 -516.16419 0 905.41273 
6 9 0 761.66295 -359.90667 0 842.41514 
5 9 0 759.17344 -219.0184 0 790.13503 
4 9 0 739.21592 -92.679586 0 745.00314 
3 9 0 704.60207 19.929563 0 704.88387 
2 9 0 658.14356 119.62883 0 668.9275 
1 9 0 602.65206 207.23801 0 637.28887 
0 9 0 540.93924 283.57689 0 610.76273 
-1 9 0 475.81677 349.46525 0 590.36223 
-2 9 0 410.09632 405.72289 0 576.87958 
-3 9 0 346.58956 453.16959 0 570.51468 
-4 9 0 288.10816 492.62514 0 570.68892 
-5 9 0 237.46379 524.90933 0 576.12399 
-6 9 0 197.46812 550.84194 0 585.16708 
-7 9 0 170.93283 571.24277 0 596.26868 
-8 9 0 160.66958 586.93161 0 608.52562 
-9 9 0 169.49004 598.72823 0 622.25587 
-10 9 0 200.20588 607.45244 0 639.59429 
10 8 0 261.53902 -952.8189 0 988.062 
9 8 0 366.53401 -772.53298 0 855.07566 
8 8 0 443.28535 -608.807 0 753.0922 
7 8 0 494.60469 -460.82119 0 676.01034 
6 8 0 523.30372 -327.75576 0 617.47115 
5 8 0 532.1941 -208.79092 0 571.68541 
4 8 0 524.0875 -103.10688 0 534.13363 
3 8 0 501.79559 -9.8838466 0 501.89292 
2 8 0 468.13004 71.697958 0 473.58878 
1 8 0 425.90252 142.45833 0 449.09613 
0 8 0 377.92471 203.21705 0 429.09702 
-1 8 0 327.00827 254.79391 0 414.55319 
-2 8 0 275.96487 298.0087 0 406.15981 
-3 8 0 227.60619 333.6812 0 403.91549 
-4 8 0 184.74389 362.63121 0 406.97875 
-5 8 0 150.18964 385.67852 0 413.8899 
-6 8 0 126.75512 403.6429 0 423.07736 
-7 8 0 117.25199 417.34416 0 433.50222 
-8 8 0 124.49193 427.60207 0 445.35578 
-9 8 0 151.2866 435.23643 0 460.78019 
-10 8 0 200.44768 441.06702 0 484.47847 
10 7 0 36.469558 -820.99997 0 821.80958 
9 7 0 149.22123 -665.95245 0 682.46586 
8 7 0 234.20026 -526.19623 0 575.96201 
7 7 0 294.21833 -400.91153 0 497.28712 
6 7 0 332.0871 -289.27854 0 440.41335 
5 7 0 350.61824 -190.47749 0 399.01733 
4 7 0 352.62343 -103.68859 0 367.55218 
3 7 0 340.91433 -28.092044 0 342.0698 
2 7 0 318.30262 37.131932 0 320.46114 
1 7 0 287.59996 92.803125 0 302.20218 
0 7 0 251.61803 139.74133 0 287.81812 
-1 7 0 213.16849 178.76632 0 278.20533 
-2 7 0 175.06302 210.6979 0 273.93551 
-3 7 0 140.11328 236.35585 0 274.76502 
-4 7 0 111.13095 256.55995 0 279.59453 
-5 7 0 90.927702 272.13001 0 286.91913 
-6 7 0 82.315195 283.8858 0 295.57899 
-7 7 0 88.105106 292.64711 0 305.62206 
-8 7 0 111.1091 299.23374 0 319.19597 
-9 7 0 154.13886 304.46547 0 341.25945 
-10 7 0 220.00604 309.16208 0 379.45204 
10 6 0 -139.21241 -691.8912 0 705.75742 
9 6 0 -20.44319 -560.32246 0 560.69527 
8 6 0 71.024415 -442.77636 0 448.43659 
7 6 0 138.00208 -338.43312 0 365.4881 
6 6 0 183.30146 -246.47295 0 307.16175 
5 6 0 209.73424 -166.07605 0 267.52515 
4 6 0 220.11209 -96.422651 0 240.30535 
3 6 0 217.24668 -36.692953 0 220.32361 
2 6 0 203.94967 13.932829 0 204.42503 
1 6 0 183.03275 56.274483 0 191.48839 
0 6 0 157.30757 91.151799 0 181.80847 
-1 6 0 129.5858 119.38456 0 176.19635 
-2 6 0 102.67913 141.79257 0 175.06609 
-3 6 0 79.399213 159.19559 0 177.89736 
-4 6 0 62.557726 172.41343 0 183.41173 
-5 6 0 54.966338 182.26588 0 190.37371 
-6 6 0 59.43672 189.57271 0 198.67193 
-7 6 0 78.780541 195.15372 0 210.4551 
-8 6 0 115.80947 199.8287 0 230.96178 
-9 6 0 173.33518 204.41743 0 268.01413 
-10 6 0 254.16935 209.73971 0 329.53422 
10 5 0 -270.21851 -567.49052 0 628.5408 
9 5 0 -147.17087 -457.64092 0 480.72287 
8 5 0 -50.953825 -360.5453 0 364.12801 
7 5 0 21.244301 -275.38389 0 276.20212 
6 5 0 72.235176 -201.33689 0 213.90293 
5 5 0 104.83047 -137.58452 0 172.97089 
4 5 0 121.84185 -83.306986 0 147.59909 
3 5 0 126.081 -37.6845 0 131.59232 
2 5 0 120.35957 0.1027253 0 120.35961 
1 5 0 107.48924 30.874477 0 111.83546 
0 5 0 90.281686 55.450545 0 105.95068 
-1 5 0 71.54857 74.650716 0 103.40178 
-2 5 0 54.101566 89.294778 0 104.40564 
-3 5 0 40.752342 100.20252 0 108.17254 
-4 5 0 34.312571 108.19373 0 113.50434 
-5 5 0 37.593921 114.0882 0 120.12252 
-6 5 0 53.408063 118.70571 0 130.16707 
-7 5 0 84.566668 122.86605 0 149.15626 
-8 5 0 133.88141 127.38902 0 184.80312 
-9 5 0 204.16395 133.09439 0 243.71507 
-10 5 0 298.22596 140.80197 0 329.79375 
10 4 0 -361.26038 -449.79586 0 576.9102 
9 4 0 -235.67345 -359.90576 0 430.20243 
8 4 0 -136.44609 -281.50099 0 312.82638 
7 4 0 -60.766625 -213.76177 0 222.23114 
6 4 0 -5.8233894 -155.86831 0 155.97706 
5 4 0 31.195288 -107.00082 0 111.45547 
4 4 0 53.101077 -66.339518 0 84.974444 
3 4 0 62.705649 -33.064608 0 70.889115 
2 4 0 62.820673 -6.3563036 0 63.141425 
1 4 0 56.25782 14.605182 0 58.122747 
0 4 0 45.828761 30.639637 0 55.127694 
-1 4 0 34.345164 42.566851 0 54.694854 
-2 4 0 24.618702 51.20661 0 56.817228 
-3 4 0 19.461043 57.378704 0 60.589173 
-4 4 0 21.683859 61.902921 0 65.590863 
-5 4 0 34.098819 65.599048 0 73.932162 
-6 4 0 59.517594 69.286874 0 91.340106 
-7 4 0 100.75185 73.786187 0 124.88129 
-8 4 0 160.61327 79.916776 0 179.39708 
-9 4 0 241.91351 88.498428 0 257.59293 
-10 4 0 347.46425 100.35093 0 361.66519 
10 3 0 -417.04965 -340.80514 0 538.58941 
9 3 0 -290.66256 -269.1149 0 396.11558 
8 3 0 -190.16401 -207.64135 0 281.56221 
7 3 0 -112.74233 -155.56468 0 192.12289 
6 3 0 -55.585864 -112.06513 0 125.09349 
5 3 0 -15.882931 -76.322886 0 77.958004 
4 3 0 9.1781365 -47.518174 0 48.396436 
3 3 0 22.409009 -24.831202 0 33.447755 
2 3 0 26.621357 -7.4421827 0 27.642046 
1 3 0 24.62685 5.4686728 0 25.226734 
0 3 0 19.237159 14.721152 0 24.223555 
-1 3 0 13.263955 21.135044 0 24.952407 
-2 3 0 9.5189062 25.530137 0 27.246972 
-3 3 0 10.813684 28.726218 0 30.694159 
-4 3 0 19.95996 31.543077 0 37.327814 
-5 3 0 39.769402 34.800501 0 52.845815 
-6 3 0 73.053682 39.318278 0 82.962446 
-7 3 0 122.62447 45.916196 0 130.93914 
-8 3 0 191.29344 55.414045 0 199.15796 
-9 3 0 281.87225 68.631611 0 290.10733 
-10 3 0 397.17258 86.388684 0 406.45918 
10 2 0 -442.29795 -242.51628 0 504.42207 
9 2 0 -316.84982 -187.26627 0 368.05226 
8 2 0 -216.81921 -140.96429 0 258.61458 
7 2 0 -139.39445 -102.79055 0 173.19558 
6 2 0 -81.763878 -71.92526 0 108.89708 
5 2 0 -41.115818 -47.548631 0 62.860025 
4 2 0 -14.6386 -28.840876 0 32.343234 
3 2 0 0.47944578 -14.982208 0 14.989877 
2 2 0 7.0499893 -5.1528367 0 8.732358 
1 2 0 7.8847011 1.4670248 0 8.020017 
0 2 0 5.7952513 5.6971648 0 8.1266614 
-1 2 0 3.5933103 8.3573717 0 9.0971172 
-2 2 0 4.0905484 10.267434 0 11.052275 
-3 2 0 10.098636 12.247139 0 15.873716 
-4 2 0 24.429243 15.116276 0 28.727856 
-5 2 0 49.89404 19.694632 0 53.640411 
-6 2 0 89.304697 26.801996 0 93.239883 
-7 2 0 145.47288 37.258156 0 150.16834 
-8 2 0 221.21027 51.8829 0 227.21316 
-9 2 0 319.32853 71.496017 0 327.23446 
-10 2 0 442.63933 96.917295 0 453.1253 
10 1 0 -441.71691 -156.92721 0 468.76431 
9 1 0 -318.94687 -116.3578 0 339.50882 
8 1 0 -221.12333 -83.467757 0 236.35226 
7 1 0 -145.43461 -57.4373 0 156.36582 
6 1 0 -89.069063 -37.446638 0 96.620644 
5 1 0 -49.215003 -22.675985 0 54.187792 
4 1 0 -23.060762 -12.305551 0 26.13858 
3 1 0 -7.7946715 -5.5155492 0 9.5487269 
2 1 0 -0.60505997 -1.4861904 0 1.6046368 
1 1 0 1.3197424 0.6023133 0 1.45069 
0 1 0 0.79140599 1.5697501 0 1.7579644 
-1 1 0 0.621601 2.2359081 0 2.3207052 
-2 1 0 3.6219977 3.4205756 0 4.9818877 
-3 1 0 12.604266 5.9435408 0 13.935322 
-4 1 0 30.380078 10.624592 0 32.184329 
-5 1 0 59.761101 18.283517 0 62.495409 
-6 1 0 103.55901 29.740104 0 107.7448 
-7 1 0 164.58547 45.814142 0 170.84294 
-8 1 0 245.65215 67.325419 0 254.71099 
-9 1 0 349.57073 95.093722 0 362.27408 
-10 1 0 479.15287 129.93884 0 496.45903 
10 0 0 -420.01816 -86.035859 0 428.73934 
9 0 0 -301.66533 -58.387402 0 307.26383 
8 0 0 -207.78799 -37.149663 0 211.08279 
7 0 0 -135.57445 -21.502853 0 137.26909 
6 0 0 -82.21305 -10.627186 0 82.89706 
5 0 0 -44.892117 -3.7028718 0 45.044572 
4 0 0 -20.799982 0.08987701 0 20.800176 
3 0 0 -7.1249733 1.5708487 0 7.2960818 
2 0 0 -1.0554216 1.5598315 0 1.8833452 
1 0 0 0.22034364 0.87661367 0 0.90388209 
0 0 0 -0.48600726 0.34098331 0 0.59369409 
-1 0 0 -0.36280404 0.77272866 0 0.85366056 
-2 0 0 3.4016236 2.9916379 0 4.5300045 
-3 0 0 13.618946 7.8174993 0 15.703152 
-4 0 0 33.100833 16.070101 0 36.795561 
-5 0 0 64.658956 28.569231 0 70.689331 
-6 0 0 111.10498 46.134678 0 120.30264 
-7 0 0 175.25059 69.58623 0 188.56037 
-8 0 0 259.90744 99.743675 0 278.38943 
-9 0 0 367.8872 137.4268 0 392.71761 
-10 0 0 502.00156 183.4554 0 534.47305 
10 -1 0 -381.91333 -31.840144 0 383.23829 
9 -1 0 -269.71685 -15.353008 0 270.15346 
8 -1 0 -181.52483 -4.0079348 0 181.56907 
7 -1 0 -114.52559 3.0148625 0 114.56527 
6 -1 0 -65.907468 6.5351726 0 66.230679 
5 -1 0 -32.858791 7.3727836 0 33.675779 
4 -1 0 -12.567888 6.3474837 0 14.079857 
3 -1 0 -2.2230903 4.2790613 0 4.8220842 
2 -1 0 0.98727378 1.9873043 0 2.2190286 
1 -1 0 -0.12512589 0.2920011 0 0.31768086 
0 -1 0 -2.748619 0.012939848 0 2.7486495 
-1 -1 0 -4.0715354 1.9699087 0 4.5230455 
-2 -1 0 -1.2822047 6.982696 0 7.0994431 
-3 -1 0 8.4310434 15.87109 0 17.971477 
-4 -1 0 27.879879 29.454878 0 40.55709 
-5 -1 0 59.875973 48.55385 0 77.088316 
-6 -1 0 107.23099 73.987793 0 130.27924 
-7 -1 0 172.75661 106.57649 0 202.9862 
-8 -1 0 259.2645 147.13974 0 298.10768 
-9 -1 0 369.56633 196.49733 0 418.55761 
-10 -1 0 506.47377 255.46904 0 567.25665 
10 -2 0 -332.11405 3.6620075 0 332.13424 
9 -2 0 -227.81304 10.747459 0 228.06642 
8 -2 0 -147.04547 13.959502 0 147.7066 
7 -2 0 -86.999664 14.117924 0 88.137718 
6 -2 0 -44.863948 12.042512 0 46.452083 
5 -2 0 -17.826655 8.5530564 0 19.772314 
4 -2 0 -3.0761132 4.4693442 0 5.4256345 
3 -2 0 2.1993469 0.61116367 0 2.2826843 
2 -2 0 0.81139561 -2.2016968 0 2.3464509 
1 -2 0 -4.4282968 -3.1494491 0 5.4340447 
0 -2 0 -10.70806 -1.4123051 0 10.800794 
-1 -2 0 -15.216224 3.8295236 0 15.690721 
-2 -2 0 -15.141118 13.395825 0 20.216369 
-3 -2 0 -7.6710715 28.106388 0 29.134419 
-4 -2 0 10.005585 48.780999 0 49.796562 
-5 -2 0 40.700522 76.239448 0 86.423295 
-6 -2 0 87.22541 111.30152 0 141.40828 
-7 -2 0 152.39192 154.78701 0 217.21491 
-8 -2 0 239.01172 207.5157 0 316.52704 
-9 -2 0 349.89648 270.30738 0 442.14661 
-10 -2 0 487.85788 343.98184 0 596.93284 
10 -3 0 -275.33195 18.472671 0 275.95094 
9 -3 0 -180.66555 17.916074 0 181.55172 
8 -3 0 -109.06156 14.754723 0 110.0551 
7 -3 0 -57.708304 9.8084048 0 58.535913 
6 -3 0 -23.794122 3.8969085 0 24.111121 
5 -3 0 -4.5073397 -2.159978 0 4.9981613 
4 -3 0 2.9637135 -7.5424665 0 8.1038509 
3 -3 0 1.4307077 -11.430769 0 11.519957 
2 -3 0 -6.2946867 -13.005097 0 14.448378 
1 -3 0 -17.4008 -11.445662 0 20.82765 
0 -3 0 -29.075961 -5.9326762 0 29.675042 
-1 -3 0 -38.508499 4.3536485 0 38.753823 
-2 -3 0 -42.886746 20.2331 0 47.419946 
-3 -3 0 -39.39903 42.525468 0 57.971536 
-4 -3 0 -25.23368 72.050539 0 76.341461 
-5 -3 0 2.4209723 109.6281 0 109.65483 
-6 -3 0 46.376598 156.07794 0 162.82234 
-7 -3 0 109.44487 212.21986 0 238.77907 
-8 -3 0 194.43745 278.87362 0 339.96532 
-9 -3 0 304.16602 356.85904 0 468.898 
-10 -3 0 441.44224 446.99588 0 628.2329 
10 -4 0 -216.27866 10.593921 0 216.53797 
9 -4 0 -132.98599 4.154912 0 133.05088 
8 -4 0 -72.284707 -3.6201971 0 72.375305 
7 -4 0 -31.36314 -11.911618 0 33.548967 
6 -4 0 -7.4096194 -19.899564 0 21.23429 
5 -4 0 2.387524 -26.764245 0 26.870524 
4 -4 0 0.83996094 -31.685873 0 31.697004 
3 -4 0 -9.2406384 -33.844661 0 35.083478 
2 -4 0 -25.042604 -32.42082 0 40.966347 
1 -4 0 -43.754265 -26.594562 0 51.202602 
0 -4 0 -62.563952 -15.546098 0 64.466497 
-1 -4 0 -78.659993 1.5443587 0 78.675152 
-2 -4 0 -89.23072 25.496597 0 92.801928 
-3 -4 0 -91.464461 57.130406 0 107.84077 
-4 -4 0 -82.549547 97.265572 0 127.57358 
-5 -4 0 -59.674306 146.72188 0 158.39297 
-6 -4 0 -20.02707 206.31913 0 207.28885 
-7 -4 0 39.203833 276.8771 0 279.63882 
-8 -4 0 120.83007 359.21558 0 378.99306 
-9 -4 0 227.66332 454.15436 0 508.02241 
-10 -4 0 362.51524 562.51323 0 669.20732 
10 -5 0 -159.66582 -21.972167 0 161.17056 
9 -5 0 -89.486007 -32.533952 0 95.216614 
8 -5 0 -41.426557 -43.163182 0 59.826582 
7 -5 0 -12.675802 -53.040071 0 54.533706 
6 -5 0 -0.42207099 -61.344829 0 61.346281 
5 -5 0 -1.8536943 -67.257668 0 67.283208 
4 -5 0 -14.159001 -69.9588 0 71.377244 
3 -5 0 -34.526322 -68.628437 0 76.824015 
2 -5 0 -60.143986 -62.446791 0 86.700062 
1 -5 0 -88.200323 -50.594073 0 101.68116 
0 -5 0 -115.88366 -32.250496 0 120.28765 
-1 -5 0 -140.38234 -6.5962706 0 140.53722 
-2 -5 0 -158.88467 27.188391 0 161.19413 
-3 -5 0 -168.579 69.923276 0 182.50519 
-4 -5 0 -166.65365 122.42817 0 206.78998 
-5 -5 0 -150.29695 185.52287 0 238.76329 
-6 -5 0 -116.69723 260.02716 0 285.01292 
-7 -5 0 -63.042817 346.76083 0 352.44499 
-8 -5 0 13.47795 446.54366 0 446.74701 
-9 -5 0 115.67675 560.19544 0 572.01402 
-10 -5 0 246.36525 688.53597 0 731.2849 
10 -6 0 -110.20505 -81.223518 0 136.90294 
9 -6 0 -54.877224 -94.148442 0 108.97449 
8 -6 0 -21.198737 -105.87216 0 107.97361 
7 -6 0 -6.3579211 -115.57488 0 115.74962 
6 -6 0 -7.5431074 -122.43681 0 122.66895 
5 -6 0 -21.942625 -125.63817 0 127.53991 
4 -6 0 -46.744804 -124.35917 0 132.85436 
3 -6 0 -79.137974 -117.78002 0 141.89768 
2 -6 0 -116.31046 -105.08094 0 156.74861 
1 -6 0 -155.45061 -85.442122 0 177.38446 
0 -6 0 -193.74673 -58.043794 0 202.25448 
-1 -6 0 -228.38716 -22.066164 0 229.45067 
-2 -6 0 -256.56023 23.310556 0 257.61703 
-3 -6 0 -275.45427 78.906156 0 286.53313 
-4 -6 0 -282.25761 145.54042 0 317.57105 
-5 -6 0 -274.15857 224.03314 0 354.05335 
-6 -6 0 -248.3455 315.20411 0 401.28433 
-7 -6 0 -202.00671 419.8731 0 465.94006 
-8 -6 0 -132.33055 538.85992 0 554.8706 
-9 -6 0 -36.505325 672.98434 0 673.97371 
-10 -6 0 88.280618 823.06616 0 827.78704 
10 -7 0 -72.60799 -169.15806 0 184.0825 
9 -7 0 -33.871273 -182.68648 0 185.79993 
8 -7 0 -16.312876 -193.74505 0 194.43059 
7 -7 0 -17.121128 -201.51396 0 202.23998 
6 -7 0 -33.484359 -205.17344 0 207.88781 
5 -7 0 -62.590899 -203.90368 0 213.29401 
4 -7 0 -101.62908 -196.88491 0 221.56746 
3 -7 0 -147.78722 -183.29734 0 235.45484 
2 -7 0 -198.25367 -162.32118 0 256.22779 
1 -7 0 -250.21674 -133.13663 0 283.43214 
0 -7 0 -300.86477 -94.923917 0 315.48401 
-1 -7 0 -347.38609 -46.863247 0 350.53282 
-2 -7 0 -386.96902 11.865169 0 387.15088 
-3 -7 0 -416.8019 82.081118 0 424.80718 
-4 -7 0 -434.07306 164.60439 0 464.23488 
-5 -7 0 -435.97082 260.25477 0 507.74315 
-6 -7 0 -419.68352 369.85205 0 559.39681 
-7 -7 0 -382.39949 494.21601 0 624.88306 
-8 -7 0 -321.30705 634.16645 0 710.91863 
-9 -7 0 -233.59453 790.52315 0 824.31381 
-10 -7 0 -116.45027 964.1059 0 971.1132 
10 -8 0 -51.586261 -287.77371 0 292.36082 
9 -8 0 -31.179785 -300.146 0 301.76116 
8 -8 0 -31.480605 -308.77978 0 310.38038 
7 -8 0 -49.677053 -312.85525 0 316.77471 
6 -8 0 -82.957457 -311.55263 0 322.4081 
5 -8 0 -128.51015 -304.05213 0 330.09476 
4 -8 0 -183.52345 -289.53395 0 342.79844 
3 -8 0 -245.18571 -267.17832 0 362.62968 
2 -8 0 -310.68523 -236.16544 0 390.25559 
1 -8 0 -377.21036 -195.67553 0 424.94302 
0 -8 0 -441.94943 -144.88879 0 465.0936 
-1 -8 0 -502.09076 -82.985443 0 508.90246 
-2 -8 0 -554.82269 -9.1456954 0 554.89806 
-3 -8 0 -597.33354 77.45024 0 602.33371 
-4 -8 0 -626.81164 177.62215 0 651.49249 
-5 -8 0 -640.44533 292.18983 0 703.94965 
-6 -8 0 -635.42293 421.97305 0 762.77359 
-7 -8 0 -608.93277 567.79162 0 832.57819 
-8 -8 0 -558.16318 730.46532 0 919.30719 
-9 -8 0 -480.3025 910.81393 0 1029.6953 
-10 -8 0 -372.53905 1109.6572 0 1170.5232 
10 -9 0 -51.851497 -439.06839 0 442.11948 
9 -9 0 -51.514389 -448.52492 0 451.47351 
8 -9 0 -71.413556 -452.97427 0 458.56907 
7 -9 0 -108.73733 -451.59667 0 464.50334 
6 -9 0 -160.67403 -443.57231 0 471.77594 
5 -9 0 -224.412 -428.08142 0 483.33679 
4 -9 0 -297.13956 -404.30421 0 501.75075 
3 -9 0 -376.04505 -371.42088 0 528.54834 
2 -9 0 -458.31678 -328.61165 0 563.95026 
1 -9 0 -541.1431 -275.05673 0 607.03547 
0 -9 0 -621.71233 -209.93634 0 656.2008 
-1 -9 0 -697.21281 -132.43068 0 709.67851 
-2 -9 0 -764.83285 -41.719962 0 765.96987 
-3 -9 0 -821.7608 63.015595 0 824.17339 
-4 -9 0 -865.18497 182.59578 0 884.24332 
-5 -9 0 -892.29371 317.84039 0 947.212 
-6 -9 0 -900.27534 469.5692 0 1015.3772 
-7 -9 0 -886.31819 638.60201 0 1092.4159 
-8 -9 0 -847.61058 825.7586 0 1183.3516 
-9 -9 0 -781.34086 1031.8588 0 1294.3052 
-10 -9 0 -684.69735 1257.7223 0 1432.0181 
10 -10 0 -78.115329 -625.04004 0 629.90242 
9 -10 0 -99.586718 -629.82116 0 637.64583 
8 -10 0 -140.82336 -628.32646 0 643.91409 
7 -10 0 -199.01358 -619.73614 0 650.90651 
6 -10 0 -271.34571 -603.23041 0 661.44949 
5 -10 0 -355.00809 -577.9895 0 678.30864 
4 -10 0 -447.18903 -543.19361 0 703.58889 
3 -10 0 -545.07688 -498.02295 0 738.33303 
2 -10 0 -645.85995 -441.65773 0 782.42995 
1 -10 0 -746.72658 -373.27818 0 834.82764 
0 -10 0 -844.86511 -292.06449 0 893.92322 
-1 -10 0 -937.46385 -197.19687 0 957.97969 
-2 -10 0 -1021.7111 -87.855556 0 1025.4815 
-3 -10 0 -1094.7953 36.77926 0 1095.4129 
-4 -10 0 -1153.9047 177.52736 0 1167.481 
-5 -10 0 -1196.2276 335.20853 0 1242.3064 
-6 -10 0 -1218.9524 510.64257 0 1321.5902 
-7 -10 0 -1219.2674 704.64925 0 1408.2413 
-8 -10 0 -1194.3609 918.04837 0 1506.4232 
-9 -10 0 -1141.4212 1151.6597 0 1621.4693 
-10 -10 0 -1057.6368 1406.3031 0 1759.6261 
4 0 1 22 21 
4 1 2 23 22 
4 2 3 24 23 
4 3 4 25 24 
4 4 5 26 25 
4 5 6 27 26 
4 6 7 28 27 
4 7 8 29 28 
4 8 9 30 29 
4 9 10 31 30 
4 10 11 32 31 
4 11 12 33 32 
4 12 13 34 33 
4 13 14 35 34 
4 14 15 36 35 
4 15 16 37 36 
4 16 17 38 37 
4 17 18 39 38 
4 18 19 40 39 
4 19 20 41 40 
4 21 22 43 42 
4 22 23 44 43 
4 23 24 45 44 
4 24 25 46 45 
4 25 26 47 46 
4 26 27 48 47 
4 27 28 49 48 
4 28 29 50 49 
4 29 30 51 50 
4 30 31 52 51 
4 31 32 53 52 
4 32 33 54 53 
4 33 34 55 54 
4 34 35 56 55 
4 35 36 57 56 
4 36 37 58 57 
4 37 38 59 58 
4 38 39 60 59 
4 39 40 61 60 
4 40 41 62 61 
4 42 43 64 63 
4 43 44 65 64 
4 44 45 66 65 
4 45 46 67 66 
4 46 47 68 67 
4 47 48 69 68 
4 48 49 70 69 
4 49 50 71 70 
4 50 51 72 71 
4 51 52 73 72 
4 52 53 74 73 
4 53 54 75 74 
4 54 55 76 75 
4 55 56 77 76 
4 56 57 78 77 
4 57 58 79 78 
4 58 59 80 79 
4 59 60 81 80 
4 60 61 82 81 
4 61 62 83 82 
4 63 64 85 84 
4 64 65 86 85 
4 65 66 87 86 
4 66 67 88 87 
4 67 68 89 88 
4 68 69 90 89 
4 69 70 91 90 
4 70 71 92 91 
4 71 72 93 92 
4 72 73 94 93 
4 73 74 95 94 
4 74 75 96 95 
4 75 76 97 96 
4 76 77 98 97 
4 77 78 99 98 
4 78 79 100 99 
4 79 80 101 100 
4 80 81 102 101 
4 81 82 103 102 
4 82 83 104 103 
4 84 85 106 105 
4 85 86 107 106 
4 86 87 108 107 
4 87 88 109 108 
4 88 89 110 109 
4 89 90 111 110 
4 90 91 112 111 
4 91 92 113 112 
4 92 93 114 113 
4 93 94 115 114 
4 94 95 116 115 
4 95 96 117 116 
4 96 97 118 117 
4 97 98 119 118 
4 98 99 120 119 
4 99 100 121 120 
4 100 101 122 121 
4 101 102 123 122 
4 102 103 124 123 
4 103 104 125 124 
4 105 106 127 126 
4 106 107 128 127 
4 107 108 129 128 
4 108 109 130 129 
4 109 110 131 130 
4 110 111 132 131 
4 111 112 133 132 
4 112 113 134 133 
4 113 114 135 134 
4 114 115 136 135 
4 115 116 137 136 
4 116 117 138 137 
4 117 118 139 138 
4 118 119 140 139 
4 119 120 141 140 
4 120 121 142 141 
4 121 122 143 142 
4 122 123 144 143 
4 123 124 145 144 
4 124 125 146 145 
4 126 127 148 147 
4 127 128 149 148 
4 128 129 150 149 
4 129 130 151 150 
4 130 131 152 151 
4 131 132 153 152 
4 132 133 154 153 
4 133 134 155 154 
4 134 135 156 155 
4 135 136 157 156 
4 136 137 158 157 
4 137 138 159 158 
4 138 139 160 159 
4 139 140 161 160 
4 140 141 162 161 
4 141 142 163 162 
4 142 143 164 163 
4 143 144 165 164 
4 144 145 166 165 
4 145 146 167 166 
4 147 148 169 168 
4 148 149 170 169 
4 149 150 171 170 
4 150 151 172 171 
4 151 152 173 172 
4 152 153 174 173 
4 153 154 175 174 
4 154 155 176 175 
4 155 156 177 176 
4 156 157 178 177 
4 157 158 179 178 
4 158 159 180 179 
4 159 160 181 180 
4 160 161 182 181 
4 161 162 183 182 
4 162 163 184 183 
4 163 164 185 184 
4 164 165 186 185 
4 165 166 187 186 
4 166 167 188 187 
4 168 169 190 189 
4 169 170 191 190 
4 170 171 192 191 
4 171 172 193 192 
4 172 173 194 193 
4 173 174 195 194 
4 174 175 196 195 
4 175 176 197 196 
4 176 177 198 197 
4 177 178 199 198 
4 178 179 200 199 
4 179 180 201 200 
4 180 181 202 201 
4 181 182 203 202 
4 182 183 204 203 
4 183 184 205 204 
4 184 185 206 205 
4 185 186 207 206 
4 186 187 208 207 
4 187 188 209 208 
4 189 190 211 210 
4 190 191 212 211 
4 191 192 213 212 
4 192 193 214 213 
4 193 194 215 214 
4 194 195 216 215 
4 195 196 217 216 
4 196 197 218 217 
4 197 198 219 218 
4 198 199 220 219 
4 199 200 221 220 
4 200 201 222 221 
4 201 202 223 222 
4 202 203 224 223 
4 203 204 225 224 
4 204 205 226 225 
4 205 206 227 226 
4 206 207 228 227 
4 207 208 229 228 
4 208 209 230 229 
4 210 211 232 231 
4 211 212 233 232 
4 212 213 234 233 
4 213 214 235 234 
4 214 215 236 235 
4 215 216 237 236 
4 216 217 238 237 
4 217 218 239 238 
4 218 219 240 239 
4 219 220 241 240 
4 220 221 242 241 
4 221 222 243 242 
4 222 223 244 243 
4 223 224 245 244 
4 224 225 246 245 
4 225 226 247 246 
4 226 227 248 247 
4 227 228 249 248 
4 228 229 250 249 
4 229 230 251 250 
4 231 232 253 252 
4 232 233 254 253 
4 233 234 255 254 
4 234 235 256 255 
4 235 236 257 256 
4 236 237 258 257 
4 237 238 259 258 
4 238 239 260 259 
4 239 240 261 260 
4 240 241 262 261 
4 241 242 263 262 
4 242 243 264 263 
4 243 244 265 264 
4 244 245 266 265 
4 245 246 267 266 
4 246 247 268 267 
4 247 248 269 268 
4 248 249 270 269 
4 249 250 271 270 
4 250 251 272 271 
4 252 253 274 273 
4 253 254 275 274 
4 254 255 276 275 
4 255 256 277 276 
4 256 257 278 277 
4 257 258 279 278 
4 258 259 280 279 
4 259 260 281 280 
4 260 261 282 281 
4 261 262 283 282 
4 262 263 284 283 
4 263 264 285 284 
4 264 265 286 285 
4 265 266 287 286 
4 266 267 288 287 
4 267 268 289 288 
4 268 269 290 289 
4 269 270 291 290 
4 270 271 292 291 
4 271 272 293 292 
4 273 274 295 294 
4 274 275 296 295 
4 275 276 297 296 
4 276 277 298 297 
4 277 278 299 298 
4 278 279 300 299 
4 279 280 301 300 
4 280 281 302 301 
4 281 282 303 302 
4 282 283 304 303 
4 283 284 305 304 
4 284 285 306 305 
4 285 286 307 306 
4 286 287 308 307 
4 287 288 309 308 
4 288 289 310 309 
4 289 290 311 310 
4 290 291 312 311 
4 291 292 313 312 
4 292 293 314 313 
4 294 295 316 315 
4 295 296 317 316 
4 296 297 318 317 
4 297 298 319 318 
4 298 299 320 319 
4 299 300 321 320 
4 300 301 322 321 
4 301 302 323 322 
4 302 303 324 323 
4 303 304 325 324 
4 304 305 326 325 
4 305 306 327 326 
4 306 307 328 327 
4 307 308 329 328 
4 308 309 330 329 
4 309 310 331 330 
4 310 311 332 331 
4 311 312 333 332 
4 312 313 334 333 
4 313 314 335 334 
4 315 316 337 336 
4 316 317 338 337 
4 317 318 339 338 
4 318 319 340 339 
4 319 320 341 340 
4 320 321 342 341 
4 321 322 343 342 
4 322 323 344 343 
4 323 324 345 344 
4 324 325 346 345 
4 325 326 347 346 
4 326 327 348 347 
4 327 328 349 348 
4 328 329 350 349 
4 329 330 351 350 
4 330 331 352 351 
4 331 332 353 352 
4 332 333 354 353 
4 333 334 355 354 
4 334 335 356 355 
4 336 337 358 357 
4 337 338 359 358 
4 338 339 360 359 
4 339 340 361 360 
4 340 341 362 361 
4 341 342 363 362 
4 342 343 364 363 
4 343 344 365 364 
4 344 345 366 365 
4 345 346 367 366 
4 346 347 368 367 
4 347 348 369 368 
4 348 349 370 369 
4 349 350 371 370 
4 350 351 372 371 
4 351 352 373 372 
4 352 353 374 373 
4 353 354 375 374 
4 354 355 376 375 
4 355 356 377 376 
4 357 358 379 378 
4 358 359 380 379 
4 359 360 381 380 
4 360 361 382 381 
4 361 362 383 382 
4 362 363 384 383 
4 363 364 385 384 
4 364 365 386 385 
4 365 366 387 386 
4 366 367 388 387 
4 367 368 389 388 
4 368 369 390 389 
4 369 370 391 390 
4 370 371 392 391 
4 371 372 393 392 
4 372 373 394 393 
4 373 374 395 394 
4 374 375 396 395 
4 375 376 397 396 
4 376 377 398 397 
4 378 379 400 399 
4 379 380 401 400 
4 380 381 402 401 
4 381 382 403 402 
4 382 383 404 403 
4 383 384 405 404 
4 384 385 406 405 
4 385 386 407 406 
4 386 387 408 407 
4 387 388 409 408 
4 388 389 410 409 
4 389 390 411 410 
4 390 391 412 411 
4 391 392 413 412 
4 392 393 414 413 
4 393 394 415 414 
4 394 395 416 415 
4 395 396 417 416 
4 396 397 418 417 
4 397 398 419 418 
4 399 400 421 420 
4 400 401 422 421 
4 401 402 423 422 
4 402 403 424 423 
4 403 404 425 424 
4 404 405 426 425 
4 405 406 427 426 
4 406 407 428 427 
4 407 408 429 428 
4 408 409 430 429 
4 409 410 431 430 
4 410 411 432 431 
4 411 412 433 432 
4 412 413 434 433 
4 413 414 435 434 
4 414 415 436 435 
4 415 416 437 436 
4 416 417 438 437 
4 417 418 439 438 
4 418 419 440 439 
