ply
format ascii 1.0
comment created by PolyEditor
comment modified by learnply
comment modified by learnply
comment modified by learnply
element vertex 441
property float64 x
property float64 y
property float64 z
property float64 vx
property float64 vy
property float64 vz
property float64 s
element face 400
property list uint8 int32 vertex_indices
end_header
10 10 0 1.3827631 -5.7184057 0 5.8832132 
9 10 0 0.57112339 -5.7686697 0 5.7968726 
8 10 0 -0.24051637 -5.8189337 0 5.8239022 
7 10 0 -1.0521561 -5.8691977 0 5.9627606 
6 10 0 -1.8637959 -5.9194617 0 6.2059456 
5 10 0 -2.6754357 -5.9697256 0 6.5418331 
4 10 0 -3.4870754 -6.0199896 0 6.9570087 
3 10 0 -4.2987152 -6.0702536 0 7.4382075 
2 10 0 -5.1103549 -6.1205176 0 7.973485 
1 10 0 -5.9219947 -6.1707816 0 8.5526935 
0 10 0 -6.7336344 -6.2210456 0 9.1675101 
-1 10 0 -7.5452742 -6.2713095 0 9.8112429 
-2 10 0 -8.356914 -6.3215735 0 10.478564 
-3 10 0 -9.1685537 -6.3718375 0 11.165245 
-4 10 0 -9.9801935 -6.4221015 0 11.867925 
-5 10 0 -10.791833 -6.4723655 0 12.583925 
-6 10 0 -11.603473 -6.5226295 0 13.311096 
-7 10 0 -12.415113 -6.5728935 0 14.047703 
-8 10 0 -13.226753 -6.6231574 0 14.792336 
-9 10 0 -14.038392 -6.6734214 0 15.543842 
-10 10 0 -14.850032 -6.7236854 0 16.30127 
10 9 0 2.0849635 -5.0393994 0 5.4536794 
9 9 0 1.2733238 -5.0896634 0 5.2465252 
8 9 0 0.46168401 -5.1399274 0 5.1606206 
7 9 0 -0.34995575 -5.1901914 0 5.2019761 
6 9 0 -1.1615955 -5.2404553 0 5.3676509 
5 9 0 -1.9732353 -5.2907193 0 5.6467131 
4 9 0 -2.784875 -5.3409833 0 6.0234236 
3 9 0 -3.5965148 -5.3912473 0 6.4807766 
2 9 0 -4.4081545 -5.4415113 0 7.0029902 
1 9 0 -5.2197943 -5.4917753 0 7.5766647 
0 9 0 -6.0314341 -5.5420392 0 8.1909948 
-1 9 0 -6.8430738 -5.5923032 0 8.8375061 
-2 9 0 -7.6547136 -5.6425672 0 9.5096375 
-3 9 0 -8.4663533 -5.6928312 0 10.202327 
-4 9 0 -9.2779931 -5.7430952 0 10.911659 
-5 9 0 -10.089633 -5.7933592 0 11.634591 
-6 9 0 -10.901273 -5.8436232 0 12.368738 
-7 9 0 -11.712912 -5.8938871 0 13.112217 
-8 9 0 -12.524552 -5.9441511 0 13.863525 
-9 9 0 -13.336192 -5.9944151 0 14.621458 
-10 9 0 -14.147832 -6.0446791 0 15.385034 
10 8 0 2.7871639 -4.3603931 0 5.1750662 
9 8 0 1.9755242 -4.4106571 0 4.8328658 
8 8 0 1.1638844 -4.460921 0 4.6102542 
7 8 0 0.35224464 -4.511185 0 4.5249162 
6 8 0 -0.45939512 -4.561449 0 4.5845241 
5 8 0 -1.2710349 -4.611713 0 4.7836625 
4 8 0 -2.0826746 -4.661977 0 5.106032 
3 8 0 -2.8943144 -4.712241 0 5.5301239 
2 8 0 -3.7059542 -4.762505 0 6.0345298 
1 8 0 -4.5175939 -4.8127689 0 6.6008636 
0 8 0 -5.3292337 -4.8630329 0 7.2145562 
-1 8 0 -6.1408734 -4.9132969 0 7.8645288 
-2 8 0 -6.9525132 -4.9635609 0 8.5425041 
-3 8 0 -7.764153 -5.0138249 0 9.2423217 
-4 8 0 -8.5757927 -5.0640889 0 9.9593783 
-5 8 0 -9.3874325 -5.1143529 0 10.690206 
-6 8 0 -10.199072 -5.1646168 0 11.432163 
-7 8 0 -11.010712 -5.2148808 0 12.183216 
-8 8 0 -11.822352 -5.2651448 0 12.941783 
-9 8 0 -12.633992 -5.3154088 0 13.706616 
-10 8 0 -13.445631 -5.3656728 0 14.476721 
10 7 0 3.4893643 -3.6813868 0 5.0723044 
9 7 0 2.6777245 -3.7316507 0 4.5929757 
8 7 0 1.8660848 -3.7819147 0 4.2172445 
7 7 0 1.054445 -3.8321787 0 3.9746004 
6 7 0 0.24280526 -3.8824427 0 3.8900277 
5 7 0 -0.5688345 -3.9327067 0 3.9736324 
4 7 0 -1.3804743 -3.9829707 0 4.2154199 
3 7 0 -2.192114 -4.0332347 0 4.5904625 
2 7 0 -3.0037538 -4.0834986 0 5.06927 
1 7 0 -3.8153935 -4.1337626 0 5.6254085 
0 7 0 -4.6270333 -4.1840266 0 6.2382302 
-1 7 0 -5.4386731 -4.2342906 0 6.8926324 
-2 7 0 -6.2503128 -4.2845546 0 7.5778505 
-3 7 0 -7.0619526 -4.3348186 0 8.2862432 
-4 7 0 -7.8735923 -4.3850826 0 9.0123474 
-5 7 0 -8.6852321 -4.4353465 0 9.7522077 
-6 7 0 -9.4968719 -4.4856105 0 10.502918 
-7 7 0 -10.308512 -4.5358745 0 11.262307 
-8 7 0 -11.120151 -4.5861385 0 12.028734 
-9 7 0 -11.931791 -4.6364025 0 12.800932 
-10 7 0 -12.743431 -4.6866665 0 13.577919 
10 6 0 4.1915647 -3.0023804 0 5.1559192 
9 6 0 3.3799249 -3.0526444 0 4.5543968 
8 6 0 2.5682852 -3.1029084 0 4.0279187 
7 6 0 1.7566454 -3.1531724 0 3.6094735 
6 6 0 0.94500565 -3.2034364 0 3.3399162 
5 6 0 0.13336589 -3.2537004 0 3.2564325 
4 6 0 -0.67827387 -3.3039644 0 3.3728676 
3 6 0 -1.4899136 -3.3542283 0 3.6702439 
2 6 0 -2.3015534 -3.4044923 0 4.1094666 
1 6 0 -3.1131932 -3.4547563 0 4.6505175 
0 6 0 -3.9248329 -3.5050203 0 5.2620795 
-1 6 0 -4.7364727 -3.5552843 0 5.9223492 
-2 6 0 -5.5481124 -3.6055483 0 6.6167613 
-3 6 0 -6.3597522 -3.6558123 0 7.3356262 
-4 6 0 -7.1713919 -3.7060762 0 8.0724137 
-5 6 0 -7.9830317 -3.7563402 0 8.8226349 
-6 6 0 -8.7946715 -3.8066042 0 9.5831353 
-7 6 0 -9.6063112 -3.8568682 0 10.35165 
-8 6 0 -10.417951 -3.9071322 0 11.126517 
-9 6 0 -11.229591 -3.9573962 0 11.906498 
-10 6 0 -12.041231 -4.0076601 0 12.690649 
10 5 0 4.8937651 -2.3233741 0 5.4172875 
9 5 0 4.0821253 -2.3736381 0 4.7220657 
8 5 0 3.2704855 -2.4239021 0 4.0707956 
7 5 0 2.4588458 -2.4741661 0 3.488183 
6 5 0 1.647206 -2.5244301 0 3.014305 
5 5 0 0.83556627 -2.5746941 0 2.7068839 
4 5 0 0.023926511 -2.624958 0 2.6250671 
3 5 0 -0.78771325 -2.675222 0 2.788782 
2 5 0 -1.599353 -2.725486 0 3.1600956 
1 5 0 -2.4109928 -2.77575 0 3.676639 
0 5 0 -3.2226325 -2.826014 0 4.2862239 
-1 5 0 -4.0342723 -2.876278 0 4.9546269 
-2 5 0 -4.845912 -2.9265419 0 5.6610521 
-3 5 0 -5.6575518 -2.9768059 0 6.3929075 
-4 5 0 -6.4691916 -3.0270699 0 7.14238 
-5 5 0 -7.2808313 -3.0773339 0 7.9044601 
-6 5 0 -8.0924711 -3.1275979 0 8.675826 
-7 5 0 -8.9041108 -3.1778619 0 9.4542052 
-8 5 0 -9.7157506 -3.2281259 0 10.237998 
-9 5 0 -10.52739 -3.2783898 0 11.02605 
-10 5 0 -11.33903 -3.3286538 0 11.81751 
10 4 0 5.5959655 -1.6443678 0 5.8325616 
9 4 0 4.7843257 -1.6946318 0 5.0755836 
8 4 0 3.9726859 -1.7448958 0 4.338997 
7 4 0 3.1610462 -1.7951598 0 3.6352182 
6 4 0 2.3494064 -1.8454237 0 2.9875239 
5 4 0 1.5377667 -1.8956877 0 2.4409749 
4 4 0 0.7261269 -1.9459517 0 2.0770143 
3 4 0 -0.085512864 -1.9962157 0 1.9980464 
2 4 0 -0.89715262 -2.0464797 0 2.2344937 
1 4 0 -1.7087924 -2.0967437 0 2.704867 
0 4 0 -2.5204321 -2.1470077 0 3.3109244 
-1 4 0 -3.3320719 -2.1972716 0 3.9913288 
-2 4 0 -4.1437117 -2.2475356 0 4.7139965 
-3 4 0 -4.9553514 -2.2977996 0 5.4621782 
-4 4 0 -5.7669912 -2.3480636 0 6.2266837 
-5 4 0 -6.5786309 -2.3983276 0 7.0021683 
-6 4 0 -7.3902707 -2.4485916 0 7.7853517 
-7 4 0 -8.2019105 -2.4988556 0 8.5741247 
-8 4 0 -9.0135502 -2.5491195 0 9.3670752 
-9 4 0 -9.82519 -2.5993835 0 10.163226 
-10 4 0 -10.63683 -2.6496475 0 10.961878 
10 3 0 6.2981658 -0.96536149 0 6.37172 
9 3 0 5.4865261 -1.0156255 0 5.5797369 
8 3 0 4.6748863 -1.0658895 0 4.79486 
7 3 0 3.8632466 -1.1161534 0 4.0212526 
6 3 0 3.0516068 -1.1664174 0 3.2669303 
5 3 0 2.239967 -1.2166814 0 2.5490716 
4 3 0 1.4283273 -1.2669454 0 1.9092589 
3 3 0 0.61668752 -1.3172094 0 1.4544222 
2 3 0 -0.19495224 -1.3674734 0 1.3813 
1 3 0 -1.006592 -1.4177374 0 1.7387371 
0 3 0 -1.8182318 -1.4680013 0 2.3368771 
-1 3 0 -2.6298715 -1.5182653 0 3.0366682 
-2 3 0 -3.4415113 -1.5685293 0 3.7821005 
-3 3 0 -4.253151 -1.6187933 0 4.5508005 
-4 3 0 -5.0647908 -1.6690573 0 5.3327158 
-5 3 0 -5.8764306 -1.7193213 0 6.1227855 
-6 3 0 -6.6880703 -1.7695853 0 6.9182163 
-7 3 0 -7.4997101 -1.8198492 0 7.7173507 
-8 3 0 -8.3113498 -1.8701132 0 8.5191466 
-9 3 0 -9.1229896 -1.9203772 0 9.3229173 
-10 3 0 -9.9346294 -1.9706412 0 10.128193 
10 2 0 7.0003662 -0.28635517 0 7.0062206 
9 2 0 6.1887265 -0.33661916 0 6.1978744 
8 2 0 5.3770867 -0.38688314 0 5.3909869 
7 2 0 4.5654469 -0.43714713 0 4.5863279 
6 2 0 3.7538072 -0.48741111 0 3.7853187 
5 2 0 2.9421674 -0.5376751 0 2.9908935 
4 2 0 2.1305277 -0.58793909 0 2.210163 
3 2 0 1.3188879 -0.63820307 0 1.4651855 
2 2 0 0.50724815 -0.68846706 0 0.85515353 
1 2 0 -0.30439161 -0.73873104 0 0.79898548 
0 2 0 -1.1160314 -0.78899503 0 1.3667623 
-1 2 0 -1.9276711 -0.83925901 0 2.1024442 
-2 2 0 -2.7393109 -0.889523 0 2.8801172 
-3 2 0 -3.5509507 -0.93978698 0 3.6732071 
-4 2 0 -4.3625904 -0.99005097 0 4.4735217 
-5 2 0 -5.1742302 -1.040315 0 5.2777754 
-6 2 0 -5.9858699 -1.0905789 0 6.0844064 
-7 2 0 -6.7975097 -1.1408429 0 6.8925801 
-8 2 0 -7.6091494 -1.1911069 0 7.7018109 
-9 2 0 -8.4207892 -1.2413709 0 8.5117973 
-10 2 0 -9.232429 -1.2916349 0 9.3223423 
10 1 0 7.7025666 0.39265114 0 7.7125681 
9 1 0 6.8909268 0.34238716 0 6.8994276 
8 1 0 6.0792871 0.29212317 0 6.0863016 
7 1 0 5.2676473 0.24185919 0 5.2731968 
6 1 0 4.4560076 0.1915952 0 4.4601247 
5 1 0 3.6443678 0.14133122 0 3.6471072 
4 1 0 2.832728 0.091067232 0 2.8341915 
3 1 0 2.0210883 0.040803247 0 2.0215001 
2 1 0 1.2094485 -0.0094607379 0 1.2094855 
1 1 0 0.39780877 -0.059724723 0 0.40226715 
0 1 0 -0.41383099 -0.10998871 0 0.42819809 
-1 1 0 -1.2254707 -0.16025269 0 1.2359043 
-2 1 0 -2.0371105 -0.21051668 0 2.0479591 
-3 1 0 -2.8487503 -0.26078066 0 2.8606616 
-4 1 0 -3.66039 -0.31104465 0 3.6735819 
-5 1 0 -4.4720298 -0.36130863 0 4.4866016 
-6 1 0 -5.2836695 -0.41157262 0 5.2996751 
-7 1 0 -6.0953093 -0.4618366 0 6.1127808 
-8 1 0 -6.9069491 -0.51210059 0 6.9259073 
-9 1 0 -7.7185888 -0.56236457 0 7.7390482 
-10 1 0 -8.5302286 -0.61262856 0 8.5521993 
10 0 0 8.404767 1.0716575 0 8.4728129 
9 0 0 7.5931272 1.0213935 0 7.6615159 
8 0 0 6.7814875 0.97112949 0 6.8506689 
7 0 0 5.9698477 0.9208655 0 6.0404532 
6 0 0 5.158208 0.87060152 0 5.231162 
5 0 0 4.3465682 0.82033753 0 4.4233029 
4 0 0 3.5349284 0.77007355 0 3.6178353 
3 0 0 2.7232887 0.71980956 0 2.8168115 
2 0 0 1.9116489 0.66954558 0 2.0255105 
1 0 0 1.1000092 0.61928159 0 1.2623509 
0 0 0 0.2883694 0.56901761 0 0.63791688 
-1 0 0 -0.52327036 0.51875362 0 0.73682915 
-2 0 0 -1.3349101 0.46848964 0 1.4147323 
-3 0 0 -2.1465499 0.41822565 0 2.1869131 
-4 0 0 -2.9581896 0.36796167 0 2.9809867 
-5 0 0 -3.7698294 0.31769768 0 3.7831925 
-6 0 0 -4.5814692 0.2674337 0 4.589268 
-7 0 0 -5.3931089 0.21716971 0 5.3974796 
-8 0 0 -6.2047487 0.16690573 0 6.2069931 
-9 0 0 -7.0163884 0.11664174 0 7.0173579 
-10 0 0 -7.8280282 0.066377758 0 7.8283096 
10 -1 0 9.1069674 1.7506638 0 9.273709 
9 -1 0 8.2953276 1.7003998 0 8.4678108 
8 -1 0 7.4836879 1.6501358 0 7.6634543 
7 -1 0 6.6720481 1.5998718 0 6.8611818 
6 -1 0 5.8604083 1.5496078 0 6.0618207 
5 -1 0 5.0487686 1.4993439 0 5.2666969 
4 -1 0 4.2371288 1.4490799 0 4.478068 
3 -1 0 3.4254891 1.3988159 0 3.7000893 
2 -1 0 2.6138493 1.3485519 0 2.9412243 
1 -1 0 1.8022095 1.2982879 0 2.2211508 
0 -1 0 0.99056978 1.2480239 0 1.5933588 
-1 -1 0 0.17893002 1.1977599 0 1.2110511 
-2 -1 0 -0.63270974 1.147496 0 1.3103696 
-3 -1 0 -1.4443495 1.097232 0 1.8138532 
-4 -1 0 -2.2559893 1.046968 0 2.4870926 
-5 -1 0 -3.067629 0.996704 0 3.225487 
-6 -1 0 -3.8792688 0.94644002 0 3.9930533 
-7 -1 0 -4.6909085 0.89617603 0 4.7757465 
-8 -1 0 -5.5025483 0.84591205 0 5.56719 
-9 -1 0 -6.3141881 0.79564806 0 6.3641203 
-10 -1 0 -7.1258278 0.74538408 0 7.1647065 
10 -2 0 9.8091678 2.4296701 0 10.105596 
9 -2 0 8.997528 2.3794061 0 9.3068299 
8 -2 0 8.1858882 2.3291421 0 8.5107972 
7 -2 0 7.3742485 2.2788781 0 7.7183435 
6 -2 0 6.5626087 2.2286142 0 6.9306965 
5 -2 0 5.750969 2.1783502 0 6.1497035 
4 -2 0 4.9393292 2.1280862 0 5.378264 
3 -2 0 4.1276894 2.0778222 0 4.6211649 
2 -2 0 3.3160497 2.0275582 0 3.8867953 
1 -2 0 2.5044099 1.9772942 0 3.1908873 
0 -2 0 1.6927702 1.9270302 0 2.5649398 
-1 -2 0 0.88113041 1.8767663 0 2.0733168 
-2 -2 0 0.069490646 1.8265023 0 1.8278237 
-3 -2 0 -0.74214911 1.7762383 0 1.9250475 
-4 -2 0 -1.5537889 1.7259743 0 2.3223366 
-5 -2 0 -2.3654286 1.6757103 0 2.8988373 
-6 -2 0 -3.1770684 1.6254463 0 3.5687308 
-7 -2 0 -3.9887082 1.5751823 0 4.288472 
-8 -2 0 -4.8003479 1.5249184 0 5.0367366 
-9 -2 0 -5.6119877 1.4746544 0 5.8025004 
-10 -2 0 -6.4236274 1.4243904 0 6.5796563 
10 -3 0 10.511368 3.1086764 0 10.96142 
9 -3 0 9.6997284 3.0584124 0 10.170478 
8 -3 0 8.8880886 3.0081484 0 9.3833404 
7 -3 0 8.0764489 2.9578845 0 8.6010527 
6 -3 0 7.2648091 2.9076205 0 7.8250692 
5 -3 0 6.4531693 2.8573565 0 7.0574699 
4 -3 0 5.6415296 2.8070925 0 6.3013193 
3 -3 0 4.8298898 2.7568285 0 5.5612893 
2 -3 0 4.0182501 2.7065645 0 4.844773 
1 -3 0 3.2066103 2.6563005 0 4.1639263 
0 -3 0 2.3949705 2.6060366 0 3.5393941 
-1 -3 0 1.5833308 2.5557726 0 3.006478 
-2 -3 0 0.77169103 2.5055086 0 2.621656 
-3 -3 0 -0.039948729 2.4552446 0 2.4555696 
-4 -3 0 -0.85158849 2.4049806 0 2.5513006 
-5 -3 0 -1.6632282 2.3547166 0 2.8828837 
-6 -3 0 -2.474868 2.3044527 0 3.3816377 
-7 -3 0 -3.2865078 2.2541887 0 3.9852854 
-8 -3 0 -4.0981475 2.2039247 0 4.6531814 
-9 -3 0 -4.9097873 2.1536607 0 5.3613679 
-10 -3 0 -5.721427 2.1033967 0 6.0958187 
10 -4 0 11.213569 3.7876827 0 11.83599 
9 -4 0 10.401929 3.7374187 0 11.052982 
8 -4 0 9.590289 3.6871548 0 10.274666 
7 -4 0 8.7786493 3.6368908 0 9.5021922 
6 -4 0 7.9670095 3.5866268 0 8.7371123 
5 -4 0 7.1553697 3.5363628 0 7.9815523 
4 -4 0 6.34373 3.4860988 0 7.238494 
3 -4 0 5.5320902 3.4358348 0 6.512218 
2 -4 0 4.7204505 3.3855708 0 5.8090225 
1 -4 0 3.9088107 3.3353069 0 5.1383921 
0 -4 0 3.0971709 3.2850429 0 4.5148615 
-1 -4 0 2.2855312 3.2347789 0 3.9607382 
-2 -4 0 1.4738914 3.1845149 0 3.5090584 
-3 -4 0 0.66225166 3.1342509 0 3.2034522 
-4 -4 0 -0.1493881 3.0839869 0 3.087603 
-5 -4 0 -0.96102786 3.033723 0 3.1823025 
-6 -4 0 -1.7726676 2.983459 0 3.470357 
-7 -4 0 -2.5843074 2.933195 0 3.9092554 
-8 -4 0 -3.3959471 2.882931 0 4.4546322 
-9 -4 0 -4.2075869 2.832667 0 5.0722569 
-10 -4 0 -5.0192267 2.782403 0 5.7388503 
10 -5 0 11.915769 4.466689 0 12.725441 
9 -5 0 11.104129 4.4164251 0 11.950167 
8 -5 0 10.292489 4.3661611 0 11.180282 
7 -5 0 9.4808496 4.3158971 0 10.41698 
6 -5 0 8.6692099 4.2656331 0 9.6618231 
5 -5 0 7.8575701 4.2153691 0 8.9168798 
4 -5 0 7.0459304 4.1651051 0 8.1849395 
3 -5 0 6.2342906 4.1148412 0 7.4698258 
2 -5 0 5.4226508 4.0645772 0 6.7768672 
1 -5 0 4.6110111 4.0143132 0 6.1136023 
0 -5 0 3.7993713 3.9640492 0 5.4908022 
-1 -5 0 2.9877316 3.9137852 0 4.9238455 
-2 -5 0 2.1760918 3.8635212 0 4.4342048 
-3 -5 0 1.364452 3.8132572 0 4.0500198 
-4 -5 0 0.55281228 3.7629933 0 3.8033827 
-5 -5 0 -0.25882748 3.7127293 0 3.7217402 
-6 -5 0 -1.0704672 3.6624653 0 3.8156981 
-7 -5 0 -1.882107 3.6122013 0 4.0731223 
-8 -5 0 -2.6937468 3.5619373 0 4.4658335 
-9 -5 0 -3.5053865 3.5116733 0 4.9618126 
-10 -5 0 -4.3170263 3.4614093 0 5.5333598 
10 -6 0 12.617969 5.1456954 0 13.626861 
9 -6 0 11.80633 5.0954314 0 12.858959 
8 -6 0 10.99469 5.0451674 0 12.09698 
7 -6 0 10.18305 4.9949034 0 11.342115 
6 -6 0 9.3714103 4.9446394 0 10.595885 
5 -6 0 8.5597705 4.8943754 0 9.8602526 
4 -6 0 7.7481307 4.8441115 0 9.1377758 
3 -6 0 6.936491 4.7938475 0 8.4318373 
2 -6 0 6.1248512 4.7435835 0 7.7469598 
1 -6 0 5.3132115 4.6933195 0 7.0892499 
0 -6 0 4.5015717 4.6430555 0 6.4670018 
-1 -6 0 3.6899319 4.5927915 0 5.8914626 
-2 -6 0 2.8782922 4.5425275 0 5.3776503 
-3 -6 0 2.0666524 4.4922636 0 4.9448442 
-4 -6 0 1.2550127 4.4419996 0 4.6158875 
-5 -6 0 0.44337291 4.3917356 0 4.4140595 
-6 -6 0 -0.36826685 4.3414716 0 4.3570628 
-7 -6 0 -1.1799066 4.2912076 0 4.4504654 
-8 -6 0 -1.9915464 4.2409436 0 4.6852812 
-9 -6 0 -2.8031861 4.1906796 0 5.0417902 
-10 -6 0 -3.6148259 4.1404157 0 5.4963632 
10 -7 0 13.32017 5.8247017 0 14.538022 
9 -7 0 12.50853 5.7744377 0 13.777063 
8 -7 0 11.69689 5.7241737 0 13.022419 
7 -7 0 10.88525 5.6739097 0 12.275257 
6 -7 0 10.073611 5.6236457 0 11.537028 
5 -7 0 9.2619709 5.5733818 0 10.809565 
4 -7 0 8.4503311 5.5231178 0 10.095193 
3 -7 0 7.6386914 5.4728538 0 9.3969003 
2 -7 0 6.8270516 5.4225898 0 8.71855 
1 -7 0 6.0154118 5.3723258 0 8.065176 
0 -7 0 5.2037721 5.3220618 0 7.4433585 
-1 -7 0 4.3921323 5.2717978 0 6.8616819 
-2 -7 0 3.5804926 5.2215339 0 6.3312197 
-3 -7 0 2.7688528 5.1712699 0 5.8658825 
-4 -7 0 1.957213 5.1210059 0 5.4822791 
-5 -7 0 1.1455733 5.0707419 0 5.1985346 
-6 -7 0 0.33393353 5.0204779 0 5.0315713 
-7 -7 0 -0.47770623 4.9702139 0 4.9931182 
-8 -7 0 -1.289346 4.9199499 0 5.0860909 
-9 -7 0 -2.1009857 4.869686 0 5.303582 
-10 -7 0 -2.9126255 4.819422 0 5.6311824 
10 -8 0 14.02237 6.503708 0 15.457202 
9 -8 0 13.21073 6.453444 0 14.702732 
8 -8 0 12.399091 6.40318 0 13.954862 
7 -8 0 11.587451 6.352916 0 13.21471 
6 -8 0 10.775811 6.3026521 0 12.48365 
5 -8 0 9.9641713 6.2523881 0 11.763378 
4 -8 0 9.1525315 6.2021241 0 11.056002 
3 -8 0 8.3408918 6.1518601 0 10.364162 
2 -8 0 7.529252 6.1015961 0 9.6911873 
1 -8 0 6.7176122 6.0513321 0 9.0412905 
0 -8 0 5.9059725 6.0010681 0 8.4198177 
-1 -8 0 5.0943327 5.9508042 0 7.8335366 
-2 -8 0 4.282693 5.9005402 0 7.2909419 
-3 -8 0 3.4710532 5.8502762 0 6.8024953 
-4 -8 0 2.6594134 5.8000122 0 6.3806443 
-5 -8 0 1.8477737 5.7497482 0 6.0393602 
-6 -8 0 1.0361339 5.6994842 0 5.7929003 
-7 -8 0 0.22449416 5.6492203 0 5.6536791 
-8 -8 0 -0.5871456 5.5989563 0 5.6296582 
-9 -8 0 -1.3987854 5.5486923 0 5.7222886 
-10 -8 0 -2.2104251 5.4984283 0 5.9261027 
10 -9 0 14.72457 7.1827143 0 16.383051 
9 -9 0 13.912931 7.1324503 0 15.634625 
8 -9 0 13.101291 7.0821863 0 14.892991 
7 -9 0 12.289651 7.0319224 0 14.159218 
6 -9 0 11.478011 6.9816584 0 13.434593 
5 -9 0 10.666372 6.9313944 0 12.720681 
4 -9 0 9.8547319 6.8811304 0 12.019388 
3 -9 0 9.0430921 6.8308664 0 11.33306 
2 -9 0 8.2314524 6.7806024 0 10.664585 
1 -9 0 7.4198126 6.7303385 0 10.017538 
0 -9 0 6.6081729 6.6800745 0 9.3963473 
-1 -9 0 5.7965331 6.6298105 0 8.8064853 
-2 -9 0 4.9848933 6.5795465 0 8.254671 
-3 -9 0 4.1732536 6.5292825 0 7.7490371 
-4 -9 0 3.3616138 6.4790185 0 7.2991868 
-5 -9 0 2.5499741 6.4287545 0 6.9160142 
-6 -9 0 1.7383343 6.3784906 0 6.611123 
-7 -9 0 0.92669454 6.3282266 0 6.3957184 
-8 -9 0 0.11505478 6.2779626 0 6.2790168 
-9 -9 0 -0.69658498 6.2276986 0 6.266535 
-10 -9 0 -1.5082247 6.1774346 0 6.3588867 
10 -10 0 15.426771 7.8617206 0 17.3145 
9 -10 0 14.615131 7.8114566 0 16.57169 
8 -10 0 13.803491 7.7611927 0 15.835798 
7 -10 0 12.991852 7.7109287 0 15.107833 
6 -10 0 12.180212 7.6606647 0 14.389001 
5 -10 0 11.368572 7.6104007 0 13.680739 
4 -10 0 10.556932 7.5601367 0 12.984779 
3 -10 0 9.7452925 7.5098727 0 12.303208 
2 -10 0 8.9336528 7.4596088 0 11.638553 
1 -10 0 8.122013 7.4093448 0 10.993884 
0 -10 0 7.3103732 7.3590808 0 10.372928 
-1 -10 0 6.4987335 7.3088168 0 9.7802014 
-2 -10 0 5.6870937 7.2585528 0 9.2211509 
-3 -10 0 4.875454 7.2082888 0 8.7022686 
-4 -10 0 4.0638142 7.1580248 0 8.2311546 
-5 -10 0 3.2521744 7.1077609 0 7.8164508 
-6 -10 0 2.4405347 7.0574969 0 7.4675613 
-7 -10 0 1.6288949 7.0072329 0 7.1940678 
-8 -10 0 0.81725517 6.9569689 0 7.0048071 
-9 -10 0 0.0056154057 6.9067049 0 6.9067072 
-10 -10 0 -0.80602435 6.8564409 0 6.9036554 
4 0 1 22 21 
4 1 2 23 22 
4 2 3 24 23 
4 3 4 25 24 
4 4 5 26 25 
4 5 6 27 26 
4 6 7 28 27 
4 7 8 29 28 
4 8 9 30 29 
4 9 10 31 30 
4 10 11 32 31 
4 11 12 33 32 
4 12 13 34 33 
4 13 14 35 34 
4 14 15 36 35 
4 15 16 37 36 
4 16 17 38 37 
4 17 18 39 38 
4 18 19 40 39 
4 19 20 41 40 
4 21 22 43 42 
4 22 23 44 43 
4 23 24 45 44 
4 24 25 46 45 
4 25 26 47 46 
4 26 27 48 47 
4 27 28 49 48 
4 28 29 50 49 
4 29 30 51 50 
4 30 31 52 51 
4 31 32 53 52 
4 32 33 54 53 
4 33 34 55 54 
4 34 35 56 55 
4 35 36 57 56 
4 36 37 58 57 
4 37 38 59 58 
4 38 39 60 59 
4 39 40 61 60 
4 40 41 62 61 
4 42 43 64 63 
4 43 44 65 64 
4 44 45 66 65 
4 45 46 67 66 
4 46 47 68 67 
4 47 48 69 68 
4 48 49 70 69 
4 49 50 71 70 
4 50 51 72 71 
4 51 52 73 72 
4 52 53 74 73 
4 53 54 75 74 
4 54 55 76 75 
4 55 56 77 76 
4 56 57 78 77 
4 57 58 79 78 
4 58 59 80 79 
4 59 60 81 80 
4 60 61 82 81 
4 61 62 83 82 
4 63 64 85 84 
4 64 65 86 85 
4 65 66 87 86 
4 66 67 88 87 
4 67 68 89 88 
4 68 69 90 89 
4 69 70 91 90 
4 70 71 92 91 
4 71 72 93 92 
4 72 73 94 93 
4 73 74 95 94 
4 74 75 96 95 
4 75 76 97 96 
4 76 77 98 97 
4 77 78 99 98 
4 78 79 100 99 
4 79 80 101 100 
4 80 81 102 101 
4 81 82 103 102 
4 82 83 104 103 
4 84 85 106 105 
4 85 86 107 106 
4 86 87 108 107 
4 87 88 109 108 
4 88 89 110 109 
4 89 90 111 110 
4 90 91 112 111 
4 91 92 113 112 
4 92 93 114 113 
4 93 94 115 114 
4 94 95 116 115 
4 95 96 117 116 
4 96 97 118 117 
4 97 98 119 118 
4 98 99 120 119 
4 99 100 121 120 
4 100 101 122 121 
4 101 102 123 122 
4 102 103 124 123 
4 103 104 125 124 
4 105 106 127 126 
4 106 107 128 127 
4 107 108 129 128 
4 108 109 130 129 
4 109 110 131 130 
4 110 111 132 131 
4 111 112 133 132 
4 112 113 134 133 
4 113 114 135 134 
4 114 115 136 135 
4 115 116 137 136 
4 116 117 138 137 
4 117 118 139 138 
4 118 119 140 139 
4 119 120 141 140 
4 120 121 142 141 
4 121 122 143 142 
4 122 123 144 143 
4 123 124 145 144 
4 124 125 146 145 
4 126 127 148 147 
4 127 128 149 148 
4 128 129 150 149 
4 129 130 151 150 
4 130 131 152 151 
4 131 132 153 152 
4 132 133 154 153 
4 133 134 155 154 
4 134 135 156 155 
4 135 136 157 156 
4 136 137 158 157 
4 137 138 159 158 
4 138 139 160 159 
4 139 140 161 160 
4 140 141 162 161 
4 141 142 163 162 
4 142 143 164 163 
4 143 144 165 164 
4 144 145 166 165 
4 145 146 167 166 
4 147 148 169 168 
4 148 149 170 169 
4 149 150 171 170 
4 150 151 172 171 
4 151 152 173 172 
4 152 153 174 173 
4 153 154 175 174 
4 154 155 176 175 
4 155 156 177 176 
4 156 157 178 177 
4 157 158 179 178 
4 158 159 180 179 
4 159 160 181 180 
4 160 161 182 181 
4 161 162 183 182 
4 162 163 184 183 
4 163 164 185 184 
4 164 165 186 185 
4 165 166 187 186 
4 166 167 188 187 
4 168 169 190 189 
4 169 170 191 190 
4 170 171 192 191 
4 171 172 193 192 
4 172 173 194 193 
4 173 174 195 194 
4 174 175 196 195 
4 175 176 197 196 
4 176 177 198 197 
4 177 178 199 198 
4 178 179 200 199 
4 179 180 201 200 
4 180 181 202 201 
4 181 182 203 202 
4 182 183 204 203 
4 183 184 205 204 
4 184 185 206 205 
4 185 186 207 206 
4 186 187 208 207 
4 187 188 209 208 
4 189 190 211 210 
4 190 191 212 211 
4 191 192 213 212 
4 192 193 214 213 
4 193 194 215 214 
4 194 195 216 215 
4 195 196 217 216 
4 196 197 218 217 
4 197 198 219 218 
4 198 199 220 219 
4 199 200 221 220 
4 200 201 222 221 
4 201 202 223 222 
4 202 203 224 223 
4 203 204 225 224 
4 204 205 226 225 
4 205 206 227 226 
4 206 207 228 227 
4 207 208 229 228 
4 208 209 230 229 
4 210 211 232 231 
4 211 212 233 232 
4 212 213 234 233 
4 213 214 235 234 
4 214 215 236 235 
4 215 216 237 236 
4 216 217 238 237 
4 217 218 239 238 
4 218 219 240 239 
4 219 220 241 240 
4 220 221 242 241 
4 221 222 243 242 
4 222 223 244 243 
4 223 224 245 244 
4 224 225 246 245 
4 225 226 247 246 
4 226 227 248 247 
4 227 228 249 248 
4 228 229 250 249 
4 229 230 251 250 
4 231 232 253 252 
4 232 233 254 253 
4 233 234 255 254 
4 234 235 256 255 
4 235 236 257 256 
4 236 237 258 257 
4 237 238 259 258 
4 238 239 260 259 
4 239 240 261 260 
4 240 241 262 261 
4 241 242 263 262 
4 242 243 264 263 
4 243 244 265 264 
4 244 245 266 265 
4 245 246 267 266 
4 246 247 268 267 
4 247 248 269 268 
4 248 249 270 269 
4 249 250 271 270 
4 250 251 272 271 
4 252 253 274 273 
4 253 254 275 274 
4 254 255 276 275 
4 255 256 277 276 
4 256 257 278 277 
4 257 258 279 278 
4 258 259 280 279 
4 259 260 281 280 
4 260 261 282 281 
4 261 262 283 282 
4 262 263 284 283 
4 263 264 285 284 
4 264 265 286 285 
4 265 266 287 286 
4 266 267 288 287 
4 267 268 289 288 
4 268 269 290 289 
4 269 270 291 290 
4 270 271 292 291 
4 271 272 293 292 
4 273 274 295 294 
4 274 275 296 295 
4 275 276 297 296 
4 276 277 298 297 
4 277 278 299 298 
4 278 279 300 299 
4 279 280 301 300 
4 280 281 302 301 
4 281 282 303 302 
4 282 283 304 303 
4 283 284 305 304 
4 284 285 306 305 
4 285 286 307 306 
4 286 287 308 307 
4 287 288 309 308 
4 288 289 310 309 
4 289 290 311 310 
4 290 291 312 311 
4 291 292 313 312 
4 292 293 314 313 
4 294 295 316 315 
4 295 296 317 316 
4 296 297 318 317 
4 297 298 319 318 
4 298 299 320 319 
4 299 300 321 320 
4 300 301 322 321 
4 301 302 323 322 
4 302 303 324 323 
4 303 304 325 324 
4 304 305 326 325 
4 305 306 327 326 
4 306 307 328 327 
4 307 308 329 328 
4 308 309 330 329 
4 309 310 331 330 
4 310 311 332 331 
4 311 312 333 332 
4 312 313 334 333 
4 313 314 335 334 
4 315 316 337 336 
4 316 317 338 337 
4 317 318 339 338 
4 318 319 340 339 
4 319 320 341 340 
4 320 321 342 341 
4 321 322 343 342 
4 322 323 344 343 
4 323 324 345 344 
4 324 325 346 345 
4 325 326 347 346 
4 326 327 348 347 
4 327 328 349 348 
4 328 329 350 349 
4 329 330 351 350 
4 330 331 352 351 
4 331 332 353 352 
4 332 333 354 353 
4 333 334 355 354 
4 334 335 356 355 
4 336 337 358 357 
4 337 338 359 358 
4 338 339 360 359 
4 339 340 361 360 
4 340 341 362 361 
4 341 342 363 362 
4 342 343 364 363 
4 343 344 365 364 
4 344 345 366 365 
4 345 346 367 366 
4 346 347 368 367 
4 347 348 369 368 
4 348 349 370 369 
4 349 350 371 370 
4 350 351 372 371 
4 351 352 373 372 
4 352 353 374 373 
4 353 354 375 374 
4 354 355 376 375 
4 355 356 377 376 
4 357 358 379 378 
4 358 359 380 379 
4 359 360 381 380 
4 360 361 382 381 
4 361 362 383 382 
4 362 363 384 383 
4 363 364 385 384 
4 364 365 386 385 
4 365 366 387 386 
4 366 367 388 387 
4 367 368 389 388 
4 368 369 390 389 
4 369 370 391 390 
4 370 371 392 391 
4 371 372 393 392 
4 372 373 394 393 
4 373 374 395 394 
4 374 375 396 395 
4 375 376 397 396 
4 376 377 398 397 
4 378 379 400 399 
4 379 380 401 400 
4 380 381 402 401 
4 381 382 403 402 
4 382 383 404 403 
4 383 384 405 404 
4 384 385 406 405 
4 385 386 407 406 
4 386 387 408 407 
4 387 388 409 408 
4 388 389 410 409 
4 389 390 411 410 
4 390 391 412 411 
4 391 392 413 412 
4 392 393 414 413 
4 393 394 415 414 
4 394 395 416 415 
4 395 396 417 416 
4 396 397 418 417 
4 397 398 419 418 
4 399 400 421 420 
4 400 401 422 421 
4 401 402 423 422 
4 402 403 424 423 
4 403 404 425 424 
4 404 405 426 425 
4 405 406 427 426 
4 406 407 428 427 
4 407 408 429 428 
4 408 409 430 429 
4 409 410 431 430 
4 410 411 432 431 
4 411 412 433 432 
4 412 413 434 433 
4 413 414 435 434 
4 414 415 436 435 
4 415 416 437 436 
4 416 417 438 437 
4 417 418 439 438 
4 418 419 440 439 
