ply
format ascii 1.0
comment created by PolyEditor
comment modified by learnply
comment modified by learnply
comment modified by learnply
comment modified by learnply
comment modified by learnply
comment modified by learnply
comment modified by learnply
element vertex 441
property float64 x
property float64 y
property float64 z
property float64 vx
property float64 vy
property float64 vz
property float64 s
element face 400
property list uint8 int32 vertex_indices
end_header
10 10 0 -55.137455 -78.776116 0 96.155164 
9 10 0 -35.008301 -55.396435 0 65.531261 
8 10 0 -16.798822 -33.51381 0 37.488343 
7 10 0 -0.50901822 -13.128239 0 13.138103 
6 10 0 13.86111 5.7602771 0 15.010369 
5 10 0 26.311563 23.151738 0 35.04713 
4 10 0 36.842341 39.046144 0 53.683885 
3 10 0 45.453444 53.443495 0 70.158554 
2 10 0 52.144871 66.343791 0 84.383566 
1 10 0 56.916623 77.747032 0 96.35405 
0 10 0 59.7687 87.653218 0 106.0914 
-1 10 0 60.701102 96.062349 0 113.63362 
-2 10 0 59.713828 102.97443 0 119.0356 
-3 10 0 56.806879 108.38945 0 122.37358 
-4 10 0 51.980255 112.30741 0 123.75339 
-5 10 0 45.233955 114.72832 0 123.32355 
-6 10 0 36.56798 115.65218 0 121.29569 
-7 10 0 25.98233 115.07898 0 117.97565 
-8 10 0 13.477004 113.00873 0 113.8095 
-9 10 0 -0.94799646 109.44142 0 109.44553 
-10 10 0 -17.292673 104.37706 0 105.79984 
10 9 0 -65.576922 -87.033876 0 108.97352 
9 9 0 -45.585803 -64.573626 0 79.043144 
8 9 0 -27.514359 -43.610431 0 51.564616 
7 9 0 -11.36259 -24.144292 0 26.684364 
6 9 0 2.8695029 -6.1752068 0 6.8093484 
5 9 0 15.181921 10.296823 0 18.344353 
4 9 0 25.574664 25.271798 0 35.954515 
3 9 0 34.047731 38.749718 0 51.582832 
2 9 0 40.601123 50.730583 0 64.977251 
1 9 0 45.23484 61.214393 0 76.114339 
0 9 0 47.948881 70.201147 0 85.013507 
-1 9 0 48.743248 77.690847 0 91.715713 
-2 9 0 47.617939 83.683493 0 96.282891 
-3 9 0 44.572954 88.179083 0 98.804346 
-4 9 0 39.608295 91.177618 0 99.409129 
-5 9 0 32.72396 92.679098 0 98.286687 
-6 9 0 23.91995 92.683523 0 95.720423 
-7 9 0 13.196265 91.190893 0 92.140764 
-8 9 0 0.55290384 88.201209 0 88.202942 
-9 9 0 -14.010132 83.714469 0 84.878714 
-10 9 0 -30.492843 77.730674 0 83.497732 
10 8 0 -74.737602 -93.380871 0 119.60642 
9 8 0 -54.884518 -71.840052 0 90.406324 
8 8 0 -36.951109 -51.796289 0 63.625781 
7 8 0 -20.937376 -33.24958 0 39.292599 
6 8 0 -6.843318 -16.199927 0 17.586035 
5 8 0 5.3310648 -0.6473281 0 5.3702221 
4 8 0 15.585772 13.408216 0 20.559585 
3 8 0 23.920804 25.966704 0 35.305447 
2 8 0 30.336161 37.028138 0 47.868212 
1 8 0 34.831843 46.592517 0 58.173189 
0 8 0 37.407849 54.659841 0 66.234775 
-1 8 0 38.06418 61.23011 0 72.097213 
-2 8 0 36.800836 66.303323 0 75.831605 
-3 8 0 33.617817 69.879482 0 77.545468 
-4 8 0 28.515122 71.958586 0 77.402521 
-5 8 0 21.492752 72.540635 0 75.657664 
-6 8 0 12.550707 71.625629 0 72.716924 
-7 8 0 1.6889859 69.213569 0 69.234173 
-8 8 0 -11.09241 65.304453 0 66.239815 
-9 8 0 -25.793481 59.898282 0 65.215856 
-10 8 0 -42.414228 52.995056 0 67.878146 
10 7 0 -82.619495 -97.817103 0 128.03971 
9 7 0 -62.904447 -77.195715 0 99.579857 
8 7 0 -45.109073 -58.071383 0 73.533081 
7 7 0 -29.233375 -40.444105 0 49.903065 
6 7 0 -15.277352 -24.313883 0 28.715194 
5 7 0 -3.2410047 -9.6807154 0 10.208837 
4 7 0 6.8756676 3.4553972 0 7.6951007 
3 7 0 15.072665 15.094455 0 21.33138 
2 7 0 21.349986 25.236457 0 33.056024 
1 7 0 25.707633 33.881405 0 42.530365 
0 7 0 28.145604 41.029298 0 49.755184 
-1 7 0 28.6639 46.680136 0 54.778227 
-2 7 0 27.26252 50.833918 0 57.683033 
-3 7 0 23.941465 53.490646 0 58.604121 
-4 7 0 18.700735 54.650319 0 57.761361 
-5 7 0 11.54033 54.312937 0 55.525439 
-6 7 0 2.4602496 52.4785 0 52.536138 
-7 7 0 -8.5395062 49.147008 0 49.883379 
-8 7 0 -21.458937 44.318461 0 49.240349 
-9 7 0 -36.298044 37.992859 0 52.545269 
-10 7 0 -53.056825 30.170202 0 61.034972 
10 6 0 -89.222602 -100.34257 0 134.27324 
9 6 0 -69.645589 -80.640614 0 106.55241 
8 6 0 -51.98825 -62.435713 0 81.246516 
7 6 0 -36.250587 -45.727866 0 58.353602 
6 6 0 -22.4326 -30.517075 0 37.874971 
5 6 0 -10.534288 -16.803339 0 19.832383 
4 6 0 -0.5556505 -4.5866573 0 4.6201919 
3 6 0 7.5033113 6.1329691 0 9.6908715 
2 6 0 13.642598 15.355541 0 20.540523 
1 6 0 17.862209 23.081057 0 29.185505 
0 6 0 20.162145 29.309519 0 35.57471 
-1 6 0 20.542405 34.040925 0 39.758961 
-2 6 0 19.002991 37.275277 0 41.839693 
-3 6 0 15.543901 39.012574 0 41.995163 
-4 6 0 10.165136 39.252815 0 40.547669 
-5 6 0 2.8666952 37.996002 0 38.103991 
-6 6 0 -6.3514206 35.242134 0 35.809894 
-7 6 0 -17.489212 30.991211 0 35.585498 
-8 6 0 -30.546678 25.243233 0 39.627267 
-9 6 0 -45.52382 17.998199 0 48.952562 
-10 6 0 -62.420637 9.2561113 0 63.103181 
10 5 0 -94.546922 -100.95727 0 138.31664 
9 5 0 -75.107944 -82.174749 0 111.32786 
8 5 0 -57.588641 -64.889279 0 86.758689 
7 5 0 -41.989013 -49.100864 0 64.606285 
6 5 0 -28.309061 -34.809503 0 44.867633 
5 5 0 -16.548784 -22.015198 0 27.541445 
4 5 0 -6.708182 -10.717948 0 12.644134 
3 5 0 1.2127445 -0.91775262 0 1.5208613 
2 5 0 7.2139958 7.3853877 0 10.324034 
1 5 0 11.295572 14.191473 0 18.138022 
0 5 0 13.457472 19.500504 0 23.693316 
-1 5 0 13.699698 23.312479 0 27.039848 
-2 5 0 12.022248 25.6274 0 28.307208 
-3 5 0 8.4251228 26.445265 0 27.754905 
-4 5 0 2.9083224 25.766076 0 25.929693 
-5 5 0 -4.5281533 23.589831 0 24.020498 
-6 5 0 -13.884304 19.916532 0 24.27843 
-7 5 0 -25.160131 14.746178 0 29.163023 
-8 5 0 -38.355632 8.0787683 0 39.197207 
-9 5 0 -53.470809 -0.085695975 0 53.470878 
-10 5 0 -70.505661 -9.7472152 0 71.176235 
10 4 0 -98.592456 -99.661214 0 140.18855 
9 4 0 -79.291513 -81.79812 0 113.92136 
8 4 0 -61.910245 -65.432081 0 90.079052 
7 4 0 -46.448653 -50.563097 0 68.659334 
6 4 0 -32.906735 -37.191168 0 49.659201 
5 4 0 -21.284494 -25.316294 0 33.07483 
4 4 0 -11.581927 -14.938475 0 18.902356 
3 4 0 -3.7990356 -6.0577105 0 7.1504215 
2 4 0 2.0641804 1.3259987 0 2.4533882 
1 4 0 6.0077212 7.212653 0 9.3869631 
0 4 0 8.0315867 11.602252 0 14.110941 
-1 4 0 8.1357768 14.494797 0 16.621973 
-2 4 0 6.3202918 15.890286 0 17.10109 
-3 4 0 2.5851314 15.78872 0 15.998956 
-4 4 0 -3.0697043 14.1901 0 14.518334 
-5 4 0 -10.644215 11.094424 0 15.374836 
-6 4 0 -20.138401 6.5016938 0 21.161929 
-7 4 0 -31.552263 0.41190832 0 31.554952 
-8 4 0 -44.8858 -7.1749321 0 45.455634 
-9 4 0 -60.139012 -16.258827 0 62.298076 
-10 4 0 -77.311899 -26.839778 0 81.838276 
10 3 0 -101.3592 -96.45439 0 139.91832 
9 3 0 -82.196295 -79.510727 0 114.3599 
8 3 0 -64.953063 -64.064119 0 91.23109 
7 3 0 -49.629505 -50.114566 0 70.530544 
6 3 0 -36.225623 -37.662069 0 52.25636 
5 3 0 -24.741417 -26.706626 0 36.40579 
4 3 0 -15.176885 -17.248238 0 22.974759 
3 3 0 -7.5320292 -9.2869045 0 11.957343 
2 3 0 -1.8068484 -2.8226264 0 3.3514058 
1 3 0 1.9986572 2.1445967 0 2.9315398 
0 3 0 3.8844874 5.6147649 0 6.8275052 
-1 3 0 3.8506424 7.587878 0 8.5090152 
-2 3 0 1.8971221 8.0639363 0 8.2840896 
-3 3 0 -1.9760735 7.0429395 0 7.314907 
-4 3 0 -7.7689444 4.5248878 0 8.9906121 
-5 3 0 -15.481491 0.50978118 0 15.489881 
-6 3 0 -25.113712 -5.0023804 0 25.607076 
-7 3 0 -36.665609 -12.011597 0 38.582967 
-8 3 0 -50.137181 -20.517869 0 54.173054 
-9 3 0 -65.528428 -30.521195 0 72.287746 
-10 3 0 -82.839351 -42.021577 0 92.887948 
10 2 0 -102.84716 -91.336802 0 137.54981 
9 2 0 -83.822291 -75.312571 0 112.68611 
8 2 0 -66.717093 -60.785394 0 90.255386 
7 2 0 -51.531571 -47.755272 0 70.257162 
6 2 0 -38.265725 -36.222205 0 52.690738 
5 2 0 -26.919553 -26.186193 0 37.555014 
4 2 0 -17.493057 -17.647237 0 24.848179 
3 2 0 -9.9862362 -10.605335 0 14.567019 
2 2 0 -4.3990905 -5.0604877 0 6.7052616 
1 2 0 -0.73162023 -1.0126957 0 1.2493281 
0 2 0 1.0161748 1.5380413 0 1.8434159 
-1 2 0 0.84429456 2.5917234 0 2.7257776 
-2 2 0 -1.247261 2.1483505 0 2.4841638 
-3 2 0 -5.2584918 0.20792261 0 5.2626008 
-4 2 0 -11.189398 -3.2295602 0 11.646145 
-5 2 0 -19.039979 -8.164098 0 20.716498 
-6 2 0 -28.810236 -14.595691 0 32.2965 
-7 2 0 -40.500168 -22.524339 0 46.342307 
-8 2 0 -54.109775 -31.950041 0 62.838467 
-9 2 0 -69.639058 -42.872799 0 81.778208 
-10 2 0 -87.088015 -55.292611 0 103.15811 
10 1 0 -103.05634 -84.308451 0 133.1485 
9 1 0 -84.1695 -69.20365 0 108.96628 
8 1 0 -67.202338 -55.595904 0 87.218454 
7 1 0 -52.154851 -43.485214 0 67.905024 
6 1 0 -39.027039 -32.871578 0 51.025978 
5 1 0 -27.818903 -23.754997 0 36.581297 
4 1 0 -18.530442 -16.135472 0 24.570933 
3 1 0 -11.161657 -10.013001 0 14.994758 
2 1 0 -5.7125462 -5.3875851 0 7.8523408 
1 1 0 -2.1831111 -2.2592242 0 3.1416664 
0 1 0 -0.57335124 -0.62791833 0 0.85030175 
-1 1 0 -0.8832667 -0.49366741 0 1.0118634 
-2 1 0 -3.1128574 -1.8564714 0 3.6244127 
-3 1 0 -7.2621235 -4.7163305 0 8.6592269 
-4 1 0 -13.331065 -9.0732444 0 16.125788 
-5 1 0 -21.319681 -14.927213 0 26.025958 
-6 1 0 -31.227973 -22.278237 0 38.360216 
-7 1 0 -43.05594 -31.126316 0 53.128726 
-8 1 0 -56.803583 -41.47145 0 70.331559 
-9 1 0 -72.470901 -53.313639 0 89.968747 
-10 1 0 -90.057894 -66.652882 0 112.04031 
10 0 0 -101.98672 -75.369335 0 126.81415 
9 0 0 -83.237922 -61.183966 0 103.30551 
8 0 0 -66.408795 -48.495651 0 82.231115 
7 0 0 -51.499344 -37.304392 0 63.59088 
6 0 0 -38.509568 -27.610187 0 47.384694 
5 0 0 -27.439467 -19.413038 0 33.612354 
4 0 0 -18.289041 -12.712943 0 22.27348 
3 0 0 -11.05829 -7.5099033 0 13.36729 
2 0 0 -5.7472152 -3.8039186 0 6.8920446 
1 0 0 -2.3558153 -1.5949889 0 2.8449702 
0 0 0 -0.8840907 -0.88311411 0 1.2496027 
-1 0 0 -1.3320414 -1.6682943 0 2.1348396 
-2 0 0 -3.6996673 -3.9505295 0 5.4124137 
-3 0 0 -7.9869686 -7.7298196 0 11.114935 
-4 0 0 -14.193945 -13.006165 0 19.251712 
-5 0 0 -22.320597 -19.779565 0 29.823485 
-6 0 0 -32.366924 -28.05002 0 42.830146 
-7 0 0 -44.332926 -37.81753 0 58.271553 
-8 0 0 -58.218604 -49.082095 0 76.147606 
-9 0 0 -74.023957 -61.843715 0 96.458236 
-10 0 0 -91.748985 -76.10239 0 119.2034 
10 -1 0 -99.638325 -64.519456 0 118.70365 
9 -1 0 -81.027558 -51.253517 0 95.876943 
8 -1 0 -64.336467 -39.484634 0 75.486537 
7 -1 0 -49.56505 -29.212806 0 57.533314 
6 -1 0 -36.713309 -20.438032 0 42.018808 
5 -1 0 -25.781243 -13.160314 0 28.945921 
4 -1 0 -16.768853 -7.3796503 0 18.320853 
3 -1 0 -9.6761376 -3.0960417 0 10.159385 
2 -1 0 -4.5030976 -0.3094882 0 4.5137203 
1 -1 0 -1.249733 0.98001038 0 1.5881602 
0 -1 0 0.08395642 0.77245399 0 0.77700312 
-1 -1 0 -0.50202948 -0.93215735 0 1.0587497 
-2 -1 0 -3.0076907 -4.1338237 0 5.112211 
-3 -1 0 -7.4330271 -8.8325449 0 11.543992 
-4 -1 0 -13.778039 -15.028321 0 20.388349 
-5 -1 0 -22.042726 -22.721152 0 31.656477 
-6 -1 0 -32.227088 -31.911039 0 45.353055 
-7 -1 0 -44.331126 -42.59798 0 61.480376 
-8 -1 0 -58.354839 -54.781976 0 80.039691 
-9 -1 0 -74.298227 -68.463027 0 101.03174 
-10 -1 0 -92.16129 -83.641133 0 124.45699 
10 -2 0 -96.011139 -51.758812 0 109.07389 
9 -2 0 -77.538408 -39.412305 0 86.980081 
8 -2 0 -60.985351 -28.562853 0 67.342777 
7 -2 0 -46.35197 -19.210456 0 50.17516 
6 -2 0 -33.638264 -11.355113 0 35.503118 
5 -2 0 -22.844234 -4.9968261 0 23.384338 
4 -2 0 -13.969878 -0.13559374 0 13.970536 
3 -2 0 -7.0151982 3.2285836 0 7.7224839 
2 -2 0 -1.9801935 5.095706 0 5.4669357 
1 -2 0 1.135136 5.4657735 0 5.5824021 
0 -2 0 2.3307901 4.338786 0 4.9252052 
-1 -2 0 1.606769 1.7147435 0 2.3499047 
-2 -2 0 -1.0369274 -2.406354 0 2.6202591 
-3 -2 0 -5.6002991 -8.0245064 0 9.7855021 
-4 -2 0 -12.083346 -15.139714 0 19.370549 
-5 -2 0 -20.486068 -23.751976 0 31.36615 
-6 -2 0 -30.808466 -33.861293 0 45.779349 
-7 -2 0 -43.050539 -45.467666 0 62.615154 
-8 -2 0 -57.212287 -58.571093 0 81.876851 
-9 -2 0 -73.29371 -73.171575 0 103.56663 
-10 -2 0 -91.294809 -89.269112 0 127.68601 
10 -3 0 -91.105167 -37.087405 0 98.364765 
9 -3 0 -72.77047 -25.660329 0 77.162127 
8 -3 0 -56.355449 -15.730308 0 58.509651 
7 -3 0 -41.860103 -7.2973418 0 42.491404 
6 -3 0 -29.284433 -0.36143071 0 29.286663 
5 -3 0 -18.628437 5.0774255 0 19.308001 
4 -3 0 -9.8921171 9.0192267 0 13.386576 
3 -3 0 -3.0754723 11.463973 0 11.869339 
2 -3 0 1.8214972 12.411664 0 12.544611 
1 -3 0 4.7987915 11.8623 0 12.796194 
0 -3 0 5.8564104 9.8158818 0 11.430183 
-1 -3 0 4.9943541 6.2724082 0 8.0178973 
-2 -3 0 2.2126225 1.2318796 0 2.5324347 
-3 -3 0 -2.4887844 -5.3057039 0 5.8604217 
-4 -3 0 -9.1098666 -13.340342 0 16.154083 
-5 -3 0 -17.650624 -22.872036 0 28.890735 
-6 -3 0 -28.111057 -33.900784 0 44.039695 
-7 -3 0 -40.491165 -46.426588 0 61.603267 
-8 -3 0 -54.790948 -60.449446 0 81.585437 
-9 -3 0 -71.010407 -75.969359 0 103.98953 
-10 -3 0 -89.149541 -92.986328 0 128.81808 
10 -4 0 -84.920408 -20.505234 0 87.360977 
9 -4 0 -66.723746 -9.997589 0 67.468586 
8 -4 0 -50.44676 -0.98699911 0 50.456415 
7 -4 0 -36.08945 6.5265358 0 36.674842 
6 -4 0 -23.651814 12.543016 0 26.771918 
5 -4 0 -13.133854 17.062441 0 21.531953 
4 -4 0 -4.5355693 20.084811 0 20.590557 
3 -4 0 2.1430403 21.610126 0 21.716127 
2 -4 0 6.9019745 21.638386 0 22.712486 
1 -4 0 9.7412336 20.169591 0 22.398751 
0 -4 0 10.660817 17.203742 0 20.239114 
-1 -4 0 9.6607257 12.740837 0 15.989326 
-2 -4 0 6.7409589 6.7808771 0 9.5614236 
-3 -4 0 1.9015168 -0.67613758 0 2.0181497 
-4 -4 0 -4.8576006 -9.6302072 0 10.785971 
-5 -4 0 -13.536393 -20.081332 0 24.217635 
-6 -4 0 -24.134861 -32.029511 0 40.104627 
-7 -4 0 -36.653005 -45.474746 0 58.407151 
-8 -4 0 -51.090823 -60.417035 0 79.123261 
-9 -4 0 -67.448317 -76.85638 0 102.25546 
-10 -4 0 -85.725486 -94.792779 0 127.80661 
10 -5 0 -77.456862 -2.012299 0 77.482997 
9 -5 0 -59.398236 7.5759148 0 59.87942 
8 -5 0 -43.259285 15.667074 0 46.008944 
7 -5 0 -29.04001 22.261177 0 36.590739 
6 -5 0 -16.74041 27.358226 0 32.073569 
5 -5 0 -6.3604846 30.95822 0 31.60486 
4 -5 0 2.099765 33.061159 0 33.127772 
3 -5 0 8.6403394 33.667043 0 34.758096 
2 -5 0 13.261238 32.775872 0 35.357011 
1 -5 0 15.962462 30.387646 0 34.325053 
0 -5 0 16.744011 26.502365 0 31.34864 
-1 -5 0 15.605884 21.120029 0 26.260222 
-2 -5 0 12.548082 14.240638 0 18.980257 
-3 -5 0 7.5706046 5.8641926 0 9.5761584 
-4 -5 0 0.67345195 -4.0093081 0 4.0654753 
-5 -5 0 -8.143376 -15.379864 0 17.402723 
-6 -5 0 -18.879879 -28.247475 0 33.976016 
-7 -5 0 -31.536058 -42.61214 0 53.012427 
-8 -5 0 -46.111911 -58.473861 0 74.468119 
-9 -5 0 -62.60744 -75.832636 0 98.337584 
-10 -5 0 -81.022645 -94.688467 0 124.62173 
10 -6 0 -68.71453 18.3914 0 71.133186 
9 -6 0 -50.793939 27.060183 0 57.552391 
8 -6 0 -34.793023 34.23191 0 48.809611 
7 -6 0 -20.711783 39.906583 0 44.961242 
6 -6 0 -8.5502182 44.084201 0 44.905712 
5 -6 0 1.6916715 46.764763 0 46.795351 
4 -6 0 10.013886 47.948271 0 48.982799 
3 -6 0 16.416425 47.634724 0 50.384183 
2 -6 0 20.899289 45.824122 0 50.364972 
1 -6 0 23.462477 42.516465 0 48.560659 
0 -6 0 24.105991 37.711753 0 44.757961 
-1 -6 0 22.829829 31.409986 0 38.83025 
-2 -6 0 19.633992 23.611164 0 30.70799 
-3 -6 0 14.518479 14.315287 0 20.389057 
-4 -6 0 7.4832911 3.5223548 0 8.27083 
-5 -6 0 -1.471572 -8.7676321 0 8.8902698 
-6 -6 0 -12.34611 -22.554674 0 25.712638 
-7 -6 0 -25.140324 -37.838771 0 45.429159 
-8 -6 0 -39.854213 -54.619922 0 67.614305 
-9 -6 0 -56.487777 -72.898129 0 92.222591 
-10 -6 0 -75.041017 -92.673391 0 119.24559 
10 -7 0 -58.693411 40.705863 0 71.427472 
9 -7 0 -40.910855 48.455214 0 63.416133 
8 -7 0 -25.047975 54.707511 0 60.169035 
7 -7 0 -11.10477 59.462752 0 60.490783 
6 -7 0 0.91875973 62.720939 0 62.727668 
5 -7 0 11.022614 64.48207 0 65.417394 
4 -7 0 19.206793 64.746147 0 67.534913 
3 -7 0 25.471297 63.513169 0 68.430327 
2 -7 0 29.816126 60.783135 0 67.702222 
1 -7 0 32.241279 56.556047 0 65.100588 
0 -7 0 32.746757 50.831904 0 60.466789 
-1 -7 0 31.33256 43.610706 0 53.699376 
-2 -7 0 27.998688 34.892453 0 44.737119 
-3 -7 0 22.74514 24.677145 0 33.560436 
-4 -7 0 15.571917 12.964782 0 20.262531 
-5 -7 0 6.4790185 -0.24463637 0 6.4836354 
-6 -7 0 -4.5335551 -14.951109 0 15.623341 
-7 -7 0 -17.465804 -31.154637 0 35.716463 
-8 -7 0 -32.317728 -48.85522 0 58.577027 
-9 -7 0 -49.089328 -68.052858 0 83.91039 
-10 -7 0 -67.780602 -88.747551 0 111.67067 
10 -8 0 -47.393506 64.931089 0 80.387752 
9 -8 0 -29.748985 71.76101 0 77.682975 
8 -8 0 -14.02414 77.093875 0 78.359059 
7 -8 0 -0.21897031 80.929685 0 80.929982 
6 -8 0 11.666524 83.268441 0 84.081752 
5 -8 0 21.632344 84.110141 0 86.847419 
4 -8 0 29.678488 83.454787 0 88.574907 
3 -8 0 35.804956 81.302377 0 88.837331 
2 -8 0 40.01175 77.652913 0 87.355109 
1 -8 0 42.298868 72.506394 0 83.942667 
0 -8 0 42.666311 65.862819 0 78.474996 
-1 -8 0 41.114078 57.72219 0 70.867614 
-2 -8 0 37.64217 48.084506 0 61.06597 
-3 -8 0 32.250587 36.949767 0 49.044731 
-4 -8 0 24.939329 24.317972 0 34.832943 
-5 -8 0 15.708396 10.189123 0 18.723566 
-6 -8 0 4.5577868 -5.4367809 0 7.0945054 
-7 -8 0 -8.5124973 -22.55974 0 24.11233 
-8 -8 0 -23.502457 -41.179754 0 47.41453 
-9 -8 0 -40.412091 -61.296823 0 73.4196 
-10 -8 0 -59.241401 -82.910947 0 101.90078 
10 -9 0 -34.814814 91.06708 0 97.495047 
9 -9 0 -17.308329 96.977569 0 98.510036 
8 -9 0 -1.7215186 101.391 0 101.40562 
7 -9 0 11.945616 104.30738 0 104.98918 
6 -9 0 23.693075 105.72671 0 108.34897 
5 -9 0 33.520859 105.64898 0 110.83932 
4 -9 0 41.428968 104.07419 0 112.01695 
3 -9 0 47.417402 101.00235 0 111.57905 
2 -9 0 51.48616 96.433454 0 109.31713 
1 -9 0 53.635243 90.367504 0 105.0858 
0 -9 0 53.86465 82.804498 0 98.782516 
-1 -9 0 52.174383 73.744438 0 90.334979 
-2 -9 0 48.56444 63.187323 0 79.694056 
-3 -9 0 43.034822 51.133152 0 66.83259 
-4 -9 0 35.585528 37.581927 0 51.756459 
-5 -9 0 26.216559 22.533647 0 34.569831 
-6 -9 0 14.927915 5.9883114 0 16.084232 
-7 -9 0 1.7195959 -12.054079 0 12.176117 
-8 -9 0 -13.408399 -31.593524 0 34.321071 
-9 -9 0 -30.456069 -52.630024 0 60.807002 
-10 -9 0 -49.423414 -75.163579 0 89.956865 
10 -10 0 -20.957335 119.11383 0 120.94344 
9 -10 0 -3.5888852 124.10489 0 124.15677 
8 -10 0 11.85989 127.5989 0 128.14888 
7 -10 0 25.388989 129.59584 0 132.05939 
6 -10 0 36.998413 130.09574 0 135.25451 
5 -10 0 46.688162 129.09857 0 137.28156 
4 -10 0 54.458235 126.60436 0 137.82004 
3 -10 0 60.308634 122.61309 0 136.64223 
2 -10 0 64.239357 117.12476 0 133.58482 
1 -10 0 66.250404 110.13938 0 128.52937 
0 -10 0 66.341777 101.65694 0 121.38931 
-1 -10 0 64.513474 91.67745 0 112.10149 
-2 -10 0 60.765496 80.200903 0 100.62122 
-3 -10 0 55.097842 67.227302 0 86.921127 
-4 -10 0 47.510514 52.756645 0 70.996567 
-5 -10 0 38.00351 36.788934 0 52.893217 
-6 -10 0 26.57683 19.324168 0 32.85957 
-7 -10 0 13.230476 0.36234626 0 13.235437 
-8 -10 0 -2.0355541 -20.09653 0 20.199356 
-9 -10 0 -19.221259 -42.052461 0 46.237066 
-10 -10 0 -38.32664 -65.505448 0 75.893972 
4 0 1 22 21 
4 1 2 23 22 
4 2 3 24 23 
4 3 4 25 24 
4 4 5 26 25 
4 5 6 27 26 
4 6 7 28 27 
4 7 8 29 28 
4 8 9 30 29 
4 9 10 31 30 
4 10 11 32 31 
4 11 12 33 32 
4 12 13 34 33 
4 13 14 35 34 
4 14 15 36 35 
4 15 16 37 36 
4 16 17 38 37 
4 17 18 39 38 
4 18 19 40 39 
4 19 20 41 40 
4 21 22 43 42 
4 22 23 44 43 
4 23 24 45 44 
4 24 25 46 45 
4 25 26 47 46 
4 26 27 48 47 
4 27 28 49 48 
4 28 29 50 49 
4 29 30 51 50 
4 30 31 52 51 
4 31 32 53 52 
4 32 33 54 53 
4 33 34 55 54 
4 34 35 56 55 
4 35 36 57 56 
4 36 37 58 57 
4 37 38 59 58 
4 38 39 60 59 
4 39 40 61 60 
4 40 41 62 61 
4 42 43 64 63 
4 43 44 65 64 
4 44 45 66 65 
4 45 46 67 66 
4 46 47 68 67 
4 47 48 69 68 
4 48 49 70 69 
4 49 50 71 70 
4 50 51 72 71 
4 51 52 73 72 
4 52 53 74 73 
4 53 54 75 74 
4 54 55 76 75 
4 55 56 77 76 
4 56 57 78 77 
4 57 58 79 78 
4 58 59 80 79 
4 59 60 81 80 
4 60 61 82 81 
4 61 62 83 82 
4 63 64 85 84 
4 64 65 86 85 
4 65 66 87 86 
4 66 67 88 87 
4 67 68 89 88 
4 68 69 90 89 
4 69 70 91 90 
4 70 71 92 91 
4 71 72 93 92 
4 72 73 94 93 
4 73 74 95 94 
4 74 75 96 95 
4 75 76 97 96 
4 76 77 98 97 
4 77 78 99 98 
4 78 79 100 99 
4 79 80 101 100 
4 80 81 102 101 
4 81 82 103 102 
4 82 83 104 103 
4 84 85 106 105 
4 85 86 107 106 
4 86 87 108 107 
4 87 88 109 108 
4 88 89 110 109 
4 89 90 111 110 
4 90 91 112 111 
4 91 92 113 112 
4 92 93 114 113 
4 93 94 115 114 
4 94 95 116 115 
4 95 96 117 116 
4 96 97 118 117 
4 97 98 119 118 
4 98 99 120 119 
4 99 100 121 120 
4 100 101 122 121 
4 101 102 123 122 
4 102 103 124 123 
4 103 104 125 124 
4 105 106 127 126 
4 106 107 128 127 
4 107 108 129 128 
4 108 109 130 129 
4 109 110 131 130 
4 110 111 132 131 
4 111 112 133 132 
4 112 113 134 133 
4 113 114 135 134 
4 114 115 136 135 
4 115 116 137 136 
4 116 117 138 137 
4 117 118 139 138 
4 118 119 140 139 
4 119 120 141 140 
4 120 121 142 141 
4 121 122 143 142 
4 122 123 144 143 
4 123 124 145 144 
4 124 125 146 145 
4 126 127 148 147 
4 127 128 149 148 
4 128 129 150 149 
4 129 130 151 150 
4 130 131 152 151 
4 131 132 153 152 
4 132 133 154 153 
4 133 134 155 154 
4 134 135 156 155 
4 135 136 157 156 
4 136 137 158 157 
4 137 138 159 158 
4 138 139 160 159 
4 139 140 161 160 
4 140 141 162 161 
4 141 142 163 162 
4 142 143 164 163 
4 143 144 165 164 
4 144 145 166 165 
4 145 146 167 166 
4 147 148 169 168 
4 148 149 170 169 
4 149 150 171 170 
4 150 151 172 171 
4 151 152 173 172 
4 152 153 174 173 
4 153 154 175 174 
4 154 155 176 175 
4 155 156 177 176 
4 156 157 178 177 
4 157 158 179 178 
4 158 159 180 179 
4 159 160 181 180 
4 160 161 182 181 
4 161 162 183 182 
4 162 163 184 183 
4 163 164 185 184 
4 164 165 186 185 
4 165 166 187 186 
4 166 167 188 187 
4 168 169 190 189 
4 169 170 191 190 
4 170 171 192 191 
4 171 172 193 192 
4 172 173 194 193 
4 173 174 195 194 
4 174 175 196 195 
4 175 176 197 196 
4 176 177 198 197 
4 177 178 199 198 
4 178 179 200 199 
4 179 180 201 200 
4 180 181 202 201 
4 181 182 203 202 
4 182 183 204 203 
4 183 184 205 204 
4 184 185 206 205 
4 185 186 207 206 
4 186 187 208 207 
4 187 188 209 208 
4 189 190 211 210 
4 190 191 212 211 
4 191 192 213 212 
4 192 193 214 213 
4 193 194 215 214 
4 194 195 216 215 
4 195 196 217 216 
4 196 197 218 217 
4 197 198 219 218 
4 198 199 220 219 
4 199 200 221 220 
4 200 201 222 221 
4 201 202 223 222 
4 202 203 224 223 
4 203 204 225 224 
4 204 205 226 225 
4 205 206 227 226 
4 206 207 228 227 
4 207 208 229 228 
4 208 209 230 229 
4 210 211 232 231 
4 211 212 233 232 
4 212 213 234 233 
4 213 214 235 234 
4 214 215 236 235 
4 215 216 237 236 
4 216 217 238 237 
4 217 218 239 238 
4 218 219 240 239 
4 219 220 241 240 
4 220 221 242 241 
4 221 222 243 242 
4 222 223 244 243 
4 223 224 245 244 
4 224 225 246 245 
4 225 226 247 246 
4 226 227 248 247 
4 227 228 249 248 
4 228 229 250 249 
4 229 230 251 250 
4 231 232 253 252 
4 232 233 254 253 
4 233 234 255 254 
4 234 235 256 255 
4 235 236 257 256 
4 236 237 258 257 
4 237 238 259 258 
4 238 239 260 259 
4 239 240 261 260 
4 240 241 262 261 
4 241 242 263 262 
4 242 243 264 263 
4 243 244 265 264 
4 244 245 266 265 
4 245 246 267 266 
4 246 247 268 267 
4 247 248 269 268 
4 248 249 270 269 
4 249 250 271 270 
4 250 251 272 271 
4 252 253 274 273 
4 253 254 275 274 
4 254 255 276 275 
4 255 256 277 276 
4 256 257 278 277 
4 257 258 279 278 
4 258 259 280 279 
4 259 260 281 280 
4 260 261 282 281 
4 261 262 283 282 
4 262 263 284 283 
4 263 264 285 284 
4 264 265 286 285 
4 265 266 287 286 
4 266 267 288 287 
4 267 268 289 288 
4 268 269 290 289 
4 269 270 291 290 
4 270 271 292 291 
4 271 272 293 292 
4 273 274 295 294 
4 274 275 296 295 
4 275 276 297 296 
4 276 277 298 297 
4 277 278 299 298 
4 278 279 300 299 
4 279 280 301 300 
4 280 281 302 301 
4 281 282 303 302 
4 282 283 304 303 
4 283 284 305 304 
4 284 285 306 305 
4 285 286 307 306 
4 286 287 308 307 
4 287 288 309 308 
4 288 289 310 309 
4 289 290 311 310 
4 290 291 312 311 
4 291 292 313 312 
4 292 293 314 313 
4 294 295 316 315 
4 295 296 317 316 
4 296 297 318 317 
4 297 298 319 318 
4 298 299 320 319 
4 299 300 321 320 
4 300 301 322 321 
4 301 302 323 322 
4 302 303 324 323 
4 303 304 325 324 
4 304 305 326 325 
4 305 306 327 326 
4 306 307 328 327 
4 307 308 329 328 
4 308 309 330 329 
4 309 310 331 330 
4 310 311 332 331 
4 311 312 333 332 
4 312 313 334 333 
4 313 314 335 334 
4 315 316 337 336 
4 316 317 338 337 
4 317 318 339 338 
4 318 319 340 339 
4 319 320 341 340 
4 320 321 342 341 
4 321 322 343 342 
4 322 323 344 343 
4 323 324 345 344 
4 324 325 346 345 
4 325 326 347 346 
4 326 327 348 347 
4 327 328 349 348 
4 328 329 350 349 
4 329 330 351 350 
4 330 331 352 351 
4 331 332 353 352 
4 332 333 354 353 
4 333 334 355 354 
4 334 335 356 355 
4 336 337 358 357 
4 337 338 359 358 
4 338 339 360 359 
4 339 340 361 360 
4 340 341 362 361 
4 341 342 363 362 
4 342 343 364 363 
4 343 344 365 364 
4 344 345 366 365 
4 345 346 367 366 
4 346 347 368 367 
4 347 348 369 368 
4 348 349 370 369 
4 349 350 371 370 
4 350 351 372 371 
4 351 352 373 372 
4 352 353 374 373 
4 353 354 375 374 
4 354 355 376 375 
4 355 356 377 376 
4 357 358 379 378 
4 358 359 380 379 
4 359 360 381 380 
4 360 361 382 381 
4 361 362 383 382 
4 362 363 384 383 
4 363 364 385 384 
4 364 365 386 385 
4 365 366 387 386 
4 366 367 388 387 
4 367 368 389 388 
4 368 369 390 389 
4 369 370 391 390 
4 370 371 392 391 
4 371 372 393 392 
4 372 373 394 393 
4 373 374 395 394 
4 374 375 396 395 
4 375 376 397 396 
4 376 377 398 397 
4 378 379 400 399 
4 379 380 401 400 
4 380 381 402 401 
4 381 382 403 402 
4 382 383 404 403 
4 383 384 405 404 
4 384 385 406 405 
4 385 386 407 406 
4 386 387 408 407 
4 387 388 409 408 
4 388 389 410 409 
4 389 390 411 410 
4 390 391 412 411 
4 391 392 413 412 
4 392 393 414 413 
4 393 394 415 414 
4 394 395 416 415 
4 395 396 417 416 
4 396 397 418 417 
4 397 398 419 418 
4 399 400 421 420 
4 400 401 422 421 
4 401 402 423 422 
4 402 403 424 423 
4 403 404 425 424 
4 404 405 426 425 
4 405 406 427 426 
4 406 407 428 427 
4 407 408 429 428 
4 408 409 430 429 
4 409 410 431 430 
4 410 411 432 431 
4 411 412 433 432 
4 412 413 434 433 
4 413 414 435 434 
4 414 415 436 435 
4 415 416 437 436 
4 416 417 438 437 
4 417 418 439 438 
4 418 419 440 439 
