ply
format ascii 1.0
comment created by PolyEditor
comment modified by learnply
comment modified by learnply
comment modified by learnply
comment modified by learnply
comment modified by learnply
comment modified by learnply
comment modified by learnply
element vertex 441
property float64 x
property float64 y
property float64 z
property float64 vx
property float64 vy
property float64 vz
property float64 s
element face 400
property list uint8 int32 vertex_indices
end_header
10 10 0 38.483993 -61.455031 0 72.510265 
9 10 0 42.862423 -54.078219 0 69.004645 
8 10 0 46.402387 -47.671468 0 66.526313 
7 10 0 49.103885 -42.234779 0 64.768573 
6 10 0 50.966918 -37.768151 0 63.435479 
5 10 0 51.991485 -34.271584 0 62.270828 
4 10 0 52.177587 -31.745079 0 61.075778 
3 10 0 51.525224 -30.188635 0 59.717689 
2 10 0 50.034394 -29.602252 0 58.135479 
1 10 0 47.7051 -29.985931 0 56.34654 
0 10 0 44.537339 -31.339671 0 54.458696 
-1 10 0 40.531114 -33.663472 0 52.687765 
-2 10 0 35.686422 -36.957335 0 51.374754 
-3 10 0 30.003265 -41.221259 0 50.984195 
-4 10 0 23.481643 -46.455245 0 52.05264 
-5 10 0 16.121555 -52.659291 0 55.071821 
-6 10 0 7.9230018 -59.833399 0 60.355693 
-7 10 0 -1.1140172 -67.977569 0 67.986697 
-8 10 0 -10.989502 -77.0918 0 77.871142 
-9 10 0 -21.703452 -87.176092 0 89.837135 
-10 10 0 -33.255867 -98.230445 0 103.70715 
10 9 0 25.740928 -57.881558 0 63.347219 
9 9 0 30.556291 -50.332957 0 58.88203 
8 9 0 34.533189 -43.754418 0 55.740382 
7 9 0 37.671621 -38.14594 0 53.61216 
6 9 0 39.971587 -33.507523 0 52.158239 
5 9 0 41.433088 -29.839167 0 51.059541 
4 9 0 42.056124 -27.140873 0 50.053417 
3 9 0 41.840693 -25.412641 0 48.953508 
2 9 0 40.786798 -24.654469 0 47.659267 
1 9 0 38.894436 -24.866359 0 46.16398 
0 9 0 36.16361 -26.048311 0 44.568163 
-1 9 0 32.594317 -28.200323 0 43.100438 
-2 9 0 28.18656 -31.322398 0 42.137569 
-3 9 0 22.940336 -35.414533 0 42.195357 
-4 9 0 16.855647 -40.47673 0 43.846077 
-5 9 0 9.9324931 -46.508988 0 47.557758 
-6 9 0 2.1708731 -53.511307 0 53.555324 
-7 9 0 -6.4292123 -61.483688 0 61.818918 
-8 9 0 -15.867763 -70.42613 0 72.19159 
-9 9 0 -26.14478 -80.338633 0 84.485771 
-10 9 0 -37.260262 -91.221198 0 98.537476 
10 8 0 13.865993 -54.766778 0 56.494829 
9 8 0 19.11829 -47.046388 0 50.782592 
8 8 0 23.532121 -40.29606 0 46.664046 
7 8 0 27.107486 -34.515793 0 43.887991 
6 8 0 29.844386 -29.705588 0 42.108305 
5 8 0 31.742821 -25.865444 0 40.946646 
4 8 0 32.802789 -22.995361 0 40.060075 
3 8 0 33.024293 -21.09534 0 39.186953 
2 8 0 32.407331 -20.16538 0 38.169066 
1 8 0 30.951903 -20.205481 0 36.963249 
0 8 0 28.65801 -21.215644 0 35.656487 
-1 8 0 25.525651 -23.195868 0 34.490682 
-2 8 0 21.554827 -26.146153 0 33.88557 
-3 8 0 16.745537 -30.0665 0 34.415221 
-4 8 0 11.097781 -34.956908 0 36.676234 
-5 8 0 4.6115604 -40.817377 0 41.077059 
-6 8 0 -2.713126 -47.647908 0 47.72509 
-7 8 0 -10.876278 -55.4485 0 56.505129 
-8 8 0 -19.877895 -64.219153 0 67.225221 
-9 8 0 -29.717978 -73.959868 0 79.707091 
-10 8 0 -40.396527 -84.670644 0 93.813631 
10 7 0 2.8591876 -52.110691 0 52.18907 
9 7 0 8.5484176 -44.218513 0 45.037232 
8 7 0 13.399182 -37.296396 0 39.630282 
7 7 0 17.411481 -31.34434 0 35.855646 
6 7 0 20.585314 -26.362346 0 33.447399 
5 7 0 22.920682 -22.350414 0 32.014039 
4 7 0 24.417585 -19.308542 0 31.129379 
3 7 0 25.076022 -17.236732 0 30.428799 
2 7 0 24.895993 -16.134983 0 29.667291 
1 7 0 23.877499 -16.003296 0 28.744398 
0 7 0 22.020539 -16.84167 0 27.722662 
-1 7 0 19.325114 -18.650105 0 26.856777 
-2 7 0 15.791223 -21.428602 0 26.618559 
-3 7 0 11.418867 -25.17716 0 27.645613 
-4 7 0 6.2080447 -29.895779 0 30.533546 
-5 7 0 0.15875729 -35.58446 0 35.584814 
-6 7 0 -6.7289956 -42.243202 0 42.775782 
-7 7 0 -14.455214 -49.872005 0 51.924658 
-8 7 0 -23.019898 -58.47087 0 62.839147 
-9 7 0 -32.423048 -68.039796 0 75.370205 
-10 7 0 -42.664663 -78.578784 0 89.414197 
10 6 0 -7.2794885 -49.913297 0 50.441334 
9 6 0 -1.153325 -41.84933 0 41.865219 
8 6 0 4.134373 -34.755425 0 35.000465 
7 6 0 8.5836055 -28.631581 0 29.890562 
6 6 0 12.194372 -23.477798 0 26.455807 
5 6 0 14.966674 -19.294076 0 24.418491 
4 6 0 16.90051 -16.080416 0 23.328245 
3 6 0 17.99588 -13.836818 0 22.700423 
2 6 0 18.252785 -12.56328 0 22.158523 
1 6 0 17.671224 -12.259804 0 21.507556 
0 6 0 16.251198 -12.926389 0 20.765187 
-1 6 0 13.992706 -14.563036 0 20.195986 
-2 6 0 10.895749 -17.169744 0 20.335128 
-3 6 0 6.9603259 -20.746513 0 21.88296 
-4 6 0 2.1864376 -25.293344 0 25.387669 
-5 6 0 -3.4259163 -30.810236 0 31.000122 
-6 6 0 -9.8767357 -37.297189 0 38.582771 
-7 6 0 -17.166021 -44.754204 0 47.933402 
-8 6 0 -25.293771 -53.18128 0 58.889926 
-9 6 0 -34.259987 -62.578417 0 71.34287 
-10 6 0 -44.064669 -72.945616 0 85.221816 
10 5 0 -16.550035 -48.174596 0 50.938153 
9 5 0 -9.9869381 -39.938841 0 41.168555 
8 5 0 -4.2623066 -32.673147 0 32.949989 
7 5 0 0.62385937 -26.377514 0 26.38489 
6 5 0 4.6715598 -21.051943 0 21.564038 
5 5 0 7.8807947 -16.696432 0 18.462876 
4 5 0 10.251564 -13.310984 0 16.801097 
3 5 0 11.783868 -10.895596 0 16.049098 
2 5 0 12.477706 -9.4502701 0 15.6525 
1 5 0 12.333079 -8.9750053 0 15.253051 
0 5 0 11.349986 -9.4698019 0 14.781723 
-1 5 0 9.528428 -10.93466 0 14.503714 
-2 5 0 6.8684042 -13.369579 0 15.030656 
-3 5 0 3.3699149 -16.77456 0 17.10971 
-4 5 0 -0.96704001 -21.149602 0 21.171699 
-5 5 0 -6.1424604 -26.494705 0 27.197412 
-6 5 0 -12.156346 -32.80987 0 34.989488 
-7 5 0 -19.008698 -40.095096 0 44.372822 
-8 5 0 -26.699515 -48.350383 0 55.232451 
-9 5 0 -35.228797 -57.575732 0 67.498393 
-10 5 0 -44.596545 -67.771142 0 81.128167 
10 4 0 -24.952452 -46.894589 0 53.119934 
9 4 0 -17.952422 -38.487045 0 42.46813 
8 4 0 -11.790857 -31.049562 0 33.212943 
7 4 0 -6.4677572 -24.582141 0 25.418763 
6 4 0 -1.9831233 -19.08478 0 19.187538 
5 4 0 1.6630451 -14.557482 0 14.652167 
4 4 0 4.470748 -11.000244 0 11.874046 
3 4 0 6.4399854 -8.413068 0 10.594958 
2 4 0 7.5707572 -6.7959532 0 10.173561 
1 4 0 7.8630634 -6.1488998 0 9.9818203 
0 4 0 7.3169042 -6.4719077 0 9.7684531 
-1 4 0 5.9322794 -7.764977 0 9.7717351 
-2 4 0 3.7091891 -10.028108 0 10.692101 
-3 4 0 0.64763329 -13.261299 0 13.277104 
-4 4 0 -3.2523881 -17.464553 0 17.764814 
-5 4 0 -7.990875 -22.637867 0 24.006814 
-6 4 0 -13.567827 -28.781243 0 31.818955 
-7 4 0 -19.983245 -35.894681 0 41.082334 
-8 4 0 -27.237129 -43.978179 0 51.729503 
-9 4 0 -35.329478 -53.031739 0 63.722346 
-10 4 0 -44.260292 -63.055361 0 77.03864 
10 3 0 -32.48674 -46.073275 0 56.374949 
9 3 0 -25.049776 -37.493942 0 45.091983 
8 3 0 -18.451277 -29.884671 0 35.121833 
7 3 0 -12.691244 -23.24546 0 26.484318 
6 3 0 -7.7696768 -17.576312 0 19.217039 
5 3 0 -3.6865749 -12.877224 0 13.394541 
4 3 0 -0.44193854 -9.1481979 0 9.1588664 
3 3 0 1.9642323 -6.3892331 0 6.684348 
2 3 0 3.5319376 -4.6003296 0 5.7997945 
1 3 0 4.2611774 -3.7814875 0 5.6971291 
0 3 0 4.1519517 -3.9327067 0 5.7188184 
-1 3 0 3.2042604 -5.0539872 0 5.9841517 
-2 3 0 1.4181036 -7.1453291 0 7.2846926 
-3 3 0 -1.2065188 -10.206732 0 10.277795 
-4 3 0 -4.6696066 -14.238197 0 14.984374 
-5 3 0 -8.97116 -19.239723 0 21.228487 
-6 3 0 -14.111179 -25.21131 0 28.89179 
-7 3 0 -20.089663 -32.152959 0 37.913155 
-8 3 0 -26.906613 -40.064669 0 48.261201 
-9 3 0 -34.562029 -48.94644 0 59.919011 
-10 3 0 -43.05591 -58.798273 0 72.876939 
10 2 0 -39.152898 -45.710654 0 60.186488 
9 2 0 -31.279 -36.959532 0 48.418828 
8 2 0 -24.243568 -29.178472 0 37.935918 
7 2 0 -18.046602 -22.367473 0 28.739932 
6 2 0 -12.688101 -16.526536 0 20.83541 
5 2 0 -8.1680654 -11.65566 0 14.232768 
4 2 0 -4.4864956 -7.7548448 0 8.959144 
3 2 0 -1.6433912 -4.8240913 0 5.0963312 
2 2 0 0.3612476 -2.8633992 0 2.8860968 
1 2 0 1.5274209 -1.8727683 0 2.4166663 
0 2 0 1.8551286 -1.8521989 0 2.6214772 
-1 2 0 1.3443709 -2.8016907 0 3.1075399 
-2 2 0 -0.004852443 -4.7212439 0 4.7212464 
-3 2 0 -2.1925413 -7.6108585 0 7.920379 
-4 2 0 -5.2186956 -11.470534 0 12.601902 
-5 2 0 -9.0833155 -16.300272 0 18.660265 
-6 2 0 -13.786401 -22.10007 0 26.047609 
-7 2 0 -19.327952 -28.86993 0 34.742518 
-8 2 0 -25.707968 -36.609851 0 44.73456 
-9 2 0 -32.92645 -45.319834 0 56.018198 
-10 2 0 -40.983398 -54.999878 0 68.590272 
10 1 0 -44.950926 -45.806726 0 64.178205 
9 1 0 -36.640095 -36.883816 0 51.989542 
8 1 0 -29.16773 -28.930967 0 41.082324 
7 1 0 -22.53383 -21.94818 0 31.456256 
6 1 0 -16.738395 -15.935453 0 23.110875 
5 1 0 -11.781426 -10.892788 0 16.0454 
4 1 0 -7.6629231 -6.8201849 0 10.258426 
3 1 0 -4.3828852 -3.7176428 0 5.7472211 
2 1 0 -1.9413129 -1.5851619 0 2.5062789 
1 1 0 -0.33820612 -0.42274239 0 0.54138204 
0 1 0 0.42643513 -0.23038423 0 0.4846894 
-1 1 0 0.35261086 -1.0080874 0 1.0679769 
-2 1 0 -0.55967895 -2.7558519 0 2.8121096 
-3 1 0 -2.3104343 -5.4736778 0 5.9413176 
-4 1 0 -4.8996551 -9.161565 0 10.389461 
-5 1 0 -8.3273415 -13.819514 0 16.134546 
-6 1 0 -12.593493 -19.447523 0 23.168993 
-7 1 0 -17.698111 -26.045595 0 31.489619 
-8 1 0 -23.641194 -33.613727 0 41.094874 
-9 1 0 -30.422742 -42.151921 0 51.983918 
-10 1 0 -38.042756 -51.660176 0 64.156256 
10 0 0 -49.880825 -46.361492 0 68.09908 
9 0 0 -41.133061 -37.266793 0 55.504437 
8 0 0 -33.223762 -29.142155 0 44.193705 
7 0 0 -26.152928 -21.987579 0 34.167664 
6 0 0 -19.92056 -15.803064 0 25.427653 
5 0 0 -14.526658 -10.58861 0 17.976164 
4 0 0 -9.971221 -6.3442183 0 11.818391 
3 0 0 -6.2542497 -3.0698874 0 6.9670545 
2 0 0 -3.3757439 -0.76561785 0 3.4614762 
1 0 0 -1.3357036 0.56859035 0 1.4516884 
0 0 0 -0.13412885 0.93273721 0 0.94233181 
-1 0 0 0.22898038 0.32682272 0 0.39905526 
-2 0 0 -0.24637593 -1.2491531 0 1.2732182 
-3 0 0 -1.5601978 -3.7951903 0 4.103375 
-4 0 0 -3.7124851 -7.3112888 0 8.1998469 
-5 0 0 -6.703238 -11.797449 0 13.568832 
-6 0 0 -10.532456 -17.25367 0 20.214395 
-7 0 0 -15.20014 -23.679952 0 28.138664 
-8 0 0 -20.70629 -31.076296 0 37.342826 
-9 0 0 -27.050905 -39.442701 0 47.827588 
-10 0 0 -34.233985 -48.779168 0 59.593397 
10 -1 0 -53.942595 -47.37495 0 71.792684 
9 -1 0 -44.757897 -38.108463 0 58.783707 
8 -1 0 -36.411664 -29.812037 0 47.059184 
7 -1 0 -28.903897 -22.485672 0 36.620223 
6 -1 0 -22.234596 -16.129368 0 27.468778 
5 -1 0 -16.40376 -10.743126 0 19.608623 
4 -1 0 -11.41139 -6.3269448 0 13.04799 
3 -1 0 -7.2574847 -2.8808252 0 7.8083441 
2 -1 0 -3.9420454 -0.40476699 0 3.9627715 
1 -1 0 -1.4650716 1.1012299 0 1.8327962 
0 -1 0 0.17343669 1.6371654 0 1.6463265 
-1 -1 0 0.97347942 1.2030396 0 1.5475679 
-2 -1 0 0.93505661 -0.2011475 0 0.95644717 
-3 -1 0 0.058168279 -2.575396 0 2.5760528 
-4 -1 0 -1.6571856 -5.9197058 0 6.1472905 
-5 -1 0 -4.211005 -10.234077 0 11.066567 
-6 -1 0 -7.6032899 -15.518509 0 17.281035 
-7 -1 0 -11.83404 -21.773003 0 24.781206 
-8 -1 0 -16.903256 -28.997559 0 33.564542 
-9 -1 0 -22.810938 -37.192175 0 43.630228 
-10 -1 0 -29.557085 -46.356853 0 54.977987 
10 -2 0 -57.136235 -48.847102 0 75.170398 
9 -2 0 -47.514603 -39.408826 0 61.730811 
8 -2 0 -38.731437 -30.940611 0 49.57263 
7 -2 0 -30.786737 -23.442457 0 38.695891 
6 -2 0 -23.680502 -16.914365 0 29.100892 
5 -2 0 -17.412732 -11.356334 0 20.788689 
4 -2 0 -11.983428 -6.7683645 0 13.762751 
3 -2 0 -7.3925901 -3.1504563 0 8.0359046 
2 -2 0 -3.6402173 -0.50260933 0 3.6747514 
1 -2 0 -0.72631001 1.1751762 0 1.3815084 
0 -2 0 1.3491317 1.8829005 0 2.3163486 
-1 -2 0 2.586108 1.6205634 0 3.0519142 
-2 -2 0 2.9846187 0.38816492 0 3.0097542 
-3 -2 0 2.5446638 -1.8142949 0 3.1252168 
-4 -2 0 1.2662435 -4.986816 0 5.1450662 
-5 -2 0 -0.85064241 -9.1293985 0 9.1689426 
-6 -2 0 -3.8059938 -14.242042 0 14.741823 
-7 -2 0 -7.5998108 -20.324747 0 21.699136 
-8 -2 0 -12.232093 -27.377514 0 29.98587 
-9 -2 0 -17.702841 -35.400342 0 39.57998 
-10 -2 0 -24.012055 -44.393231 0 50.471157 
10 -3 0 -59.461745 -50.777947 0 78.192705 
9 -3 0 -49.40318 -41.167882 0 64.30761 
8 -3 0 -40.183081 -32.527879 0 51.698577 
7 -3 0 -31.801447 -24.857936 0 40.363957 
6 -3 0 -24.258278 -18.158055 0 30.301469 
5 -3 0 -17.553575 -12.428236 0 21.507883 
4 -3 0 -11.687338 -7.6684774 0 13.978534 
3 -3 0 -6.659566 -3.8787805 0 7.7067994 
2 -3 0 -2.4702597 -1.0591449 0 2.6877446 
1 -3 0 0.88058107 0.7904294 0 1.1833012 
0 -3 0 3.3929563 1.6699423 0 3.7816478 
-1 -3 0 5.0668661 1.5793939 0 5.3073173 
-2 -3 0 5.9023103 0.51878414 0 5.9250657 
-3 -3 0 5.8992889 -1.511887 0 6.0899435 
-4 -3 0 5.0578021 -4.5126194 0 6.7782812 
-5 -3 0 3.3778497 -8.4834132 0 9.1311646 
-6 -3 0 0.85943175 -13.424268 0 13.451751 
-7 -3 0 -2.4974517 -19.335185 0 19.495811 
-8 -3 0 -6.6928007 -26.216163 0 27.056991 
-9 -3 0 -11.726615 -34.067202 0 36.028985 
-10 -3 0 -17.598895 -42.888302 0 46.358684 
10 -4 0 -60.919126 -53.167486 0 80.857414 
9 -4 0 -50.423627 -43.385632 0 66.519586 
8 -4 0 -40.766594 -34.57384 0 53.453397 
7 -4 0 -31.948027 -26.732109 0 41.656717 
6 -4 0 -23.967925 -19.860439 0 31.127134 
5 -4 0 -16.826289 -13.958831 0 21.862592 
4 -4 0 -10.523118 -9.0272835 0 13.864626 
3 -4 0 -5.0584124 -5.0657979 0 7.1588997 
2 -4 0 -0.43217261 -2.0743736 0 2.1189146 
1 -4 0 3.3556017 -0.053010651 0 3.3560204 
0 -4 0 6.3049104 0.99829096 0 6.3834536 
-1 -4 0 8.4157537 1.0795312 0 8.4847096 
-2 -4 0 9.6881314 0.19071017 0 9.6900082 
-3 -4 0 10.122044 -1.6681722 0 10.258585 
-4 -4 0 9.7174902 -4.497116 0 10.707645 
-5 -4 0 8.4744713 -8.2961211 0 11.85927 
-6 -4 0 6.3929868 -13.065188 0 14.545426 
-7 -4 0 3.4730369 -18.804315 0 19.12235 
-8 -4 0 -0.28537858 -25.513504 0 25.5151 
-9 -4 0 -4.8822596 -33.192755 0 33.549895 
-10 -4 0 -10.317606 -41.842067 0 43.095377 
10 -5 0 -61.508377 -56.015717 0 83.192794 
9 -5 0 -50.575945 -46.062075 0 68.407901 
8 -5 0 -40.481979 -37.078494 0 54.896314 
7 -5 0 -31.226478 -29.064974 0 42.659883 
6 -5 0 -22.809442 -22.021516 0 31.70517 
5 -5 0 -15.230873 -15.948119 0 22.052709 
4 -5 0 -8.4907682 -10.844783 0 13.773252 
3 -5 0 -2.5891293 -6.7115085 0 7.1936039 
2 -5 0 2.474044 -3.5482955 0 4.3256554 
1 -5 0 6.6987518 -1.3551439 0 6.8344488 
0 -5 0 10.084994 -0.13205359 0 10.085859 
-1 -5 0 12.632771 0.12097537 0 12.63335 
-2 -5 0 14.342082 -0.59605701 0 14.354463 
-3 -5 0 15.212928 -2.2831507 0 15.383301 
-4 -5 0 15.245308 -4.9403058 0 16.025793 
-5 -5 0 14.439222 -8.5675222 0 16.789687 
-6 -5 0 12.794671 -13.1648 0 18.357984 
-7 -5 0 10.311655 -18.732139 0 21.38278 
-8 -5 0 6.990173 -25.269539 0 26.218546 
-9 -5 0 2.8302255 -32.777001 0 32.898966 
-10 -5 0 -2.1681875 -41.254524 0 41.311461 
10 -6 0 -61.229499 -59.322642 0 85.2539 
9 -6 0 -49.860134 -49.197211 0 70.045688 
8 -6 0 -39.329234 -40.041841 0 56.126087 
7 -6 0 -29.636799 -31.856532 0 43.510671 
6 -6 0 -20.78283 -24.641285 0 32.235369 
5 -6 0 -12.767327 -18.3961 0 22.392434 
4 -6 0 -5.590289 -13.120975 0 14.262234 
3 -6 0 0.74828333 -8.8159124 0 8.847612 
2 -6 0 6.2483901 -5.4809107 0 8.311604 
1 -6 0 10.910031 -3.1159703 0 11.346279 
0 -6 0 14.733207 -1.7210913 0 14.833393 
-1 -6 0 17.717917 -1.2962737 0 17.765273 
-2 -6 0 19.864162 -1.8415174 0 19.949339 
-3 -6 0 21.171941 -3.3568224 0 21.436403 
-4 -6 0 21.641255 -5.8421888 0 22.415956 
-5 -6 0 21.272103 -9.2976165 0 23.215254 
-6 -6 0 20.064486 -13.723106 0 24.308583 
-7 -6 0 18.018403 -19.118656 0 26.271388 
-8 -6 0 15.133854 -25.484268 0 29.639188 
-9 -6 0 11.41084 -32.819941 0 34.747026 
-10 -6 0 6.8493606 -41.125675 0 41.692144 
10 -7 0 -60.082492 -63.08826 0 87.120803 
9 -7 0 -48.276193 -52.79104 0 71.536597 
8 -7 0 -37.308359 -43.463881 0 57.280212 
7 -7 0 -27.178991 -35.106784 0 44.398016 
6 -7 0 -17.888089 -27.719749 0 32.990425 
5 -7 0 -9.4356517 -21.302774 0 23.298921 
4 -7 0 -1.8216803 -15.855861 0 15.960164 
3 -7 0 4.9538255 -11.379009 0 12.41057 
2 -7 0 10.890866 -7.872219 0 13.43811 
1 -7 0 15.989441 -5.33549 0 16.856146 
0 -7 0 20.24955 -3.7688223 0 20.597288 
-1 -7 0 23.671194 -3.1722159 0 23.882805 
-2 -7 0 26.254372 -3.5456709 0 26.492713 
-3 -7 0 27.999084 -4.8891873 0 28.422753 
-4 -7 0 28.905332 -7.202765 0 29.789227 
-5 -7 0 28.973113 -10.486404 0 30.812432 
-6 -7 0 28.202429 -14.740104 0 31.822126 
-7 -7 0 26.59328 -19.963866 0 33.252947 
-8 -7 0 24.145665 -26.157689 0 35.598284 
-9 -7 0 20.859584 -33.321574 0 39.312206 
-10 -7 0 16.735038 -41.455519 0 44.705946 
10 -8 0 -58.067354 -67.312571 0 88.897693 
9 -8 0 -45.824122 -56.843562 0 73.013976 
8 -8 0 -34.419355 -47.344615 0 58.53379 
7 -8 0 -23.853053 -38.815729 0 45.559071 
6 -8 0 -14.125217 -31.256905 0 34.300377 
5 -8 0 -5.235847 -24.668142 0 25.217679 
4 -8 0 2.8150578 -19.04944 0 19.256316 
3 -8 0 10.027497 -14.4008 0 17.548041 
2 -8 0 16.401471 -10.722221 0 19.595261 
1 -8 0 21.936979 -8.0137028 0 23.354882 
0 -8 0 26.634022 -6.2752464 0 27.363294 
-1 -8 0 30.492599 -5.5068514 0 30.985868 
-2 -8 0 33.512711 -5.7085177 0 33.995426 
-3 -8 0 35.694357 -6.8802454 0 36.351409 
-4 -8 0 37.037538 -9.0220344 0 38.12055 
-5 -8 0 37.542253 -12.133885 0 39.454428 
-6 -8 0 37.208502 -16.215796 0 40.58848 
-7 -8 0 36.036287 -21.267769 0 41.844139 
-8 -8 0 34.025605 -27.289804 0 43.617373 
-9 -8 0 31.176458 -34.281899 0 46.338107 
-10 -8 0 27.488845 -42.244057 0 50.400366 
10 -9 0 -55.184088 -71.995575 0 90.711886 
9 -9 0 -42.503922 -61.354778 0 74.639079 
8 -9 0 -30.662221 -51.684042 0 60.095025 
7 -9 0 -19.658986 -42.983367 0 47.265692 
6 -9 0 -9.4942167 -35.252754 0 36.50886 
5 -9 0 -0.16791284 -28.492203 0 28.492697 
4 -9 0 8.3199255 -22.701712 0 24.178273 
3 -9 0 15.969298 -17.881283 0 23.974127 
2 -9 0 22.780206 -14.030915 0 26.75452 
1 -9 0 28.752647 -11.150609 0 30.839112 
0 -9 0 33.886624 -9.2403638 0 35.123889 
-1 -9 0 38.182134 -8.3001801 0 39.073884 
-2 -9 0 41.63918 -8.3300577 0 42.464234 
-3 -9 0 44.257759 -9.3299966 0 45.2305 
-4 -9 0 46.037873 -11.299997 0 47.404385 
-5 -9 0 46.979522 -14.240059 0 49.090272 
-6 -9 0 47.082705 -18.150182 0 50.459986 
-7 -9 0 46.347423 -23.030366 0 51.754047 
-8 -9 0 44.773675 -28.880612 0 53.280125 
-9 -9 0 42.361461 -35.700919 0 55.398998 
-10 -9 0 39.110782 -43.491287 0 58.490558 
10 -10 0 -51.432691 -77.137272 0 92.711814 
9 -10 0 -38.315592 -66.324686 0 76.596662 
8 -10 0 -26.036958 -56.482162 0 62.194516 
7 -10 0 -14.596789 -47.609699 0 49.797085 
6 -10 0 -3.9950865 -39.707297 0 39.907771 
5 -10 0 5.7681509 -32.774957 0 33.278662 
4 -10 0 14.692923 -26.812677 0 30.574526 
3 -10 0 22.779229 -21.82046 0 31.544029 
2 -10 0 30.02707 -17.798303 0 34.905652 
1 -10 0 36.436445 -14.746208 0 39.307317 
0 -10 0 42.007355 -12.664174 0 43.874813 
-1 -10 0 46.739799 -11.552202 0 48.146258 
-2 -10 0 50.633778 -11.410291 0 51.903509 
-3 -10 0 53.689291 -12.238441 0 55.0665 
-4 -10 0 55.906339 -14.036653 0 57.641533 
-5 -10 0 57.284921 -16.804926 0 59.698976 
-6 -10 0 57.825037 -20.54326 0 61.365792 
-7 -10 0 57.526688 -25.251656 0 62.824884 
-8 -10 0 56.389874 -30.930113 0 64.315548 
-9 -10 0 54.414594 -37.578631 0 66.12943 
-10 -10 0 51.600848 -45.197211 0 68.596176 
4 0 1 22 21 
4 1 2 23 22 
4 2 3 24 23 
4 3 4 25 24 
4 4 5 26 25 
4 5 6 27 26 
4 6 7 28 27 
4 7 8 29 28 
4 8 9 30 29 
4 9 10 31 30 
4 10 11 32 31 
4 11 12 33 32 
4 12 13 34 33 
4 13 14 35 34 
4 14 15 36 35 
4 15 16 37 36 
4 16 17 38 37 
4 17 18 39 38 
4 18 19 40 39 
4 19 20 41 40 
4 21 22 43 42 
4 22 23 44 43 
4 23 24 45 44 
4 24 25 46 45 
4 25 26 47 46 
4 26 27 48 47 
4 27 28 49 48 
4 28 29 50 49 
4 29 30 51 50 
4 30 31 52 51 
4 31 32 53 52 
4 32 33 54 53 
4 33 34 55 54 
4 34 35 56 55 
4 35 36 57 56 
4 36 37 58 57 
4 37 38 59 58 
4 38 39 60 59 
4 39 40 61 60 
4 40 41 62 61 
4 42 43 64 63 
4 43 44 65 64 
4 44 45 66 65 
4 45 46 67 66 
4 46 47 68 67 
4 47 48 69 68 
4 48 49 70 69 
4 49 50 71 70 
4 50 51 72 71 
4 51 52 73 72 
4 52 53 74 73 
4 53 54 75 74 
4 54 55 76 75 
4 55 56 77 76 
4 56 57 78 77 
4 57 58 79 78 
4 58 59 80 79 
4 59 60 81 80 
4 60 61 82 81 
4 61 62 83 82 
4 63 64 85 84 
4 64 65 86 85 
4 65 66 87 86 
4 66 67 88 87 
4 67 68 89 88 
4 68 69 90 89 
4 69 70 91 90 
4 70 71 92 91 
4 71 72 93 92 
4 72 73 94 93 
4 73 74 95 94 
4 74 75 96 95 
4 75 76 97 96 
4 76 77 98 97 
4 77 78 99 98 
4 78 79 100 99 
4 79 80 101 100 
4 80 81 102 101 
4 81 82 103 102 
4 82 83 104 103 
4 84 85 106 105 
4 85 86 107 106 
4 86 87 108 107 
4 87 88 109 108 
4 88 89 110 109 
4 89 90 111 110 
4 90 91 112 111 
4 91 92 113 112 
4 92 93 114 113 
4 93 94 115 114 
4 94 95 116 115 
4 95 96 117 116 
4 96 97 118 117 
4 97 98 119 118 
4 98 99 120 119 
4 99 100 121 120 
4 100 101 122 121 
4 101 102 123 122 
4 102 103 124 123 
4 103 104 125 124 
4 105 106 127 126 
4 106 107 128 127 
4 107 108 129 128 
4 108 109 130 129 
4 109 110 131 130 
4 110 111 132 131 
4 111 112 133 132 
4 112 113 134 133 
4 113 114 135 134 
4 114 115 136 135 
4 115 116 137 136 
4 116 117 138 137 
4 117 118 139 138 
4 118 119 140 139 
4 119 120 141 140 
4 120 121 142 141 
4 121 122 143 142 
4 122 123 144 143 
4 123 124 145 144 
4 124 125 146 145 
4 126 127 148 147 
4 127 128 149 148 
4 128 129 150 149 
4 129 130 151 150 
4 130 131 152 151 
4 131 132 153 152 
4 132 133 154 153 
4 133 134 155 154 
4 134 135 156 155 
4 135 136 157 156 
4 136 137 158 157 
4 137 138 159 158 
4 138 139 160 159 
4 139 140 161 160 
4 140 141 162 161 
4 141 142 163 162 
4 142 143 164 163 
4 143 144 165 164 
4 144 145 166 165 
4 145 146 167 166 
4 147 148 169 168 
4 148 149 170 169 
4 149 150 171 170 
4 150 151 172 171 
4 151 152 173 172 
4 152 153 174 173 
4 153 154 175 174 
4 154 155 176 175 
4 155 156 177 176 
4 156 157 178 177 
4 157 158 179 178 
4 158 159 180 179 
4 159 160 181 180 
4 160 161 182 181 
4 161 162 183 182 
4 162 163 184 183 
4 163 164 185 184 
4 164 165 186 185 
4 165 166 187 186 
4 166 167 188 187 
4 168 169 190 189 
4 169 170 191 190 
4 170 171 192 191 
4 171 172 193 192 
4 172 173 194 193 
4 173 174 195 194 
4 174 175 196 195 
4 175 176 197 196 
4 176 177 198 197 
4 177 178 199 198 
4 178 179 200 199 
4 179 180 201 200 
4 180 181 202 201 
4 181 182 203 202 
4 182 183 204 203 
4 183 184 205 204 
4 184 185 206 205 
4 185 186 207 206 
4 186 187 208 207 
4 187 188 209 208 
4 189 190 211 210 
4 190 191 212 211 
4 191 192 213 212 
4 192 193 214 213 
4 193 194 215 214 
4 194 195 216 215 
4 195 196 217 216 
4 196 197 218 217 
4 197 198 219 218 
4 198 199 220 219 
4 199 200 221 220 
4 200 201 222 221 
4 201 202 223 222 
4 202 203 224 223 
4 203 204 225 224 
4 204 205 226 225 
4 205 206 227 226 
4 206 207 228 227 
4 207 208 229 228 
4 208 209 230 229 
4 210 211 232 231 
4 211 212 233 232 
4 212 213 234 233 
4 213 214 235 234 
4 214 215 236 235 
4 215 216 237 236 
4 216 217 238 237 
4 217 218 239 238 
4 218 219 240 239 
4 219 220 241 240 
4 220 221 242 241 
4 221 222 243 242 
4 222 223 244 243 
4 223 224 245 244 
4 224 225 246 245 
4 225 226 247 246 
4 226 227 248 247 
4 227 228 249 248 
4 228 229 250 249 
4 229 230 251 250 
4 231 232 253 252 
4 232 233 254 253 
4 233 234 255 254 
4 234 235 256 255 
4 235 236 257 256 
4 236 237 258 257 
4 237 238 259 258 
4 238 239 260 259 
4 239 240 261 260 
4 240 241 262 261 
4 241 242 263 262 
4 242 243 264 263 
4 243 244 265 264 
4 244 245 266 265 
4 245 246 267 266 
4 246 247 268 267 
4 247 248 269 268 
4 248 249 270 269 
4 249 250 271 270 
4 250 251 272 271 
4 252 253 274 273 
4 253 254 275 274 
4 254 255 276 275 
4 255 256 277 276 
4 256 257 278 277 
4 257 258 279 278 
4 258 259 280 279 
4 259 260 281 280 
4 260 261 282 281 
4 261 262 283 282 
4 262 263 284 283 
4 263 264 285 284 
4 264 265 286 285 
4 265 266 287 286 
4 266 267 288 287 
4 267 268 289 288 
4 268 269 290 289 
4 269 270 291 290 
4 270 271 292 291 
4 271 272 293 292 
4 273 274 295 294 
4 274 275 296 295 
4 275 276 297 296 
4 276 277 298 297 
4 277 278 299 298 
4 278 279 300 299 
4 279 280 301 300 
4 280 281 302 301 
4 281 282 303 302 
4 282 283 304 303 
4 283 284 305 304 
4 284 285 306 305 
4 285 286 307 306 
4 286 287 308 307 
4 287 288 309 308 
4 288 289 310 309 
4 289 290 311 310 
4 290 291 312 311 
4 291 292 313 312 
4 292 293 314 313 
4 294 295 316 315 
4 295 296 317 316 
4 296 297 318 317 
4 297 298 319 318 
4 298 299 320 319 
4 299 300 321 320 
4 300 301 322 321 
4 301 302 323 322 
4 302 303 324 323 
4 303 304 325 324 
4 304 305 326 325 
4 305 306 327 326 
4 306 307 328 327 
4 307 308 329 328 
4 308 309 330 329 
4 309 310 331 330 
4 310 311 332 331 
4 311 312 333 332 
4 312 313 334 333 
4 313 314 335 334 
4 315 316 337 336 
4 316 317 338 337 
4 317 318 339 338 
4 318 319 340 339 
4 319 320 341 340 
4 320 321 342 341 
4 321 322 343 342 
4 322 323 344 343 
4 323 324 345 344 
4 324 325 346 345 
4 325 326 347 346 
4 326 327 348 347 
4 327 328 349 348 
4 328 329 350 349 
4 329 330 351 350 
4 330 331 352 351 
4 331 332 353 352 
4 332 333 354 353 
4 333 334 355 354 
4 334 335 356 355 
4 336 337 358 357 
4 337 338 359 358 
4 338 339 360 359 
4 339 340 361 360 
4 340 341 362 361 
4 341 342 363 362 
4 342 343 364 363 
4 343 344 365 364 
4 344 345 366 365 
4 345 346 367 366 
4 346 347 368 367 
4 347 348 369 368 
4 348 349 370 369 
4 349 350 371 370 
4 350 351 372 371 
4 351 352 373 372 
4 352 353 374 373 
4 353 354 375 374 
4 354 355 376 375 
4 355 356 377 376 
4 357 358 379 378 
4 358 359 380 379 
4 359 360 381 380 
4 360 361 382 381 
4 361 362 383 382 
4 362 363 384 383 
4 363 364 385 384 
4 364 365 386 385 
4 365 366 387 386 
4 366 367 388 387 
4 367 368 389 388 
4 368 369 390 389 
4 369 370 391 390 
4 370 371 392 391 
4 371 372 393 392 
4 372 373 394 393 
4 373 374 395 394 
4 374 375 396 395 
4 375 376 397 396 
4 376 377 398 397 
4 378 379 400 399 
4 379 380 401 400 
4 380 381 402 401 
4 381 382 403 402 
4 382 383 404 403 
4 383 384 405 404 
4 384 385 406 405 
4 385 386 407 406 
4 386 387 408 407 
4 387 388 409 408 
4 388 389 410 409 
4 389 390 411 410 
4 390 391 412 411 
4 391 392 413 412 
4 392 393 414 413 
4 393 394 415 414 
4 394 395 416 415 
4 395 396 417 416 
4 396 397 418 417 
4 397 398 419 418 
4 399 400 421 420 
4 400 401 422 421 
4 401 402 423 422 
4 402 403 424 423 
4 403 404 425 424 
4 404 405 426 425 
4 405 406 427 426 
4 406 407 428 427 
4 407 408 429 428 
4 408 409 430 429 
4 409 410 431 430 
4 410 411 432 431 
4 411 412 433 432 
4 412 413 434 433 
4 413 414 435 434 
4 414 415 436 435 
4 415 416 437 436 
4 416 417 438 437 
4 417 418 439 438 
4 418 419 440 439 
