ply
format ascii 1.0
comment created by PolyEditor
comment modified by learnply
comment modified by learnply
comment modified by learnply
comment modified by learnply
comment modified by learnply
comment modified by learnply
comment modified by learnply
element vertex 441
property float64 x
property float64 y
property float64 z
property float64 vx
property float64 vy
property float64 vz
property float64 s
element face 400
property list uint8 int32 vertex_indices
end_header
10 10 0 138.45366 138.68072 0 195.96366 
9 10 0 124.70043 115.03436 0 169.65583 
8 10 0 111.77285 93.180364 0 145.5189 
7 10 0 99.670919 73.118717 0 123.61488 
6 10 0 88.394635 54.849422 0 104.02918 
5 10 0 77.943999 38.372478 0 86.877581 
4 10 0 68.31901 23.687887 0 72.309081 
3 10 0 59.519669 10.795648 0 60.490801 
2 10 0 51.545976 -0.30423902 0 51.546874 
1 10 0 44.397931 -9.611774 0 45.426451 
0 10 0 38.075533 -17.126957 0 41.750196 
-1 10 0 32.578784 -22.849788 0 39.793089 
-2 10 0 27.907682 -26.780267 0 38.678436 
-3 10 0 24.062227 -28.918394 0 37.619998 
-4 10 0 21.042421 -29.264168 0 36.04407 
-5 10 0 18.848262 -27.817591 0 33.601716 
-6 10 0 17.479751 -24.578661 0 30.160443 
-7 10 0 16.936888 -19.54738 0 25.864227 
-8 10 0 17.219672 -12.723746 0 21.410531 
-9 10 0 18.328104 -4.1077609 0 18.782788 
-10 10 0 20.262185 6.3005768 0 21.219175 
10 9 0 124.58654 134.43724 0 183.28987 
9 9 0 111.48454 111.48094 0 157.66041 
8 9 0 99.208197 90.316996 0 134.16194 
7 9 0 87.7575 70.945402 0 112.84781 
6 9 0 77.13245 53.366161 0 93.794254 
5 9 0 67.333048 37.579272 0 77.109929 
4 9 0 58.359294 23.584735 0 62.944793 
3 9 0 50.211188 11.38255 0 51.4852 
2 9 0 42.88873 0.97271645 0 42.899759 
1 9 0 36.391919 -7.6447645 0 37.186209 
0 9 0 30.720756 -14.469893 0 33.957954 
-1 9 0 25.87524 -19.50267 0 32.401886 
-2 9 0 21.855373 -22.743095 0 31.542126 
-3 9 0 18.661153 -24.191168 0 30.552434 
-4 9 0 16.292581 -23.846889 0 28.881175 
-5 9 0 14.749657 -21.710257 0 26.246669 
-6 9 0 14.03238 -17.781274 0 22.6513 
-7 9 0 14.140751 -12.059938 0 18.58502 
-8 9 0 15.07477 -4.5462508 0 15.745383 
-9 9 0 16.834437 4.7597888 0 17.494395 
-10 9 0 19.419752 15.85818 0 25.072069 
10 8 0 111.49147 129.98373 0 171.2487 
9 8 0 99.040712 107.71749 0 146.32881 
8 8 0 87.415601 87.243599 0 123.50276 
7 8 0 76.616138 68.562059 0 102.81434 
6 8 0 66.642323 51.672872 0 84.328435 
5 8 0 57.494156 36.576037 0 68.142383 
4 8 0 49.171636 23.271554 0 54.400506 
3 8 0 41.674764 11.759423 0 43.302078 
2 8 0 35.00354 2.0396435 0 35.062914 
1 8 0 29.157964 -5.8877834 0 29.746476 
0 8 0 24.138035 -12.022858 0 26.966532 
-1 8 0 19.943754 -16.365581 0 25.798945 
-2 8 0 16.575121 -18.915952 0 25.150505 
-3 8 0 14.032136 -19.673971 0 24.165388 
-4 8 0 12.314798 -18.639637 0 22.34033 
-5 8 0 11.423109 -15.812952 0 19.507354 
-6 8 0 11.357067 -11.193915 0 15.946369 
-7 8 0 12.116672 -4.7825251 0 13.026369 
-8 8 0 13.701926 3.4212165 0 14.122588 
-9 8 0 16.112827 13.41731 0 20.967771 
-10 8 0 19.349376 25.205756 0 31.776225 
10 7 0 99.168462 125.3202 0 159.81094 
9 7 0 87.368938 103.74401 0 135.63241 
8 7 0 76.395062 83.960173 0 113.51439 
7 7 0 66.246834 65.968688 0 93.490699 
6 7 0 56.924253 49.769555 0 75.613353 
5 7 0 48.42732 35.362774 0 59.964415 
4 7 0 40.756035 22.748344 0 46.674849 
3 7 0 33.910398 11.926267 0 35.946501 
2 7 0 27.890408 2.8965423 0 28.040414 
1 7 0 22.696066 -4.3408307 0 23.10745 
0 7 0 18.327372 -9.7858516 0 20.77632 
-1 7 0 14.784326 -13.43852 0 19.979242 
-2 7 0 12.066927 -15.298837 0 19.484998 
-3 7 0 10.175176 -15.366802 0 18.430215 
-4 7 0 9.1090732 -13.642415 0 16.403984 
-5 7 0 8.8686178 -10.125675 0 13.460374 
-6 7 0 9.4538102 -4.8165838 0 10.61009 
-7 7 0 10.86465 2.2848598 0 11.102307 
-8 7 0 13.101138 11.178655 0 17.222142 
-9 7 0 16.163274 21.864803 0 27.190459 
-10 7 0 20.051057 34.343303 0 39.76817 
10 6 0 87.617512 120.44664 0 148.94368 
9 6 0 76.469222 99.560503 0 125.53818 
8 6 0 66.14658 80.46672 0 104.1646 
7 6 0 56.649586 63.165288 0 84.847094 
6 6 0 47.97824 47.656209 0 67.624151 
5 6 0 40.132542 33.939482 0 52.559579 
4 6 0 33.112491 22.015107 0 39.763073 
3 6 0 26.918088 11.883084 0 29.424329 
2 6 0 21.549333 3.5434126 0 21.838716 
1 6 0 17.006226 -3.0039064 0 17.269487 
0 6 0 13.288766 -7.7588733 0 15.388028 
-1 6 0 10.396954 -10.721488 0 14.934757 
-2 6 0 8.3307901 -11.891751 0 14.519497 
-3 6 0 7.0902738 -11.269662 0 13.31455 
-4 6 0 6.6754051 -8.8552202 0 11.089453 
-5 6 0 7.0861843 -4.6484268 0 8.474779 
-6 6 0 8.3226112 1.3507187 0 8.4315062 
-7 6 0 10.384686 9.1422163 0 13.835527 
-8 6 0 13.272408 18.726066 0 22.952611 
-9 6 0 16.985778 30.102268 0 34.5639 
-10 6 0 21.524796 43.270821 0 48.328882 
10 5 0 76.838618 115.36305 0 138.61027 
9 5 0 66.341563 95.166967 0 116.00842 
8 5 0 56.670156 76.763237 0 95.415414 
7 5 0 47.824396 60.15186 0 76.846725 
6 5 0 39.804285 45.332835 0 60.327829 
5 5 0 32.609821 32.306162 0 45.903034 
4 5 0 26.241005 21.071841 0 33.654313 
3 5 0 20.697836 11.629872 0 23.741406 
2 5 0 15.980316 3.9802545 0 16.468543 
1 5 0 12.088443 -1.8770104 0 12.233299 
0 5 0 9.0222175 -5.9419233 0 10.803095 
-1 5 0 6.7816401 -8.2144841 0 10.652154 
-2 5 0 5.3667104 -8.6946928 0 10.217596 
-3 5 0 4.7774285 -7.3825495 0 8.7935124 
-4 5 0 5.0137944 -4.2780541 0 6.5908938 
-5 5 0 6.075808 0.6187933 0 6.1072373 
-6 5 0 7.9634693 7.3079928 0 10.808497 
-7 5 0 10.676778 15.789544 0 19.060517 
-8 5 0 14.215735 26.063448 0 29.688221 
-9 5 0 18.58034 38.129704 0 42.415838 
-10 5 0 23.770592 51.988311 0 57.164898 
10 4 0 66.831782 110.06943 0 128.77021 
9 4 0 56.985961 90.563402 0 107.00061 
8 4 0 47.965789 72.849727 0 87.222701 
7 4 0 39.771264 56.928404 0 69.444917 
6 4 0 32.402387 42.799432 0 53.681524 
5 4 0 25.859157 30.462813 0 39.958466 
4 4 0 20.141575 19.918546 0 28.327223 
3 4 0 15.249641 11.166631 0 18.900932 
2 4 0 11.183355 4.2070681 0 11.948509 
1 4 0 7.9427168 -0.96014283 0 8.000539 
0 4 0 5.5277261 -4.3350017 0 7.0248128 
-1 4 0 3.9383831 -5.9175085 0 7.1082887 
-2 4 0 3.1746879 -5.7076632 0 6.5311609 
-3 4 0 3.2366405 -3.7054659 0 4.9199918 
-4 4 0 4.1242409 0.089083529 0 4.1252028 
-5 4 0 5.8374889 5.675985 0 8.1420564 
-6 4 0 8.3763848 13.055239 0 15.511385 
-7 4 0 11.740928 22.226844 0 25.137263 
-8 4 0 15.93112 33.190802 0 36.816163 
-9 4 0 20.946959 45.947111 0 50.496655 
-10 4 0 26.788446 60.495773 0 66.161616 
10 3 0 57.597003 104.56578 0 119.3793 
9 3 0 48.402417 85.749809 0 98.467374 
8 3 0 40.033479 68.726188 0 79.535956 
7 3 0 32.490188 53.494919 0 62.588487 
6 3 0 25.772546 40.056001 0 47.63095 
5 3 0 19.880551 28.409436 0 34.674665 
4 3 0 14.814203 18.555223 0 23.743566 
3 3 0 10.573504 10.493362 0 14.896632 
2 3 0 7.1584521 4.2238533 0 8.311701 
1 3 0 4.5690481 -0.25330363 0 4.5760642 
0 3 0 2.8052919 -2.9381085 0 4.0622831 
-1 3 0 1.8671834 -3.8305612 0 4.2614051 
-2 3 0 1.7547227 -2.9306619 0 3.4158207 
-3 3 0 2.4679098 -0.2384106 0 2.4793988 
-4 3 0 4.0067446 4.2461928 0 5.8381637 
-5 3 0 6.3712271 10.523148 0 12.301593 
-6 3 0 9.5613575 18.592456 0 20.906912 
-7 3 0 13.577136 28.454115 0 31.527374 
-8 3 0 18.418561 40.108127 0 44.13508 
-9 3 0 24.085635 53.554491 0 58.721387 
-10 3 0 30.578356 68.793207 0 75.283073 
10 2 0 49.134281 98.852107 0 110.38984 
9 2 0 40.59093 80.726188 0 90.356743 
8 2 0 32.873226 64.392621 0 72.2984 
7 2 0 25.98117 49.851405 0 56.215512 
6 2 0 19.914762 37.102542 0 42.109338 
5 2 0 14.674001 26.146031 0 29.982349 
4 2 0 10.258889 16.981872 0 19.84008 
3 2 0 6.6694235 9.610065 0 11.69763 
2 2 0 3.9056063 4.0306101 0 5.6124485 
1 2 0 1.9674368 0.24350719 0 1.9824488 
0 2 0 0.85491501 -1.7512436 0 1.9487775 
-1 2 0 0.56804102 -1.9536424 0 2.0345489 
-2 2 0 1.1068148 -0.36368908 0 1.1650359 
-3 2 0 2.4712363 3.0186163 0 3.9011605 
-4 2 0 4.6613056 8.1932737 0 9.4264258 
-5 2 0 7.6770226 15.160283 0 16.993259 
-6 2 0 11.518387 23.919645 0 26.548496 
-7 2 0 16.1854 34.471358 0 38.082039 
-8 2 0 21.67806 46.815424 0 51.590912 
-9 2 0 27.996368 60.951842 0 67.074016 
-10 2 0 35.140324 76.880612 0 84.530887 
10 1 0 41.443617 92.928404 0 101.75098 
9 1 0 33.5515 75.492538 0 82.612508 
8 1 0 26.485031 59.849025 0 65.447404 
7 1 0 20.244209 45.997864 0 50.255661 
6 1 0 14.829035 33.939055 0 37.037275 
5 1 0 10.239509 23.672597 0 25.792236 
4 1 0 6.475631 15.198492 0 16.520532 
3 1 0 3.5374004 8.5167394 0 9.2221501 
2 1 0 1.4248177 3.6273385 0 3.8971387 
1 1 0 0.13788263 0.53028962 0 0.54792217 
0 1 0 -0.32340464 -0.77440718 0 0.83922407 
-1 1 0 0.04095584 -0.28675192 0 0.28966194 
-2 1 0 1.2309641 1.9932554 0 2.3427206 
-3 1 0 3.2466201 6.0656148 0 6.8798419 
-4 1 0 6.0879238 11.930326 0 13.393861 
-5 1 0 9.7548753 19.58739 0 21.882034 
-6 1 0 14.247475 29.036805 0 32.34388 
-7 1 0 19.565722 40.278573 0 44.779246 
-8 1 0 25.709616 53.312693 0 59.18807 
-9 1 0 32.679159 68.139164 0 75.570319 
-10 1 0 40.474349 84.757988 0 93.925979 
10 0 0 34.52501 86.794671 0 93.409268 
9 0 0 27.284127 70.04886 0 75.174905 
8 0 0 20.868892 55.095401 0 58.915311 
7 0 0 15.279305 41.934294 0 44.631179 
6 0 0 10.515366 30.565538 0 32.323754 
5 0 0 6.5770745 20.989135 0 21.995493 
4 0 0 3.4644307 13.205084 0 13.651979 
3 0 0 1.1774346 7.2133854 0 7.3088495 
2 0 0 -0.28391369 3.0140385 0 3.0273809 
1 0 0 -0.91961425 0.60704367 0 1.101904 
0 0 0 -0.72966704 -0.0075991089 0 0.72970661 
-1 0 0 0.28592792 1.1701102 0 1.2045383 
-2 0 0 2.1271706 4.1401715 0 4.6546616 
-3 0 0 4.7940611 8.9025849 0 10.111332 
-4 0 0 8.2865993 15.45735 0 17.538455 
-5 0 0 12.604785 23.804468 0 26.935725 
-6 0 0 17.748619 33.943937 0 38.304104 
-7 0 0 23.718101 45.875759 0 51.644299 
-8 0 0 30.51323 59.599933 0 66.956771 
-9 0 0 38.134007 75.116459 0 84.241824 
-10 0 0 46.580432 92.425336 0 103.49966 
10 -1 0 28.37846 80.450911 0 85.309355 
9 -1 0 21.788812 64.395154 0 67.981528 
8 -1 0 16.024812 50.131748 0 52.630664 
7 -1 0 11.086459 37.660695 0 39.258598 
6 -1 0 6.9737541 26.981994 0 27.868643 
5 -1 0 3.686697 18.095645 0 18.467379 
4 -1 0 1.2252876 11.001648 0 11.06967 
3 -1 0 -0.41047395 5.7000031 0 5.7147637 
2 -1 0 -1.2205878 2.1907102 0 2.507797 
1 -1 0 -1.2050539 0.47376934 0 1.2948406 
0 -1 0 -0.36387219 0.54918058 0 0.65878849 
-1 -1 0 1.3029572 2.4169439 0 2.7457814 
-2 -1 0 3.7954344 6.0770592 0 7.1649125 
-3 -1 0 7.1135594 11.529527 0 13.547425 
-4 -1 0 11.257332 18.774346 0 21.890719 
-5 -1 0 16.226753 27.811518 0 32.199193 
-6 -1 0 22.021821 38.641041 0 44.475731 
-7 -1 0 28.642537 51.262917 0 58.72207 
-8 -1 0 36.0889 65.677145 0 74.939283 
-9 -1 0 44.360912 81.883724 0 93.128056 
-10 -1 0 53.458571 99.882656 0 113.28885 
10 -2 0 23.003967 73.897122 0 77.394878 
9 -2 0 17.065554 58.531419 0 60.968517 
8 -2 0 11.952788 44.958068 0 46.519856 
7 -2 0 7.6656697 33.177068 0 34.051143 
6 -2 0 4.2041993 23.188421 0 23.566463 
5 -2 0 1.5683767 14.992126 0 15.07394 
4 -2 0 -0.24179815 8.5881832 0 8.5915864 
3 -2 0 -1.2263253 3.9765923 0 4.1613892 
2 -2 0 -1.3852046 1.1573534 0 1.8050648 
1 -2 0 -0.71843623 0.13046663 0 0.73018639 
0 -2 0 0.77397992 0.89593188 0 1.1839505 
-1 -2 0 3.0920438 3.4537492 0 4.6356357 
-2 -2 0 6.2357555 7.8039186 0 9.9892838 
-3 -2 0 10.205115 13.94644 0 17.281422 
-4 -2 0 15.000122 21.881314 0 26.529145 
-5 -2 0 20.620777 31.608539 0 37.740114 
-6 -2 0 27.06708 43.128117 0 50.918182 
-7 -2 0 34.33903 56.440046 0 66.065481 
-8 -2 0 42.436628 71.544328 0 83.183281 
-9 -2 0 51.359874 88.440962 0 102.27238 
-10 -2 0 61.108768 107.12995 0 123.33332 
10 -3 0 18.401532 67.133305 0 69.609604 
9 -3 0 13.114353 52.457656 0 54.072099 
8 -3 0 8.6528214 39.574358 0 40.509272 
7 -3 0 5.0169378 28.483413 0 28.921869 
6 -3 0 2.2067019 19.18482 0 19.311314 
5 -3 0 0.22211371 11.678579 0 11.680691 
4 -3 0 -0.93682669 5.9646901 0 6.0378119 
3 -3 0 -1.2701193 2.0431532 0 2.4057593 
2 -3 0 -0.77776421 -0.086031678 0 0.78250791 
1 -3 0 0.54023865 -0.42286447 0 0.68605551 
0 -3 0 2.6838893 1.0326548 0 2.8756978 
-1 -3 0 5.6531877 4.2805261 0 7.0909403 
-2 -3 0 9.4481338 9.3207495 0 13.27191 
-3 -3 0 14.068728 16.153325 0 21.420995 
-4 -3 0 19.514969 24.778253 0 31.540384 
-5 -3 0 25.786859 35.195532 0 43.631268 
-6 -3 0 32.884396 47.405164 0 57.694307 
-7 -3 0 40.807581 61.407147 0 73.729888 
-8 -3 0 49.556413 77.201483 0 91.738253 
-9 -3 0 59.130894 94.788171 0 111.71956 
-10 -3 0 69.531022 114.16721 0 133.67391 
10 -4 0 14.571154 60.159459 0 61.898942 
9 -4 0 9.9352092 46.173864 0 47.230648 
8 -4 0 6.1249123 33.980621 0 34.528208 
7 -4 0 3.1402631 23.57973 0 23.787915 
6 -4 0 0.98126164 14.971191 0 15.003314 
5 -4 0 -0.35209204 8.1550035 0 8.1626008 
4 -4 0 -0.85979797 3.1311686 0 3.2470708 
3 -4 0 -0.54185614 -0.10031434 0 0.55106355 
2 -4 0 0.60173345 -1.5394452 0 1.6528686 
1 -4 0 2.5709708 -1.1862239 0 2.8314339 
0 -4 0 5.3658559 0.95934935 0 5.4509413 
-1 -4 0 8.9863887 4.8972747 0 10.234182 
-2 -4 0 13.432569 10.627552 0 17.128304 
-3 -4 0 18.704398 18.150182 0 26.063069 
-4 -4 0 24.801874 27.465163 0 37.006326 
-5 -4 0 31.724998 38.572497 0 49.943097 
-6 -4 0 39.473769 51.472182 0 64.865738 
-7 -4 0 48.048189 66.16422 0 81.769997 
-8 -4 0 57.448256 82.64861 0 100.65334 
-9 -4 0 67.673971 100.92535 0 121.51417 
-10 -4 0 78.725333 120.99445 0 144.35143 
10 -5 0 11.512833 52.975585 0 54.212157 
9 -5 0 7.5281228 39.680044 0 40.387851 
8 -5 0 4.3690603 28.176855 0 28.513573 
7 -5 0 2.0356456 18.466018 0 18.577881 
6 -5 0 0.52787866 10.547533 0 10.560734 
5 -5 0 -0.15424055 4.4213996 0 4.4240891 
4 -5 0 -0.010711997 0.087618641 0 0.088271021 
3 -5 0 0.95846431 -2.4538102 0 2.6343573 
2 -5 0 2.7532884 -3.2028871 0 4.2236338 
1 -5 0 5.3737602 -2.1596118 0 5.7914784 
0 -5 0 8.8198798 0.6760155 0 8.845749 
-1 -5 0 13.091647 5.3039949 0 14.125282 
-2 -5 0 18.189062 11.724326 0 21.640282 
-3 -5 0 24.112125 19.93701 0 31.287041 
-4 -5 0 30.860836 29.942045 0 42.999038 
-5 -5 0 38.435194 41.739433 0 56.740148 
-6 -5 0 46.8352 55.329173 0 72.490367 
-7 -5 0 56.060854 70.711264 0 90.238031 
-8 -5 0 66.112156 87.885708 0 109.97597 
-9 -5 0 76.989105 106.8525 0 131.69958 
-10 -5 0 88.691702 127.61165 0 155.40576 
10 -6 0 9.2265694 45.581683 0 46.506122 
9 -6 0 5.8930937 32.976196 0 33.498627 
8 -6 0 3.3852657 22.16306 0 22.420109 
7 -6 0 1.7030854 13.142277 0 13.252168 
6 -6 0 0.84655293 5.9138462 0 5.97413 
5 -6 0 0.8156682 0.47776727 0 0.94529158 
4 -6 0 1.6104312 -3.1659597 0 3.552012 
3 -6 0 3.230842 -5.0173345 0 5.9675779 
2 -6 0 5.6769005 -5.0763573 0 7.6155501 
1 -6 0 8.9486068 -3.343028 0 9.5526646 
0 -6 0 13.045961 0.18265328 0 13.047239 
-1 -6 0 17.968963 5.5006867 0 18.792051 
-2 -6 0 23.717612 12.611072 0 26.861948 
-3 -6 0 30.29191 21.51381 0 37.154324 
-4 -6 0 37.691855 32.208899 0 49.57912 
-5 -6 0 45.917447 44.696341 0 64.079442 
-6 -6 0 54.968688 58.976135 0 80.620972 
-7 -6 0 64.845576 75.04828 0 99.182625 
-8 -6 0 75.548112 92.912778 0 119.751 
-9 -6 0 87.076296 112.56963 0 142.31726 
-10 -6 0 99.430128 134.01883 0 166.87539 
10 -7 0 7.712363 37.977752 0 38.752938 
9 -7 0 5.0301218 26.062319 0 26.543296 
8 -7 0 3.1735282 15.939238 0 16.252095 
7 -7 0 2.1425825 7.6085086 0 7.9044331 
6 -7 0 1.9372845 1.0701315 0 2.2131996 
5 -7 0 2.5576342 -3.6758934 0 4.4781341 
4 -7 0 4.0036317 -6.6295663 0 7.7446896 
3 -7 0 6.275277 -7.7908872 0 10.00385 
2 -7 0 9.37257 -7.159856 0 11.794431 
1 -7 0 13.295511 -4.7364727 0 14.113992 
0 -7 0 18.044099 -0.52073733 0 18.051612 
-1 -7 0 23.618336 5.4873501 0 24.247408 
-2 -7 0 30.01822 13.28779 0 32.827715 
-3 -7 0 37.243751 22.880581 0 43.710617 
-4 -7 0 45.294931 34.265725 0 56.795868 
-5 -7 0 54.171758 47.44322 0 72.009989 
-6 -7 0 63.874233 62.413068 0 89.304584 
-7 -7 0 74.402356 79.175268 0 108.64821 
-8 -7 0 85.756127 97.72982 0 130.02012 
-9 -7 0 97.935545 118.07672 0 153.40627 
-10 -7 0 110.94061 140.21598 0 178.79692 
10 -8 0 6.9702139 30.163793 0 30.958654 
9 -8 0 4.9392071 18.938414 0 19.5719 
8 -8 0 3.7338481 9.5053865 0 10.212443 
7 -8 0 3.3541368 1.8647114 0 3.8376272 
6 -8 0 3.8000732 -3.9836116 0 5.5054262 
5 -8 0 5.0716575 -8.0395825 0 9.5056087 
4 -8 0 7.1688894 -10.303201 0 12.55185 
3 -8 0 10.091769 -10.774468 0 14.762553 
2 -8 0 13.840297 -9.453383 0 16.760676 
1 -8 0 18.414472 -6.3399457 0 19.47531 
0 -8 0 23.814295 -1.4341563 0 23.85744 
-1 -8 0 30.039766 5.2639851 0 30.497493 
-2 -8 0 37.090884 13.754479 0 39.559062 
-3 -8 0 44.96765 24.037324 0 50.989043 
-4 -8 0 53.670064 36.112522 0 64.688407 
-5 -8 0 63.198126 49.980071 0 80.573015 
-6 -8 0 73.551836 65.639973 0 98.582344 
-7 -8 0 84.731193 83.092227 0 118.67474 
-8 -8 0 96.736198 102.33683 0 140.82159 
-9 -8 0 109.56685 123.37379 0 165.00299 
-10 -8 0 123.22315 146.2031 0 191.20484 
10 -9 0 7.0001221 22.139805 0 23.220092 
9 -9 0 5.6203497 11.60448 0 12.893886 
8 -9 0 5.0662252 2.861507 0 5.8184929 
7 -9 0 5.3377483 -4.089114 0 6.7240175 
6 -9 0 6.4349193 -9.247383 0 11.265979 
5 -9 0 8.357738 -12.6133 0 15.130999 
4 -9 0 11.106204 -14.186865 0 18.017073 
3 -9 0 14.680319 -13.968078 0 20.263735 
2 -9 0 19.080081 -11.956938 0 22.517057 
1 -9 0 24.30549 -8.1534471 0 25.636606 
0 -9 0 30.356548 -2.5576037 0 30.464099 
-1 -9 0 37.233253 4.8305918 0 37.545303 
-2 -9 0 44.935606 14.011139 0 47.069318 
-3 -9 0 53.463607 24.984039 0 59.013214 
-4 -9 0 62.817255 37.74929 0 73.287219 
-5 -9 0 72.996551 52.306894 0 89.802604 
-6 -9 0 84.001495 68.65685 0 108.4897 
-7 -9 0 95.832087 86.799158 0 129.29765 
-8 -9 0 108.48833 106.73382 0 152.19009 
-9 -9 0 121.97021 128.46083 0 177.14095 
-10 -9 0 136.27775 151.98019 0 204.13134 
10 -10 0 7.8020875 13.905789 0 15.945016 
9 -10 0 7.0735496 4.0605182 0 8.1561579 
8 -10 0 7.1706595 -3.9924009 0 8.207169 
7 -10 0 8.0934172 -10.252968 0 13.062418 
6 -10 0 9.8418226 -14.721183 0 17.70804 
5 -10 0 12.415876 -17.397046 0 21.373141 
4 -10 0 15.815577 -18.280557 0 24.17253 
3 -10 0 20.040925 -17.371715 0 26.521976 
2 -10 0 25.091922 -14.670522 0 29.065938 
1 -10 0 30.968566 -10.176977 0 32.597898 
0 -10 0 37.670858 -3.8910794 0 37.871282 
-1 -10 0 45.198798 4.18717 0 45.392331 
-2 -10 0 53.552385 14.057772 0 55.366767 
-3 -10 0 62.73162 25.720725 0 67.799793 
-4 -10 0 72.736503 39.176031 0 82.615739 
-5 -10 0 83.567034 54.423688 0 99.726561 
-6 -10 0 95.223212 71.463698 0 119.05679 
-7 -10 0 107.70504 90.29606 0 140.54805 
-8 -10 0 121.01251 110.92077 0 164.15677 
-9 -10 0 135.14563 133.33784 0 189.85079 
-10 -10 0 150.1044 157.54726 0 217.60623 
4 0 1 22 21 
4 1 2 23 22 
4 2 3 24 23 
4 3 4 25 24 
4 4 5 26 25 
4 5 6 27 26 
4 6 7 28 27 
4 7 8 29 28 
4 8 9 30 29 
4 9 10 31 30 
4 10 11 32 31 
4 11 12 33 32 
4 12 13 34 33 
4 13 14 35 34 
4 14 15 36 35 
4 15 16 37 36 
4 16 17 38 37 
4 17 18 39 38 
4 18 19 40 39 
4 19 20 41 40 
4 21 22 43 42 
4 22 23 44 43 
4 23 24 45 44 
4 24 25 46 45 
4 25 26 47 46 
4 26 27 48 47 
4 27 28 49 48 
4 28 29 50 49 
4 29 30 51 50 
4 30 31 52 51 
4 31 32 53 52 
4 32 33 54 53 
4 33 34 55 54 
4 34 35 56 55 
4 35 36 57 56 
4 36 37 58 57 
4 37 38 59 58 
4 38 39 60 59 
4 39 40 61 60 
4 40 41 62 61 
4 42 43 64 63 
4 43 44 65 64 
4 44 45 66 65 
4 45 46 67 66 
4 46 47 68 67 
4 47 48 69 68 
4 48 49 70 69 
4 49 50 71 70 
4 50 51 72 71 
4 51 52 73 72 
4 52 53 74 73 
4 53 54 75 74 
4 54 55 76 75 
4 55 56 77 76 
4 56 57 78 77 
4 57 58 79 78 
4 58 59 80 79 
4 59 60 81 80 
4 60 61 82 81 
4 61 62 83 82 
4 63 64 85 84 
4 64 65 86 85 
4 65 66 87 86 
4 66 67 88 87 
4 67 68 89 88 
4 68 69 90 89 
4 69 70 91 90 
4 70 71 92 91 
4 71 72 93 92 
4 72 73 94 93 
4 73 74 95 94 
4 74 75 96 95 
4 75 76 97 96 
4 76 77 98 97 
4 77 78 99 98 
4 78 79 100 99 
4 79 80 101 100 
4 80 81 102 101 
4 81 82 103 102 
4 82 83 104 103 
4 84 85 106 105 
4 85 86 107 106 
4 86 87 108 107 
4 87 88 109 108 
4 88 89 110 109 
4 89 90 111 110 
4 90 91 112 111 
4 91 92 113 112 
4 92 93 114 113 
4 93 94 115 114 
4 94 95 116 115 
4 95 96 117 116 
4 96 97 118 117 
4 97 98 119 118 
4 98 99 120 119 
4 99 100 121 120 
4 100 101 122 121 
4 101 102 123 122 
4 102 103 124 123 
4 103 104 125 124 
4 105 106 127 126 
4 106 107 128 127 
4 107 108 129 128 
4 108 109 130 129 
4 109 110 131 130 
4 110 111 132 131 
4 111 112 133 132 
4 112 113 134 133 
4 113 114 135 134 
4 114 115 136 135 
4 115 116 137 136 
4 116 117 138 137 
4 117 118 139 138 
4 118 119 140 139 
4 119 120 141 140 
4 120 121 142 141 
4 121 122 143 142 
4 122 123 144 143 
4 123 124 145 144 
4 124 125 146 145 
4 126 127 148 147 
4 127 128 149 148 
4 128 129 150 149 
4 129 130 151 150 
4 130 131 152 151 
4 131 132 153 152 
4 132 133 154 153 
4 133 134 155 154 
4 134 135 156 155 
4 135 136 157 156 
4 136 137 158 157 
4 137 138 159 158 
4 138 139 160 159 
4 139 140 161 160 
4 140 141 162 161 
4 141 142 163 162 
4 142 143 164 163 
4 143 144 165 164 
4 144 145 166 165 
4 145 146 167 166 
4 147 148 169 168 
4 148 149 170 169 
4 149 150 171 170 
4 150 151 172 171 
4 151 152 173 172 
4 152 153 174 173 
4 153 154 175 174 
4 154 155 176 175 
4 155 156 177 176 
4 156 157 178 177 
4 157 158 179 178 
4 158 159 180 179 
4 159 160 181 180 
4 160 161 182 181 
4 161 162 183 182 
4 162 163 184 183 
4 163 164 185 184 
4 164 165 186 185 
4 165 166 187 186 
4 166 167 188 187 
4 168 169 190 189 
4 169 170 191 190 
4 170 171 192 191 
4 171 172 193 192 
4 172 173 194 193 
4 173 174 195 194 
4 174 175 196 195 
4 175 176 197 196 
4 176 177 198 197 
4 177 178 199 198 
4 178 179 200 199 
4 179 180 201 200 
4 180 181 202 201 
4 181 182 203 202 
4 182 183 204 203 
4 183 184 205 204 
4 184 185 206 205 
4 185 186 207 206 
4 186 187 208 207 
4 187 188 209 208 
4 189 190 211 210 
4 190 191 212 211 
4 191 192 213 212 
4 192 193 214 213 
4 193 194 215 214 
4 194 195 216 215 
4 195 196 217 216 
4 196 197 218 217 
4 197 198 219 218 
4 198 199 220 219 
4 199 200 221 220 
4 200 201 222 221 
4 201 202 223 222 
4 202 203 224 223 
4 203 204 225 224 
4 204 205 226 225 
4 205 206 227 226 
4 206 207 228 227 
4 207 208 229 228 
4 208 209 230 229 
4 210 211 232 231 
4 211 212 233 232 
4 212 213 234 233 
4 213 214 235 234 
4 214 215 236 235 
4 215 216 237 236 
4 216 217 238 237 
4 217 218 239 238 
4 218 219 240 239 
4 219 220 241 240 
4 220 221 242 241 
4 221 222 243 242 
4 222 223 244 243 
4 223 224 245 244 
4 224 225 246 245 
4 225 226 247 246 
4 226 227 248 247 
4 227 228 249 248 
4 228 229 250 249 
4 229 230 251 250 
4 231 232 253 252 
4 232 233 254 253 
4 233 234 255 254 
4 234 235 256 255 
4 235 236 257 256 
4 236 237 258 257 
4 237 238 259 258 
4 238 239 260 259 
4 239 240 261 260 
4 240 241 262 261 
4 241 242 263 262 
4 242 243 264 263 
4 243 244 265 264 
4 244 245 266 265 
4 245 246 267 266 
4 246 247 268 267 
4 247 248 269 268 
4 248 249 270 269 
4 249 250 271 270 
4 250 251 272 271 
4 252 253 274 273 
4 253 254 275 274 
4 254 255 276 275 
4 255 256 277 276 
4 256 257 278 277 
4 257 258 279 278 
4 258 259 280 279 
4 259 260 281 280 
4 260 261 282 281 
4 261 262 283 282 
4 262 263 284 283 
4 263 264 285 284 
4 264 265 286 285 
4 265 266 287 286 
4 266 267 288 287 
4 267 268 289 288 
4 268 269 290 289 
4 269 270 291 290 
4 270 271 292 291 
4 271 272 293 292 
4 273 274 295 294 
4 274 275 296 295 
4 275 276 297 296 
4 276 277 298 297 
4 277 278 299 298 
4 278 279 300 299 
4 279 280 301 300 
4 280 281 302 301 
4 281 282 303 302 
4 282 283 304 303 
4 283 284 305 304 
4 284 285 306 305 
4 285 286 307 306 
4 286 287 308 307 
4 287 288 309 308 
4 288 289 310 309 
4 289 290 311 310 
4 290 291 312 311 
4 291 292 313 312 
4 292 293 314 313 
4 294 295 316 315 
4 295 296 317 316 
4 296 297 318 317 
4 297 298 319 318 
4 298 299 320 319 
4 299 300 321 320 
4 300 301 322 321 
4 301 302 323 322 
4 302 303 324 323 
4 303 304 325 324 
4 304 305 326 325 
4 305 306 327 326 
4 306 307 328 327 
4 307 308 329 328 
4 308 309 330 329 
4 309 310 331 330 
4 310 311 332 331 
4 311 312 333 332 
4 312 313 334 333 
4 313 314 335 334 
4 315 316 337 336 
4 316 317 338 337 
4 317 318 339 338 
4 318 319 340 339 
4 319 320 341 340 
4 320 321 342 341 
4 321 322 343 342 
4 322 323 344 343 
4 323 324 345 344 
4 324 325 346 345 
4 325 326 347 346 
4 326 327 348 347 
4 327 328 349 348 
4 328 329 350 349 
4 329 330 351 350 
4 330 331 352 351 
4 331 332 353 352 
4 332 333 354 353 
4 333 334 355 354 
4 334 335 356 355 
4 336 337 358 357 
4 337 338 359 358 
4 338 339 360 359 
4 339 340 361 360 
4 340 341 362 361 
4 341 342 363 362 
4 342 343 364 363 
4 343 344 365 364 
4 344 345 366 365 
4 345 346 367 366 
4 346 347 368 367 
4 347 348 369 368 
4 348 349 370 369 
4 349 350 371 370 
4 350 351 372 371 
4 351 352 373 372 
4 352 353 374 373 
4 353 354 375 374 
4 354 355 376 375 
4 355 356 377 376 
4 357 358 379 378 
4 358 359 380 379 
4 359 360 381 380 
4 360 361 382 381 
4 361 362 383 382 
4 362 363 384 383 
4 363 364 385 384 
4 364 365 386 385 
4 365 366 387 386 
4 366 367 388 387 
4 367 368 389 388 
4 368 369 390 389 
4 369 370 391 390 
4 370 371 392 391 
4 371 372 393 392 
4 372 373 394 393 
4 373 374 395 394 
4 374 375 396 395 
4 375 376 397 396 
4 376 377 398 397 
4 378 379 400 399 
4 379 380 401 400 
4 380 381 402 401 
4 381 382 403 402 
4 382 383 404 403 
4 383 384 405 404 
4 384 385 406 405 
4 385 386 407 406 
4 386 387 408 407 
4 387 388 409 408 
4 388 389 410 409 
4 389 390 411 410 
4 390 391 412 411 
4 391 392 413 412 
4 392 393 414 413 
4 393 394 415 414 
4 394 395 416 415 
4 395 396 417 416 
4 396 397 418 417 
4 397 398 419 418 
4 399 400 421 420 
4 400 401 422 421 
4 401 402 423 422 
4 402 403 424 423 
4 403 404 425 424 
4 404 405 426 425 
4 405 406 427 426 
4 406 407 428 427 
4 407 408 429 428 
4 408 409 430 429 
4 409 410 431 430 
4 410 411 432 431 
4 411 412 433 432 
4 412 413 434 433 
4 413 414 435 434 
4 414 415 436 435 
4 415 416 437 436 
4 416 417 438 437 
4 417 418 439 438 
4 418 419 440 439 
